solid OpenSCAD_Model
  facet normal 0.705162 0.0741141 0.705162
    outer loop
      vertex 15 0 0
      vertex 4.89074 1.03956 10
      vertex 5 0 10
    endloop
  endfacet
  facet normal 0.705162 0.0741186 0.705162
    outer loop
      vertex 4.89074 1.03956 10
      vertex 15 0 0
      vertex 14.6722 3.11868 0
    endloop
  endfacet
  facet normal -0.674342 -0.219108 0.705163
    outer loop
      vertex -4.89074 -1.03956 10
      vertex -13.7032 -6.10105 0
      vertex -4.56773 -2.03368 10
    endloop
  endfacet
  facet normal -0.674345 -0.219101 0.705162
    outer loop
      vertex -13.7032 -6.10105 0
      vertex -4.89074 -1.03956 10
      vertex -14.6722 -3.11868 0
    endloop
  endfacet
  facet normal -0.147422 0.693552 0.705161
    outer loop
      vertex -1.56793 14.9178 0
      vertex -1.54508 4.75528 10
      vertex -0.522642 4.97261 10
    endloop
  endfacet
  facet normal -0.147424 0.693552 0.705161
    outer loop
      vertex -1.54508 4.75528 10
      vertex -1.56793 14.9178 0
      vertex -4.63525 14.2658 0
    endloop
  endfacet
  facet normal 0.147424 -0.693552 0.705161
    outer loop
      vertex 1.54508 -4.75528 10
      vertex 1.56793 -14.9178 0
      vertex 4.63525 -14.2658 0
    endloop
  endfacet
  facet normal 0.147422 -0.693552 0.705161
    outer loop
      vertex 1.56793 -14.9178 0
      vertex 1.54508 -4.75528 10
      vertex 0.522642 -4.97261 10
    endloop
  endfacet
  facet normal -0.526921 0.474445 0.705164
    outer loop
      vertex -10.037 11.1472 0
      vertex -4.04508 2.93893 10
      vertex -3.34565 3.71572 10
    endloop
  endfacet
  facet normal -0.526925 0.474441 0.705163
    outer loop
      vertex -4.04508 2.93893 10
      vertex -10.037 11.1472 0
      vertex -12.1353 8.81678 0
    endloop
  endfacet
  facet normal 0.41676 0.573633 0.705163
    outer loop
      vertex 7.5 12.9904 0
      vertex 3.34565 3.71572 10
      vertex 10.037 11.1472 0
    endloop
  endfacet
  facet normal 0.416771 0.573627 0.705162
    outer loop
      vertex 3.34565 3.71572 10
      vertex 7.5 12.9904 0
      vertex 2.5 4.33013 10
    endloop
  endfacet
  facet normal -0.288391 -0.647749 0.705161
    outer loop
      vertex -2.5 -4.33013 10
      vertex -4.63525 -14.2658 0
      vertex -1.54508 -4.75528 10
    endloop
  endfacet
  facet normal -0.288382 -0.647752 0.705162
    outer loop
      vertex -4.63525 -14.2658 0
      vertex -2.5 -4.33013 10
      vertex -7.5 -12.9904 0
    endloop
  endfacet
  facet normal 0.614054 -0.354518 0.705163
    outer loop
      vertex 4.56773 -2.03368 10
      vertex 12.1353 -8.81678 0
      vertex 13.7032 -6.10105 0
    endloop
  endfacet
  facet normal 0.61405 -0.354524 0.705164
    outer loop
      vertex 12.1353 -8.81678 0
      vertex 4.56773 -2.03368 10
      vertex 4.04508 -2.93893 10
    endloop
  endfacet
  facet normal -0.288391 0.647749 0.705161
    outer loop
      vertex -4.63525 14.2658 0
      vertex -2.5 4.33013 10
      vertex -1.54508 4.75528 10
    endloop
  endfacet
  facet normal -0.288382 0.647752 0.705162
    outer loop
      vertex -2.5 4.33013 10
      vertex -4.63525 14.2658 0
      vertex -7.5 12.9904 0
    endloop
  endfacet
  facet normal -0.674342 0.219108 0.705163
    outer loop
      vertex -13.7032 6.10105 0
      vertex -4.89074 1.03956 10
      vertex -4.56773 2.03368 10
    endloop
  endfacet
  facet normal -0.674345 0.219101 0.705162
    outer loop
      vertex -4.89074 1.03956 10
      vertex -13.7032 6.10105 0
      vertex -14.6722 3.11868 0
    endloop
  endfacet
  facet normal 0.147424 0.693552 0.705161
    outer loop
      vertex 1.56793 14.9178 0
      vertex 1.54508 4.75528 10
      vertex 4.63525 14.2658 0
    endloop
  endfacet
  facet normal 0.147422 0.693552 0.705161
    outer loop
      vertex 1.54508 4.75528 10
      vertex 1.56793 14.9178 0
      vertex 0.522642 4.97261 10
    endloop
  endfacet
  facet normal 0.526925 0.474441 0.705163
    outer loop
      vertex 10.037 11.1472 0
      vertex 4.04508 2.93893 10
      vertex 12.1353 8.81678 0
    endloop
  endfacet
  facet normal 0.526921 0.474445 0.705164
    outer loop
      vertex 4.04508 2.93893 10
      vertex 10.037 11.1472 0
      vertex 3.34565 3.71572 10
    endloop
  endfacet
  facet normal -0.147422 -0.693552 0.705161
    outer loop
      vertex -1.54508 -4.75528 10
      vertex -1.56793 -14.9178 0
      vertex -0.522642 -4.97261 10
    endloop
  endfacet
  facet normal -0.147424 -0.693552 0.705161
    outer loop
      vertex -1.56793 -14.9178 0
      vertex -1.54508 -4.75528 10
      vertex -4.63525 -14.2658 0
    endloop
  endfacet
  facet normal -0.416771 0.573627 0.705162
    outer loop
      vertex -7.5 12.9904 0
      vertex -3.34565 3.71572 10
      vertex -2.5 4.33013 10
    endloop
  endfacet
  facet normal -0.41676 0.573633 0.705163
    outer loop
      vertex -3.34565 3.71572 10
      vertex -7.5 12.9904 0
      vertex -10.037 11.1472 0
    endloop
  endfacet
  facet normal -0.61405 0.354524 0.705164
    outer loop
      vertex -12.1353 8.81678 0
      vertex -4.56773 2.03368 10
      vertex -4.04508 2.93893 10
    endloop
  endfacet
  facet normal -0.614054 0.354518 0.705163
    outer loop
      vertex -4.56773 2.03368 10
      vertex -12.1353 8.81678 0
      vertex -13.7032 6.10105 0
    endloop
  endfacet
  facet normal -0.705162 0.0741186 0.705162
    outer loop
      vertex -15 0 0
      vertex -4.89074 1.03956 10
      vertex -14.6722 3.11868 0
    endloop
  endfacet
  facet normal -0.705162 0.0741141 0.705162
    outer loop
      vertex -4.89074 1.03956 10
      vertex -15 0 0
      vertex -5 0 10
    endloop
  endfacet
  facet normal 0.288382 0.647752 0.705162
    outer loop
      vertex 4.63525 14.2658 0
      vertex 2.5 4.33013 10
      vertex 7.5 12.9904 0
    endloop
  endfacet
  facet normal 0.288391 0.647749 0.705161
    outer loop
      vertex 2.5 4.33013 10
      vertex 4.63525 14.2658 0
      vertex 1.54508 4.75528 10
    endloop
  endfacet
  facet normal 0 0.709047 0.705161
    outer loop
      vertex 1.56793 14.9178 0
      vertex -0.522642 4.97261 10
      vertex 0.522642 4.97261 10
    endloop
  endfacet
  facet normal 0 0.709047 0.705161
    outer loop
      vertex -0.522642 4.97261 10
      vertex 1.56793 14.9178 0
      vertex -1.56793 14.9178 0
    endloop
  endfacet
  facet normal 0.614054 0.354518 0.705163
    outer loop
      vertex 12.1353 8.81678 0
      vertex 4.56773 2.03368 10
      vertex 13.7032 6.10105 0
    endloop
  endfacet
  facet normal 0.61405 0.354524 0.705164
    outer loop
      vertex 4.56773 2.03368 10
      vertex 12.1353 8.81678 0
      vertex 4.04508 2.93893 10
    endloop
  endfacet
  facet normal 0.674345 0.219101 0.705162
    outer loop
      vertex 13.7032 6.10105 0
      vertex 4.89074 1.03956 10
      vertex 14.6722 3.11868 0
    endloop
  endfacet
  facet normal 0.674342 0.219108 0.705163
    outer loop
      vertex 4.89074 1.03956 10
      vertex 13.7032 6.10105 0
      vertex 4.56773 2.03368 10
    endloop
  endfacet
  facet normal -0.705162 -0.0741141 0.705162
    outer loop
      vertex -15 0 0
      vertex -4.89074 -1.03956 10
      vertex -5 0 10
    endloop
  endfacet
  facet normal -0.705162 -0.0741186 0.705162
    outer loop
      vertex -4.89074 -1.03956 10
      vertex -15 0 0
      vertex -14.6722 -3.11868 0
    endloop
  endfacet
  facet normal 0 0 -1
    outer loop
      vertex 14.5 0 0
      vertex 15 0 0
      vertex 14.6722 -3.11868 0
    endloop
  endfacet
  facet normal 0 0 -1
    outer loop
      vertex 15 0 0
      vertex 14.5 0 0
      vertex 14.6722 3.11868 0
    endloop
  endfacet
  facet normal 0 0 -1
    outer loop
      vertex 14.6722 -3.11868 0
      vertex 14.1831 -3.01472 0
      vertex 14.5 0 0
    endloop
  endfacet
  facet normal 0 0 -1
    outer loop
      vertex 13.7032 -6.10105 0
      vertex 14.1831 -3.01472 0
      vertex 14.6722 -3.11868 0
    endloop
  endfacet
  facet normal 0 0 -1
    outer loop
      vertex 13.7032 -6.10105 0
      vertex 13.2464 -5.89768 0
      vertex 14.1831 -3.01472 0
    endloop
  endfacet
  facet normal 0 0 -1
    outer loop
      vertex 12.1353 -8.81678 0
      vertex 13.2464 -5.89768 0
      vertex 13.7032 -6.10105 0
    endloop
  endfacet
  facet normal 0 0 -1
    outer loop
      vertex 12.1353 -8.81678 0
      vertex 11.7307 -8.52289 0
      vertex 13.2464 -5.89768 0
    endloop
  endfacet
  facet normal 0 0 -1
    outer loop
      vertex 10.037 -11.1472 0
      vertex 11.7307 -8.52289 0
      vertex 12.1353 -8.81678 0
    endloop
  endfacet
  facet normal 0 0 -1
    outer loop
      vertex 10.037 -11.1472 0
      vertex 9.70239 -10.7756 0
      vertex 11.7307 -8.52289 0
    endloop
  endfacet
  facet normal 0 0 -1
    outer loop
      vertex 7.5 -12.9904 0
      vertex 9.70239 -10.7756 0
      vertex 10.037 -11.1472 0
    endloop
  endfacet
  facet normal 0 0 -1
    outer loop
      vertex 7.5 -12.9904 0
      vertex 7.25 -12.5574 0
      vertex 9.70239 -10.7756 0
    endloop
  endfacet
  facet normal 0 0 -1
    outer loop
      vertex 4.63525 -14.2658 0
      vertex 7.25 -12.5574 0
      vertex 7.5 -12.9904 0
    endloop
  endfacet
  facet normal 0 0 -1
    outer loop
      vertex 4.63525 -14.2658 0
      vertex 4.48075 -13.7903 0
      vertex 7.25 -12.5574 0
    endloop
  endfacet
  facet normal 0 0 -1
    outer loop
      vertex 1.56793 -14.9178 0
      vertex 4.48075 -13.7903 0
      vertex 4.63525 -14.2658 0
    endloop
  endfacet
  facet normal 0 0 -1
    outer loop
      vertex 1.56793 -14.9178 0
      vertex 1.51566 -14.4206 0
      vertex 4.48075 -13.7903 0
    endloop
  endfacet
  facet normal 0 0 -1
    outer loop
      vertex 1.56793 -14.9178 0
      vertex -1.51566 -14.4206 0
      vertex 1.51566 -14.4206 0
    endloop
  endfacet
  facet normal 0 0 -1
    outer loop
      vertex -1.56793 -14.9178 0
      vertex -1.51566 -14.4206 0
      vertex 1.56793 -14.9178 0
    endloop
  endfacet
  facet normal 0 0 -1
    outer loop
      vertex -1.56793 -14.9178 0
      vertex -4.48075 -13.7903 0
      vertex -1.51566 -14.4206 0
    endloop
  endfacet
  facet normal 0 0 -1
    outer loop
      vertex -4.63525 -14.2658 0
      vertex -4.48075 -13.7903 0
      vertex -1.56793 -14.9178 0
    endloop
  endfacet
  facet normal 0 0 -1
    outer loop
      vertex -4.63525 -14.2658 0
      vertex -7.25 -12.5574 0
      vertex -4.48075 -13.7903 0
    endloop
  endfacet
  facet normal 0 0 -1
    outer loop
      vertex -7.5 -12.9904 0
      vertex -7.25 -12.5574 0
      vertex -4.63525 -14.2658 0
    endloop
  endfacet
  facet normal 0 0 -1
    outer loop
      vertex -7.5 -12.9904 0
      vertex -9.70239 -10.7756 0
      vertex -7.25 -12.5574 0
    endloop
  endfacet
  facet normal 0 0 -1
    outer loop
      vertex -10.037 -11.1472 0
      vertex -9.70239 -10.7756 0
      vertex -7.5 -12.9904 0
    endloop
  endfacet
  facet normal 0 0 -1
    outer loop
      vertex -10.037 -11.1472 0
      vertex -11.7307 -8.52289 0
      vertex -9.70239 -10.7756 0
    endloop
  endfacet
  facet normal 0 0 -1
    outer loop
      vertex -12.1353 -8.81678 0
      vertex -11.7307 -8.52289 0
      vertex -10.037 -11.1472 0
    endloop
  endfacet
  facet normal 0 0 -1
    outer loop
      vertex -12.1353 -8.81678 0
      vertex -13.2464 -5.89768 0
      vertex -11.7307 -8.52289 0
    endloop
  endfacet
  facet normal 0 0 -1
    outer loop
      vertex -13.7032 -6.10105 0
      vertex -13.2464 -5.89768 0
      vertex -12.1353 -8.81678 0
    endloop
  endfacet
  facet normal 0 0 -1
    outer loop
      vertex -13.7032 -6.10105 0
      vertex -14.1831 -3.01472 0
      vertex -13.2464 -5.89768 0
    endloop
  endfacet
  facet normal -0 0 -1
    outer loop
      vertex -14.1831 -3.01472 0
      vertex -14.6722 -3.11868 0
      vertex -14.5 0 0
    endloop
  endfacet
  facet normal 0 0 -1
    outer loop
      vertex -14.6722 -3.11868 0
      vertex -14.1831 -3.01472 0
      vertex -13.7032 -6.10105 0
    endloop
  endfacet
  facet normal 0 0 -1
    outer loop
      vertex 14.1831 3.01472 0
      vertex 14.6722 3.11868 0
      vertex 14.5 0 0
    endloop
  endfacet
  facet normal 0 0 -1
    outer loop
      vertex 14.1831 3.01472 0
      vertex 13.7032 6.10105 0
      vertex 14.6722 3.11868 0
    endloop
  endfacet
  facet normal 0 0 -1
    outer loop
      vertex 13.2464 5.89768 0
      vertex 13.7032 6.10105 0
      vertex 14.1831 3.01472 0
    endloop
  endfacet
  facet normal 0 0 -1
    outer loop
      vertex 13.2464 5.89768 0
      vertex 12.1353 8.81678 0
      vertex 13.7032 6.10105 0
    endloop
  endfacet
  facet normal 0 0 -1
    outer loop
      vertex 11.7307 8.52289 0
      vertex 12.1353 8.81678 0
      vertex 13.2464 5.89768 0
    endloop
  endfacet
  facet normal 0 0 -1
    outer loop
      vertex 11.7307 8.52289 0
      vertex 10.037 11.1472 0
      vertex 12.1353 8.81678 0
    endloop
  endfacet
  facet normal 0 0 -1
    outer loop
      vertex 9.70239 10.7756 0
      vertex 10.037 11.1472 0
      vertex 11.7307 8.52289 0
    endloop
  endfacet
  facet normal 0 0 -1
    outer loop
      vertex 9.70239 10.7756 0
      vertex 7.5 12.9904 0
      vertex 10.037 11.1472 0
    endloop
  endfacet
  facet normal 0 0 -1
    outer loop
      vertex 7.25 12.5574 0
      vertex 7.5 12.9904 0
      vertex 9.70239 10.7756 0
    endloop
  endfacet
  facet normal 0 0 -1
    outer loop
      vertex 7.25 12.5574 0
      vertex 4.63525 14.2658 0
      vertex 7.5 12.9904 0
    endloop
  endfacet
  facet normal 0 0 -1
    outer loop
      vertex 4.48075 13.7903 0
      vertex 4.63525 14.2658 0
      vertex 7.25 12.5574 0
    endloop
  endfacet
  facet normal 0 0 -1
    outer loop
      vertex 4.48075 13.7903 0
      vertex 1.56793 14.9178 0
      vertex 4.63525 14.2658 0
    endloop
  endfacet
  facet normal 0 0 -1
    outer loop
      vertex 1.51566 14.4206 0
      vertex 1.56793 14.9178 0
      vertex 4.48075 13.7903 0
    endloop
  endfacet
  facet normal 0 0 -1
    outer loop
      vertex -1.51566 14.4206 0
      vertex 1.56793 14.9178 0
      vertex 1.51566 14.4206 0
    endloop
  endfacet
  facet normal 0 0 -1
    outer loop
      vertex -1.51566 14.4206 0
      vertex -1.56793 14.9178 0
      vertex 1.56793 14.9178 0
    endloop
  endfacet
  facet normal 0 0 -1
    outer loop
      vertex -4.48075 13.7903 0
      vertex -1.56793 14.9178 0
      vertex -1.51566 14.4206 0
    endloop
  endfacet
  facet normal 0 0 -1
    outer loop
      vertex -4.48075 13.7903 0
      vertex -4.63525 14.2658 0
      vertex -1.56793 14.9178 0
    endloop
  endfacet
  facet normal 0 0 -1
    outer loop
      vertex -7.25 12.5574 0
      vertex -4.63525 14.2658 0
      vertex -4.48075 13.7903 0
    endloop
  endfacet
  facet normal 0 0 -1
    outer loop
      vertex -7.25 12.5574 0
      vertex -7.5 12.9904 0
      vertex -4.63525 14.2658 0
    endloop
  endfacet
  facet normal 0 0 -1
    outer loop
      vertex -9.70239 10.7756 0
      vertex -7.5 12.9904 0
      vertex -7.25 12.5574 0
    endloop
  endfacet
  facet normal 0 0 -1
    outer loop
      vertex -9.70239 10.7756 0
      vertex -10.037 11.1472 0
      vertex -7.5 12.9904 0
    endloop
  endfacet
  facet normal 0 0 -1
    outer loop
      vertex -11.7307 8.52289 0
      vertex -10.037 11.1472 0
      vertex -9.70239 10.7756 0
    endloop
  endfacet
  facet normal 0 0 -1
    outer loop
      vertex -11.7307 8.52289 0
      vertex -12.1353 8.81678 0
      vertex -10.037 11.1472 0
    endloop
  endfacet
  facet normal 0 0 -1
    outer loop
      vertex -13.2464 5.89768 0
      vertex -12.1353 8.81678 0
      vertex -11.7307 8.52289 0
    endloop
  endfacet
  facet normal 0 0 -1
    outer loop
      vertex -13.2464 5.89768 0
      vertex -13.7032 6.10105 0
      vertex -12.1353 8.81678 0
    endloop
  endfacet
  facet normal 0 0 -1
    outer loop
      vertex -14.1831 3.01472 0
      vertex -13.7032 6.10105 0
      vertex -13.2464 5.89768 0
    endloop
  endfacet
  facet normal 0 0 -1
    outer loop
      vertex -14.1831 3.01472 0
      vertex -14.6722 3.11868 0
      vertex -13.7032 6.10105 0
    endloop
  endfacet
  facet normal 0 0 -1
    outer loop
      vertex -14.5 0 0
      vertex -14.6722 3.11868 0
      vertex -14.1831 3.01472 0
    endloop
  endfacet
  facet normal 0 0 -1
    outer loop
      vertex -15 0 0
      vertex -14.5 0 0
      vertex -14.6722 -3.11868 0
    endloop
  endfacet
  facet normal 0 0 -1
    outer loop
      vertex -14.5 0 0
      vertex -15 0 0
      vertex -14.6722 3.11868 0
    endloop
  endfacet
  facet normal -0.526921 -0.474445 0.705164
    outer loop
      vertex -4.04508 -2.93893 10
      vertex -10.037 -11.1472 0
      vertex -3.34565 -3.71572 10
    endloop
  endfacet
  facet normal -0.526925 -0.474441 0.705163
    outer loop
      vertex -10.037 -11.1472 0
      vertex -4.04508 -2.93893 10
      vertex -12.1353 -8.81678 0
    endloop
  endfacet
  facet normal -0.61405 -0.354524 0.705164
    outer loop
      vertex -4.56773 -2.03368 10
      vertex -12.1353 -8.81678 0
      vertex -4.04508 -2.93893 10
    endloop
  endfacet
  facet normal -0.614054 -0.354518 0.705163
    outer loop
      vertex -12.1353 -8.81678 0
      vertex -4.56773 -2.03368 10
      vertex -13.7032 -6.10105 0
    endloop
  endfacet
  facet normal -0.416771 -0.573627 0.705162
    outer loop
      vertex -3.34565 -3.71572 10
      vertex -7.5 -12.9904 0
      vertex -2.5 -4.33013 10
    endloop
  endfacet
  facet normal -0.41676 -0.573633 0.705163
    outer loop
      vertex -7.5 -12.9904 0
      vertex -3.34565 -3.71572 10
      vertex -10.037 -11.1472 0
    endloop
  endfacet
  facet normal 0 -0.709047 0.705161
    outer loop
      vertex -1.56793 -14.9178 0
      vertex 0.522642 -4.97261 10
      vertex -0.522642 -4.97261 10
    endloop
  endfacet
  facet normal 0 -0.709047 0.705161
    outer loop
      vertex 0.522642 -4.97261 10
      vertex -1.56793 -14.9178 0
      vertex 1.56793 -14.9178 0
    endloop
  endfacet
  facet normal 0.41676 -0.573633 0.705163
    outer loop
      vertex 3.34565 -3.71572 10
      vertex 7.5 -12.9904 0
      vertex 10.037 -11.1472 0
    endloop
  endfacet
  facet normal 0.416771 -0.573627 0.705162
    outer loop
      vertex 7.5 -12.9904 0
      vertex 3.34565 -3.71572 10
      vertex 2.5 -4.33013 10
    endloop
  endfacet
  facet normal 0.288382 -0.647752 0.705162
    outer loop
      vertex 2.5 -4.33013 10
      vertex 4.63525 -14.2658 0
      vertex 7.5 -12.9904 0
    endloop
  endfacet
  facet normal 0.288391 -0.647749 0.705161
    outer loop
      vertex 4.63525 -14.2658 0
      vertex 2.5 -4.33013 10
      vertex 1.54508 -4.75528 10
    endloop
  endfacet
  facet normal 0.526925 -0.474441 0.705163
    outer loop
      vertex 4.04508 -2.93893 10
      vertex 10.037 -11.1472 0
      vertex 12.1353 -8.81678 0
    endloop
  endfacet
  facet normal 0.526921 -0.474445 0.705164
    outer loop
      vertex 10.037 -11.1472 0
      vertex 4.04508 -2.93893 10
      vertex 3.34565 -3.71572 10
    endloop
  endfacet
  facet normal 0.705162 -0.0741141 0.705162
    outer loop
      vertex 4.89074 -1.03956 10
      vertex 15 0 0
      vertex 5 0 10
    endloop
  endfacet
  facet normal 0.705162 -0.0741186 0.705162
    outer loop
      vertex 15 0 0
      vertex 4.89074 -1.03956 10
      vertex 14.6722 -3.11868 0
    endloop
  endfacet
  facet normal 0.674345 -0.219101 0.705162
    outer loop
      vertex 4.89074 -1.03956 10
      vertex 13.7032 -6.10105 0
      vertex 14.6722 -3.11868 0
    endloop
  endfacet
  facet normal 0.674342 -0.219108 0.705163
    outer loop
      vertex 13.7032 -6.10105 0
      vertex 4.89074 -1.03956 10
      vertex 4.56773 -2.03368 10
    endloop
  endfacet
  facet normal 0 0 1
    outer loop
      vertex 4.89074 1.03956 10
      vertex 4.89074 -1.03956 10
      vertex 5 0 10
    endloop
  endfacet
  facet normal 0 0 1
    outer loop
      vertex 4.56773 2.03368 10
      vertex 4.89074 -1.03956 10
      vertex 4.89074 1.03956 10
    endloop
  endfacet
  facet normal 0 0 1
    outer loop
      vertex 4.56773 2.03368 10
      vertex 4.56773 -2.03368 10
      vertex 4.89074 -1.03956 10
    endloop
  endfacet
  facet normal 0 0 1
    outer loop
      vertex 4.04508 2.93893 10
      vertex 4.56773 -2.03368 10
      vertex 4.56773 2.03368 10
    endloop
  endfacet
  facet normal 0 0 1
    outer loop
      vertex 4.04508 2.93893 10
      vertex 4.04508 -2.93893 10
      vertex 4.56773 -2.03368 10
    endloop
  endfacet
  facet normal 0 0 1
    outer loop
      vertex 3.34565 3.71572 10
      vertex 4.04508 -2.93893 10
      vertex 4.04508 2.93893 10
    endloop
  endfacet
  facet normal 0 0 1
    outer loop
      vertex 3.34565 3.71572 10
      vertex 3.34565 -3.71572 10
      vertex 4.04508 -2.93893 10
    endloop
  endfacet
  facet normal 0 0 1
    outer loop
      vertex 2.5 4.33013 10
      vertex 3.34565 -3.71572 10
      vertex 3.34565 3.71572 10
    endloop
  endfacet
  facet normal 0 0 1
    outer loop
      vertex 2.5 4.33013 10
      vertex 2.5 -4.33013 10
      vertex 3.34565 -3.71572 10
    endloop
  endfacet
  facet normal 0 0 1
    outer loop
      vertex 1.54508 4.75528 10
      vertex 2.5 -4.33013 10
      vertex 2.5 4.33013 10
    endloop
  endfacet
  facet normal 0 0 1
    outer loop
      vertex 1.54508 4.75528 10
      vertex 1.54508 -4.75528 10
      vertex 2.5 -4.33013 10
    endloop
  endfacet
  facet normal 0 0 1
    outer loop
      vertex 0.522642 4.97261 10
      vertex 1.54508 -4.75528 10
      vertex 1.54508 4.75528 10
    endloop
  endfacet
  facet normal 0 0 1
    outer loop
      vertex 0.522642 4.97261 10
      vertex 0.522642 -4.97261 10
      vertex 1.54508 -4.75528 10
    endloop
  endfacet
  facet normal -0 0 1
    outer loop
      vertex -0.522642 4.97261 10
      vertex 0.522642 -4.97261 10
      vertex 0.522642 4.97261 10
    endloop
  endfacet
  facet normal 0 0 1
    outer loop
      vertex -0.522642 4.97261 10
      vertex -0.522642 -4.97261 10
      vertex 0.522642 -4.97261 10
    endloop
  endfacet
  facet normal -0 0 1
    outer loop
      vertex -1.54508 4.75528 10
      vertex -0.522642 -4.97261 10
      vertex -0.522642 4.97261 10
    endloop
  endfacet
  facet normal 0 0 1
    outer loop
      vertex -1.54508 4.75528 10
      vertex -1.54508 -4.75528 10
      vertex -0.522642 -4.97261 10
    endloop
  endfacet
  facet normal -0 0 1
    outer loop
      vertex -2.5 4.33013 10
      vertex -1.54508 -4.75528 10
      vertex -1.54508 4.75528 10
    endloop
  endfacet
  facet normal 0 0 1
    outer loop
      vertex -2.5 4.33013 10
      vertex -2.5 -4.33013 10
      vertex -1.54508 -4.75528 10
    endloop
  endfacet
  facet normal -0 0 1
    outer loop
      vertex -3.34565 3.71572 10
      vertex -2.5 -4.33013 10
      vertex -2.5 4.33013 10
    endloop
  endfacet
  facet normal 0 0 1
    outer loop
      vertex -3.34565 3.71572 10
      vertex -3.34565 -3.71572 10
      vertex -2.5 -4.33013 10
    endloop
  endfacet
  facet normal -0 0 1
    outer loop
      vertex -4.04508 2.93893 10
      vertex -3.34565 -3.71572 10
      vertex -3.34565 3.71572 10
    endloop
  endfacet
  facet normal 0 0 1
    outer loop
      vertex -4.04508 2.93893 10
      vertex -4.04508 -2.93893 10
      vertex -3.34565 -3.71572 10
    endloop
  endfacet
  facet normal -0 0 1
    outer loop
      vertex -4.56773 2.03368 10
      vertex -4.04508 -2.93893 10
      vertex -4.04508 2.93893 10
    endloop
  endfacet
  facet normal 0 0 1
    outer loop
      vertex -4.56773 2.03368 10
      vertex -4.56773 -2.03368 10
      vertex -4.04508 -2.93893 10
    endloop
  endfacet
  facet normal -0 0 1
    outer loop
      vertex -4.89074 1.03956 10
      vertex -4.56773 -2.03368 10
      vertex -4.56773 2.03368 10
    endloop
  endfacet
  facet normal 0 0 1
    outer loop
      vertex -4.89074 1.03956 10
      vertex -4.89074 -1.03956 10
      vertex -4.56773 -2.03368 10
    endloop
  endfacet
  facet normal 0 -0 1
    outer loop
      vertex -4.89074 -1.03956 10
      vertex -4.89074 1.03956 10
      vertex -5 0 10
    endloop
  endfacet
  facet normal -0.705162 -0.0741249 -0.705161
    outer loop
      vertex 14.5 0 0
      vertex 4.89074 1.03956 9.5
      vertex 14.1831 3.01472 0
    endloop
  endfacet
  facet normal -0.705162 -0.0741141 -0.705162
    outer loop
      vertex 4.89074 1.03956 9.5
      vertex 14.5 0 0
      vertex 5 0 9.5
    endloop
  endfacet
  facet normal 0.674343 0.219108 -0.705162
    outer loop
      vertex -13.2464 -5.89768 0
      vertex -4.89074 -1.03956 9.5
      vertex -4.56773 -2.03368 9.5
    endloop
  endfacet
  facet normal 0.674346 0.219101 -0.705161
    outer loop
      vertex -4.89074 -1.03956 9.5
      vertex -13.2464 -5.89768 0
      vertex -14.1831 -3.01472 0
    endloop
  endfacet
  facet normal 0.147421 -0.69355 -0.705163
    outer loop
      vertex -1.54508 4.75528 9.5
      vertex -1.51566 14.4206 0
      vertex -0.522642 4.97261 9.5
    endloop
  endfacet
  facet normal 0.14743 -0.693549 -0.705162
    outer loop
      vertex -1.51566 14.4206 0
      vertex -1.54508 4.75528 9.5
      vertex -4.48075 13.7903 0
    endloop
  endfacet
  facet normal -0.14743 0.693549 -0.705162
    outer loop
      vertex 1.51566 -14.4206 0
      vertex 1.54508 -4.75528 9.5
      vertex 4.48075 -13.7903 0
    endloop
  endfacet
  facet normal -0.147421 0.69355 -0.705163
    outer loop
      vertex 1.54508 -4.75528 9.5
      vertex 1.51566 -14.4206 0
      vertex 0.522642 -4.97261 9.5
    endloop
  endfacet
  facet normal 0.526922 -0.474446 -0.705162
    outer loop
      vertex -4.04508 2.93893 9.5
      vertex -9.70239 10.7756 0
      vertex -3.34565 3.71572 9.5
    endloop
  endfacet
  facet normal 0.526929 -0.47444 -0.705161
    outer loop
      vertex -9.70239 10.7756 0
      vertex -4.04508 2.93893 9.5
      vertex -11.7307 8.52289 0
    endloop
  endfacet
  facet normal -0.288385 -0.64775 -0.705162
    outer loop
      vertex 2.5 4.33013 9.5
      vertex 4.48075 13.7903 0
      vertex 7.25 12.5574 0
    endloop
  endfacet
  facet normal -0.288391 -0.647748 -0.705162
    outer loop
      vertex 4.48075 13.7903 0
      vertex 2.5 4.33013 9.5
      vertex 1.54508 4.75528 9.5
    endloop
  endfacet
  facet normal 0.288391 0.647748 -0.705162
    outer loop
      vertex -4.48075 -13.7903 0
      vertex -2.5 -4.33013 9.5
      vertex -1.54508 -4.75528 9.5
    endloop
  endfacet
  facet normal 0.288385 0.64775 -0.705162
    outer loop
      vertex -2.5 -4.33013 9.5
      vertex -4.48075 -13.7903 0
      vertex -7.25 -12.5574 0
    endloop
  endfacet
  facet normal -0.614049 0.354529 -0.705161
    outer loop
      vertex 11.7307 -8.52289 0
      vertex 4.56773 -2.03368 9.5
      vertex 13.2464 -5.89768 0
    endloop
  endfacet
  facet normal -0.614052 0.354526 -0.705161
    outer loop
      vertex 4.56773 -2.03368 9.5
      vertex 11.7307 -8.52289 0
      vertex 4.04508 -2.93893 9.5
    endloop
  endfacet
  facet normal 0.288391 -0.647748 -0.705162
    outer loop
      vertex -2.5 4.33013 9.5
      vertex -4.48075 13.7903 0
      vertex -1.54508 4.75528 9.5
    endloop
  endfacet
  facet normal 0.288385 -0.64775 -0.705162
    outer loop
      vertex -4.48075 13.7903 0
      vertex -2.5 4.33013 9.5
      vertex -7.25 12.5574 0
    endloop
  endfacet
  facet normal 0.674343 -0.219108 -0.705162
    outer loop
      vertex -4.89074 1.03956 9.5
      vertex -13.2464 5.89768 0
      vertex -4.56773 2.03368 9.5
    endloop
  endfacet
  facet normal 0.674346 -0.219101 -0.705161
    outer loop
      vertex -13.2464 5.89768 0
      vertex -4.89074 1.03956 9.5
      vertex -14.1831 3.01472 0
    endloop
  endfacet
  facet normal -0.14743 -0.693549 -0.705162
    outer loop
      vertex 1.54508 4.75528 9.5
      vertex 1.51566 14.4206 0
      vertex 4.48075 13.7903 0
    endloop
  endfacet
  facet normal -0.147421 -0.69355 -0.705163
    outer loop
      vertex 1.51566 14.4206 0
      vertex 1.54508 4.75528 9.5
      vertex 0.522642 4.97261 9.5
    endloop
  endfacet
  facet normal -0.526929 -0.47444 -0.705161
    outer loop
      vertex 4.04508 2.93893 9.5
      vertex 9.70239 10.7756 0
      vertex 11.7307 8.52289 0
    endloop
  endfacet
  facet normal -0.526922 -0.474446 -0.705162
    outer loop
      vertex 9.70239 10.7756 0
      vertex 4.04508 2.93893 9.5
      vertex 3.34565 3.71572 9.5
    endloop
  endfacet
  facet normal 0.147421 0.69355 -0.705163
    outer loop
      vertex -1.51566 -14.4206 0
      vertex -1.54508 -4.75528 9.5
      vertex -0.522642 -4.97261 9.5
    endloop
  endfacet
  facet normal 0.14743 0.693549 -0.705162
    outer loop
      vertex -1.54508 -4.75528 9.5
      vertex -1.51566 -14.4206 0
      vertex -4.48075 -13.7903 0
    endloop
  endfacet
  facet normal 0.416771 -0.573627 -0.705163
    outer loop
      vertex -3.34565 3.71572 9.5
      vertex -7.25 12.5574 0
      vertex -2.5 4.33013 9.5
    endloop
  endfacet
  facet normal 0.416772 -0.573626 -0.705162
    outer loop
      vertex -7.25 12.5574 0
      vertex -3.34565 3.71572 9.5
      vertex -9.70239 10.7756 0
    endloop
  endfacet
  facet normal 0.614052 -0.354526 -0.705161
    outer loop
      vertex -4.56773 2.03368 9.5
      vertex -11.7307 8.52289 0
      vertex -4.04508 2.93893 9.5
    endloop
  endfacet
  facet normal 0.614049 -0.354529 -0.705161
    outer loop
      vertex -11.7307 8.52289 0
      vertex -4.56773 2.03368 9.5
      vertex -13.2464 5.89768 0
    endloop
  endfacet
  facet normal 0.705162 -0.0741141 -0.705162
    outer loop
      vertex -14.5 0 0
      vertex -4.89074 1.03956 9.5
      vertex -5 0 9.5
    endloop
  endfacet
  facet normal 0.705162 -0.0741249 -0.705161
    outer loop
      vertex -4.89074 1.03956 9.5
      vertex -14.5 0 0
      vertex -14.1831 3.01472 0
    endloop
  endfacet
  facet normal 0 -0.709045 -0.705163
    outer loop
      vertex -1.51566 14.4206 0
      vertex 0.522642 4.97261 9.5
      vertex -0.522642 4.97261 9.5
    endloop
  endfacet
  facet normal 0 -0.709045 -0.705163
    outer loop
      vertex 0.522642 4.97261 9.5
      vertex -1.51566 14.4206 0
      vertex 1.51566 14.4206 0
    endloop
  endfacet
  facet normal -0.416772 -0.573626 -0.705162
    outer loop
      vertex 3.34565 3.71572 9.5
      vertex 7.25 12.5574 0
      vertex 9.70239 10.7756 0
    endloop
  endfacet
  facet normal -0.416771 -0.573627 -0.705163
    outer loop
      vertex 7.25 12.5574 0
      vertex 3.34565 3.71572 9.5
      vertex 2.5 4.33013 9.5
    endloop
  endfacet
  facet normal -0.614049 -0.354529 -0.705161
    outer loop
      vertex 4.56773 2.03368 9.5
      vertex 11.7307 8.52289 0
      vertex 13.2464 5.89768 0
    endloop
  endfacet
  facet normal -0.614052 -0.354526 -0.705161
    outer loop
      vertex 11.7307 8.52289 0
      vertex 4.56773 2.03368 9.5
      vertex 4.04508 2.93893 9.5
    endloop
  endfacet
  facet normal -0.674346 -0.219101 -0.705161
    outer loop
      vertex 4.89074 1.03956 9.5
      vertex 13.2464 5.89768 0
      vertex 14.1831 3.01472 0
    endloop
  endfacet
  facet normal -0.674343 -0.219108 -0.705162
    outer loop
      vertex 13.2464 5.89768 0
      vertex 4.89074 1.03956 9.5
      vertex 4.56773 2.03368 9.5
    endloop
  endfacet
  facet normal 0.705162 0.0741141 -0.705162
    outer loop
      vertex -4.89074 -1.03956 9.5
      vertex -14.5 0 0
      vertex -5 0 9.5
    endloop
  endfacet
  facet normal 0.705162 0.0741249 -0.705161
    outer loop
      vertex -14.5 0 0
      vertex -4.89074 -1.03956 9.5
      vertex -14.1831 -3.01472 0
    endloop
  endfacet
  facet normal 0.526922 0.474446 -0.705162
    outer loop
      vertex -9.70239 -10.7756 0
      vertex -4.04508 -2.93893 9.5
      vertex -3.34565 -3.71572 9.5
    endloop
  endfacet
  facet normal 0.526929 0.47444 -0.705161
    outer loop
      vertex -4.04508 -2.93893 9.5
      vertex -9.70239 -10.7756 0
      vertex -11.7307 -8.52289 0
    endloop
  endfacet
  facet normal 0.614052 0.354526 -0.705161
    outer loop
      vertex -11.7307 -8.52289 0
      vertex -4.56773 -2.03368 9.5
      vertex -4.04508 -2.93893 9.5
    endloop
  endfacet
  facet normal 0.614049 0.354529 -0.705161
    outer loop
      vertex -4.56773 -2.03368 9.5
      vertex -11.7307 -8.52289 0
      vertex -13.2464 -5.89768 0
    endloop
  endfacet
  facet normal 0.416771 0.573627 -0.705163
    outer loop
      vertex -7.25 -12.5574 0
      vertex -3.34565 -3.71572 9.5
      vertex -2.5 -4.33013 9.5
    endloop
  endfacet
  facet normal 0.416772 0.573626 -0.705162
    outer loop
      vertex -3.34565 -3.71572 9.5
      vertex -7.25 -12.5574 0
      vertex -9.70239 -10.7756 0
    endloop
  endfacet
  facet normal 0 0.709045 -0.705163
    outer loop
      vertex 1.51566 -14.4206 0
      vertex -0.522642 -4.97261 9.5
      vertex 0.522642 -4.97261 9.5
    endloop
  endfacet
  facet normal 0 0.709045 -0.705163
    outer loop
      vertex -0.522642 -4.97261 9.5
      vertex 1.51566 -14.4206 0
      vertex -1.51566 -14.4206 0
    endloop
  endfacet
  facet normal -0.416772 0.573626 -0.705162
    outer loop
      vertex 7.25 -12.5574 0
      vertex 3.34565 -3.71572 9.5
      vertex 9.70239 -10.7756 0
    endloop
  endfacet
  facet normal -0.416771 0.573627 -0.705163
    outer loop
      vertex 3.34565 -3.71572 9.5
      vertex 7.25 -12.5574 0
      vertex 2.5 -4.33013 9.5
    endloop
  endfacet
  facet normal -0.288385 0.64775 -0.705162
    outer loop
      vertex 4.48075 -13.7903 0
      vertex 2.5 -4.33013 9.5
      vertex 7.25 -12.5574 0
    endloop
  endfacet
  facet normal -0.288391 0.647748 -0.705162
    outer loop
      vertex 2.5 -4.33013 9.5
      vertex 4.48075 -13.7903 0
      vertex 1.54508 -4.75528 9.5
    endloop
  endfacet
  facet normal -0.526929 0.47444 -0.705161
    outer loop
      vertex 9.70239 -10.7756 0
      vertex 4.04508 -2.93893 9.5
      vertex 11.7307 -8.52289 0
    endloop
  endfacet
  facet normal -0.526922 0.474446 -0.705162
    outer loop
      vertex 4.04508 -2.93893 9.5
      vertex 9.70239 -10.7756 0
      vertex 3.34565 -3.71572 9.5
    endloop
  endfacet
  facet normal -0.705162 0.0741141 -0.705162
    outer loop
      vertex 14.5 0 0
      vertex 4.89074 -1.03956 9.5
      vertex 5 0 9.5
    endloop
  endfacet
  facet normal -0.705162 0.0741249 -0.705161
    outer loop
      vertex 4.89074 -1.03956 9.5
      vertex 14.5 0 0
      vertex 14.1831 -3.01472 0
    endloop
  endfacet
  facet normal -0.674346 0.219101 -0.705161
    outer loop
      vertex 13.2464 -5.89768 0
      vertex 4.89074 -1.03956 9.5
      vertex 14.1831 -3.01472 0
    endloop
  endfacet
  facet normal -0.674343 0.219108 -0.705162
    outer loop
      vertex 4.89074 -1.03956 9.5
      vertex 13.2464 -5.89768 0
      vertex 4.56773 -2.03368 9.5
    endloop
  endfacet
  facet normal 0 0 -1
    outer loop
      vertex 4.89074 -1.03956 9.5
      vertex 4.89074 1.03956 9.5
      vertex 5 0 9.5
    endloop
  endfacet
  facet normal 0 0 -1
    outer loop
      vertex 4.56773 -2.03368 9.5
      vertex 4.89074 1.03956 9.5
      vertex 4.89074 -1.03956 9.5
    endloop
  endfacet
  facet normal 0 0 -1
    outer loop
      vertex 4.56773 -2.03368 9.5
      vertex 4.56773 2.03368 9.5
      vertex 4.89074 1.03956 9.5
    endloop
  endfacet
  facet normal 0 0 -1
    outer loop
      vertex 4.04508 -2.93893 9.5
      vertex 4.56773 2.03368 9.5
      vertex 4.56773 -2.03368 9.5
    endloop
  endfacet
  facet normal 0 0 -1
    outer loop
      vertex 4.04508 -2.93893 9.5
      vertex 4.04508 2.93893 9.5
      vertex 4.56773 2.03368 9.5
    endloop
  endfacet
  facet normal 0 0 -1
    outer loop
      vertex 3.34565 -3.71572 9.5
      vertex 4.04508 2.93893 9.5
      vertex 4.04508 -2.93893 9.5
    endloop
  endfacet
  facet normal 0 0 -1
    outer loop
      vertex 3.34565 -3.71572 9.5
      vertex 3.34565 3.71572 9.5
      vertex 4.04508 2.93893 9.5
    endloop
  endfacet
  facet normal 0 0 -1
    outer loop
      vertex 2.5 -4.33013 9.5
      vertex 3.34565 3.71572 9.5
      vertex 3.34565 -3.71572 9.5
    endloop
  endfacet
  facet normal 0 0 -1
    outer loop
      vertex 2.5 -4.33013 9.5
      vertex 2.5 4.33013 9.5
      vertex 3.34565 3.71572 9.5
    endloop
  endfacet
  facet normal 0 0 -1
    outer loop
      vertex 1.54508 -4.75528 9.5
      vertex 2.5 4.33013 9.5
      vertex 2.5 -4.33013 9.5
    endloop
  endfacet
  facet normal 0 0 -1
    outer loop
      vertex 1.54508 -4.75528 9.5
      vertex 1.54508 4.75528 9.5
      vertex 2.5 4.33013 9.5
    endloop
  endfacet
  facet normal 0 0 -1
    outer loop
      vertex 0.522642 -4.97261 9.5
      vertex 1.54508 4.75528 9.5
      vertex 1.54508 -4.75528 9.5
    endloop
  endfacet
  facet normal 0 0 -1
    outer loop
      vertex 0.522642 -4.97261 9.5
      vertex 0.522642 4.97261 9.5
      vertex 1.54508 4.75528 9.5
    endloop
  endfacet
  facet normal 0 0 -1
    outer loop
      vertex -0.522642 -4.97261 9.5
      vertex 0.522642 4.97261 9.5
      vertex 0.522642 -4.97261 9.5
    endloop
  endfacet
  facet normal 0 0 -1
    outer loop
      vertex -0.522642 -4.97261 9.5
      vertex -0.522642 4.97261 9.5
      vertex 0.522642 4.97261 9.5
    endloop
  endfacet
  facet normal 0 0 -1
    outer loop
      vertex -1.54508 -4.75528 9.5
      vertex -0.522642 4.97261 9.5
      vertex -0.522642 -4.97261 9.5
    endloop
  endfacet
  facet normal 0 0 -1
    outer loop
      vertex -1.54508 -4.75528 9.5
      vertex -1.54508 4.75528 9.5
      vertex -0.522642 4.97261 9.5
    endloop
  endfacet
  facet normal 0 0 -1
    outer loop
      vertex -2.5 -4.33013 9.5
      vertex -1.54508 4.75528 9.5
      vertex -1.54508 -4.75528 9.5
    endloop
  endfacet
  facet normal 0 0 -1
    outer loop
      vertex -2.5 -4.33013 9.5
      vertex -2.5 4.33013 9.5
      vertex -1.54508 4.75528 9.5
    endloop
  endfacet
  facet normal 0 0 -1
    outer loop
      vertex -3.34565 -3.71572 9.5
      vertex -2.5 4.33013 9.5
      vertex -2.5 -4.33013 9.5
    endloop
  endfacet
  facet normal 0 0 -1
    outer loop
      vertex -3.34565 -3.71572 9.5
      vertex -3.34565 3.71572 9.5
      vertex -2.5 4.33013 9.5
    endloop
  endfacet
  facet normal 0 0 -1
    outer loop
      vertex -4.04508 -2.93893 9.5
      vertex -3.34565 3.71572 9.5
      vertex -3.34565 -3.71572 9.5
    endloop
  endfacet
  facet normal 0 0 -1
    outer loop
      vertex -4.04508 -2.93893 9.5
      vertex -4.04508 2.93893 9.5
      vertex -3.34565 3.71572 9.5
    endloop
  endfacet
  facet normal 0 0 -1
    outer loop
      vertex -4.56773 -2.03368 9.5
      vertex -4.04508 2.93893 9.5
      vertex -4.04508 -2.93893 9.5
    endloop
  endfacet
  facet normal 0 0 -1
    outer loop
      vertex -4.56773 -2.03368 9.5
      vertex -4.56773 2.03368 9.5
      vertex -4.04508 2.93893 9.5
    endloop
  endfacet
  facet normal 0 0 -1
    outer loop
      vertex -4.89074 -1.03956 9.5
      vertex -4.56773 2.03368 9.5
      vertex -4.56773 -2.03368 9.5
    endloop
  endfacet
  facet normal 0 0 -1
    outer loop
      vertex -4.89074 -1.03956 9.5
      vertex -4.89074 1.03956 9.5
      vertex -4.56773 2.03368 9.5
    endloop
  endfacet
  facet normal 0 -0 -1
    outer loop
      vertex -4.89074 1.03956 9.5
      vertex -4.89074 -1.03956 9.5
      vertex -5 0 9.5
    endloop
  endfacet
endsolid OpenSCAD_Model
