solid OpenSCAD_Model
  facet normal -1 0 0
    outer loop
      vertex 0 0 0
      vertex 0 35 15
      vertex 0 35 0
    endloop
  endfacet
  facet normal -1 -0 0
    outer loop
      vertex 0 35 15
      vertex 0 0 0
      vertex 0 0 15
    endloop
  endfacet
  facet normal 0 0 1
    outer loop
      vertex 58 63 15
      vertex 50 55 15
      vertex 58 27 15
    endloop
  endfacet
  facet normal -0 0 1
    outer loop
      vertex 40 63 15
      vertex 50 55 15
      vertex 58 63 15
    endloop
  endfacet
  facet normal 0 0 1
    outer loop
      vertex 50 55 15
      vertex 40 63 15
      vertex 40 55 15
    endloop
  endfacet
  facet normal -0 0 1
    outer loop
      vertex 50 35 15
      vertex 58 27 15
      vertex 50 55 15
    endloop
  endfacet
  facet normal 0 0 1
    outer loop
      vertex 50 35 15
      vertex 8 27 15
      vertex 58 27 15
    endloop
  endfacet
  facet normal 0 0 1
    outer loop
      vertex 8 27 15
      vertex 0 35 15
      vertex 8 8 15
    endloop
  endfacet
  facet normal -0 0 1
    outer loop
      vertex 0 35 15
      vertex 8 27 15
      vertex 50 35 15
    endloop
  endfacet
  facet normal -0 0 1
    outer loop
      vertex 8 8 15
      vertex 50 0 15
      vertex 50 8 15
    endloop
  endfacet
  facet normal 0 0 1
    outer loop
      vertex 8 8 15
      vertex 0 0 15
      vertex 50 0 15
    endloop
  endfacet
  facet normal 0 0 1
    outer loop
      vertex 0 0 15
      vertex 8 8 15
      vertex 0 35 15
    endloop
  endfacet
  facet normal 1 -0 0
    outer loop
      vertex 50 0 15
      vertex 50 8 0
      vertex 50 8 15
    endloop
  endfacet
  facet normal 1 0 0
    outer loop
      vertex 50 8 0
      vertex 50 0 15
      vertex 50 0 0
    endloop
  endfacet
  facet normal 0 1 -0
    outer loop
      vertex 50 8 0
      vertex 8 8 15
      vertex 50 8 15
    endloop
  endfacet
  facet normal 0 1 0
    outer loop
      vertex 8 8 15
      vertex 50 8 0
      vertex 8 8 0
    endloop
  endfacet
  facet normal 0 0 -1
    outer loop
      vertex 50 0 0
      vertex 8 8 0
      vertex 50 8 0
    endloop
  endfacet
  facet normal -0 0 -1
    outer loop
      vertex 8 8 0
      vertex 0 0 0
      vertex 8 27 0
    endloop
  endfacet
  facet normal 0 0 -1
    outer loop
      vertex 0 0 0
      vertex 8 8 0
      vertex 50 0 0
    endloop
  endfacet
  facet normal 0 0 -1
    outer loop
      vertex 58 27 0
      vertex 50 35 0
      vertex 58 63 0
    endloop
  endfacet
  facet normal 0 0 -1
    outer loop
      vertex 8 27 0
      vertex 50 35 0
      vertex 58 27 0
    endloop
  endfacet
  facet normal 0 0 -1
    outer loop
      vertex 8 27 0
      vertex 0 35 0
      vertex 50 35 0
    endloop
  endfacet
  facet normal 0 0 -1
    outer loop
      vertex 0 35 0
      vertex 8 27 0
      vertex 0 0 0
    endloop
  endfacet
  facet normal 0 0 -1
    outer loop
      vertex 50 55 0
      vertex 58 63 0
      vertex 50 35 0
    endloop
  endfacet
  facet normal 0 0 -1
    outer loop
      vertex 40 63 0
      vertex 50 55 0
      vertex 40 55 0
    endloop
  endfacet
  facet normal 0 0 -1
    outer loop
      vertex 50 55 0
      vertex 40 63 0
      vertex 58 63 0
    endloop
  endfacet
  facet normal 0 -1 0
    outer loop
      vertex 0 0 0
      vertex 50 0 15
      vertex 0 0 15
    endloop
  endfacet
  facet normal 0 -1 -0
    outer loop
      vertex 50 0 15
      vertex 0 0 0
      vertex 50 0 0
    endloop
  endfacet
  facet normal 1 -0 0
    outer loop
      vertex 8 8 15
      vertex 8 27 0
      vertex 8 27 15
    endloop
  endfacet
  facet normal 1 0 0
    outer loop
      vertex 8 27 0
      vertex 8 8 15
      vertex 8 8 0
    endloop
  endfacet
  facet normal 0 1 -0
    outer loop
      vertex 50 35 0
      vertex 0 35 15
      vertex 50 35 15
    endloop
  endfacet
  facet normal 0 1 0
    outer loop
      vertex 0 35 15
      vertex 50 35 0
      vertex 0 35 0
    endloop
  endfacet
  facet normal 1 -0 0
    outer loop
      vertex 58 27 15
      vertex 58 63 0
      vertex 58 63 15
    endloop
  endfacet
  facet normal 1 0 0
    outer loop
      vertex 58 63 0
      vertex 58 27 15
      vertex 58 27 0
    endloop
  endfacet
  facet normal 0 -1 0
    outer loop
      vertex 8 27 0
      vertex 58 27 15
      vertex 8 27 15
    endloop
  endfacet
  facet normal 0 -1 -0
    outer loop
      vertex 58 27 15
      vertex 8 27 0
      vertex 58 27 0
    endloop
  endfacet
  facet normal -1 0 0
    outer loop
      vertex 50 35 0
      vertex 50 55 15
      vertex 50 55 0
    endloop
  endfacet
  facet normal -1 -0 0
    outer loop
      vertex 50 55 15
      vertex 50 35 0
      vertex 50 35 15
    endloop
  endfacet
  facet normal 0 1 -0
    outer loop
      vertex 58 63 0
      vertex 40 63 15
      vertex 58 63 15
    endloop
  endfacet
  facet normal 0 1 0
    outer loop
      vertex 40 63 15
      vertex 58 63 0
      vertex 40 63 0
    endloop
  endfacet
  facet normal -1 0 0
    outer loop
      vertex 40 55 0
      vertex 40 63 15
      vertex 40 63 0
    endloop
  endfacet
  facet normal -1 -0 0
    outer loop
      vertex 40 63 15
      vertex 40 55 0
      vertex 40 55 15
    endloop
  endfacet
  facet normal 0 -1 0
    outer loop
      vertex 40 55 0
      vertex 50 55 15
      vertex 40 55 15
    endloop
  endfacet
  facet normal 0 -1 -0
    outer loop
      vertex 50 55 15
      vertex 40 55 0
      vertex 50 55 0
    endloop
  endfacet
endsolid OpenSCAD_Model
