solid OpenSCAD_Model
  facet normal 1 -0 0
    outer loop
      vertex 92 0 1
      vertex 92 35 0
      vertex 92 35 1
    endloop
  endfacet
  facet normal 1 0 0
    outer loop
      vertex 92 35 0
      vertex 92 0 1
      vertex 92 0 0
    endloop
  endfacet
  facet normal -0 0 1
    outer loop
      vertex 0 35 1
      vertex 92 0 1
      vertex 92 35 1
    endloop
  endfacet
  facet normal 0 0 1
    outer loop
      vertex 92 0 1
      vertex 0 35 1
      vertex 0 0 1
    endloop
  endfacet
  facet normal 0 -1 0
    outer loop
      vertex 0 0 0
      vertex 92 0 1
      vertex 0 0 1
    endloop
  endfacet
  facet normal 0 -1 -0
    outer loop
      vertex 92 0 1
      vertex 0 0 0
      vertex 92 0 0
    endloop
  endfacet
  facet normal 0 1 -0
    outer loop
      vertex 92 35 0
      vertex 0 35 1
      vertex 92 35 1
    endloop
  endfacet
  facet normal 0 1 0
    outer loop
      vertex 0 35 1
      vertex 92 35 0
      vertex 0 35 0
    endloop
  endfacet
  facet normal -1 0 0
    outer loop
      vertex 0 0 0
      vertex 0 35 1
      vertex 0 35 0
    endloop
  endfacet
  facet normal -1 -0 0
    outer loop
      vertex 0 35 1
      vertex 0 0 0
      vertex 0 0 1
    endloop
  endfacet
  facet normal 0 0 -1
    outer loop
      vertex 0 0 0
      vertex 92 35 0
      vertex 92 0 0
    endloop
  endfacet
  facet normal -0 0 -1
    outer loop
      vertex 92 35 0
      vertex 0 0 0
      vertex 0 35 0
    endloop
  endfacet
endsolid OpenSCAD_Model
