solid OpenSCAD_Model
  facet normal 0 0 -1
    outer loop
      vertex 113.2 0 8.99
      vertex 111.15 2.05 8.99
      vertex 113.2 20.2 8.99
    endloop
  endfacet
  facet normal 0 0 -1
    outer loop
      vertex 113.2 0 8.99
      vertex 97.3643 2.05 8.99
      vertex 111.15 2.05 8.99
    endloop
  endfacet
  facet normal 0 0 -1
    outer loop
      vertex 97.3643 2.05 8.99
      vertex 95.2643 2.05 8.99
      vertex 97.3643 18.15 8.99
    endloop
  endfacet
  facet normal 0 0 -1
    outer loop
      vertex 113.2 0 8.99
      vertex 95.2643 2.05 8.99
      vertex 97.3643 2.05 8.99
    endloop
  endfacet
  facet normal 0 0 -1
    outer loop
      vertex 113.2 0 8.99
      vertex 81.4786 2.05 8.99
      vertex 95.2643 2.05 8.99
    endloop
  endfacet
  facet normal 0 0 -1
    outer loop
      vertex 81.4786 2.05 8.99
      vertex 79.3786 2.05 8.99
      vertex 81.4786 18.15 8.99
    endloop
  endfacet
  facet normal 0 0 -1
    outer loop
      vertex 113.2 0 8.99
      vertex 79.3786 2.05 8.99
      vertex 81.4786 2.05 8.99
    endloop
  endfacet
  facet normal 0 0 -1
    outer loop
      vertex 113.2 0 8.99
      vertex 65.5929 2.05 8.99
      vertex 79.3786 2.05 8.99
    endloop
  endfacet
  facet normal 0 0 -1
    outer loop
      vertex 65.5929 2.05 8.99
      vertex 63.4929 2.05 8.99
      vertex 65.5929 18.15 8.99
    endloop
  endfacet
  facet normal 0 0 -1
    outer loop
      vertex 113.2 0 8.99
      vertex 63.4929 2.05 8.99
      vertex 65.5929 2.05 8.99
    endloop
  endfacet
  facet normal 0 0 -1
    outer loop
      vertex 113.2 0 8.99
      vertex 49.7071 2.05 8.99
      vertex 63.4929 2.05 8.99
    endloop
  endfacet
  facet normal 0 0 -1
    outer loop
      vertex 49.7071 2.05 8.99
      vertex 47.6071 2.05 8.99
      vertex 49.7071 18.15 8.99
    endloop
  endfacet
  facet normal 0 0 -1
    outer loop
      vertex 0 0 8.99
      vertex 49.7071 2.05 8.99
      vertex 113.2 0 8.99
    endloop
  endfacet
  facet normal -0 0 -1
    outer loop
      vertex 49.7071 2.05 8.99
      vertex 0 0 8.99
      vertex 47.6071 2.05 8.99
    endloop
  endfacet
  facet normal 0 0 -1
    outer loop
      vertex 33.8214 2.05 8.99
      vertex 31.7214 2.05 8.99
      vertex 33.8214 18.15 8.99
    endloop
  endfacet
  facet normal -0 0 -1
    outer loop
      vertex 47.6071 2.05 8.99
      vertex 0 0 8.99
      vertex 33.8214 2.05 8.99
    endloop
  endfacet
  facet normal -0 0 -1
    outer loop
      vertex 33.8214 2.05 8.99
      vertex 0 0 8.99
      vertex 31.7214 2.05 8.99
    endloop
  endfacet
  facet normal 0 0 -1
    outer loop
      vertex 17.9357 2.05 8.99
      vertex 15.8357 2.05 8.99
      vertex 17.9357 18.15 8.99
    endloop
  endfacet
  facet normal -0 0 -1
    outer loop
      vertex 31.7214 2.05 8.99
      vertex 0 0 8.99
      vertex 17.9357 2.05 8.99
    endloop
  endfacet
  facet normal -0 0 -1
    outer loop
      vertex 17.9357 2.05 8.99
      vertex 0 0 8.99
      vertex 15.8357 2.05 8.99
    endloop
  endfacet
  facet normal -0 0 -1
    outer loop
      vertex 2.05 2.05 8.99
      vertex 0 0 8.99
      vertex 2.05 18.15 8.99
    endloop
  endfacet
  facet normal -0 0 -1
    outer loop
      vertex 15.8357 2.05 8.99
      vertex 0 0 8.99
      vertex 2.05 2.05 8.99
    endloop
  endfacet
  facet normal 0 0 -1
    outer loop
      vertex 111.15 18.15 8.99
      vertex 113.2 20.2 8.99
      vertex 111.15 2.05 8.99
    endloop
  endfacet
  facet normal 0 0 -1
    outer loop
      vertex 97.3643 18.15 8.99
      vertex 113.2 20.2 8.99
      vertex 111.15 18.15 8.99
    endloop
  endfacet
  facet normal 0 0 -1
    outer loop
      vertex 95.2643 18.15 8.99
      vertex 97.3643 18.15 8.99
      vertex 95.2643 2.05 8.99
    endloop
  endfacet
  facet normal 0 0 -1
    outer loop
      vertex 95.2643 18.15 8.99
      vertex 113.2 20.2 8.99
      vertex 97.3643 18.15 8.99
    endloop
  endfacet
  facet normal 0 0 -1
    outer loop
      vertex 81.4786 18.15 8.99
      vertex 113.2 20.2 8.99
      vertex 95.2643 18.15 8.99
    endloop
  endfacet
  facet normal 0 0 -1
    outer loop
      vertex 79.3786 18.15 8.99
      vertex 81.4786 18.15 8.99
      vertex 79.3786 2.05 8.99
    endloop
  endfacet
  facet normal 0 0 -1
    outer loop
      vertex 79.3786 18.15 8.99
      vertex 113.2 20.2 8.99
      vertex 81.4786 18.15 8.99
    endloop
  endfacet
  facet normal 0 0 -1
    outer loop
      vertex 65.5929 18.15 8.99
      vertex 113.2 20.2 8.99
      vertex 79.3786 18.15 8.99
    endloop
  endfacet
  facet normal 0 0 -1
    outer loop
      vertex 63.4929 18.15 8.99
      vertex 65.5929 18.15 8.99
      vertex 63.4929 2.05 8.99
    endloop
  endfacet
  facet normal 0 0 -1
    outer loop
      vertex 63.4929 18.15 8.99
      vertex 113.2 20.2 8.99
      vertex 65.5929 18.15 8.99
    endloop
  endfacet
  facet normal 0 0 -1
    outer loop
      vertex 49.7071 18.15 8.99
      vertex 113.2 20.2 8.99
      vertex 63.4929 18.15 8.99
    endloop
  endfacet
  facet normal 0 0 -1
    outer loop
      vertex 47.6071 18.15 8.99
      vertex 49.7071 18.15 8.99
      vertex 47.6071 2.05 8.99
    endloop
  endfacet
  facet normal 0 0 -1
    outer loop
      vertex 0 20.2 8.99
      vertex 49.7071 18.15 8.99
      vertex 47.6071 18.15 8.99
    endloop
  endfacet
  facet normal 0 0 -1
    outer loop
      vertex 0 20.2 8.99
      vertex 47.6071 18.15 8.99
      vertex 33.8214 18.15 8.99
    endloop
  endfacet
  facet normal 0 0 -1
    outer loop
      vertex 31.7214 18.15 8.99
      vertex 33.8214 18.15 8.99
      vertex 31.7214 2.05 8.99
    endloop
  endfacet
  facet normal 0 0 -1
    outer loop
      vertex 0 20.2 8.99
      vertex 33.8214 18.15 8.99
      vertex 31.7214 18.15 8.99
    endloop
  endfacet
  facet normal 0 0 -1
    outer loop
      vertex 0 20.2 8.99
      vertex 31.7214 18.15 8.99
      vertex 17.9357 18.15 8.99
    endloop
  endfacet
  facet normal 0 0 -1
    outer loop
      vertex 15.8357 18.15 8.99
      vertex 17.9357 18.15 8.99
      vertex 15.8357 2.05 8.99
    endloop
  endfacet
  facet normal 0 0 -1
    outer loop
      vertex 0 20.2 8.99
      vertex 17.9357 18.15 8.99
      vertex 15.8357 18.15 8.99
    endloop
  endfacet
  facet normal 0 0 -1
    outer loop
      vertex 0 20.2 8.99
      vertex 15.8357 18.15 8.99
      vertex 2.05 18.15 8.99
    endloop
  endfacet
  facet normal 0 0 -1
    outer loop
      vertex 49.7071 18.15 8.99
      vertex 0 20.2 8.99
      vertex 113.2 20.2 8.99
    endloop
  endfacet
  facet normal 0 0 -1
    outer loop
      vertex 0 20.2 8.99
      vertex 2.05 18.15 8.99
      vertex 0 0 8.99
    endloop
  endfacet
  facet normal -1 0 0
    outer loop
      vertex 2.05 2.05 7
      vertex 2.05 18.15 8.99
      vertex 2.05 18.15 7
    endloop
  endfacet
  facet normal -1 -0 0
    outer loop
      vertex 2.05 18.15 8.99
      vertex 2.05 2.05 7
      vertex 2.05 2.05 8.99
    endloop
  endfacet
  facet normal 1 -0 0
    outer loop
      vertex 15.8357 2.05 8.99
      vertex 15.8357 18.15 7
      vertex 15.8357 18.15 8.99
    endloop
  endfacet
  facet normal 1 0 0
    outer loop
      vertex 15.8357 18.15 7
      vertex 15.8357 2.05 8.99
      vertex 15.8357 2.05 7
    endloop
  endfacet
  facet normal -1 0 0
    outer loop
      vertex 17.9357 2.05 7
      vertex 17.9357 18.15 8.99
      vertex 17.9357 18.15 7
    endloop
  endfacet
  facet normal -1 -0 0
    outer loop
      vertex 17.9357 18.15 8.99
      vertex 17.9357 2.05 7
      vertex 17.9357 2.05 8.99
    endloop
  endfacet
  facet normal 1 -0 0
    outer loop
      vertex 31.7214 2.05 8.99
      vertex 31.7214 18.15 7
      vertex 31.7214 18.15 8.99
    endloop
  endfacet
  facet normal 1 0 0
    outer loop
      vertex 31.7214 18.15 7
      vertex 31.7214 2.05 8.99
      vertex 31.7214 2.05 7
    endloop
  endfacet
  facet normal -1 0 0
    outer loop
      vertex 33.8214 2.05 7
      vertex 33.8214 18.15 8.99
      vertex 33.8214 18.15 7
    endloop
  endfacet
  facet normal -1 -0 0
    outer loop
      vertex 33.8214 18.15 8.99
      vertex 33.8214 2.05 7
      vertex 33.8214 2.05 8.99
    endloop
  endfacet
  facet normal 1 -0 0
    outer loop
      vertex 47.6071 2.05 8.99
      vertex 47.6071 18.15 7
      vertex 47.6071 18.15 8.99
    endloop
  endfacet
  facet normal 1 0 0
    outer loop
      vertex 47.6071 18.15 7
      vertex 47.6071 2.05 8.99
      vertex 47.6071 2.05 7
    endloop
  endfacet
  facet normal -1 0 0
    outer loop
      vertex 49.7071 2.05 7
      vertex 49.7071 18.15 8.99
      vertex 49.7071 18.15 7
    endloop
  endfacet
  facet normal -1 -0 0
    outer loop
      vertex 49.7071 18.15 8.99
      vertex 49.7071 2.05 7
      vertex 49.7071 2.05 8.99
    endloop
  endfacet
  facet normal 1 -0 0
    outer loop
      vertex 63.4929 2.05 8.99
      vertex 63.4929 18.15 7
      vertex 63.4929 18.15 8.99
    endloop
  endfacet
  facet normal 1 0 0
    outer loop
      vertex 63.4929 18.15 7
      vertex 63.4929 2.05 8.99
      vertex 63.4929 2.05 7
    endloop
  endfacet
  facet normal -1 0 0
    outer loop
      vertex 65.5929 2.05 7
      vertex 65.5929 18.15 8.99
      vertex 65.5929 18.15 7
    endloop
  endfacet
  facet normal -1 -0 0
    outer loop
      vertex 65.5929 18.15 8.99
      vertex 65.5929 2.05 7
      vertex 65.5929 2.05 8.99
    endloop
  endfacet
  facet normal 1 -0 0
    outer loop
      vertex 79.3786 2.05 8.99
      vertex 79.3786 18.15 7
      vertex 79.3786 18.15 8.99
    endloop
  endfacet
  facet normal 1 0 0
    outer loop
      vertex 79.3786 18.15 7
      vertex 79.3786 2.05 8.99
      vertex 79.3786 2.05 7
    endloop
  endfacet
  facet normal -1 0 0
    outer loop
      vertex 81.4786 2.05 7
      vertex 81.4786 18.15 8.99
      vertex 81.4786 18.15 7
    endloop
  endfacet
  facet normal -1 -0 0
    outer loop
      vertex 81.4786 18.15 8.99
      vertex 81.4786 2.05 7
      vertex 81.4786 2.05 8.99
    endloop
  endfacet
  facet normal 1 -0 0
    outer loop
      vertex 95.2643 2.05 8.99
      vertex 95.2643 18.15 7
      vertex 95.2643 18.15 8.99
    endloop
  endfacet
  facet normal 1 0 0
    outer loop
      vertex 95.2643 18.15 7
      vertex 95.2643 2.05 8.99
      vertex 95.2643 2.05 7
    endloop
  endfacet
  facet normal -1 0 0
    outer loop
      vertex 97.3643 2.05 7
      vertex 97.3643 18.15 8.99
      vertex 97.3643 18.15 7
    endloop
  endfacet
  facet normal -1 -0 0
    outer loop
      vertex 97.3643 18.15 8.99
      vertex 97.3643 2.05 7
      vertex 97.3643 2.05 8.99
    endloop
  endfacet
  facet normal 1 -0 0
    outer loop
      vertex 111.15 2.05 8.99
      vertex 111.15 18.15 7
      vertex 111.15 18.15 8.99
    endloop
  endfacet
  facet normal 1 0 0
    outer loop
      vertex 111.15 18.15 7
      vertex 111.15 2.05 8.99
      vertex 111.15 2.05 7
    endloop
  endfacet
  facet normal -0.70711 0 0.707104
    outer loop
      vertex 16.8857 0 9.78579
      vertex 18.0999 20.2 11
      vertex 16.8857 20.2 9.78579
    endloop
  endfacet
  facet normal -0.70711 0 0.707104
    outer loop
      vertex 18.0999 20.2 11
      vertex 16.8857 0 9.78579
      vertex 18.0999 0 11
    endloop
  endfacet
  facet normal 0.70711 -0 0.707104
    outer loop
      vertex 15.6715 0 11
      vertex 16.8857 20.2 9.78579
      vertex 15.6715 20.2 11
    endloop
  endfacet
  facet normal 0.70711 0 0.707104
    outer loop
      vertex 16.8857 20.2 9.78579
      vertex 15.6715 0 11
      vertex 16.8857 0 9.78579
    endloop
  endfacet
  facet normal -0.70711 0 0.707104
    outer loop
      vertex 32.7714 0 9.78579
      vertex 33.9856 20.2 11
      vertex 32.7714 20.2 9.78579
    endloop
  endfacet
  facet normal -0.70711 0 0.707104
    outer loop
      vertex 33.9856 20.2 11
      vertex 32.7714 0 9.78579
      vertex 33.9856 0 11
    endloop
  endfacet
  facet normal 0.70711 -0 0.707104
    outer loop
      vertex 31.5572 0 11
      vertex 32.7714 20.2 9.78579
      vertex 31.5572 20.2 11
    endloop
  endfacet
  facet normal 0.70711 0 0.707104
    outer loop
      vertex 32.7714 20.2 9.78579
      vertex 31.5572 0 11
      vertex 32.7714 0 9.78579
    endloop
  endfacet
  facet normal -0.707081 0 0.707133
    outer loop
      vertex 48.6571 0 9.78579
      vertex 49.8714 20.2 11
      vertex 48.6571 20.2 9.78579
    endloop
  endfacet
  facet normal -0.707081 0 0.707133
    outer loop
      vertex 49.8714 20.2 11
      vertex 48.6571 0 9.78579
      vertex 49.8714 0 11
    endloop
  endfacet
  facet normal 0.70711 -0 0.707104
    outer loop
      vertex 47.4429 0 11
      vertex 48.6571 20.2 9.78579
      vertex 47.4429 20.2 11
    endloop
  endfacet
  facet normal 0.70711 0 0.707104
    outer loop
      vertex 48.6571 20.2 9.78579
      vertex 47.4429 0 11
      vertex 48.6571 0 9.78579
    endloop
  endfacet
  facet normal -0.70711 0 0.707104
    outer loop
      vertex 64.5429 20.2 9.78579
      vertex 65.7571 0 11
      vertex 65.7571 20.2 11
    endloop
  endfacet
  facet normal -0.70711 0 0.707104
    outer loop
      vertex 65.7571 0 11
      vertex 64.5429 20.2 9.78579
      vertex 64.5429 0 9.78579
    endloop
  endfacet
  facet normal 0.707081 -0 0.707133
    outer loop
      vertex 63.3286 0 11
      vertex 64.5429 20.2 9.78579
      vertex 63.3286 20.2 11
    endloop
  endfacet
  facet normal 0.707081 0 0.707133
    outer loop
      vertex 64.5429 20.2 9.78579
      vertex 63.3286 0 11
      vertex 64.5429 0 9.78579
    endloop
  endfacet
  facet normal -0.70711 0 0.707104
    outer loop
      vertex 80.4286 0 9.78579
      vertex 81.6428 20.2 11
      vertex 80.4286 20.2 9.78579
    endloop
  endfacet
  facet normal -0.70711 0 0.707104
    outer loop
      vertex 81.6428 20.2 11
      vertex 80.4286 0 9.78579
      vertex 81.6428 0 11
    endloop
  endfacet
  facet normal 0.70711 0 0.707104
    outer loop
      vertex 79.2144 20.2 11
      vertex 80.4286 0 9.78579
      vertex 80.4286 20.2 9.78579
    endloop
  endfacet
  facet normal 0.70711 0 0.707104
    outer loop
      vertex 80.4286 0 9.78579
      vertex 79.2144 20.2 11
      vertex 79.2144 0 11
    endloop
  endfacet
  facet normal -0.70711 0 0.707104
    outer loop
      vertex 96.3143 0 9.78579
      vertex 97.5285 20.2 11
      vertex 96.3143 20.2 9.78579
    endloop
  endfacet
  facet normal -0.70711 0 0.707104
    outer loop
      vertex 97.5285 20.2 11
      vertex 96.3143 0 9.78579
      vertex 97.5285 0 11
    endloop
  endfacet
  facet normal 0.70711 -0 0.707104
    outer loop
      vertex 95.1001 0 11
      vertex 96.3143 20.2 9.78579
      vertex 95.1001 20.2 11
    endloop
  endfacet
  facet normal 0.70711 0 0.707104
    outer loop
      vertex 96.3143 20.2 9.78579
      vertex 95.1001 0 11
      vertex 96.3143 0 9.78579
    endloop
  endfacet
  facet normal -1 0 0
    outer loop
      vertex 0 0 8.99
      vertex 0 20.2 11
      vertex 0 20.2 8.99
    endloop
  endfacet
  facet normal -1 -0 0
    outer loop
      vertex 0 20.2 11
      vertex 0 0 8.99
      vertex 0 0 11
    endloop
  endfacet
  facet normal -0 0 1
    outer loop
      vertex 0 20.2 11
      vertex 15.6715 0 11
      vertex 15.6715 20.2 11
    endloop
  endfacet
  facet normal 0 0 1
    outer loop
      vertex 15.6715 0 11
      vertex 0 20.2 11
      vertex 0 0 11
    endloop
  endfacet
  facet normal -0 0 1
    outer loop
      vertex 97.5285 20.2 11
      vertex 113.2 0 11
      vertex 113.2 20.2 11
    endloop
  endfacet
  facet normal 0 0 1
    outer loop
      vertex 113.2 0 11
      vertex 97.5285 20.2 11
      vertex 97.5285 0 11
    endloop
  endfacet
  facet normal -0 0 1
    outer loop
      vertex 18.0999 20.2 11
      vertex 31.5572 0 11
      vertex 31.5572 20.2 11
    endloop
  endfacet
  facet normal 0 0 1
    outer loop
      vertex 31.5572 0 11
      vertex 18.0999 20.2 11
      vertex 18.0999 0 11
    endloop
  endfacet
  facet normal -0 0 1
    outer loop
      vertex 33.9856 20.2 11
      vertex 47.4429 0 11
      vertex 47.4429 20.2 11
    endloop
  endfacet
  facet normal 0 0 1
    outer loop
      vertex 47.4429 0 11
      vertex 33.9856 20.2 11
      vertex 33.9856 0 11
    endloop
  endfacet
  facet normal -0 0 1
    outer loop
      vertex 49.8714 20.2 11
      vertex 63.3286 0 11
      vertex 63.3286 20.2 11
    endloop
  endfacet
  facet normal 0 0 1
    outer loop
      vertex 63.3286 0 11
      vertex 49.8714 20.2 11
      vertex 49.8714 0 11
    endloop
  endfacet
  facet normal -0 0 1
    outer loop
      vertex 65.7571 20.2 11
      vertex 79.2144 0 11
      vertex 79.2144 20.2 11
    endloop
  endfacet
  facet normal 0 0 1
    outer loop
      vertex 79.2144 0 11
      vertex 65.7571 20.2 11
      vertex 65.7571 0 11
    endloop
  endfacet
  facet normal -0 0 1
    outer loop
      vertex 81.6428 20.2 11
      vertex 95.1001 0 11
      vertex 95.1001 20.2 11
    endloop
  endfacet
  facet normal 0 0 1
    outer loop
      vertex 95.1001 0 11
      vertex 81.6428 20.2 11
      vertex 81.6428 0 11
    endloop
  endfacet
  facet normal 1 -0 0
    outer loop
      vertex 113.2 0 11
      vertex 113.2 20.2 8.99
      vertex 113.2 20.2 11
    endloop
  endfacet
  facet normal 1 0 0
    outer loop
      vertex 113.2 20.2 8.99
      vertex 113.2 0 11
      vertex 113.2 0 8.99
    endloop
  endfacet
  facet normal 0 0 -1
    outer loop
      vertex 2.05 2.05 7
      vertex 15.8357 18.15 7
      vertex 15.8357 2.05 7
    endloop
  endfacet
  facet normal -0 0 -1
    outer loop
      vertex 15.8357 18.15 7
      vertex 2.05 2.05 7
      vertex 2.05 18.15 7
    endloop
  endfacet
  facet normal 0 0 -1
    outer loop
      vertex 17.9357 2.05 7
      vertex 31.7214 18.15 7
      vertex 31.7214 2.05 7
    endloop
  endfacet
  facet normal -0 0 -1
    outer loop
      vertex 31.7214 18.15 7
      vertex 17.9357 2.05 7
      vertex 17.9357 18.15 7
    endloop
  endfacet
  facet normal 0 0 -1
    outer loop
      vertex 33.8214 2.05 7
      vertex 47.6071 18.15 7
      vertex 47.6071 2.05 7
    endloop
  endfacet
  facet normal -0 0 -1
    outer loop
      vertex 47.6071 18.15 7
      vertex 33.8214 2.05 7
      vertex 33.8214 18.15 7
    endloop
  endfacet
  facet normal 0 0 -1
    outer loop
      vertex 49.7071 2.05 7
      vertex 63.4929 18.15 7
      vertex 63.4929 2.05 7
    endloop
  endfacet
  facet normal -0 0 -1
    outer loop
      vertex 63.4929 18.15 7
      vertex 49.7071 2.05 7
      vertex 49.7071 18.15 7
    endloop
  endfacet
  facet normal 0 0 -1
    outer loop
      vertex 65.5929 2.05 7
      vertex 79.3786 18.15 7
      vertex 79.3786 2.05 7
    endloop
  endfacet
  facet normal -0 0 -1
    outer loop
      vertex 79.3786 18.15 7
      vertex 65.5929 2.05 7
      vertex 65.5929 18.15 7
    endloop
  endfacet
  facet normal 0 0 -1
    outer loop
      vertex 81.4786 2.05 7
      vertex 95.2643 18.15 7
      vertex 95.2643 2.05 7
    endloop
  endfacet
  facet normal -0 0 -1
    outer loop
      vertex 95.2643 18.15 7
      vertex 81.4786 2.05 7
      vertex 81.4786 18.15 7
    endloop
  endfacet
  facet normal 0 0 -1
    outer loop
      vertex 97.3643 2.05 7
      vertex 111.15 18.15 7
      vertex 111.15 2.05 7
    endloop
  endfacet
  facet normal -0 0 -1
    outer loop
      vertex 111.15 18.15 7
      vertex 97.3643 2.05 7
      vertex 97.3643 18.15 7
    endloop
  endfacet
  facet normal 0 -1 0
    outer loop
      vertex 0 0 8.99
      vertex 15.6715 0 11
      vertex 0 0 11
    endloop
  endfacet
  facet normal 0 -1 0
    outer loop
      vertex 0 0 8.99
      vertex 32.7714 0 9.78579
      vertex 16.8857 0 9.78579
    endloop
  endfacet
  facet normal 0 -1 -0
    outer loop
      vertex 32.7714 0 9.78579
      vertex 0 0 8.99
      vertex 48.6571 0 9.78579
    endloop
  endfacet
  facet normal 0 -1 -0
    outer loop
      vertex 48.6571 0 9.78579
      vertex 0 0 8.99
      vertex 64.5429 0 9.78579
    endloop
  endfacet
  facet normal 0 -1 0
    outer loop
      vertex 113.2 0 8.99
      vertex 64.5429 0 9.78579
      vertex 0 0 8.99
    endloop
  endfacet
  facet normal 0 -1 0
    outer loop
      vertex 64.5429 0 9.78579
      vertex 113.2 0 8.99
      vertex 80.4286 0 9.78579
    endloop
  endfacet
  facet normal 0 -1 -0
    outer loop
      vertex 15.6715 0 11
      vertex 0 0 8.99
      vertex 16.8857 0 9.78579
    endloop
  endfacet
  facet normal 0 -1 0
    outer loop
      vertex 16.8857 0 9.78579
      vertex 31.5572 0 11
      vertex 18.0999 0 11
    endloop
  endfacet
  facet normal 0 -1 -0
    outer loop
      vertex 31.5572 0 11
      vertex 16.8857 0 9.78579
      vertex 32.7714 0 9.78579
    endloop
  endfacet
  facet normal 0 -1 0
    outer loop
      vertex 32.7714 0 9.78579
      vertex 47.4429 0 11
      vertex 33.9856 0 11
    endloop
  endfacet
  facet normal 0 -1 -0
    outer loop
      vertex 47.4429 0 11
      vertex 32.7714 0 9.78579
      vertex 48.6571 0 9.78579
    endloop
  endfacet
  facet normal 0 -1 0
    outer loop
      vertex 48.6571 0 9.78579
      vertex 63.3286 0 11
      vertex 49.8714 0 11
    endloop
  endfacet
  facet normal 0 -1 -0
    outer loop
      vertex 63.3286 0 11
      vertex 48.6571 0 9.78579
      vertex 64.5429 0 9.78579
    endloop
  endfacet
  facet normal 0 -1 0
    outer loop
      vertex 64.5429 0 9.78579
      vertex 79.2144 0 11
      vertex 65.7571 0 11
    endloop
  endfacet
  facet normal 0 -1 -0
    outer loop
      vertex 79.2144 0 11
      vertex 64.5429 0 9.78579
      vertex 80.4286 0 9.78579
    endloop
  endfacet
  facet normal 0 -1 0
    outer loop
      vertex 80.4286 0 9.78579
      vertex 95.1001 0 11
      vertex 81.6428 0 11
    endloop
  endfacet
  facet normal 0 -1 -0
    outer loop
      vertex 95.1001 0 11
      vertex 80.4286 0 9.78579
      vertex 96.3143 0 9.78579
    endloop
  endfacet
  facet normal 0 -1 0
    outer loop
      vertex 113.2 0 8.99
      vertex 97.5285 0 11
      vertex 96.3143 0 9.78579
    endloop
  endfacet
  facet normal 0 -1 0
    outer loop
      vertex 97.5285 0 11
      vertex 113.2 0 8.99
      vertex 113.2 0 11
    endloop
  endfacet
  facet normal 0 -1 0
    outer loop
      vertex 80.4286 0 9.78579
      vertex 113.2 0 8.99
      vertex 96.3143 0 9.78579
    endloop
  endfacet
  facet normal 0 1 -0
    outer loop
      vertex 113.2 20.2 8.99
      vertex 97.5285 20.2 11
      vertex 113.2 20.2 11
    endloop
  endfacet
  facet normal 0 1 0
    outer loop
      vertex 113.2 20.2 8.99
      vertex 80.4286 20.2 9.78579
      vertex 96.3143 20.2 9.78579
    endloop
  endfacet
  facet normal 0 1 0
    outer loop
      vertex 80.4286 20.2 9.78579
      vertex 113.2 20.2 8.99
      vertex 64.5429 20.2 9.78579
    endloop
  endfacet
  facet normal 0 1 0
    outer loop
      vertex 64.5429 20.2 9.78579
      vertex 113.2 20.2 8.99
      vertex 48.6571 20.2 9.78579
    endloop
  endfacet
  facet normal 0 1 0
    outer loop
      vertex 0 20.2 8.99
      vertex 48.6571 20.2 9.78579
      vertex 113.2 20.2 8.99
    endloop
  endfacet
  facet normal 0 1 0
    outer loop
      vertex 48.6571 20.2 9.78579
      vertex 0 20.2 8.99
      vertex 32.7714 20.2 9.78579
    endloop
  endfacet
  facet normal 0 1 0
    outer loop
      vertex 97.5285 20.2 11
      vertex 113.2 20.2 8.99
      vertex 96.3143 20.2 9.78579
    endloop
  endfacet
  facet normal 0 1 0
    outer loop
      vertex 96.3143 20.2 9.78579
      vertex 81.6428 20.2 11
      vertex 95.1001 20.2 11
    endloop
  endfacet
  facet normal 0 1 0
    outer loop
      vertex 81.6428 20.2 11
      vertex 96.3143 20.2 9.78579
      vertex 80.4286 20.2 9.78579
    endloop
  endfacet
  facet normal 0 1 0
    outer loop
      vertex 80.4286 20.2 9.78579
      vertex 65.7571 20.2 11
      vertex 79.2144 20.2 11
    endloop
  endfacet
  facet normal 0 1 0
    outer loop
      vertex 65.7571 20.2 11
      vertex 80.4286 20.2 9.78579
      vertex 64.5429 20.2 9.78579
    endloop
  endfacet
  facet normal 0 1 0
    outer loop
      vertex 64.5429 20.2 9.78579
      vertex 49.8714 20.2 11
      vertex 63.3286 20.2 11
    endloop
  endfacet
  facet normal 0 1 0
    outer loop
      vertex 49.8714 20.2 11
      vertex 64.5429 20.2 9.78579
      vertex 48.6571 20.2 9.78579
    endloop
  endfacet
  facet normal 0 1 0
    outer loop
      vertex 48.6571 20.2 9.78579
      vertex 33.9856 20.2 11
      vertex 47.4429 20.2 11
    endloop
  endfacet
  facet normal 0 1 0
    outer loop
      vertex 33.9856 20.2 11
      vertex 48.6571 20.2 9.78579
      vertex 32.7714 20.2 9.78579
    endloop
  endfacet
  facet normal 0 1 0
    outer loop
      vertex 32.7714 20.2 9.78579
      vertex 18.0999 20.2 11
      vertex 31.5572 20.2 11
    endloop
  endfacet
  facet normal 0 1 0
    outer loop
      vertex 18.0999 20.2 11
      vertex 32.7714 20.2 9.78579
      vertex 16.8857 20.2 9.78579
    endloop
  endfacet
  facet normal 0 1 0
    outer loop
      vertex 0 20.2 8.99
      vertex 15.6715 20.2 11
      vertex 16.8857 20.2 9.78579
    endloop
  endfacet
  facet normal 0 1 0
    outer loop
      vertex 15.6715 20.2 11
      vertex 0 20.2 8.99
      vertex 0 20.2 11
    endloop
  endfacet
  facet normal 0 1 0
    outer loop
      vertex 32.7714 20.2 9.78579
      vertex 0 20.2 8.99
      vertex 16.8857 20.2 9.78579
    endloop
  endfacet
  facet normal 0 -1 0
    outer loop
      vertex 2.05 2.05 7
      vertex 15.8357 2.05 8.99
      vertex 2.05 2.05 8.99
    endloop
  endfacet
  facet normal 0 -1 -0
    outer loop
      vertex 15.8357 2.05 8.99
      vertex 2.05 2.05 7
      vertex 15.8357 2.05 7
    endloop
  endfacet
  facet normal 0 -1 0
    outer loop
      vertex 17.9357 2.05 7
      vertex 31.7214 2.05 8.99
      vertex 17.9357 2.05 8.99
    endloop
  endfacet
  facet normal 0 -1 -0
    outer loop
      vertex 31.7214 2.05 8.99
      vertex 17.9357 2.05 7
      vertex 31.7214 2.05 7
    endloop
  endfacet
  facet normal 0 -1 0
    outer loop
      vertex 33.8214 2.05 7
      vertex 47.6071 2.05 8.99
      vertex 33.8214 2.05 8.99
    endloop
  endfacet
  facet normal 0 -1 -0
    outer loop
      vertex 47.6071 2.05 8.99
      vertex 33.8214 2.05 7
      vertex 47.6071 2.05 7
    endloop
  endfacet
  facet normal 0 -1 0
    outer loop
      vertex 49.7071 2.05 7
      vertex 63.4929 2.05 8.99
      vertex 49.7071 2.05 8.99
    endloop
  endfacet
  facet normal 0 -1 -0
    outer loop
      vertex 63.4929 2.05 8.99
      vertex 49.7071 2.05 7
      vertex 63.4929 2.05 7
    endloop
  endfacet
  facet normal 0 -1 0
    outer loop
      vertex 65.5929 2.05 7
      vertex 79.3786 2.05 8.99
      vertex 65.5929 2.05 8.99
    endloop
  endfacet
  facet normal 0 -1 -0
    outer loop
      vertex 79.3786 2.05 8.99
      vertex 65.5929 2.05 7
      vertex 79.3786 2.05 7
    endloop
  endfacet
  facet normal 0 -1 0
    outer loop
      vertex 81.4786 2.05 7
      vertex 95.2643 2.05 8.99
      vertex 81.4786 2.05 8.99
    endloop
  endfacet
  facet normal 0 -1 -0
    outer loop
      vertex 95.2643 2.05 8.99
      vertex 81.4786 2.05 7
      vertex 95.2643 2.05 7
    endloop
  endfacet
  facet normal 0 -1 0
    outer loop
      vertex 97.3643 2.05 7
      vertex 111.15 2.05 8.99
      vertex 97.3643 2.05 8.99
    endloop
  endfacet
  facet normal 0 -1 -0
    outer loop
      vertex 111.15 2.05 8.99
      vertex 97.3643 2.05 7
      vertex 111.15 2.05 7
    endloop
  endfacet
  facet normal 0 1 -0
    outer loop
      vertex 15.8357 18.15 7
      vertex 2.05 18.15 8.99
      vertex 15.8357 18.15 8.99
    endloop
  endfacet
  facet normal 0 1 0
    outer loop
      vertex 2.05 18.15 8.99
      vertex 15.8357 18.15 7
      vertex 2.05 18.15 7
    endloop
  endfacet
  facet normal 0 1 -0
    outer loop
      vertex 31.7214 18.15 7
      vertex 17.9357 18.15 8.99
      vertex 31.7214 18.15 8.99
    endloop
  endfacet
  facet normal 0 1 0
    outer loop
      vertex 17.9357 18.15 8.99
      vertex 31.7214 18.15 7
      vertex 17.9357 18.15 7
    endloop
  endfacet
  facet normal 0 1 -0
    outer loop
      vertex 47.6071 18.15 7
      vertex 33.8214 18.15 8.99
      vertex 47.6071 18.15 8.99
    endloop
  endfacet
  facet normal 0 1 0
    outer loop
      vertex 33.8214 18.15 8.99
      vertex 47.6071 18.15 7
      vertex 33.8214 18.15 7
    endloop
  endfacet
  facet normal 0 1 -0
    outer loop
      vertex 63.4929 18.15 7
      vertex 49.7071 18.15 8.99
      vertex 63.4929 18.15 8.99
    endloop
  endfacet
  facet normal 0 1 0
    outer loop
      vertex 49.7071 18.15 8.99
      vertex 63.4929 18.15 7
      vertex 49.7071 18.15 7
    endloop
  endfacet
  facet normal 0 1 -0
    outer loop
      vertex 79.3786 18.15 7
      vertex 65.5929 18.15 8.99
      vertex 79.3786 18.15 8.99
    endloop
  endfacet
  facet normal 0 1 0
    outer loop
      vertex 65.5929 18.15 8.99
      vertex 79.3786 18.15 7
      vertex 65.5929 18.15 7
    endloop
  endfacet
  facet normal 0 1 -0
    outer loop
      vertex 95.2643 18.15 7
      vertex 81.4786 18.15 8.99
      vertex 95.2643 18.15 8.99
    endloop
  endfacet
  facet normal 0 1 0
    outer loop
      vertex 81.4786 18.15 8.99
      vertex 95.2643 18.15 7
      vertex 81.4786 18.15 7
    endloop
  endfacet
  facet normal 0 1 -0
    outer loop
      vertex 111.15 18.15 7
      vertex 97.3643 18.15 8.99
      vertex 111.15 18.15 8.99
    endloop
  endfacet
  facet normal 0 1 0
    outer loop
      vertex 97.3643 18.15 8.99
      vertex 111.15 18.15 7
      vertex 97.3643 18.15 7
    endloop
  endfacet
endsolid OpenSCAD_Model
