solid OpenSCAD_Model
  facet normal 1 0 0
    outer loop
      vertex 2 16.2 0.00999928
      vertex 2 18.2 2
      vertex 2 18.2 4
    endloop
  endfacet
  facet normal 1 0 0
    outer loop
      vertex 2 18.2 2
      vertex 2 16.2 0.00999928
      vertex 2 16.21 0.00999928
    endloop
  endfacet
  facet normal 1 0 0
    outer loop
      vertex 2 16.2 0.00999928
      vertex 2 4 0.00999928
      vertex 2 16.2 0
    endloop
  endfacet
  facet normal 1 0 0
    outer loop
      vertex 2 18.2 4
      vertex 2 4 0.00999928
      vertex 2 16.2 0.00999928
    endloop
  endfacet
  facet normal 1 -0 0
    outer loop
      vertex 2 2 4
      vertex 2 4 0.00999928
      vertex 2 18.2 4
    endloop
  endfacet
  facet normal 1 -0 0
    outer loop
      vertex 2 2 2
      vertex 2 4 0.00999928
      vertex 2 2 4
    endloop
  endfacet
  facet normal 1 0 0
    outer loop
      vertex 2 4 0.00999928
      vertex 2 2 2
      vertex 2 3.99 0.00999928
    endloop
  endfacet
  facet normal 1 0 0
    outer loop
      vertex 2 16.2 0
      vertex 2 4 0.00999928
      vertex 2 4 0
    endloop
  endfacet
  facet normal -1 0 0
    outer loop
      vertex 2 16.2 -3.99
      vertex 2 18.2 0
      vertex 2 18.2 -3.99
    endloop
  endfacet
  facet normal -1 -0 0
    outer loop
      vertex 2 18.2 0
      vertex 2 16.2 -3.99
      vertex 2 16.2 0
    endloop
  endfacet
  facet normal -1 0 0
    outer loop
      vertex 2 2 -3.99
      vertex 2 4 0
      vertex 2 4 -3.99
    endloop
  endfacet
  facet normal -1 -0 0
    outer loop
      vertex 2 4 0
      vertex 2 2 -3.99
      vertex 2 2 0
    endloop
  endfacet
  facet normal -1 0 0
    outer loop
      vertex 16.5714 16.2 0
      vertex 16.5714 4 0
      vertex 16.5714 16.2 0.00999928
    endloop
  endfacet
  facet normal -1 0 0
    outer loop
      vertex 16.5714 16.2 0.00999928
      vertex 16.5714 18.2 2
      vertex 16.5714 16.21 0.00999928
    endloop
  endfacet
  facet normal -1 -0 0
    outer loop
      vertex 16.5714 18.2 2
      vertex 16.5714 16.2 0.00999928
      vertex 16.5714 18.2 4
    endloop
  endfacet
  facet normal -1 0 0
    outer loop
      vertex 16.5714 4 0.00999928
      vertex 16.5714 16.2 0.00999928
      vertex 16.5714 4 0
    endloop
  endfacet
  facet normal -1 0 0
    outer loop
      vertex 16.5714 16.2 0.00999928
      vertex 16.5714 4 0.00999928
      vertex 16.5714 18.2 4
    endloop
  endfacet
  facet normal -1 0 0
    outer loop
      vertex 16.5714 2 2
      vertex 16.5714 4 0.00999928
      vertex 16.5714 3.99 0.00999928
    endloop
  endfacet
  facet normal -1 0 0
    outer loop
      vertex 16.5714 4 0.00999928
      vertex 16.5714 2 2
      vertex 16.5714 2 4
    endloop
  endfacet
  facet normal -1 0 0
    outer loop
      vertex 16.5714 4 0.00999928
      vertex 16.5714 2 4
      vertex 16.5714 18.2 4
    endloop
  endfacet
  facet normal 0 -1 0
    outer loop
      vertex 2 18.2 2
      vertex 16.5714 18.2 4
      vertex 2 18.2 4
    endloop
  endfacet
  facet normal 0 -1 -0
    outer loop
      vertex 16.5714 18.2 4
      vertex 2 18.2 2
      vertex 16.5714 18.2 2
    endloop
  endfacet
  facet normal 0 1 -0
    outer loop
      vertex 116 18.2 -3.99
      vertex 2 18.2 0
      vertex 116 18.2 0
    endloop
  endfacet
  facet normal 0 1 0
    outer loop
      vertex 2 18.2 0
      vertex 116 18.2 -3.99
      vertex 2 18.2 -3.99
    endloop
  endfacet
  facet normal 0 -1 0
    outer loop
      vertex 101.429 18.2 2
      vertex 116 18.2 4
      vertex 101.429 18.2 4
    endloop
  endfacet
  facet normal 0 -1 -0
    outer loop
      vertex 116 18.2 4
      vertex 101.429 18.2 2
      vertex 116 18.2 2
    endloop
  endfacet
  facet normal 0 -1 0
    outer loop
      vertex 18.5714 18.2 2
      vertex 33.1429 18.2 4
      vertex 18.5714 18.2 4
    endloop
  endfacet
  facet normal 0 -1 -0
    outer loop
      vertex 33.1429 18.2 4
      vertex 18.5714 18.2 2
      vertex 33.1429 18.2 2
    endloop
  endfacet
  facet normal 0 -1 0
    outer loop
      vertex 35.1429 18.2 2
      vertex 49.7143 18.2 4
      vertex 35.1429 18.2 4
    endloop
  endfacet
  facet normal 0 -1 -0
    outer loop
      vertex 49.7143 18.2 4
      vertex 35.1429 18.2 2
      vertex 49.7143 18.2 2
    endloop
  endfacet
  facet normal 0 -1 0
    outer loop
      vertex 51.7143 18.2 2
      vertex 66.2857 18.2 4
      vertex 51.7143 18.2 4
    endloop
  endfacet
  facet normal 0 -1 -0
    outer loop
      vertex 66.2857 18.2 4
      vertex 51.7143 18.2 2
      vertex 66.2857 18.2 2
    endloop
  endfacet
  facet normal 0 -1 0
    outer loop
      vertex 68.2857 18.2 2
      vertex 82.8571 18.2 4
      vertex 68.2857 18.2 4
    endloop
  endfacet
  facet normal 0 -1 -0
    outer loop
      vertex 82.8571 18.2 4
      vertex 68.2857 18.2 2
      vertex 82.8571 18.2 2
    endloop
  endfacet
  facet normal 0 -1 0
    outer loop
      vertex 84.8571 18.2 2
      vertex 99.4286 18.2 4
      vertex 84.8571 18.2 4
    endloop
  endfacet
  facet normal 0 -1 -0
    outer loop
      vertex 99.4286 18.2 4
      vertex 84.8571 18.2 2
      vertex 99.4286 18.2 2
    endloop
  endfacet
  facet normal 0 -1 0
    outer loop
      vertex 2 2 -3.99
      vertex 116 2 0
      vertex 2 2 0
    endloop
  endfacet
  facet normal 0 -1 -0
    outer loop
      vertex 116 2 0
      vertex 2 2 -3.99
      vertex 116 2 -3.99
    endloop
  endfacet
  facet normal 0 1 -0
    outer loop
      vertex 16.5714 2 2
      vertex 2 2 4
      vertex 16.5714 2 4
    endloop
  endfacet
  facet normal 0 1 0
    outer loop
      vertex 2 2 4
      vertex 16.5714 2 2
      vertex 2 2 2
    endloop
  endfacet
  facet normal 0 1 -0
    outer loop
      vertex 116 2 2
      vertex 101.429 2 4
      vertex 116 2 4
    endloop
  endfacet
  facet normal 0 1 0
    outer loop
      vertex 101.429 2 4
      vertex 116 2 2
      vertex 101.429 2 2
    endloop
  endfacet
  facet normal 0 1 -0
    outer loop
      vertex 33.1429 2 2
      vertex 18.5714 2 4
      vertex 33.1429 2 4
    endloop
  endfacet
  facet normal 0 1 0
    outer loop
      vertex 18.5714 2 4
      vertex 33.1429 2 2
      vertex 18.5714 2 2
    endloop
  endfacet
  facet normal 0 1 -0
    outer loop
      vertex 49.7143 2 2
      vertex 35.1429 2 4
      vertex 49.7143 2 4
    endloop
  endfacet
  facet normal 0 1 0
    outer loop
      vertex 35.1429 2 4
      vertex 49.7143 2 2
      vertex 35.1429 2 2
    endloop
  endfacet
  facet normal 0 1 -0
    outer loop
      vertex 66.2857 2 2
      vertex 51.7143 2 4
      vertex 66.2857 2 4
    endloop
  endfacet
  facet normal 0 1 0
    outer loop
      vertex 51.7143 2 4
      vertex 66.2857 2 2
      vertex 51.7143 2 2
    endloop
  endfacet
  facet normal 0 1 -0
    outer loop
      vertex 82.8571 2 2
      vertex 68.2857 2 4
      vertex 82.8571 2 4
    endloop
  endfacet
  facet normal 0 1 0
    outer loop
      vertex 68.2857 2 4
      vertex 82.8571 2 2
      vertex 68.2857 2 2
    endloop
  endfacet
  facet normal 0 1 -0
    outer loop
      vertex 99.4286 2 2
      vertex 84.8571 2 4
      vertex 99.4286 2 4
    endloop
  endfacet
  facet normal 0 1 0
    outer loop
      vertex 84.8571 2 4
      vertex 99.4286 2 2
      vertex 84.8571 2 2
    endloop
  endfacet
  facet normal 1 0 0
    outer loop
      vertex 18.5714 16.2 0.00999928
      vertex 18.5714 18.2 2
      vertex 18.5714 18.2 4
    endloop
  endfacet
  facet normal 1 0 0
    outer loop
      vertex 18.5714 18.2 2
      vertex 18.5714 16.2 0.00999928
      vertex 18.5714 16.21 0.00999928
    endloop
  endfacet
  facet normal 1 0 0
    outer loop
      vertex 18.5714 16.2 0.00999928
      vertex 18.5714 4 0.00999928
      vertex 18.5714 16.2 0
    endloop
  endfacet
  facet normal 1 0 0
    outer loop
      vertex 18.5714 18.2 4
      vertex 18.5714 4 0.00999928
      vertex 18.5714 16.2 0.00999928
    endloop
  endfacet
  facet normal 1 -0 0
    outer loop
      vertex 18.5714 2 4
      vertex 18.5714 4 0.00999928
      vertex 18.5714 18.2 4
    endloop
  endfacet
  facet normal 1 -0 0
    outer loop
      vertex 18.5714 2 2
      vertex 18.5714 4 0.00999928
      vertex 18.5714 2 4
    endloop
  endfacet
  facet normal 1 0 0
    outer loop
      vertex 18.5714 4 0.00999928
      vertex 18.5714 2 2
      vertex 18.5714 3.99 0.00999928
    endloop
  endfacet
  facet normal 1 0 0
    outer loop
      vertex 18.5714 16.2 0
      vertex 18.5714 4 0.00999928
      vertex 18.5714 4 0
    endloop
  endfacet
  facet normal -1 0 0
    outer loop
      vertex 33.1429 16.2 0
      vertex 33.1429 4 0
      vertex 33.1429 16.2 0.00999928
    endloop
  endfacet
  facet normal -1 0 0
    outer loop
      vertex 33.1429 16.2 0.00999928
      vertex 33.1429 18.2 2
      vertex 33.1429 16.21 0.00999928
    endloop
  endfacet
  facet normal -1 -0 0
    outer loop
      vertex 33.1429 18.2 2
      vertex 33.1429 16.2 0.00999928
      vertex 33.1429 18.2 4
    endloop
  endfacet
  facet normal -1 0 0
    outer loop
      vertex 33.1429 4 0.00999928
      vertex 33.1429 16.2 0.00999928
      vertex 33.1429 4 0
    endloop
  endfacet
  facet normal -1 0 0
    outer loop
      vertex 33.1429 16.2 0.00999928
      vertex 33.1429 4 0.00999928
      vertex 33.1429 18.2 4
    endloop
  endfacet
  facet normal -1 0 0
    outer loop
      vertex 33.1429 2 2
      vertex 33.1429 4 0.00999928
      vertex 33.1429 3.99 0.00999928
    endloop
  endfacet
  facet normal -1 0 0
    outer loop
      vertex 33.1429 4 0.00999928
      vertex 33.1429 2 2
      vertex 33.1429 2 4
    endloop
  endfacet
  facet normal -1 0 0
    outer loop
      vertex 33.1429 4 0.00999928
      vertex 33.1429 2 4
      vertex 33.1429 18.2 4
    endloop
  endfacet
  facet normal 1 0 0
    outer loop
      vertex 35.1429 16.2 0.00999928
      vertex 35.1429 18.2 2
      vertex 35.1429 18.2 4
    endloop
  endfacet
  facet normal 1 0 0
    outer loop
      vertex 35.1429 18.2 2
      vertex 35.1429 16.2 0.00999928
      vertex 35.1429 16.21 0.00999928
    endloop
  endfacet
  facet normal 1 0 0
    outer loop
      vertex 35.1429 16.2 0.00999928
      vertex 35.1429 4 0.00999928
      vertex 35.1429 16.2 0
    endloop
  endfacet
  facet normal 1 0 0
    outer loop
      vertex 35.1429 18.2 4
      vertex 35.1429 4 0.00999928
      vertex 35.1429 16.2 0.00999928
    endloop
  endfacet
  facet normal 1 -0 0
    outer loop
      vertex 35.1429 2 4
      vertex 35.1429 4 0.00999928
      vertex 35.1429 18.2 4
    endloop
  endfacet
  facet normal 1 -0 0
    outer loop
      vertex 35.1429 2 2
      vertex 35.1429 4 0.00999928
      vertex 35.1429 2 4
    endloop
  endfacet
  facet normal 1 0 0
    outer loop
      vertex 35.1429 4 0.00999928
      vertex 35.1429 2 2
      vertex 35.1429 3.99 0.00999928
    endloop
  endfacet
  facet normal 1 0 0
    outer loop
      vertex 35.1429 16.2 0
      vertex 35.1429 4 0.00999928
      vertex 35.1429 4 0
    endloop
  endfacet
  facet normal -1 0 0
    outer loop
      vertex 49.7143 16.2 0
      vertex 49.7143 4 0
      vertex 49.7143 16.2 0.00999928
    endloop
  endfacet
  facet normal -1 0 0
    outer loop
      vertex 49.7143 16.2 0.00999928
      vertex 49.7143 18.2 2
      vertex 49.7143 16.21 0.00999928
    endloop
  endfacet
  facet normal -1 -0 0
    outer loop
      vertex 49.7143 18.2 2
      vertex 49.7143 16.2 0.00999928
      vertex 49.7143 18.2 4
    endloop
  endfacet
  facet normal -1 0 0
    outer loop
      vertex 49.7143 4 0.00999928
      vertex 49.7143 16.2 0.00999928
      vertex 49.7143 4 0
    endloop
  endfacet
  facet normal -1 0 0
    outer loop
      vertex 49.7143 16.2 0.00999928
      vertex 49.7143 4 0.00999928
      vertex 49.7143 18.2 4
    endloop
  endfacet
  facet normal -1 0 0
    outer loop
      vertex 49.7143 2 2
      vertex 49.7143 4 0.00999928
      vertex 49.7143 3.99 0.00999928
    endloop
  endfacet
  facet normal -1 0 0
    outer loop
      vertex 49.7143 4 0.00999928
      vertex 49.7143 2 2
      vertex 49.7143 2 4
    endloop
  endfacet
  facet normal -1 0 0
    outer loop
      vertex 49.7143 4 0.00999928
      vertex 49.7143 2 4
      vertex 49.7143 18.2 4
    endloop
  endfacet
  facet normal 1 0 0
    outer loop
      vertex 51.7143 16.2 0.00999928
      vertex 51.7143 18.2 2
      vertex 51.7143 18.2 4
    endloop
  endfacet
  facet normal 1 0 0
    outer loop
      vertex 51.7143 18.2 2
      vertex 51.7143 16.2 0.00999928
      vertex 51.7143 16.21 0.00999928
    endloop
  endfacet
  facet normal 1 0 0
    outer loop
      vertex 51.7143 16.2 0.00999928
      vertex 51.7143 4 0.00999928
      vertex 51.7143 16.2 0
    endloop
  endfacet
  facet normal 1 0 0
    outer loop
      vertex 51.7143 18.2 4
      vertex 51.7143 4 0.00999928
      vertex 51.7143 16.2 0.00999928
    endloop
  endfacet
  facet normal 1 -0 0
    outer loop
      vertex 51.7143 2 4
      vertex 51.7143 4 0.00999928
      vertex 51.7143 18.2 4
    endloop
  endfacet
  facet normal 1 -0 0
    outer loop
      vertex 51.7143 2 2
      vertex 51.7143 4 0.00999928
      vertex 51.7143 2 4
    endloop
  endfacet
  facet normal 1 0 0
    outer loop
      vertex 51.7143 4 0.00999928
      vertex 51.7143 2 2
      vertex 51.7143 3.99 0.00999928
    endloop
  endfacet
  facet normal 1 0 0
    outer loop
      vertex 51.7143 16.2 0
      vertex 51.7143 4 0.00999928
      vertex 51.7143 4 0
    endloop
  endfacet
  facet normal -1 0 0
    outer loop
      vertex 66.2857 16.2 0
      vertex 66.2857 4 0
      vertex 66.2857 16.2 0.00999928
    endloop
  endfacet
  facet normal -1 0 0
    outer loop
      vertex 66.2857 16.2 0.00999928
      vertex 66.2857 18.2 2
      vertex 66.2857 16.21 0.00999928
    endloop
  endfacet
  facet normal -1 -0 0
    outer loop
      vertex 66.2857 18.2 2
      vertex 66.2857 16.2 0.00999928
      vertex 66.2857 18.2 4
    endloop
  endfacet
  facet normal -1 0 0
    outer loop
      vertex 66.2857 4 0.00999928
      vertex 66.2857 16.2 0.00999928
      vertex 66.2857 4 0
    endloop
  endfacet
  facet normal -1 0 0
    outer loop
      vertex 66.2857 16.2 0.00999928
      vertex 66.2857 4 0.00999928
      vertex 66.2857 18.2 4
    endloop
  endfacet
  facet normal -1 0 0
    outer loop
      vertex 66.2857 2 2
      vertex 66.2857 4 0.00999928
      vertex 66.2857 3.99 0.00999928
    endloop
  endfacet
  facet normal -1 0 0
    outer loop
      vertex 66.2857 4 0.00999928
      vertex 66.2857 2 2
      vertex 66.2857 2 4
    endloop
  endfacet
  facet normal -1 0 0
    outer loop
      vertex 66.2857 4 0.00999928
      vertex 66.2857 2 4
      vertex 66.2857 18.2 4
    endloop
  endfacet
  facet normal 1 0 0
    outer loop
      vertex 68.2857 16.2 0.00999928
      vertex 68.2857 18.2 2
      vertex 68.2857 18.2 4
    endloop
  endfacet
  facet normal 1 0 0
    outer loop
      vertex 68.2857 18.2 2
      vertex 68.2857 16.2 0.00999928
      vertex 68.2857 16.21 0.00999928
    endloop
  endfacet
  facet normal 1 0 0
    outer loop
      vertex 68.2857 16.2 0.00999928
      vertex 68.2857 4 0.00999928
      vertex 68.2857 16.2 0
    endloop
  endfacet
  facet normal 1 0 0
    outer loop
      vertex 68.2857 18.2 4
      vertex 68.2857 4 0.00999928
      vertex 68.2857 16.2 0.00999928
    endloop
  endfacet
  facet normal 1 -0 0
    outer loop
      vertex 68.2857 2 4
      vertex 68.2857 4 0.00999928
      vertex 68.2857 18.2 4
    endloop
  endfacet
  facet normal 1 -0 0
    outer loop
      vertex 68.2857 2 2
      vertex 68.2857 4 0.00999928
      vertex 68.2857 2 4
    endloop
  endfacet
  facet normal 1 0 0
    outer loop
      vertex 68.2857 4 0.00999928
      vertex 68.2857 2 2
      vertex 68.2857 3.99 0.00999928
    endloop
  endfacet
  facet normal 1 0 0
    outer loop
      vertex 68.2857 16.2 0
      vertex 68.2857 4 0.00999928
      vertex 68.2857 4 0
    endloop
  endfacet
  facet normal -1 0 0
    outer loop
      vertex 82.8571 16.2 0
      vertex 82.8571 4 0
      vertex 82.8571 16.2 0.00999928
    endloop
  endfacet
  facet normal -1 0 0
    outer loop
      vertex 82.8571 16.2 0.00999928
      vertex 82.8571 18.2 2
      vertex 82.8571 16.21 0.00999928
    endloop
  endfacet
  facet normal -1 -0 0
    outer loop
      vertex 82.8571 18.2 2
      vertex 82.8571 16.2 0.00999928
      vertex 82.8571 18.2 4
    endloop
  endfacet
  facet normal -1 0 0
    outer loop
      vertex 82.8571 4 0.00999928
      vertex 82.8571 16.2 0.00999928
      vertex 82.8571 4 0
    endloop
  endfacet
  facet normal -1 0 0
    outer loop
      vertex 82.8571 16.2 0.00999928
      vertex 82.8571 4 0.00999928
      vertex 82.8571 18.2 4
    endloop
  endfacet
  facet normal -1 0 0
    outer loop
      vertex 82.8571 2 2
      vertex 82.8571 4 0.00999928
      vertex 82.8571 3.99 0.00999928
    endloop
  endfacet
  facet normal -1 0 0
    outer loop
      vertex 82.8571 4 0.00999928
      vertex 82.8571 2 2
      vertex 82.8571 2 4
    endloop
  endfacet
  facet normal -1 0 0
    outer loop
      vertex 82.8571 4 0.00999928
      vertex 82.8571 2 4
      vertex 82.8571 18.2 4
    endloop
  endfacet
  facet normal 1 0 0
    outer loop
      vertex 84.8571 16.2 0.00999928
      vertex 84.8571 18.2 2
      vertex 84.8571 18.2 4
    endloop
  endfacet
  facet normal 1 0 0
    outer loop
      vertex 84.8571 18.2 2
      vertex 84.8571 16.2 0.00999928
      vertex 84.8571 16.21 0.00999928
    endloop
  endfacet
  facet normal 1 0 0
    outer loop
      vertex 84.8571 16.2 0.00999928
      vertex 84.8571 4 0.00999928
      vertex 84.8571 16.2 0
    endloop
  endfacet
  facet normal 1 0 0
    outer loop
      vertex 84.8571 18.2 4
      vertex 84.8571 4 0.00999928
      vertex 84.8571 16.2 0.00999928
    endloop
  endfacet
  facet normal 1 -0 0
    outer loop
      vertex 84.8571 2 4
      vertex 84.8571 4 0.00999928
      vertex 84.8571 18.2 4
    endloop
  endfacet
  facet normal 1 -0 0
    outer loop
      vertex 84.8571 2 2
      vertex 84.8571 4 0.00999928
      vertex 84.8571 2 4
    endloop
  endfacet
  facet normal 1 0 0
    outer loop
      vertex 84.8571 4 0.00999928
      vertex 84.8571 2 2
      vertex 84.8571 3.99 0.00999928
    endloop
  endfacet
  facet normal 1 0 0
    outer loop
      vertex 84.8571 16.2 0
      vertex 84.8571 4 0.00999928
      vertex 84.8571 4 0
    endloop
  endfacet
  facet normal -1 0 0
    outer loop
      vertex 99.4286 16.2 0
      vertex 99.4286 4 0
      vertex 99.4286 16.2 0.00999928
    endloop
  endfacet
  facet normal -1 0 0
    outer loop
      vertex 99.4286 16.2 0.00999928
      vertex 99.4286 18.2 2
      vertex 99.4286 16.21 0.00999928
    endloop
  endfacet
  facet normal -1 -0 0
    outer loop
      vertex 99.4286 18.2 2
      vertex 99.4286 16.2 0.00999928
      vertex 99.4286 18.2 4
    endloop
  endfacet
  facet normal -1 0 0
    outer loop
      vertex 99.4286 4 0.00999928
      vertex 99.4286 16.2 0.00999928
      vertex 99.4286 4 0
    endloop
  endfacet
  facet normal -1 0 0
    outer loop
      vertex 99.4286 16.2 0.00999928
      vertex 99.4286 4 0.00999928
      vertex 99.4286 18.2 4
    endloop
  endfacet
  facet normal -1 0 0
    outer loop
      vertex 99.4286 2 2
      vertex 99.4286 4 0.00999928
      vertex 99.4286 3.99 0.00999928
    endloop
  endfacet
  facet normal -1 0 0
    outer loop
      vertex 99.4286 4 0.00999928
      vertex 99.4286 2 2
      vertex 99.4286 2 4
    endloop
  endfacet
  facet normal -1 0 0
    outer loop
      vertex 99.4286 4 0.00999928
      vertex 99.4286 2 4
      vertex 99.4286 18.2 4
    endloop
  endfacet
  facet normal 1 0 0
    outer loop
      vertex 101.429 16.2 0.00999928
      vertex 101.429 18.2 2
      vertex 101.429 18.2 4
    endloop
  endfacet
  facet normal 1 0 0
    outer loop
      vertex 101.429 18.2 2
      vertex 101.429 16.2 0.00999928
      vertex 101.429 16.21 0.00999928
    endloop
  endfacet
  facet normal 1 0 0
    outer loop
      vertex 101.429 16.2 0.00999928
      vertex 101.429 4 0.00999928
      vertex 101.429 16.2 0
    endloop
  endfacet
  facet normal 1 0 0
    outer loop
      vertex 101.429 18.2 4
      vertex 101.429 4 0.00999928
      vertex 101.429 16.2 0.00999928
    endloop
  endfacet
  facet normal 1 -0 0
    outer loop
      vertex 101.429 2 4
      vertex 101.429 4 0.00999928
      vertex 101.429 18.2 4
    endloop
  endfacet
  facet normal 1 -0 0
    outer loop
      vertex 101.429 2 2
      vertex 101.429 4 0.00999928
      vertex 101.429 2 4
    endloop
  endfacet
  facet normal 1 0 0
    outer loop
      vertex 101.429 4 0.00999928
      vertex 101.429 2 2
      vertex 101.429 3.99 0.00999928
    endloop
  endfacet
  facet normal 1 0 0
    outer loop
      vertex 101.429 16.2 0
      vertex 101.429 4 0.00999928
      vertex 101.429 4 0
    endloop
  endfacet
  facet normal 1 -0 0
    outer loop
      vertex 116 16.2 0
      vertex 116 18.2 -3.99
      vertex 116 18.2 0
    endloop
  endfacet
  facet normal 1 0 0
    outer loop
      vertex 116 18.2 -3.99
      vertex 116 16.2 0
      vertex 116 16.2 -3.99
    endloop
  endfacet
  facet normal -1 0 0
    outer loop
      vertex 116 16.2 0
      vertex 116 4 0
      vertex 116 16.2 0.00999928
    endloop
  endfacet
  facet normal -1 0 0
    outer loop
      vertex 116 16.2 0.00999928
      vertex 116 18.2 2
      vertex 116 16.21 0.00999928
    endloop
  endfacet
  facet normal -1 -0 0
    outer loop
      vertex 116 18.2 2
      vertex 116 16.2 0.00999928
      vertex 116 18.2 4
    endloop
  endfacet
  facet normal -1 0 0
    outer loop
      vertex 116 4 0.00999928
      vertex 116 16.2 0.00999928
      vertex 116 4 0
    endloop
  endfacet
  facet normal -1 0 0
    outer loop
      vertex 116 16.2 0.00999928
      vertex 116 4 0.00999928
      vertex 116 18.2 4
    endloop
  endfacet
  facet normal -1 0 0
    outer loop
      vertex 116 2 2
      vertex 116 4 0.00999928
      vertex 116 3.99 0.00999928
    endloop
  endfacet
  facet normal -1 0 0
    outer loop
      vertex 116 4 0.00999928
      vertex 116 2 2
      vertex 116 2 4
    endloop
  endfacet
  facet normal -1 0 0
    outer loop
      vertex 116 4 0.00999928
      vertex 116 2 4
      vertex 116 18.2 4
    endloop
  endfacet
  facet normal 1 -0 0
    outer loop
      vertex 116 2 0
      vertex 116 4 -3.99
      vertex 116 4 0
    endloop
  endfacet
  facet normal 1 0 0
    outer loop
      vertex 116 4 -3.99
      vertex 116 2 0
      vertex 116 2 -3.99
    endloop
  endfacet
  facet normal -1 0 0
    outer loop
      vertex 0 0 2.5
      vertex 0 20.2 0
      vertex 0 0 0
    endloop
  endfacet
  facet normal -1 0 0
    outer loop
      vertex 0 20.2 0
      vertex 0 0 2.5
      vertex 0 20.2 4
    endloop
  endfacet
  facet normal -1 0 0
    outer loop
      vertex 0 -3 4
      vertex 0 0 2.5
      vertex 0 -3 2.5
    endloop
  endfacet
  facet normal -1 0 0
    outer loop
      vertex 0 0 2.5
      vertex 0 -3 4
      vertex 0 20.2 4
    endloop
  endfacet
  facet normal 0 0 1
    outer loop
      vertex 116 2 4
      vertex 118 20.2 4
      vertex 116 18.2 4
    endloop
  endfacet
  facet normal 0 0 1
    outer loop
      vertex 118 20.2 4
      vertex 101.429 18.2 4
      vertex 116 18.2 4
    endloop
  endfacet
  facet normal 0 0 1
    outer loop
      vertex 101.429 18.2 4
      vertex 99.4286 18.2 4
      vertex 101.429 2 4
    endloop
  endfacet
  facet normal 0 0 1
    outer loop
      vertex 118 20.2 4
      vertex 99.4286 18.2 4
      vertex 101.429 18.2 4
    endloop
  endfacet
  facet normal 0 0 1
    outer loop
      vertex 118 20.2 4
      vertex 84.8571 18.2 4
      vertex 99.4286 18.2 4
    endloop
  endfacet
  facet normal 0 0 1
    outer loop
      vertex 84.8571 18.2 4
      vertex 82.8571 18.2 4
      vertex 84.8571 2 4
    endloop
  endfacet
  facet normal 0 0 1
    outer loop
      vertex 118 20.2 4
      vertex 82.8571 18.2 4
      vertex 84.8571 18.2 4
    endloop
  endfacet
  facet normal 0 0 1
    outer loop
      vertex 118 20.2 4
      vertex 68.2857 18.2 4
      vertex 82.8571 18.2 4
    endloop
  endfacet
  facet normal 0 0 1
    outer loop
      vertex 68.2857 18.2 4
      vertex 66.2857 18.2 4
      vertex 68.2857 2 4
    endloop
  endfacet
  facet normal 0 0 1
    outer loop
      vertex 118 20.2 4
      vertex 66.2857 18.2 4
      vertex 68.2857 18.2 4
    endloop
  endfacet
  facet normal 0 0 1
    outer loop
      vertex 118 20.2 4
      vertex 51.7143 18.2 4
      vertex 66.2857 18.2 4
    endloop
  endfacet
  facet normal 0 0 1
    outer loop
      vertex 51.7143 18.2 4
      vertex 49.7143 18.2 4
      vertex 51.7143 2 4
    endloop
  endfacet
  facet normal -0 0 1
    outer loop
      vertex 0 20.2 4
      vertex 51.7143 18.2 4
      vertex 118 20.2 4
    endloop
  endfacet
  facet normal 0 0 1
    outer loop
      vertex 51.7143 18.2 4
      vertex 0 20.2 4
      vertex 49.7143 18.2 4
    endloop
  endfacet
  facet normal 0 0 1
    outer loop
      vertex 35.1429 18.2 4
      vertex 33.1429 18.2 4
      vertex 35.1429 2 4
    endloop
  endfacet
  facet normal 0 0 1
    outer loop
      vertex 49.7143 18.2 4
      vertex 0 20.2 4
      vertex 35.1429 18.2 4
    endloop
  endfacet
  facet normal 0 0 1
    outer loop
      vertex 35.1429 18.2 4
      vertex 0 20.2 4
      vertex 33.1429 18.2 4
    endloop
  endfacet
  facet normal 0 0 1
    outer loop
      vertex 18.5714 18.2 4
      vertex 16.5714 18.2 4
      vertex 18.5714 2 4
    endloop
  endfacet
  facet normal 0 0 1
    outer loop
      vertex 33.1429 18.2 4
      vertex 0 20.2 4
      vertex 18.5714 18.2 4
    endloop
  endfacet
  facet normal 0 0 1
    outer loop
      vertex 18.5714 18.2 4
      vertex 0 20.2 4
      vertex 16.5714 18.2 4
    endloop
  endfacet
  facet normal 0 0 1
    outer loop
      vertex 2 18.2 4
      vertex 0 20.2 4
      vertex 2 2 4
    endloop
  endfacet
  facet normal 0 0 1
    outer loop
      vertex 16.5714 18.2 4
      vertex 0 20.2 4
      vertex 2 18.2 4
    endloop
  endfacet
  facet normal 0 0 1
    outer loop
      vertex 118 20.2 4
      vertex 116 2 4
      vertex 118 -3 4
    endloop
  endfacet
  facet normal -0 0 1
    outer loop
      vertex 101.429 2 4
      vertex 118 -3 4
      vertex 116 2 4
    endloop
  endfacet
  facet normal 0 0 1
    outer loop
      vertex 99.4286 2 4
      vertex 101.429 2 4
      vertex 99.4286 18.2 4
    endloop
  endfacet
  facet normal -0 0 1
    outer loop
      vertex 99.4286 2 4
      vertex 118 -3 4
      vertex 101.429 2 4
    endloop
  endfacet
  facet normal -0 0 1
    outer loop
      vertex 84.8571 2 4
      vertex 118 -3 4
      vertex 99.4286 2 4
    endloop
  endfacet
  facet normal 0 0 1
    outer loop
      vertex 82.8571 2 4
      vertex 84.8571 2 4
      vertex 82.8571 18.2 4
    endloop
  endfacet
  facet normal -0 0 1
    outer loop
      vertex 82.8571 2 4
      vertex 118 -3 4
      vertex 84.8571 2 4
    endloop
  endfacet
  facet normal -0 0 1
    outer loop
      vertex 68.2857 2 4
      vertex 118 -3 4
      vertex 82.8571 2 4
    endloop
  endfacet
  facet normal 0 0 1
    outer loop
      vertex 66.2857 2 4
      vertex 68.2857 2 4
      vertex 66.2857 18.2 4
    endloop
  endfacet
  facet normal -0 0 1
    outer loop
      vertex 66.2857 2 4
      vertex 118 -3 4
      vertex 68.2857 2 4
    endloop
  endfacet
  facet normal -0 0 1
    outer loop
      vertex 51.7143 2 4
      vertex 118 -3 4
      vertex 66.2857 2 4
    endloop
  endfacet
  facet normal 0 0 1
    outer loop
      vertex 49.7143 2 4
      vertex 51.7143 2 4
      vertex 49.7143 18.2 4
    endloop
  endfacet
  facet normal 0 0 1
    outer loop
      vertex 0 -3 4
      vertex 51.7143 2 4
      vertex 49.7143 2 4
    endloop
  endfacet
  facet normal 0 0 1
    outer loop
      vertex 0 -3 4
      vertex 49.7143 2 4
      vertex 35.1429 2 4
    endloop
  endfacet
  facet normal 0 0 1
    outer loop
      vertex 33.1429 2 4
      vertex 35.1429 2 4
      vertex 33.1429 18.2 4
    endloop
  endfacet
  facet normal 0 0 1
    outer loop
      vertex 0 -3 4
      vertex 35.1429 2 4
      vertex 33.1429 2 4
    endloop
  endfacet
  facet normal 0 0 1
    outer loop
      vertex 0 -3 4
      vertex 33.1429 2 4
      vertex 18.5714 2 4
    endloop
  endfacet
  facet normal 0 0 1
    outer loop
      vertex 16.5714 2 4
      vertex 18.5714 2 4
      vertex 16.5714 18.2 4
    endloop
  endfacet
  facet normal 0 0 1
    outer loop
      vertex 0 -3 4
      vertex 18.5714 2 4
      vertex 16.5714 2 4
    endloop
  endfacet
  facet normal 0 0 1
    outer loop
      vertex 0 -3 4
      vertex 16.5714 2 4
      vertex 2 2 4
    endloop
  endfacet
  facet normal 0 0 1
    outer loop
      vertex 51.7143 2 4
      vertex 0 -3 4
      vertex 118 -3 4
    endloop
  endfacet
  facet normal 0 0 1
    outer loop
      vertex 0 -3 4
      vertex 2 2 4
      vertex 0 20.2 4
    endloop
  endfacet
  facet normal 1 0 0
    outer loop
      vertex 118 20.2 4
      vertex 118 0 2.5
      vertex 118 20.2 0
    endloop
  endfacet
  facet normal 1 -0 0
    outer loop
      vertex 118 -3 4
      vertex 118 0 2.5
      vertex 118 20.2 4
    endloop
  endfacet
  facet normal 1 0 0
    outer loop
      vertex 118 0 2.5
      vertex 118 -3 4
      vertex 118 -3 2.5
    endloop
  endfacet
  facet normal 1 0 0
    outer loop
      vertex 118 20.2 0
      vertex 118 0 2.5
      vertex 118 0 0
    endloop
  endfacet
  facet normal 0 1 -0
    outer loop
      vertex 118 20.2 0
      vertex 0 20.2 4
      vertex 118 20.2 4
    endloop
  endfacet
  facet normal 0 1 0
    outer loop
      vertex 0 20.2 4
      vertex 118 20.2 0
      vertex 0 20.2 0
    endloop
  endfacet
  facet normal 0 0 -1
    outer loop
      vertex 116 4 0
      vertex 118 0 0
      vertex 116 2 0
    endloop
  endfacet
  facet normal 0 0 -1
    outer loop
      vertex 118 0 0
      vertex 2 2 0
      vertex 116 2 0
    endloop
  endfacet
  facet normal 0 0 -1
    outer loop
      vertex 0 0 0
      vertex 2 4 0
      vertex 2 2 0
    endloop
  endfacet
  facet normal -0 0 -1
    outer loop
      vertex 2 4 0
      vertex 0 0 0
      vertex 2 16.2 0
    endloop
  endfacet
  facet normal 0 0 -1
    outer loop
      vertex 0 20.2 0
      vertex 2 16.2 0
      vertex 0 0 0
    endloop
  endfacet
  facet normal 0 0 -1
    outer loop
      vertex 0 0 0
      vertex 2 2 0
      vertex 118 0 0
    endloop
  endfacet
  facet normal 0 0 -1
    outer loop
      vertex 118 0 0
      vertex 116 4 0
      vertex 118 20.2 0
    endloop
  endfacet
  facet normal 0 0 -1
    outer loop
      vertex 116 16.2 0
      vertex 118 20.2 0
      vertex 116 4 0
    endloop
  endfacet
  facet normal 0 0 -1
    outer loop
      vertex 116 18.2 0
      vertex 118 20.2 0
      vertex 116 16.2 0
    endloop
  endfacet
  facet normal 0 0 -1
    outer loop
      vertex 2 18.2 0
      vertex 118 20.2 0
      vertex 116 18.2 0
    endloop
  endfacet
  facet normal 0 0 -1
    outer loop
      vertex 2 18.2 0
      vertex 0 20.2 0
      vertex 118 20.2 0
    endloop
  endfacet
  facet normal 0 0 -1
    outer loop
      vertex 2 16.2 0
      vertex 0 20.2 0
      vertex 2 18.2 0
    endloop
  endfacet
  facet normal 0 0 -1
    outer loop
      vertex 16.5714 4 0
      vertex 18.5714 16.2 0
      vertex 18.5714 4 0
    endloop
  endfacet
  facet normal -0 0 -1
    outer loop
      vertex 18.5714 16.2 0
      vertex 16.5714 4 0
      vertex 16.5714 16.2 0
    endloop
  endfacet
  facet normal 0 0 -1
    outer loop
      vertex 33.1429 4 0
      vertex 35.1429 16.2 0
      vertex 35.1429 4 0
    endloop
  endfacet
  facet normal -0 0 -1
    outer loop
      vertex 35.1429 16.2 0
      vertex 33.1429 4 0
      vertex 33.1429 16.2 0
    endloop
  endfacet
  facet normal 0 0 -1
    outer loop
      vertex 49.7143 4 0
      vertex 51.7143 16.2 0
      vertex 51.7143 4 0
    endloop
  endfacet
  facet normal -0 0 -1
    outer loop
      vertex 51.7143 16.2 0
      vertex 49.7143 4 0
      vertex 49.7143 16.2 0
    endloop
  endfacet
  facet normal 0 0 -1
    outer loop
      vertex 66.2857 4 0
      vertex 68.2857 16.2 0
      vertex 68.2857 4 0
    endloop
  endfacet
  facet normal -0 0 -1
    outer loop
      vertex 68.2857 16.2 0
      vertex 66.2857 4 0
      vertex 66.2857 16.2 0
    endloop
  endfacet
  facet normal 0 0 -1
    outer loop
      vertex 82.8571 4 0
      vertex 84.8571 16.2 0
      vertex 84.8571 4 0
    endloop
  endfacet
  facet normal -0 0 -1
    outer loop
      vertex 84.8571 16.2 0
      vertex 82.8571 4 0
      vertex 82.8571 16.2 0
    endloop
  endfacet
  facet normal 0 0 -1
    outer loop
      vertex 99.4286 4 0
      vertex 101.429 16.2 0
      vertex 101.429 4 0
    endloop
  endfacet
  facet normal -0 0 -1
    outer loop
      vertex 101.429 16.2 0
      vertex 99.4286 4 0
      vertex 99.4286 16.2 0
    endloop
  endfacet
  facet normal 0 -1 0
    outer loop
      vertex 0 0 0
      vertex 118 0 2.5
      vertex 0 0 2.5
    endloop
  endfacet
  facet normal 0 -1 -0
    outer loop
      vertex 118 0 2.5
      vertex 0 0 0
      vertex 118 0 0
    endloop
  endfacet
  facet normal -0 0 1
    outer loop
      vertex 101.429 4 0.00999928
      vertex 116 3.99 0.00999928
      vertex 116 4 0.00999928
    endloop
  endfacet
  facet normal 0 0 1
    outer loop
      vertex 116 3.99 0.00999928
      vertex 101.429 4 0.00999928
      vertex 101.429 3.99 0.00999928
    endloop
  endfacet
  facet normal -0 0 1
    outer loop
      vertex 2 4 0.00999928
      vertex 16.5714 3.99 0.00999928
      vertex 16.5714 4 0.00999928
    endloop
  endfacet
  facet normal 0 0 1
    outer loop
      vertex 16.5714 3.99 0.00999928
      vertex 2 4 0.00999928
      vertex 2 3.99 0.00999928
    endloop
  endfacet
  facet normal -0 0 1
    outer loop
      vertex 18.5714 4 0.00999928
      vertex 33.1429 3.99 0.00999928
      vertex 33.1429 4 0.00999928
    endloop
  endfacet
  facet normal 0 0 1
    outer loop
      vertex 33.1429 3.99 0.00999928
      vertex 18.5714 4 0.00999928
      vertex 18.5714 3.99 0.00999928
    endloop
  endfacet
  facet normal -0 0 1
    outer loop
      vertex 35.1429 4 0.00999928
      vertex 49.7143 3.99 0.00999928
      vertex 49.7143 4 0.00999928
    endloop
  endfacet
  facet normal 0 0 1
    outer loop
      vertex 49.7143 3.99 0.00999928
      vertex 35.1429 4 0.00999928
      vertex 35.1429 3.99 0.00999928
    endloop
  endfacet
  facet normal -0 0 1
    outer loop
      vertex 51.7143 4 0.00999928
      vertex 66.2857 3.99 0.00999928
      vertex 66.2857 4 0.00999928
    endloop
  endfacet
  facet normal 0 0 1
    outer loop
      vertex 66.2857 3.99 0.00999928
      vertex 51.7143 4 0.00999928
      vertex 51.7143 3.99 0.00999928
    endloop
  endfacet
  facet normal -0 0 1
    outer loop
      vertex 68.2857 4 0.00999928
      vertex 82.8571 3.99 0.00999928
      vertex 82.8571 4 0.00999928
    endloop
  endfacet
  facet normal 0 0 1
    outer loop
      vertex 82.8571 3.99 0.00999928
      vertex 68.2857 4 0.00999928
      vertex 68.2857 3.99 0.00999928
    endloop
  endfacet
  facet normal -0 0 1
    outer loop
      vertex 84.8571 4 0.00999928
      vertex 99.4286 3.99 0.00999928
      vertex 99.4286 4 0.00999928
    endloop
  endfacet
  facet normal 0 0 1
    outer loop
      vertex 99.4286 3.99 0.00999928
      vertex 84.8571 4 0.00999928
      vertex 84.8571 3.99 0.00999928
    endloop
  endfacet
  facet normal 0 0 -1
    outer loop
      vertex 2 2 -3.99
      vertex 116 4 -3.99
      vertex 116 2 -3.99
    endloop
  endfacet
  facet normal -0 0 -1
    outer loop
      vertex 116 4 -3.99
      vertex 2 2 -3.99
      vertex 2 4 -3.99
    endloop
  endfacet
  facet normal 0 1 -0
    outer loop
      vertex 116 4 0
      vertex 101.429 4 0.00999928
      vertex 116 4 0.00999928
    endloop
  endfacet
  facet normal 0 1 0
    outer loop
      vertex 116 4 0
      vertex 101.429 4 0
      vertex 101.429 4 0.00999928
    endloop
  endfacet
  facet normal 0 1 -0
    outer loop
      vertex 116 4 -3.99
      vertex 101.429 4 0
      vertex 116 4 0
    endloop
  endfacet
  facet normal 0 1 0
    outer loop
      vertex 101.429 4 0
      vertex 116 4 -3.99
      vertex 99.4286 4 0
    endloop
  endfacet
  facet normal 0 1 0
    outer loop
      vertex 99.4286 4 0
      vertex 116 4 -3.99
      vertex 84.8571 4 0
    endloop
  endfacet
  facet normal 0 1 0
    outer loop
      vertex 84.8571 4 0
      vertex 116 4 -3.99
      vertex 82.8571 4 0
    endloop
  endfacet
  facet normal 0 1 0
    outer loop
      vertex 82.8571 4 0
      vertex 116 4 -3.99
      vertex 68.2857 4 0
    endloop
  endfacet
  facet normal 0 1 0
    outer loop
      vertex 68.2857 4 0
      vertex 116 4 -3.99
      vertex 66.2857 4 0
    endloop
  endfacet
  facet normal 0 1 0
    outer loop
      vertex 66.2857 4 0
      vertex 116 4 -3.99
      vertex 51.7143 4 0
    endloop
  endfacet
  facet normal 0 1 0
    outer loop
      vertex 2 4 -3.99
      vertex 51.7143 4 0
      vertex 116 4 -3.99
    endloop
  endfacet
  facet normal 0 1 0
    outer loop
      vertex 51.7143 4 0
      vertex 2 4 -3.99
      vertex 49.7143 4 0
    endloop
  endfacet
  facet normal 0 1 0
    outer loop
      vertex 49.7143 4 0
      vertex 2 4 -3.99
      vertex 35.1429 4 0
    endloop
  endfacet
  facet normal 0 1 0
    outer loop
      vertex 35.1429 4 0
      vertex 2 4 -3.99
      vertex 33.1429 4 0
    endloop
  endfacet
  facet normal 0 1 0
    outer loop
      vertex 33.1429 4 0
      vertex 2 4 -3.99
      vertex 18.5714 4 0
    endloop
  endfacet
  facet normal 0 1 0
    outer loop
      vertex 18.5714 4 0
      vertex 2 4 -3.99
      vertex 16.5714 4 0
    endloop
  endfacet
  facet normal 0 1 0
    outer loop
      vertex 16.5714 4 0
      vertex 2 4 -3.99
      vertex 2 4 0
    endloop
  endfacet
  facet normal 0 1 -0
    outer loop
      vertex 99.4286 4 0
      vertex 84.8571 4 0.00999928
      vertex 99.4286 4 0.00999928
    endloop
  endfacet
  facet normal 0 1 0
    outer loop
      vertex 84.8571 4 0.00999928
      vertex 99.4286 4 0
      vertex 84.8571 4 0
    endloop
  endfacet
  facet normal 0 1 -0
    outer loop
      vertex 82.8571 4 0
      vertex 68.2857 4 0.00999928
      vertex 82.8571 4 0.00999928
    endloop
  endfacet
  facet normal 0 1 0
    outer loop
      vertex 68.2857 4 0.00999928
      vertex 82.8571 4 0
      vertex 68.2857 4 0
    endloop
  endfacet
  facet normal 0 1 -0
    outer loop
      vertex 66.2857 4 0
      vertex 51.7143 4 0.00999928
      vertex 66.2857 4 0.00999928
    endloop
  endfacet
  facet normal 0 1 0
    outer loop
      vertex 51.7143 4 0.00999928
      vertex 66.2857 4 0
      vertex 51.7143 4 0
    endloop
  endfacet
  facet normal 0 1 -0
    outer loop
      vertex 49.7143 4 0
      vertex 35.1429 4 0.00999928
      vertex 49.7143 4 0.00999928
    endloop
  endfacet
  facet normal 0 1 0
    outer loop
      vertex 35.1429 4 0.00999928
      vertex 49.7143 4 0
      vertex 35.1429 4 0
    endloop
  endfacet
  facet normal 0 1 -0
    outer loop
      vertex 33.1429 4 0
      vertex 18.5714 4 0.00999928
      vertex 33.1429 4 0.00999928
    endloop
  endfacet
  facet normal 0 1 0
    outer loop
      vertex 18.5714 4 0.00999928
      vertex 33.1429 4 0
      vertex 18.5714 4 0
    endloop
  endfacet
  facet normal 0 1 -0
    outer loop
      vertex 16.5714 4 0
      vertex 2 4 0.00999928
      vertex 16.5714 4 0.00999928
    endloop
  endfacet
  facet normal 0 1 0
    outer loop
      vertex 2 4 0.00999928
      vertex 16.5714 4 0
      vertex 2 4 0
    endloop
  endfacet
  facet normal -0 0 1
    outer loop
      vertex 2 16.21 0.00999928
      vertex 16.5714 16.2 0.00999928
      vertex 16.5714 16.21 0.00999928
    endloop
  endfacet
  facet normal 0 0 1
    outer loop
      vertex 16.5714 16.2 0.00999928
      vertex 2 16.21 0.00999928
      vertex 2 16.2 0.00999928
    endloop
  endfacet
  facet normal -0 0 1
    outer loop
      vertex 101.429 16.21 0.00999928
      vertex 116 16.2 0.00999928
      vertex 116 16.21 0.00999928
    endloop
  endfacet
  facet normal 0 0 1
    outer loop
      vertex 116 16.2 0.00999928
      vertex 101.429 16.21 0.00999928
      vertex 101.429 16.2 0.00999928
    endloop
  endfacet
  facet normal -0 0 1
    outer loop
      vertex 18.5714 16.21 0.00999928
      vertex 33.1429 16.2 0.00999928
      vertex 33.1429 16.21 0.00999928
    endloop
  endfacet
  facet normal 0 0 1
    outer loop
      vertex 33.1429 16.2 0.00999928
      vertex 18.5714 16.21 0.00999928
      vertex 18.5714 16.2 0.00999928
    endloop
  endfacet
  facet normal -0 0 1
    outer loop
      vertex 35.1429 16.21 0.00999928
      vertex 49.7143 16.2 0.00999928
      vertex 49.7143 16.21 0.00999928
    endloop
  endfacet
  facet normal 0 0 1
    outer loop
      vertex 49.7143 16.2 0.00999928
      vertex 35.1429 16.21 0.00999928
      vertex 35.1429 16.2 0.00999928
    endloop
  endfacet
  facet normal -0 0 1
    outer loop
      vertex 51.7143 16.21 0.00999928
      vertex 66.2857 16.2 0.00999928
      vertex 66.2857 16.21 0.00999928
    endloop
  endfacet
  facet normal 0 0 1
    outer loop
      vertex 66.2857 16.2 0.00999928
      vertex 51.7143 16.21 0.00999928
      vertex 51.7143 16.2 0.00999928
    endloop
  endfacet
  facet normal -0 0 1
    outer loop
      vertex 68.2857 16.21 0.00999928
      vertex 82.8571 16.2 0.00999928
      vertex 82.8571 16.21 0.00999928
    endloop
  endfacet
  facet normal 0 0 1
    outer loop
      vertex 82.8571 16.2 0.00999928
      vertex 68.2857 16.21 0.00999928
      vertex 68.2857 16.2 0.00999928
    endloop
  endfacet
  facet normal -0 0 1
    outer loop
      vertex 84.8571 16.21 0.00999928
      vertex 99.4286 16.2 0.00999928
      vertex 99.4286 16.21 0.00999928
    endloop
  endfacet
  facet normal 0 0 1
    outer loop
      vertex 99.4286 16.2 0.00999928
      vertex 84.8571 16.21 0.00999928
      vertex 84.8571 16.2 0.00999928
    endloop
  endfacet
  facet normal 0 0 -1
    outer loop
      vertex 2 16.2 -3.99
      vertex 116 18.2 -3.99
      vertex 116 16.2 -3.99
    endloop
  endfacet
  facet normal -0 0 -1
    outer loop
      vertex 116 18.2 -3.99
      vertex 2 16.2 -3.99
      vertex 2 18.2 -3.99
    endloop
  endfacet
  facet normal 0 -1 0
    outer loop
      vertex 2 16.2 0
      vertex 16.5714 16.2 0.00999928
      vertex 2 16.2 0.00999928
    endloop
  endfacet
  facet normal 0 -1 0
    outer loop
      vertex 2 16.2 0
      vertex 16.5714 16.2 0
      vertex 16.5714 16.2 0.00999928
    endloop
  endfacet
  facet normal 0 -1 0
    outer loop
      vertex 2 16.2 -3.99
      vertex 16.5714 16.2 0
      vertex 2 16.2 0
    endloop
  endfacet
  facet normal 0 -1 -0
    outer loop
      vertex 16.5714 16.2 0
      vertex 2 16.2 -3.99
      vertex 18.5714 16.2 0
    endloop
  endfacet
  facet normal 0 -1 -0
    outer loop
      vertex 18.5714 16.2 0
      vertex 2 16.2 -3.99
      vertex 33.1429 16.2 0
    endloop
  endfacet
  facet normal 0 -1 -0
    outer loop
      vertex 33.1429 16.2 0
      vertex 2 16.2 -3.99
      vertex 35.1429 16.2 0
    endloop
  endfacet
  facet normal 0 -1 -0
    outer loop
      vertex 35.1429 16.2 0
      vertex 2 16.2 -3.99
      vertex 49.7143 16.2 0
    endloop
  endfacet
  facet normal 0 -1 -0
    outer loop
      vertex 49.7143 16.2 0
      vertex 2 16.2 -3.99
      vertex 51.7143 16.2 0
    endloop
  endfacet
  facet normal 0 -1 -0
    outer loop
      vertex 51.7143 16.2 0
      vertex 2 16.2 -3.99
      vertex 66.2857 16.2 0
    endloop
  endfacet
  facet normal 0 -1 0
    outer loop
      vertex 116 16.2 -3.99
      vertex 66.2857 16.2 0
      vertex 2 16.2 -3.99
    endloop
  endfacet
  facet normal 0 -1 0
    outer loop
      vertex 66.2857 16.2 0
      vertex 116 16.2 -3.99
      vertex 68.2857 16.2 0
    endloop
  endfacet
  facet normal 0 -1 0
    outer loop
      vertex 68.2857 16.2 0
      vertex 116 16.2 -3.99
      vertex 82.8571 16.2 0
    endloop
  endfacet
  facet normal 0 -1 0
    outer loop
      vertex 82.8571 16.2 0
      vertex 116 16.2 -3.99
      vertex 84.8571 16.2 0
    endloop
  endfacet
  facet normal 0 -1 0
    outer loop
      vertex 84.8571 16.2 0
      vertex 116 16.2 -3.99
      vertex 99.4286 16.2 0
    endloop
  endfacet
  facet normal 0 -1 0
    outer loop
      vertex 99.4286 16.2 0
      vertex 116 16.2 -3.99
      vertex 101.429 16.2 0
    endloop
  endfacet
  facet normal 0 -1 0
    outer loop
      vertex 101.429 16.2 0
      vertex 116 16.2 -3.99
      vertex 116 16.2 0
    endloop
  endfacet
  facet normal 0 -1 0
    outer loop
      vertex 18.5714 16.2 0
      vertex 33.1429 16.2 0.00999928
      vertex 18.5714 16.2 0.00999928
    endloop
  endfacet
  facet normal 0 -1 -0
    outer loop
      vertex 33.1429 16.2 0.00999928
      vertex 18.5714 16.2 0
      vertex 33.1429 16.2 0
    endloop
  endfacet
  facet normal 0 -1 0
    outer loop
      vertex 35.1429 16.2 0
      vertex 49.7143 16.2 0.00999928
      vertex 35.1429 16.2 0.00999928
    endloop
  endfacet
  facet normal 0 -1 -0
    outer loop
      vertex 49.7143 16.2 0.00999928
      vertex 35.1429 16.2 0
      vertex 49.7143 16.2 0
    endloop
  endfacet
  facet normal 0 -1 0
    outer loop
      vertex 51.7143 16.2 0
      vertex 66.2857 16.2 0.00999928
      vertex 51.7143 16.2 0.00999928
    endloop
  endfacet
  facet normal 0 -1 -0
    outer loop
      vertex 66.2857 16.2 0.00999928
      vertex 51.7143 16.2 0
      vertex 66.2857 16.2 0
    endloop
  endfacet
  facet normal 0 -1 0
    outer loop
      vertex 68.2857 16.2 0
      vertex 82.8571 16.2 0.00999928
      vertex 68.2857 16.2 0.00999928
    endloop
  endfacet
  facet normal 0 -1 -0
    outer loop
      vertex 82.8571 16.2 0.00999928
      vertex 68.2857 16.2 0
      vertex 82.8571 16.2 0
    endloop
  endfacet
  facet normal 0 -1 0
    outer loop
      vertex 84.8571 16.2 0
      vertex 99.4286 16.2 0.00999928
      vertex 84.8571 16.2 0.00999928
    endloop
  endfacet
  facet normal 0 -1 -0
    outer loop
      vertex 99.4286 16.2 0.00999928
      vertex 84.8571 16.2 0
      vertex 99.4286 16.2 0
    endloop
  endfacet
  facet normal 0 -1 0
    outer loop
      vertex 101.429 16.2 0
      vertex 116 16.2 0.00999928
      vertex 101.429 16.2 0.00999928
    endloop
  endfacet
  facet normal 0 -1 -0
    outer loop
      vertex 116 16.2 0.00999928
      vertex 101.429 16.2 0
      vertex 116 16.2 0
    endloop
  endfacet
  facet normal 0 0.707107 0.707107
    outer loop
      vertex 16.5714 3.99 0.00999928
      vertex 2 2 2
      vertex 16.5714 2 2
    endloop
  endfacet
  facet normal 0 0.707107 0.707107
    outer loop
      vertex 2 2 2
      vertex 16.5714 3.99 0.00999928
      vertex 2 3.99 0.00999928
    endloop
  endfacet
  facet normal 0 0.707107 0.707107
    outer loop
      vertex 116 3.99 0.00999928
      vertex 101.429 2 2
      vertex 116 2 2
    endloop
  endfacet
  facet normal 0 0.707107 0.707107
    outer loop
      vertex 101.429 2 2
      vertex 116 3.99 0.00999928
      vertex 101.429 3.99 0.00999928
    endloop
  endfacet
  facet normal 0 0.707107 0.707107
    outer loop
      vertex 33.1429 3.99 0.00999928
      vertex 18.5714 2 2
      vertex 33.1429 2 2
    endloop
  endfacet
  facet normal 0 0.707107 0.707107
    outer loop
      vertex 18.5714 2 2
      vertex 33.1429 3.99 0.00999928
      vertex 18.5714 3.99 0.00999928
    endloop
  endfacet
  facet normal 0 0.707107 0.707107
    outer loop
      vertex 49.7143 3.99 0.00999928
      vertex 35.1429 2 2
      vertex 49.7143 2 2
    endloop
  endfacet
  facet normal 0 0.707107 0.707107
    outer loop
      vertex 35.1429 2 2
      vertex 49.7143 3.99 0.00999928
      vertex 35.1429 3.99 0.00999928
    endloop
  endfacet
  facet normal 0 0.707107 0.707107
    outer loop
      vertex 66.2857 3.99 0.00999928
      vertex 51.7143 2 2
      vertex 66.2857 2 2
    endloop
  endfacet
  facet normal 0 0.707107 0.707107
    outer loop
      vertex 51.7143 2 2
      vertex 66.2857 3.99 0.00999928
      vertex 51.7143 3.99 0.00999928
    endloop
  endfacet
  facet normal 0 0.707107 0.707107
    outer loop
      vertex 82.8571 3.99 0.00999928
      vertex 68.2857 2 2
      vertex 82.8571 2 2
    endloop
  endfacet
  facet normal 0 0.707107 0.707107
    outer loop
      vertex 68.2857 2 2
      vertex 82.8571 3.99 0.00999928
      vertex 68.2857 3.99 0.00999928
    endloop
  endfacet
  facet normal 0 0.707107 0.707107
    outer loop
      vertex 99.4286 3.99 0.00999928
      vertex 84.8571 2 2
      vertex 99.4286 2 2
    endloop
  endfacet
  facet normal 0 0.707107 0.707107
    outer loop
      vertex 84.8571 2 2
      vertex 99.4286 3.99 0.00999928
      vertex 84.8571 3.99 0.00999928
    endloop
  endfacet
  facet normal 0 -0.707107 0.707107
    outer loop
      vertex 2 18.2 2
      vertex 16.5714 16.21 0.00999928
      vertex 16.5714 18.2 2
    endloop
  endfacet
  facet normal 0 -0.707107 0.707107
    outer loop
      vertex 16.5714 16.21 0.00999928
      vertex 2 18.2 2
      vertex 2 16.21 0.00999928
    endloop
  endfacet
  facet normal 0 -0.707107 0.707107
    outer loop
      vertex 101.429 18.2 2
      vertex 116 16.21 0.00999928
      vertex 116 18.2 2
    endloop
  endfacet
  facet normal 0 -0.707107 0.707107
    outer loop
      vertex 116 16.21 0.00999928
      vertex 101.429 18.2 2
      vertex 101.429 16.21 0.00999928
    endloop
  endfacet
  facet normal 0 -0.707107 0.707107
    outer loop
      vertex 18.5714 18.2 2
      vertex 33.1429 16.21 0.00999928
      vertex 33.1429 18.2 2
    endloop
  endfacet
  facet normal 0 -0.707107 0.707107
    outer loop
      vertex 33.1429 16.21 0.00999928
      vertex 18.5714 18.2 2
      vertex 18.5714 16.21 0.00999928
    endloop
  endfacet
  facet normal 0 -0.707107 0.707107
    outer loop
      vertex 35.1429 18.2 2
      vertex 49.7143 16.21 0.00999928
      vertex 49.7143 18.2 2
    endloop
  endfacet
  facet normal 0 -0.707107 0.707107
    outer loop
      vertex 49.7143 16.21 0.00999928
      vertex 35.1429 18.2 2
      vertex 35.1429 16.21 0.00999928
    endloop
  endfacet
  facet normal 0 -0.707107 0.707107
    outer loop
      vertex 51.7143 18.2 2
      vertex 66.2857 16.21 0.00999928
      vertex 66.2857 18.2 2
    endloop
  endfacet
  facet normal 0 -0.707107 0.707107
    outer loop
      vertex 66.2857 16.21 0.00999928
      vertex 51.7143 18.2 2
      vertex 51.7143 16.21 0.00999928
    endloop
  endfacet
  facet normal 0 -0.707107 0.707107
    outer loop
      vertex 68.2857 18.2 2
      vertex 82.8571 16.21 0.00999928
      vertex 82.8571 18.2 2
    endloop
  endfacet
  facet normal 0 -0.707107 0.707107
    outer loop
      vertex 82.8571 16.21 0.00999928
      vertex 68.2857 18.2 2
      vertex 68.2857 16.21 0.00999928
    endloop
  endfacet
  facet normal 0 -0.707107 0.707107
    outer loop
      vertex 84.8571 18.2 2
      vertex 99.4286 16.21 0.00999928
      vertex 99.4286 18.2 2
    endloop
  endfacet
  facet normal 0 -0.707107 0.707107
    outer loop
      vertex 99.4286 16.21 0.00999928
      vertex 84.8571 18.2 2
      vertex 84.8571 16.21 0.00999928
    endloop
  endfacet
  facet normal 0 0 -1
    outer loop
      vertex 0 -3 2.5
      vertex 118 0 2.5
      vertex 118 -3 2.5
    endloop
  endfacet
  facet normal -0 0 -1
    outer loop
      vertex 118 0 2.5
      vertex 0 -3 2.5
      vertex 0 0 2.5
    endloop
  endfacet
  facet normal 0 -1 0
    outer loop
      vertex 0 -3 2.5
      vertex 118 -3 4
      vertex 0 -3 4
    endloop
  endfacet
  facet normal 0 -1 -0
    outer loop
      vertex 118 -3 4
      vertex 0 -3 2.5
      vertex 118 -3 2.5
    endloop
  endfacet
endsolid OpenSCAD_Model
