<svg xmlns="http://www.w3.org/2000/svg">
      <path d="M -34.27,9.02 -34.94,7.76 -40.99,10.61 -41.32,10.61 -52.06,-23.29 -39.76,-26.35 -37.52,-25.93 -35.39,-21.28 -24.43,-28.46 -18.5,-31.95 3.88,-46.2 5,-47.26 6.34,-45.99 26.6,-21.07 31.19,-26.77 38.57,-29.52 42.26,-24.77 44.17,-19.38 44.05,-11.36 41.59,2.58 41.59,18.74 42.15,22.96 35.88,24.86 32.98,27.19 30.63,31.62 24.36,34.47 8.92,48.09 1.31,39.12 -7.75,26.45 -11.33,26.45 -7.87,24.44 -10.33,20.11 -11,11.24 -14.13,5.75 -18.61,8.5 -27,9.97 -34.27,9.02 Z M -4.9,11.44 -0.2,9.02 18.71,-2.81 11.33,-14.32 3.61,-13.05 -12.17,-2.92 -11.5,1.2 -4.9,11.44 Z" />
    </svg>
