solid OpenSCAD_Model
  facet normal -0 0 1
    outer loop
      vertex -10.7933 -9.2 23
      vertex -10 -10 23
      vertex -10 -9.2 23
    endloop
  endfacet
  facet normal 0 0 1
    outer loop
      vertex -10 -10 23
      vertex -10.7933 -9.2 23
      vertex -12.1622 -10 23
    endloop
  endfacet
  facet normal 0 0 1
    outer loop
      vertex -10 0.799999 23
      vertex -11.0737 0 23
      vertex -10 0 23
    endloop
  endfacet
  facet normal 0 -0 1
    outer loop
      vertex -11.0737 0 23
      vertex -10 0.799999 23
      vertex -11.1386 0.799999 23
    endloop
  endfacet
  facet normal 0 0 1
    outer loop
      vertex -10 10.8 23
      vertex -10.9572 10 23
      vertex -10 10 23
    endloop
  endfacet
  facet normal 0 -0 1
    outer loop
      vertex -10.9572 10 23
      vertex -10 10.8 23
      vertex -11.0548 10.8 23
    endloop
  endfacet
  facet normal -0 0 1
    outer loop
      vertex -10 15.5222 23
      vertex -9.2 10.8 23
      vertex -9.2 15.7644 23
    endloop
  endfacet
  facet normal 0 0 1
    outer loop
      vertex -9.2 10.8 23
      vertex -10 10.8 23
      vertex -9.2 10 23
    endloop
  endfacet
  facet normal 0 0 1
    outer loop
      vertex -9.2 10 23
      vertex -10 10 23
      vertex -9.2 0.799999 23
    endloop
  endfacet
  facet normal 0 0 1
    outer loop
      vertex -10 0.799999 23
      vertex -9.2 0.799999 23
      vertex -10 10 23
    endloop
  endfacet
  facet normal 0 0 1
    outer loop
      vertex -10 0 23
      vertex -9.2 0 23
      vertex -10 0.799999 23
    endloop
  endfacet
  facet normal 0 0 1
    outer loop
      vertex -9.2 0 23
      vertex -10 0 23
      vertex -9.2 -9.2 23
    endloop
  endfacet
  facet normal 0 0 1
    outer loop
      vertex -9.2 10.8 23
      vertex -10 15.5222 23
      vertex -10 10.8 23
    endloop
  endfacet
  facet normal 0 0 1
    outer loop
      vertex -9.2 10 23
      vertex -10 10.8 23
      vertex -10 10 23
    endloop
  endfacet
  facet normal 0 0 1
    outer loop
      vertex -9.2 0.799999 23
      vertex -10 0.799999 23
      vertex -9.2 0 23
    endloop
  endfacet
  facet normal 0 0 1
    outer loop
      vertex -10 -9.2 23
      vertex -9.2 -9.2 23
      vertex -10 0 23
    endloop
  endfacet
  facet normal 0 0 1
    outer loop
      vertex -9.2 -9.2 23
      vertex -10 -9.2 23
      vertex -9.2 -10 23
    endloop
  endfacet
  facet normal 0 0 1
    outer loop
      vertex -10 -10 23
      vertex -9.2 -10 23
      vertex -10 -9.2 23
    endloop
  endfacet
  facet normal 0 0 1
    outer loop
      vertex -9.2 -10 23
      vertex -10 -10 23
      vertex -9.2 -10.817 23
    endloop
  endfacet
  facet normal 0 0 1
    outer loop
      vertex -9.2 -10.817 23
      vertex -10 -10 23
      vertex -10 -11.2845 23
    endloop
  endfacet
  facet normal 0 0 1
    outer loop
      vertex -9.2 10 23
      vertex -8.8385 10.8 23
      vertex -9.2 10.8 23
    endloop
  endfacet
  facet normal 0 0 1
    outer loop
      vertex -8.8385 10.8 23
      vertex -9.2 10 23
      vertex -8.74083 10 23
    endloop
  endfacet
  facet normal 0 0 1
    outer loop
      vertex -9.2 0 23
      vertex -8.93141 0.799999 23
      vertex -9.2 0.799999 23
    endloop
  endfacet
  facet normal 0 0 1
    outer loop
      vertex -8.93141 0.799999 23
      vertex -9.2 0 23
      vertex -8.86648 0 23
    endloop
  endfacet
  facet normal 0 0 1
    outer loop
      vertex -9.2 -10 23
      vertex -8.11975 -9.2 23
      vertex -9.2 -9.2 23
    endloop
  endfacet
  facet normal 0 0 1
    outer loop
      vertex -8.11975 -9.2 23
      vertex -9.2 -10 23
      vertex -8.05482 -10 23
    endloop
  endfacet
  facet normal -0 0 1
    outer loop
      vertex -10 -18.4582 23
      vertex -9.2 -19.2 23
      vertex -9.2 -14.3168 23
    endloop
  endfacet
  facet normal 0 0 1
    outer loop
      vertex -9.2 -19.2 23
      vertex -10 -18.4582 23
      vertex -9.2 -20 23
    endloop
  endfacet
  facet normal 0 0 1
    outer loop
      vertex -10 -18.4582 23
      vertex -9.2 -14.3168 23
      vertex -10 -12.1777 23
    endloop
  endfacet
  facet normal 0 0 1
    outer loop
      vertex -9.2 -20 23
      vertex -10 -18.4582 23
      vertex -9.2 -20.5972 23
    endloop
  endfacet
  facet normal 0 0 1
    outer loop
      vertex -9.2 -20 23
      vertex -7.37373 -19.2 23
      vertex -9.2 -19.2 23
    endloop
  endfacet
  facet normal 0 0 1
    outer loop
      vertex -7.37373 -19.2 23
      vertex -9.2 -20 23
      vertex -7.07454 -20 23
    endloop
  endfacet
  facet normal 0 0 1
    outer loop
      vertex 20 0 23
      vertex 20.8 0.799999 23
      vertex 20.8 1.14066 23
    endloop
  endfacet
  facet normal 0 0 1
    outer loop
      vertex 20.8 0.799999 23
      vertex 20 0 23
      vertex 20.8 0 23
    endloop
  endfacet
  facet normal 0 0 1
    outer loop
      vertex 20.8 0 23
      vertex 20 0 23
      vertex 20.8 -1.7738 23
    endloop
  endfacet
  facet normal 0 -0 1
    outer loop
      vertex 20 0 23
      vertex 20.8 1.14066 23
      vertex 19.4872 0 23
    endloop
  endfacet
  facet normal -0 0 1
    outer loop
      vertex 20.8 0.799999 23
      vertex 22.8415 0 23
      vertex 23.7622 0.799999 23
    endloop
  endfacet
  facet normal 0 0 1
    outer loop
      vertex 22.8415 0 23
      vertex 20.8 0.799999 23
      vertex 20.8 0 23
    endloop
  endfacet
  facet normal 0 0 1
    outer loop
      vertex 20.8 -1.7738 23
      vertex 20 0 23
      vertex 20 -2.46891 23
    endloop
  endfacet
  facet normal -0 0 1
    outer loop
      vertex 0 17.5454 23
      vertex 0.799999 15.3732 23
      vertex 0.799999 17.5747 23
    endloop
  endfacet
  facet normal 0 0 1
    outer loop
      vertex 0.799999 15.3732 23
      vertex 0 17.5454 23
      vertex 0 15.3439 23
    endloop
  endfacet
  facet normal -0 0 1
    outer loop
      vertex 0 -22.3354 23
      vertex 0.799999 -24.4494 23
      vertex 0.799999 -21.7959 23
    endloop
  endfacet
  facet normal 0 0 1
    outer loop
      vertex 0.799999 -24.4494 23
      vertex 0 -22.3354 23
      vertex 0 -24.9889 23
    endloop
  endfacet
  facet normal -0 0 1
    outer loop
      vertex 4.64965 -19.2 23
      vertex 6.89319 -20 23
      vertex 7.61088 -19.2 23
    endloop
  endfacet
  facet normal 0 0 1
    outer loop
      vertex 6.89319 -20 23
      vertex 4.64965 -19.2 23
      vertex 3.46329 -20 23
    endloop
  endfacet
  facet normal 0 0 1
    outer loop
      vertex 10 13.9855 23
      vertex 10.8 16.0487 23
      vertex 10 16.2633 23
    endloop
  endfacet
  facet normal 0 0 1
    outer loop
      vertex 10.8 16.0487 23
      vertex 10 13.9855 23
      vertex 10.8 13.7709 23
    endloop
  endfacet
  facet normal -0 0 1
    outer loop
      vertex 10 -12.0516 23
      vertex 10.8 -15.2353 23
      vertex 10.8 -10.5455 23
    endloop
  endfacet
  facet normal 0 0 1
    outer loop
      vertex 10.8 -15.2353 23
      vertex 10 -12.0516 23
      vertex 10.2664 -16.24 23
    endloop
  endfacet
  facet normal 0 0 1
    outer loop
      vertex 10.2664 -16.24 23
      vertex 10 -12.0516 23
      vertex 10 -16.5369 23
    endloop
  endfacet
  facet normal -0 0 1
    outer loop
      vertex 11.5147 -9.2 23
      vertex 13.5809 -10 23
      vertex 14.0058 -9.2 23
    endloop
  endfacet
  facet normal 0 0 1
    outer loop
      vertex 13.5809 -10 23
      vertex 11.5147 -9.2 23
      vertex 11.0898 -10 23
    endloop
  endfacet
  facet normal 0 0 1
    outer loop
      vertex 20 11.7463 23
      vertex 20.8 13.8281 23
      vertex 20 13.9921 23
    endloop
  endfacet
  facet normal 0 0 1
    outer loop
      vertex 20.8 13.8281 23
      vertex 20 11.7463 23
      vertex 20.8 11.5823 23
    endloop
  endfacet
  facet normal 0 0 1
    outer loop
      vertex 27.9539 10.8 23
      vertex 25.9045 10 23
      vertex 28.2678 10 23
    endloop
  endfacet
  facet normal 0 0 1
    outer loop
      vertex 27.9539 10.8 23
      vertex 25.6758 10.5828 23
      vertex 25.9045 10 23
    endloop
  endfacet
  facet normal 0 -0 1
    outer loop
      vertex 25.6758 10.5828 23
      vertex 27.9539 10.8 23
      vertex 24.6164 10.8 23
    endloop
  endfacet
  facet normal 0 0 -1
    outer loop
      vertex 15.1822 -8.69073 0
      vertex -11.9873 1.36664 0
      vertex -11.3159 6.33678 0
    endloop
  endfacet
  facet normal 0 0 -1
    outer loop
      vertex 6.64912 -21.47 0
      vertex -12.828 -13.1804 0
      vertex -11.1862 -8.50301 0
    endloop
  endfacet
  facet normal 0 0 -1
    outer loop
      vertex -18.1306 -12.5613 0
      vertex -12.828 -13.1804 0
      vertex -17.6522 -13.712 0
    endloop
  endfacet
  facet normal 0 0 -1
    outer loop
      vertex -12.828 -13.1804 0
      vertex -18.1306 -12.5613 0
      vertex -11.1862 -8.50301 0
    endloop
  endfacet
  facet normal 0 0 -1
    outer loop
      vertex 26.5254 2.14114 0
      vertex 30.3237 6.95055 0
      vertex 30.8148 3.61769 0
    endloop
  endfacet
  facet normal -0 0 -1
    outer loop
      vertex 30.3237 6.95055 0
      vertex 26.5254 2.14114 0
      vertex 27.8737 13.1947 0
    endloop
  endfacet
  facet normal 0 0 -1
    outer loop
      vertex 13.6849 16.1032 0
      vertex 26.5254 2.14114 0
      vertex 18.0308 -5.23975 0
    endloop
  endfacet
  facet normal 0 0 -1
    outer loop
      vertex 4.68314 18.5176 0
      vertex 18.0308 -5.23975 0
      vertex 15.1822 -8.69073 0
    endloop
  endfacet
  facet normal 0 0 -1
    outer loop
      vertex 26.5254 2.14114 0
      vertex 13.6849 16.1032 0
      vertex 27.8737 13.1947 0
    endloop
  endfacet
  facet normal 0 0 -1
    outer loop
      vertex -11.1862 -8.50301 0
      vertex 15.1822 -8.69073 0
      vertex 10.9271 -16.7015 0
    endloop
  endfacet
  facet normal 0 0 -1
    outer loop
      vertex -11.1862 -8.50301 0
      vertex 10.9271 -16.7015 0
      vertex 6.64912 -21.47 0
    endloop
  endfacet
  facet normal 0 0 -1
    outer loop
      vertex -11.9873 1.36664 0
      vertex 15.1822 -8.69073 0
      vertex -11.1862 -8.50301 0
    endloop
  endfacet
  facet normal 0 0 -1
    outer loop
      vertex -12.828 -13.1804 0
      vertex 6.64912 -21.47 0
      vertex -1.09186 -26.69 0
    endloop
  endfacet
  facet normal 0 -0 -1
    outer loop
      vertex 4.68314 18.5176 0
      vertex 15.1822 -8.69073 0
      vertex -11.3159 6.33678 0
    endloop
  endfacet
  facet normal 0 0 -1
    outer loop
      vertex -12.828 -13.1804 0
      vertex -1.09186 -26.69 0
      vertex -6.83656 -29.2005 0
    endloop
  endfacet
  facet normal 0 0 -1
    outer loop
      vertex 18.0308 -5.23975 0
      vertex 4.68314 18.5176 0
      vertex 13.6849 16.1032 0
    endloop
  endfacet
  facet normal 0 0 -1
    outer loop
      vertex 4.68314 18.5176 0
      vertex -11.3159 6.33678 0
      vertex -3.90703 18.2027 0
    endloop
  endfacet
  facet normal 0 0 -1
    outer loop
      vertex -12.2699 14.1515 0
      vertex -3.90703 18.2027 0
      vertex -11.3159 6.33678 0
    endloop
  endfacet
  facet normal 0 0 -1
    outer loop
      vertex -12.2699 14.1515 0
      vertex -12.6103 15.5678 0
      vertex -3.90703 18.2027 0
    endloop
  endfacet
  facet normal 0 0 -1
    outer loop
      vertex -21.082 13.7328 0
      vertex -12.6103 15.5678 0
      vertex -12.2699 14.1515 0
    endloop
  endfacet
  facet normal 0 0 -1
    outer loop
      vertex -12.6103 15.5678 0
      vertex -21.082 13.7328 0
      vertex -21.1408 14.6633 0
    endloop
  endfacet
  facet normal -1 0 0
    outer loop
      vertex 20 -2.46891 0.799999
      vertex 20 0 23
      vertex 20 0 0.799999
    endloop
  endfacet
  facet normal -1 -0 0
    outer loop
      vertex 20 0 23
      vertex 20 -2.46891 0.799999
      vertex 20 -2.46891 23
    endloop
  endfacet
  facet normal -1 0 0
    outer loop
      vertex 20 11.7463 0.799999
      vertex 20 13.9921 23
      vertex 20 13.9921 0.799999
    endloop
  endfacet
  facet normal -1 -0 0
    outer loop
      vertex 20 13.9921 23
      vertex 20 11.7463 0.799999
      vertex 20 11.7463 23
    endloop
  endfacet
  facet normal 1 -0 0
    outer loop
      vertex 20.8 -1.7738 23
      vertex 20.8 0 0.799999
      vertex 20.8 0 23
    endloop
  endfacet
  facet normal 1 0 0
    outer loop
      vertex 20.8 0 0.799999
      vertex 20.8 -1.7738 23
      vertex 20.8 -1.7738 0.799999
    endloop
  endfacet
  facet normal 1 -0 0
    outer loop
      vertex 20.8 0.799999 23
      vertex 20.8 1.14066 0.799999
      vertex 20.8 1.14066 23
    endloop
  endfacet
  facet normal 1 0 0
    outer loop
      vertex 20.8 1.14066 0.799999
      vertex 20.8 0.799999 23
      vertex 20.8 0.799999 0.799999
    endloop
  endfacet
  facet normal 1 -0 0
    outer loop
      vertex 20.8 11.5823 23
      vertex 20.8 13.8281 0.799999
      vertex 20.8 13.8281 23
    endloop
  endfacet
  facet normal 1 0 0
    outer loop
      vertex 20.8 13.8281 0.799999
      vertex 20.8 11.5823 23
      vertex 20.8 11.5823 0.799999
    endloop
  endfacet
  facet normal 0 1 -0
    outer loop
      vertex -10 10.8 0.799999
      vertex -11.0548 10.8 23
      vertex -10 10.8 23
    endloop
  endfacet
  facet normal 0 1 0
    outer loop
      vertex -11.0548 10.8 23
      vertex -10 10.8 0.799999
      vertex -11.0548 10.8 0.799999
    endloop
  endfacet
  facet normal 0 1 -0
    outer loop
      vertex -8.8385 10.8 0.799999
      vertex -9.2 10.8 23
      vertex -8.8385 10.8 23
    endloop
  endfacet
  facet normal 0 1 0
    outer loop
      vertex -9.2 10.8 23
      vertex -8.8385 10.8 0.799999
      vertex -9.2 10.8 0.799999
    endloop
  endfacet
  facet normal 0 1 -0
    outer loop
      vertex 27.9539 10.8 0.799999
      vertex 24.6164 10.8 23
      vertex 27.9539 10.8 23
    endloop
  endfacet
  facet normal 0 1 0
    outer loop
      vertex 24.6164 10.8 23
      vertex 27.9539 10.8 0.799999
      vertex 24.6164 10.8 0.799999
    endloop
  endfacet
  facet normal 0 -1 0
    outer loop
      vertex -10.9572 10 0.799999
      vertex -10 10 23
      vertex -10.9572 10 23
    endloop
  endfacet
  facet normal 0 -1 -0
    outer loop
      vertex -10 10 23
      vertex -10.9572 10 0.799999
      vertex -10 10 0.799999
    endloop
  endfacet
  facet normal 0 -1 0
    outer loop
      vertex -9.2 10 0.799999
      vertex -8.74083 10 23
      vertex -9.2 10 23
    endloop
  endfacet
  facet normal 0 -1 -0
    outer loop
      vertex -8.74083 10 23
      vertex -9.2 10 0.799999
      vertex -8.74083 10 0.799999
    endloop
  endfacet
  facet normal 0 -1 0
    outer loop
      vertex 25.9045 10 0.799999
      vertex 28.2678 10 23
      vertex 25.9045 10 23
    endloop
  endfacet
  facet normal 0 -1 -0
    outer loop
      vertex 28.2678 10 23
      vertex 25.9045 10 0.799999
      vertex 28.2678 10 0.799999
    endloop
  endfacet
  facet normal -1 0 0
    outer loop
      vertex 10 13.9855 0.799999
      vertex 10 16.2633 23
      vertex 10 16.2633 0.799999
    endloop
  endfacet
  facet normal -1 -0 0
    outer loop
      vertex 10 16.2633 23
      vertex 10 13.9855 0.799999
      vertex 10 13.9855 23
    endloop
  endfacet
  facet normal -1 0 0
    outer loop
      vertex 10 -16.5369 0.799999
      vertex 10 -12.0516 23
      vertex 10 -12.0516 0.799999
    endloop
  endfacet
  facet normal -1 -0 0
    outer loop
      vertex 10 -12.0516 23
      vertex 10 -16.5369 0.799999
      vertex 10 -16.5369 23
    endloop
  endfacet
  facet normal 1 -0 0
    outer loop
      vertex 10.8 13.7709 23
      vertex 10.8 16.0487 0.799999
      vertex 10.8 16.0487 23
    endloop
  endfacet
  facet normal 1 0 0
    outer loop
      vertex 10.8 16.0487 0.799999
      vertex 10.8 13.7709 23
      vertex 10.8 13.7709 0.799999
    endloop
  endfacet
  facet normal 1 -0 0
    outer loop
      vertex 10.8 -15.2353 23
      vertex 10.8 -10.5455 0.799999
      vertex 10.8 -10.5455 23
    endloop
  endfacet
  facet normal 1 0 0
    outer loop
      vertex 10.8 -10.5455 0.799999
      vertex 10.8 -15.2353 23
      vertex 10.8 -15.2353 0.799999
    endloop
  endfacet
  facet normal 0 1 -0
    outer loop
      vertex -10 0.799999 0.799999
      vertex -11.1386 0.799999 23
      vertex -10 0.799999 23
    endloop
  endfacet
  facet normal 0 1 0
    outer loop
      vertex -11.1386 0.799999 23
      vertex -10 0.799999 0.799999
      vertex -11.1386 0.799999 0.799999
    endloop
  endfacet
  facet normal 0 1 -0
    outer loop
      vertex -8.93141 0.799999 0.799999
      vertex -9.2 0.799999 23
      vertex -8.93141 0.799999 23
    endloop
  endfacet
  facet normal 0 1 0
    outer loop
      vertex -9.2 0.799999 23
      vertex -8.93141 0.799999 0.799999
      vertex -9.2 0.799999 0.799999
    endloop
  endfacet
  facet normal 0 1 -0
    outer loop
      vertex 23.7622 0.799999 0.799999
      vertex 20.8 0.799999 23
      vertex 23.7622 0.799999 23
    endloop
  endfacet
  facet normal 0 1 0
    outer loop
      vertex 20.8 0.799999 23
      vertex 23.7622 0.799999 0.799999
      vertex 20.8 0.799999 0.799999
    endloop
  endfacet
  facet normal 0 -1 0
    outer loop
      vertex -11.0737 0 0.799999
      vertex -10 0 23
      vertex -11.0737 0 23
    endloop
  endfacet
  facet normal 0 -1 -0
    outer loop
      vertex -10 0 23
      vertex -11.0737 0 0.799999
      vertex -10 0 0.799999
    endloop
  endfacet
  facet normal 0 -1 0
    outer loop
      vertex -9.2 0 0.799999
      vertex -8.86648 0 23
      vertex -9.2 0 23
    endloop
  endfacet
  facet normal 0 -1 -0
    outer loop
      vertex -8.86648 0 23
      vertex -9.2 0 0.799999
      vertex -8.86648 0 0.799999
    endloop
  endfacet
  facet normal 0 -1 0
    outer loop
      vertex 19.4872 0 0.799999
      vertex 20 0 23
      vertex 19.4872 0 23
    endloop
  endfacet
  facet normal 0 -1 -0
    outer loop
      vertex 20 0 23
      vertex 19.4872 0 0.799999
      vertex 20 0 0.799999
    endloop
  endfacet
  facet normal 0 -1 0
    outer loop
      vertex 20.8 0 0.799999
      vertex 22.8415 0 23
      vertex 20.8 0 23
    endloop
  endfacet
  facet normal 0 -1 -0
    outer loop
      vertex 22.8415 0 23
      vertex 20.8 0 0.799999
      vertex 22.8415 0 0.799999
    endloop
  endfacet
  facet normal -1 0 0
    outer loop
      vertex 0 15.3439 0.799999
      vertex 0 17.5454 23
      vertex 0 17.5454 0.799999
    endloop
  endfacet
  facet normal -1 -0 0
    outer loop
      vertex 0 17.5454 23
      vertex 0 15.3439 0.799999
      vertex 0 15.3439 23
    endloop
  endfacet
  facet normal -1 0 0
    outer loop
      vertex 0 -24.9889 0.799999
      vertex 0 -22.3354 23
      vertex 0 -22.3354 0.799999
    endloop
  endfacet
  facet normal -1 -0 0
    outer loop
      vertex 0 -22.3354 23
      vertex 0 -24.9889 0.799999
      vertex 0 -24.9889 23
    endloop
  endfacet
  facet normal 1 -0 0
    outer loop
      vertex 0.799999 15.3732 23
      vertex 0.799999 17.5747 0.799999
      vertex 0.799999 17.5747 23
    endloop
  endfacet
  facet normal 1 0 0
    outer loop
      vertex 0.799999 17.5747 0.799999
      vertex 0.799999 15.3732 23
      vertex 0.799999 15.3732 0.799999
    endloop
  endfacet
  facet normal 1 -0 0
    outer loop
      vertex 0.799999 -24.4494 23
      vertex 0.799999 -21.7959 0.799999
      vertex 0.799999 -21.7959 23
    endloop
  endfacet
  facet normal 1 0 0
    outer loop
      vertex 0.799999 -21.7959 0.799999
      vertex 0.799999 -24.4494 23
      vertex 0.799999 -24.4494 0.799999
    endloop
  endfacet
  facet normal 0 -1 0
    outer loop
      vertex -12.1622 -10 0.799999
      vertex -10 -10 23
      vertex -12.1622 -10 23
    endloop
  endfacet
  facet normal 0 -1 -0
    outer loop
      vertex -10 -10 23
      vertex -12.1622 -10 0.799999
      vertex -10 -10 0.799999
    endloop
  endfacet
  facet normal 0 -1 0
    outer loop
      vertex -9.2 -10 0.799999
      vertex -8.05482 -10 23
      vertex -9.2 -10 23
    endloop
  endfacet
  facet normal 0 -1 -0
    outer loop
      vertex -8.05482 -10 23
      vertex -9.2 -10 0.799999
      vertex -8.05482 -10 0.799999
    endloop
  endfacet
  facet normal 0 -1 0
    outer loop
      vertex 11.0898 -10 0.799999
      vertex 13.5809 -10 23
      vertex 11.0898 -10 23
    endloop
  endfacet
  facet normal 0 -1 -0
    outer loop
      vertex 13.5809 -10 23
      vertex 11.0898 -10 0.799999
      vertex 13.5809 -10 0.799999
    endloop
  endfacet
  facet normal 0 1 -0
    outer loop
      vertex -10 -9.2 0.799999
      vertex -10.7933 -9.2 23
      vertex -10 -9.2 23
    endloop
  endfacet
  facet normal 0 1 0
    outer loop
      vertex -10.7933 -9.2 23
      vertex -10 -9.2 0.799999
      vertex -10.7933 -9.2 0.799999
    endloop
  endfacet
  facet normal 0 1 -0
    outer loop
      vertex -8.11975 -9.2 0.799999
      vertex -9.2 -9.2 23
      vertex -8.11975 -9.2 23
    endloop
  endfacet
  facet normal 0 1 0
    outer loop
      vertex -9.2 -9.2 23
      vertex -8.11975 -9.2 0.799999
      vertex -9.2 -9.2 0.799999
    endloop
  endfacet
  facet normal 0 1 -0
    outer loop
      vertex 14.0058 -9.2 0.799999
      vertex 11.5147 -9.2 23
      vertex 14.0058 -9.2 23
    endloop
  endfacet
  facet normal 0 1 0
    outer loop
      vertex 11.5147 -9.2 23
      vertex 14.0058 -9.2 0.799999
      vertex 11.5147 -9.2 0.799999
    endloop
  endfacet
  facet normal -1 0 0
    outer loop
      vertex -10 -11.2845 0.799999
      vertex -10 -10 23
      vertex -10 -10 0.799999
    endloop
  endfacet
  facet normal -1 -0 0
    outer loop
      vertex -10 -10 23
      vertex -10 -11.2845 0.799999
      vertex -10 -11.2845 23
    endloop
  endfacet
  facet normal -1 0 0
    outer loop
      vertex -10 -9.2 0.799999
      vertex -10 0 23
      vertex -10 0 0.799999
    endloop
  endfacet
  facet normal -1 -0 0
    outer loop
      vertex -10 0 23
      vertex -10 -9.2 0.799999
      vertex -10 -9.2 23
    endloop
  endfacet
  facet normal -1 0 0
    outer loop
      vertex -10 0.799999 0.799999
      vertex -10 10 23
      vertex -10 10 0.799999
    endloop
  endfacet
  facet normal -1 -0 0
    outer loop
      vertex -10 10 23
      vertex -10 0.799999 0.799999
      vertex -10 0.799999 23
    endloop
  endfacet
  facet normal -1 0 0
    outer loop
      vertex -10 10.8 0.799999
      vertex -10 15.5222 23
      vertex -10 15.5222 0.799999
    endloop
  endfacet
  facet normal -1 -0 0
    outer loop
      vertex -10 15.5222 23
      vertex -10 10.8 0.799999
      vertex -10 10.8 23
    endloop
  endfacet
  facet normal -1 0 0
    outer loop
      vertex -10 -18.4582 0.799999
      vertex -10 -12.1777 23
      vertex -10 -12.1777 0.799999
    endloop
  endfacet
  facet normal -1 -0 0
    outer loop
      vertex -10 -12.1777 23
      vertex -10 -18.4582 0.799999
      vertex -10 -18.4582 23
    endloop
  endfacet
  facet normal 1 -0 0
    outer loop
      vertex -9.2 -10.817 23
      vertex -9.2 -10 0.799999
      vertex -9.2 -10 23
    endloop
  endfacet
  facet normal 1 0 0
    outer loop
      vertex -9.2 -10 0.799999
      vertex -9.2 -10.817 23
      vertex -9.2 -10.817 0.799999
    endloop
  endfacet
  facet normal 1 -0 0
    outer loop
      vertex -9.2 -9.2 23
      vertex -9.2 0 0.799999
      vertex -9.2 0 23
    endloop
  endfacet
  facet normal 1 0 0
    outer loop
      vertex -9.2 0 0.799999
      vertex -9.2 -9.2 23
      vertex -9.2 -9.2 0.799999
    endloop
  endfacet
  facet normal 1 -0 0
    outer loop
      vertex -9.2 -19.2 23
      vertex -9.2 -14.3168 0.799999
      vertex -9.2 -14.3168 23
    endloop
  endfacet
  facet normal 1 0 0
    outer loop
      vertex -9.2 -14.3168 0.799999
      vertex -9.2 -19.2 23
      vertex -9.2 -19.2 0.799999
    endloop
  endfacet
  facet normal 1 -0 0
    outer loop
      vertex -9.2 -20.5972 23
      vertex -9.2 -20 0.799999
      vertex -9.2 -20 23
    endloop
  endfacet
  facet normal 1 0 0
    outer loop
      vertex -9.2 -20 0.799999
      vertex -9.2 -20.5972 23
      vertex -9.2 -20.5972 0.799999
    endloop
  endfacet
  facet normal 1 -0 0
    outer loop
      vertex -9.2 0.799999 23
      vertex -9.2 10 0.799999
      vertex -9.2 10 23
    endloop
  endfacet
  facet normal 1 0 0
    outer loop
      vertex -9.2 10 0.799999
      vertex -9.2 0.799999 23
      vertex -9.2 0.799999 0.799999
    endloop
  endfacet
  facet normal 1 -0 0
    outer loop
      vertex -9.2 10.8 23
      vertex -9.2 15.7644 0.799999
      vertex -9.2 15.7644 23
    endloop
  endfacet
  facet normal 1 0 0
    outer loop
      vertex -9.2 15.7644 0.799999
      vertex -9.2 10.8 23
      vertex -9.2 10.8 0.799999
    endloop
  endfacet
  facet normal 0 1 -0
    outer loop
      vertex -7.37373 -19.2 0.799999
      vertex -9.2 -19.2 23
      vertex -7.37373 -19.2 23
    endloop
  endfacet
  facet normal 0 1 0
    outer loop
      vertex -9.2 -19.2 23
      vertex -7.37373 -19.2 0.799999
      vertex -9.2 -19.2 0.799999
    endloop
  endfacet
  facet normal 0 1 -0
    outer loop
      vertex 7.61088 -19.2 0.799999
      vertex 4.64965 -19.2 23
      vertex 7.61088 -19.2 23
    endloop
  endfacet
  facet normal 0 1 0
    outer loop
      vertex 4.64965 -19.2 23
      vertex 7.61088 -19.2 0.799999
      vertex 4.64965 -19.2 0.799999
    endloop
  endfacet
  facet normal 0 -1 0
    outer loop
      vertex -9.2 -20 0.799999
      vertex -7.07454 -20 23
      vertex -9.2 -20 23
    endloop
  endfacet
  facet normal 0 -1 -0
    outer loop
      vertex -7.07454 -20 23
      vertex -9.2 -20 0.799999
      vertex -7.07454 -20 0.799999
    endloop
  endfacet
  facet normal 0 -1 0
    outer loop
      vertex 3.46329 -20 0.799999
      vertex 6.89319 -20 23
      vertex 3.46329 -20 23
    endloop
  endfacet
  facet normal 0 -1 -0
    outer loop
      vertex 6.89319 -20 23
      vertex 3.46329 -20 0.799999
      vertex 6.89319 -20 0.799999
    endloop
  endfacet
  facet normal 0.559093 -0.829105 0
    outer loop
      vertex -1.09186 -26.69 0
      vertex 6.64912 -21.47 25
      vertex -1.09186 -26.69 25
    endloop
  endfacet
  facet normal 0.559093 -0.829105 0
    outer loop
      vertex 6.64912 -21.47 25
      vertex -1.09186 -26.69 0
      vertex 6.64912 -21.47 0
    endloop
  endfacet
  facet normal 0.744354 -0.667785 0
    outer loop
      vertex 6.64912 -21.47 25
      vertex 10.9271 -16.7015 0
      vertex 10.9271 -16.7015 25
    endloop
  endfacet
  facet normal 0.744354 -0.667785 0
    outer loop
      vertex 10.9271 -16.7015 0
      vertex 6.64912 -21.47 25
      vertex 6.64912 -21.47 0
    endloop
  endfacet
  facet normal 0.883144 -0.469102 0
    outer loop
      vertex 10.9271 -16.7015 25
      vertex 15.1822 -8.69073 0
      vertex 15.1822 -8.69073 25
    endloop
  endfacet
  facet normal 0.883144 -0.469102 0
    outer loop
      vertex 15.1822 -8.69073 0
      vertex 10.9271 -16.7015 25
      vertex 10.9271 -16.7015 0
    endloop
  endfacet
  facet normal 0.655889 -0.754857 0
    outer loop
      vertex 18.0308 -5.23975 0
      vertex 26.5254 2.14114 25
      vertex 18.0308 -5.23975 25
    endloop
  endfacet
  facet normal 0.655889 -0.754857 0
    outer loop
      vertex 26.5254 2.14114 25
      vertex 18.0308 -5.23975 0
      vertex 26.5254 2.14114 0
    endloop
  endfacet
  facet normal 0.325488 -0.945546 0
    outer loop
      vertex 26.5254 2.14114 0
      vertex 30.8148 3.61769 25
      vertex 26.5254 2.14114 25
    endloop
  endfacet
  facet normal 0.325488 -0.945546 0
    outer loop
      vertex 30.8148 3.61769 25
      vertex 26.5254 2.14114 0
      vertex 30.8148 3.61769 0
    endloop
  endfacet
  facet normal 0.989317 0.145777 0
    outer loop
      vertex 30.8148 3.61769 25
      vertex 30.3237 6.95055 0
      vertex 30.3237 6.95055 25
    endloop
  endfacet
  facet normal 0.989317 0.145777 0
    outer loop
      vertex 30.3237 6.95055 0
      vertex 30.8148 3.61769 25
      vertex 30.8148 3.61769 0
    endloop
  endfacet
  facet normal 0.930907 0.365257 0
    outer loop
      vertex 30.3237 6.95055 25
      vertex 27.8737 13.1947 0
      vertex 27.8737 13.1947 25
    endloop
  endfacet
  facet normal 0.930907 0.365257 0
    outer loop
      vertex 27.8737 13.1947 0
      vertex 30.3237 6.95055 25
      vertex 30.3237 6.95055 0
    endloop
  endfacet
  facet normal 0.20081 0.97963 -0
    outer loop
      vertex 27.8737 13.1947 0
      vertex 13.6849 16.1032 25
      vertex 27.8737 13.1947 25
    endloop
  endfacet
  facet normal 0.20081 0.97963 0
    outer loop
      vertex 13.6849 16.1032 25
      vertex 27.8737 13.1947 0
      vertex 13.6849 16.1032 0
    endloop
  endfacet
  facet normal 0.259058 0.965862 -0
    outer loop
      vertex 13.6849 16.1032 0
      vertex 4.68314 18.5176 25
      vertex 13.6849 16.1032 25
    endloop
  endfacet
  facet normal 0.259058 0.965862 0
    outer loop
      vertex 4.68314 18.5176 25
      vertex 13.6849 16.1032 0
      vertex 4.68314 18.5176 0
    endloop
  endfacet
  facet normal -0.0366336 0.999329 0
    outer loop
      vertex 4.68314 18.5176 0
      vertex -3.90703 18.2027 25
      vertex 4.68314 18.5176 25
    endloop
  endfacet
  facet normal -0.0366336 0.999329 0
    outer loop
      vertex -3.90703 18.2027 25
      vertex 4.68314 18.5176 0
      vertex -3.90703 18.2027 0
    endloop
  endfacet
  facet normal -0.28976 0.957099 0
    outer loop
      vertex -3.90703 18.2027 0
      vertex -12.6103 15.5678 25
      vertex -3.90703 18.2027 25
    endloop
  endfacet
  facet normal -0.28976 0.957099 0
    outer loop
      vertex -12.6103 15.5678 25
      vertex -3.90703 18.2027 0
      vertex -12.6103 15.5678 0
    endloop
  endfacet
  facet normal -0.10544 0.994426 0
    outer loop
      vertex -12.6103 15.5678 0
      vertex -21.1408 14.6633 25
      vertex -12.6103 15.5678 25
    endloop
  endfacet
  facet normal -0.10544 0.994426 0
    outer loop
      vertex -21.1408 14.6633 25
      vertex -12.6103 15.5678 0
      vertex -21.1408 14.6633 0
    endloop
  endfacet
  facet normal 0.0474607 -0.998873 0
    outer loop
      vertex -21.082 13.7328 0
      vertex -12.2699 14.1515 25
      vertex -21.082 13.7328 25
    endloop
  endfacet
  facet normal 0.0474607 -0.998873 0
    outer loop
      vertex -12.2699 14.1515 25
      vertex -21.082 13.7328 0
      vertex -12.2699 14.1515 0
    endloop
  endfacet
  facet normal -0.992631 -0.121178 0
    outer loop
      vertex -11.3159 6.33678 0
      vertex -12.2699 14.1515 25
      vertex -12.2699 14.1515 0
    endloop
  endfacet
  facet normal -0.992631 -0.121178 0
    outer loop
      vertex -12.2699 14.1515 25
      vertex -11.3159 6.33678 0
      vertex -11.3159 6.33678 25
    endloop
  endfacet
  facet normal -0.996722 -0.080902 0
    outer loop
      vertex -11.1862 -8.50301 0
      vertex -11.9873 1.36664 25
      vertex -11.9873 1.36664 0
    endloop
  endfacet
  facet normal -0.996722 -0.080902 0
    outer loop
      vertex -11.9873 1.36664 25
      vertex -11.1862 -8.50301 0
      vertex -11.1862 -8.50301 25
    endloop
  endfacet
  facet normal -0.504556 0.863379 0
    outer loop
      vertex -11.1862 -8.50301 0
      vertex -18.1306 -12.5613 25
      vertex -11.1862 -8.50301 25
    endloop
  endfacet
  facet normal -0.504556 0.863379 0
    outer loop
      vertex -18.1306 -12.5613 25
      vertex -11.1862 -8.50301 0
      vertex -18.1306 -12.5613 0
    endloop
  endfacet
  facet normal -0.936638 -0.350298 0
    outer loop
      vertex -6.83656 -29.2005 0
      vertex -12.828 -13.1804 25
      vertex -12.828 -13.1804 0
    endloop
  endfacet
  facet normal -0.936638 -0.350298 0
    outer loop
      vertex -12.828 -13.1804 25
      vertex -6.83656 -29.2005 0
      vertex -6.83656 -29.2005 25
    endloop
  endfacet
  facet normal 0.400443 -0.916322 0
    outer loop
      vertex -6.83656 -29.2005 0
      vertex -1.09186 -26.69 25
      vertex -6.83656 -29.2005 25
    endloop
  endfacet
  facet normal 0.400443 -0.916322 0
    outer loop
      vertex -1.09186 -26.69 25
      vertex -6.83656 -29.2005 0
      vertex -1.09186 -26.69 0
    endloop
  endfacet
  facet normal -0.559117 0.829089 0
    outer loop
      vertex 0.799999 -21.7959 0.799999
      vertex 0 -22.3354 23
      vertex 0.799999 -21.7959 23
    endloop
  endfacet
  facet normal -0.559117 0.829089 0
    outer loop
      vertex 0 -22.3354 23
      vertex 0.799999 -21.7959 0.799999
      vertex 0 -22.3354 0.799999
    endloop
  endfacet
  facet normal -0.559092 0.829106 0
    outer loop
      vertex 4.64965 -19.2 0.799999
      vertex 3.46329 -20 23
      vertex 4.64965 -19.2 23
    endloop
  endfacet
  facet normal -0.559092 0.829106 0
    outer loop
      vertex 3.46329 -20 23
      vertex 4.64965 -19.2 0.799999
      vertex 3.46329 -20 0.799999
    endloop
  endfacet
  facet normal -0.883144 0.469102 0
    outer loop
      vertex 10 -12.0516 0.799999
      vertex 10.8 -10.5455 23
      vertex 10.8 -10.5455 0.799999
    endloop
  endfacet
  facet normal -0.883144 0.469102 0
    outer loop
      vertex 10.8 -10.5455 23
      vertex 10 -12.0516 0.799999
      vertex 10 -12.0516 23
    endloop
  endfacet
  facet normal -0.883161 0.469069 0
    outer loop
      vertex 11.0898 -10 0.799999
      vertex 11.5147 -9.2 23
      vertex 11.5147 -9.2 0.799999
    endloop
  endfacet
  facet normal -0.883161 0.469069 0
    outer loop
      vertex 11.5147 -9.2 23
      vertex 11.0898 -10 0.799999
      vertex 11.0898 -10 23
    endloop
  endfacet
  facet normal -0.655882 0.754863 0
    outer loop
      vertex 20.8 1.14066 0.799999
      vertex 19.4872 0 23
      vertex 20.8 1.14066 23
    endloop
  endfacet
  facet normal -0.655882 0.754863 0
    outer loop
      vertex 19.4872 0 23
      vertex 20.8 1.14066 0.799999
      vertex 19.4872 0 0.799999
    endloop
  endfacet
  facet normal -0.930891 -0.365297 0
    outer loop
      vertex 25.9045 10 0.799999
      vertex 25.6758 10.5828 23
      vertex 25.6758 10.5828 0.799999
    endloop
  endfacet
  facet normal -0.930891 -0.365297 0
    outer loop
      vertex 25.6758 10.5828 23
      vertex 25.9045 10 0.799999
      vertex 25.9045 10 23
    endloop
  endfacet
  facet normal -0.200824 -0.979627 0
    outer loop
      vertex 20 11.7463 0.799999
      vertex 20.8 11.5823 23
      vertex 20 11.7463 23
    endloop
  endfacet
  facet normal -0.200824 -0.979627 -0
    outer loop
      vertex 20.8 11.5823 23
      vertex 20 11.7463 0.799999
      vertex 20.8 11.5823 0.799999
    endloop
  endfacet
  facet normal -0.200844 -0.979623 0
    outer loop
      vertex 24.6164 10.8 0.799999
      vertex 25.6758 10.5828 23
      vertex 24.6164 10.8 23
    endloop
  endfacet
  facet normal -0.200844 -0.979623 -0
    outer loop
      vertex 25.6758 10.5828 23
      vertex 24.6164 10.8 0.799999
      vertex 25.6758 10.5828 0.799999
    endloop
  endfacet
  facet normal -0.25909 -0.965853 0
    outer loop
      vertex 10 13.9855 0.799999
      vertex 10.8 13.7709 23
      vertex 10 13.9855 23
    endloop
  endfacet
  facet normal -0.25909 -0.965853 -0
    outer loop
      vertex 10.8 13.7709 23
      vertex 10 13.9855 0.799999
      vertex 10.8 13.7709 0.799999
    endloop
  endfacet
  facet normal 0.0366005 -0.99933 0
    outer loop
      vertex 0 15.3439 0.799999
      vertex 0.799999 15.3732 23
      vertex 0 15.3439 23
    endloop
  endfacet
  facet normal 0.0366005 -0.99933 0
    outer loop
      vertex 0.799999 15.3732 23
      vertex 0 15.3439 0.799999
      vertex 0.799999 15.3732 0.799999
    endloop
  endfacet
  facet normal 0.99263 0.121188 0
    outer loop
      vertex -8.74083 10 23
      vertex -8.8385 10.8 0.799999
      vertex -8.8385 10.8 23
    endloop
  endfacet
  facet normal 0.99263 0.121188 0
    outer loop
      vertex -8.8385 10.8 0.799999
      vertex -8.74083 10 23
      vertex -8.74083 10 0.799999
    endloop
  endfacet
  facet normal 0.996723 0.0808965 0
    outer loop
      vertex -8.05482 -10 23
      vertex -8.11975 -9.2 0.799999
      vertex -8.11975 -9.2 23
    endloop
  endfacet
  facet normal 0.996723 0.0808965 0
    outer loop
      vertex -8.11975 -9.2 0.799999
      vertex -8.05482 -10 23
      vertex -8.05482 -10 0.799999
    endloop
  endfacet
  facet normal 0.996722 0.0808966 0
    outer loop
      vertex -8.86648 0 23
      vertex -8.93141 0.799999 0.799999
      vertex -8.93141 0.799999 23
    endloop
  endfacet
  facet normal 0.996722 0.0808966 0
    outer loop
      vertex -8.93141 0.799999 0.799999
      vertex -8.86648 0 23
      vertex -8.86648 0 0.799999
    endloop
  endfacet
  facet normal 0.504542 -0.863387 0
    outer loop
      vertex -10 -11.2845 0.799999
      vertex -9.2 -10.817 23
      vertex -10 -11.2845 23
    endloop
  endfacet
  facet normal 0.504542 -0.863387 0
    outer loop
      vertex -9.2 -10.817 23
      vertex -10 -11.2845 0.799999
      vertex -9.2 -10.817 0.799999
    endloop
  endfacet
  facet normal 0.93664 0.350293 0
    outer loop
      vertex -9.2 -14.3168 23
      vertex -10 -12.1777 0.799999
      vertex -10 -12.1777 23
    endloop
  endfacet
  facet normal 0.93664 0.350293 0
    outer loop
      vertex -10 -12.1777 0.799999
      vertex -9.2 -14.3168 23
      vertex -9.2 -14.3168 0.799999
    endloop
  endfacet
  facet normal 0.936641 0.350292 0
    outer loop
      vertex -7.07454 -20 23
      vertex -7.37373 -19.2 0.799999
      vertex -7.37373 -19.2 23
    endloop
  endfacet
  facet normal 0.936641 0.350292 0
    outer loop
      vertex -7.37373 -19.2 0.799999
      vertex -7.07454 -20 23
      vertex -7.07454 -20 0.799999
    endloop
  endfacet
  facet normal 0 0 1
    outer loop
      vertex 30.3237 6.95055 25
      vertex 29.5456 6.74344 25
      vertex 29.9266 4.158 25
    endloop
  endfacet
  facet normal -0 0 1
    outer loop
      vertex 27.2876 12.4982 25
      vertex 30.3237 6.95055 25
      vertex 27.8737 13.1947 25
    endloop
  endfacet
  facet normal 0 0 1
    outer loop
      vertex 30.3237 6.95055 25
      vertex 27.2876 12.4982 25
      vertex 29.5456 6.74344 25
    endloop
  endfacet
  facet normal 0 0 1
    outer loop
      vertex 13.6849 16.1032 25
      vertex 27.2876 12.4982 25
      vertex 27.8737 13.1947 25
    endloop
  endfacet
  facet normal 0 0 1
    outer loop
      vertex 13.6849 16.1032 25
      vertex 13.5008 15.3243 25
      vertex 27.2876 12.4982 25
    endloop
  endfacet
  facet normal -0 0 1
    outer loop
      vertex 4.59218 17.7137 25
      vertex 13.6849 16.1032 25
      vertex 4.68314 18.5176 25
    endloop
  endfacet
  facet normal 0 0 1
    outer loop
      vertex 13.6849 16.1032 25
      vertex 4.59218 17.7137 25
      vertex 13.5008 15.3243 25
    endloop
  endfacet
  facet normal -0 0 1
    outer loop
      vertex -3.90703 18.2027 25
      vertex 4.59218 17.7137 25
      vertex 4.68314 18.5176 25
    endloop
  endfacet
  facet normal 0 0 1
    outer loop
      vertex 4.59218 17.7137 25
      vertex -3.90703 18.2027 25
      vertex -3.77429 17.407 25
    endloop
  endfacet
  facet normal 0 0 1
    outer loop
      vertex -3.90703 18.2027 25
      vertex -11.81 14.9742 25
      vertex -3.77429 17.407 25
    endloop
  endfacet
  facet normal -0 0 1
    outer loop
      vertex -12.6103 15.5678 25
      vertex -11.81 14.9742 25
      vertex -3.90703 18.2027 25
    endloop
  endfacet
  facet normal 0 0 1
    outer loop
      vertex -12.6103 15.5678 25
      vertex -12.2699 14.1515 25
      vertex -11.81 14.9742 25
    endloop
  endfacet
  facet normal 0 0 1
    outer loop
      vertex -12.6103 15.5678 25
      vertex -21.082 13.7328 25
      vertex -12.2699 14.1515 25
    endloop
  endfacet
  facet normal 0 -0 1
    outer loop
      vertex -21.082 13.7328 25
      vertex -12.6103 15.5678 25
      vertex -21.1408 14.6633 25
    endloop
  endfacet
  facet normal -0 0 1
    outer loop
      vertex 29.9266 4.158 25
      vertex 30.8148 3.61769 25
      vertex 30.3237 6.95055 25
    endloop
  endfacet
  facet normal 0 0 1
    outer loop
      vertex 29.9266 4.158 25
      vertex 26.5254 2.14114 25
      vertex 30.8148 3.61769 25
    endloop
  endfacet
  facet normal -0 0 1
    outer loop
      vertex 26.118 2.84698 25
      vertex 26.5254 2.14114 25
      vertex 29.9266 4.158 25
    endloop
  endfacet
  facet normal 0 0 1
    outer loop
      vertex 17.456 -4.67935 25
      vertex 26.5254 2.14114 25
      vertex 26.118 2.84698 25
    endloop
  endfacet
  facet normal 0 0 1
    outer loop
      vertex 26.5254 2.14114 25
      vertex 17.456 -4.67935 25
      vertex 18.0308 -5.23975 25
    endloop
  endfacet
  facet normal 0 0 1
    outer loop
      vertex 17.456 -4.67935 25
      vertex 15.1822 -8.69073 25
      vertex 18.0308 -5.23975 25
    endloop
  endfacet
  facet normal -0 0 1
    outer loop
      vertex 14.5136 -8.24393 25
      vertex 15.1822 -8.69073 25
      vertex 17.456 -4.67935 25
    endloop
  endfacet
  facet normal 0 0 1
    outer loop
      vertex 10.2664 -16.24 25
      vertex 15.1822 -8.69073 25
      vertex 14.5136 -8.24393 25
    endloop
  endfacet
  facet normal 0 0 1
    outer loop
      vertex 15.1822 -8.69073 25
      vertex 10.2664 -16.24 25
      vertex 10.9271 -16.7015 25
    endloop
  endfacet
  facet normal 0 0 1
    outer loop
      vertex 10.2664 -16.24 25
      vertex 6.64912 -21.47 25
      vertex 10.9271 -16.7015 25
    endloop
  endfacet
  facet normal -0 0 1
    outer loop
      vertex 6.11977 -20.8621 25
      vertex 6.64912 -21.47 25
      vertex 10.2664 -16.24 25
    endloop
  endfacet
  facet normal 0 0 1
    outer loop
      vertex 6.11977 -20.8621 25
      vertex -1.09186 -26.69 25
      vertex 6.64912 -21.47 25
    endloop
  endfacet
  facet normal -0 0 1
    outer loop
      vertex -1.47882 -25.9861 25
      vertex -1.09186 -26.69 25
      vertex 6.11977 -20.8621 25
    endloop
  endfacet
  facet normal 0 0 1
    outer loop
      vertex -6.38307 -28.1292 25
      vertex -1.09186 -26.69 25
      vertex -1.47882 -25.9861 25
    endloop
  endfacet
  facet normal -0 0 1
    outer loop
      vertex -6.38307 -28.1292 25
      vertex -6.83656 -29.2005 25
      vertex -1.09186 -26.69 25
    endloop
  endfacet
  facet normal -0 0 1
    outer loop
      vertex -12.828 -13.1804 25
      vertex -6.38307 -28.1292 25
      vertex -12.2968 -12.317 25
    endloop
  endfacet
  facet normal 0 0 1
    outer loop
      vertex -6.38307 -28.1292 25
      vertex -12.828 -13.1804 25
      vertex -6.83656 -29.2005 25
    endloop
  endfacet
  facet normal -0 0 1
    outer loop
      vertex -17.017 -12.8371 25
      vertex -12.828 -13.1804 25
      vertex -12.2968 -12.317 25
    endloop
  endfacet
  facet normal 0 0 1
    outer loop
      vertex -12.828 -13.1804 25
      vertex -17.017 -12.8371 25
      vertex -17.6522 -13.712 25
    endloop
  endfacet
  facet normal -0 0 1
    outer loop
      vertex -11.1862 -8.50301 25
      vertex -10.3481 -8.93982 25
      vertex -11.1829 1.34518 25
    endloop
  endfacet
  facet normal 0 0 1
    outer loop
      vertex -11.1862 -8.50301 25
      vertex -17.017 -12.8371 25
      vertex -10.3481 -8.93982 25
    endloop
  endfacet
  facet normal 0 0 1
    outer loop
      vertex -17.017 -12.8371 25
      vertex -18.1306 -12.5613 25
      vertex -17.6522 -13.712 25
    endloop
  endfacet
  facet normal -0 0 1
    outer loop
      vertex -18.1306 -12.5613 25
      vertex -17.017 -12.8371 25
      vertex -11.1862 -8.50301 25
    endloop
  endfacet
  facet normal -0 0 1
    outer loop
      vertex -11.9873 1.36664 25
      vertex -11.1829 1.34518 25
      vertex -11.3159 6.33678 25
    endloop
  endfacet
  facet normal 0 0 1
    outer loop
      vertex -10.5093 6.33162 25
      vertex -11.3159 6.33678 25
      vertex -11.1829 1.34518 25
    endloop
  endfacet
  facet normal -0 0 1
    outer loop
      vertex -12.2699 14.1515 25
      vertex -10.5093 6.33162 25
      vertex -11.5659 14.9858 25
    endloop
  endfacet
  facet normal 0 0 1
    outer loop
      vertex -12.2699 14.1515 25
      vertex -11.5659 14.9858 25
      vertex -11.81 14.9742 25
    endloop
  endfacet
  facet normal 0 0 1
    outer loop
      vertex -10.5093 6.33162 25
      vertex -12.2699 14.1515 25
      vertex -11.3159 6.33678 25
    endloop
  endfacet
  facet normal 0 0 1
    outer loop
      vertex -11.1829 1.34518 25
      vertex -11.9873 1.36664 25
      vertex -11.1862 -8.50301 25
    endloop
  endfacet
  facet normal 0.771204 -0.636588 0
    outer loop
      vertex 15.1822 -8.69073 25
      vertex 18.0308 -5.23975 0
      vertex 18.0308 -5.23975 25
    endloop
  endfacet
  facet normal 0.771204 -0.636588 0
    outer loop
      vertex 18.0308 -5.23975 0
      vertex 15.1822 -8.69073 25
      vertex 15.1822 -8.69073 0
    endloop
  endfacet
  facet normal -0.998009 -0.063066 0
    outer loop
      vertex -21.082 13.7328 0
      vertex -21.1408 14.6633 25
      vertex -21.1408 14.6633 0
    endloop
  endfacet
  facet normal -0.998009 -0.063066 0
    outer loop
      vertex -21.1408 14.6633 25
      vertex -21.082 13.7328 0
      vertex -21.082 13.7328 25
    endloop
  endfacet
  facet normal -0.990999 0.133871 0
    outer loop
      vertex -11.9873 1.36664 0
      vertex -11.3159 6.33678 25
      vertex -11.3159 6.33678 0
    endloop
  endfacet
  facet normal -0.990999 0.133871 0
    outer loop
      vertex -11.3159 6.33678 25
      vertex -11.9873 1.36664 0
      vertex -11.9873 1.36664 25
    endloop
  endfacet
  facet normal -0.923378 -0.383892 0
    outer loop
      vertex -17.6522 -13.712 0
      vertex -18.1306 -12.5613 25
      vertex -18.1306 -12.5613 0
    endloop
  endfacet
  facet normal -0.923378 -0.383892 0
    outer loop
      vertex -18.1306 -12.5613 25
      vertex -17.6522 -13.712 0
      vertex -17.6522 -13.712 25
    endloop
  endfacet
  facet normal 0.109531 -0.993983 0
    outer loop
      vertex -17.6522 -13.712 0
      vertex -12.828 -13.1804 25
      vertex -17.6522 -13.712 25
    endloop
  endfacet
  facet normal 0.109531 -0.993983 0
    outer loop
      vertex -12.828 -13.1804 25
      vertex -17.6522 -13.712 0
      vertex -12.828 -13.1804 0
    endloop
  endfacet
  facet normal -0 0 1
    outer loop
      vertex -11.5659 14.9858 0.799999
      vertex -10 10.8 0.799999
      vertex -10 15.5222 0.799999
    endloop
  endfacet
  facet normal 0 0 1
    outer loop
      vertex -10 10.8 0.799999
      vertex -11.5659 14.9858 0.799999
      vertex -11.0548 10.8 0.799999
    endloop
  endfacet
  facet normal 0 -0 1
    outer loop
      vertex -11.5659 14.9858 0.799999
      vertex -10 15.5222 0.799999
      vertex -11.81 14.9742 0.799999
    endloop
  endfacet
  facet normal 0 0 1
    outer loop
      vertex -10 10 0.799999
      vertex -10.5093 6.33162 0.799999
      vertex -10 0.799999 0.799999
    endloop
  endfacet
  facet normal 0 -0 1
    outer loop
      vertex -10.5093 6.33162 0.799999
      vertex -10 10 0.799999
      vertex -10.9572 10 0.799999
    endloop
  endfacet
  facet normal -0 0 1
    outer loop
      vertex -11.1829 1.34518 0.799999
      vertex -10 0.799999 0.799999
      vertex -10.5093 6.33162 0.799999
    endloop
  endfacet
  facet normal 0 0 1
    outer loop
      vertex -10 0.799999 0.799999
      vertex -11.1829 1.34518 0.799999
      vertex -11.1386 0.799999 0.799999
    endloop
  endfacet
  facet normal 0 0 1
    outer loop
      vertex 4.59218 17.7137 0.799999
      vertex 10 13.9855 0.799999
      vertex 10 16.2633 0.799999
    endloop
  endfacet
  facet normal 0 0 1
    outer loop
      vertex 10 13.9855 0.799999
      vertex 0.799999 15.3732 0.799999
      vertex 10 -12.0516 0.799999
    endloop
  endfacet
  facet normal -0 0 1
    outer loop
      vertex 0 15.3439 0.799999
      vertex 10 -12.0516 0.799999
      vertex 0.799999 15.3732 0.799999
    endloop
  endfacet
  facet normal 0 -0 1
    outer loop
      vertex 3.46329 -20 0.799999
      vertex 10 -12.0516 0.799999
      vertex 0 15.3439 0.799999
    endloop
  endfacet
  facet normal 0 0 1
    outer loop
      vertex 10 13.9855 0.799999
      vertex 4.59218 17.7137 0.799999
      vertex 0.799999 15.3732 0.799999
    endloop
  endfacet
  facet normal 0 0 1
    outer loop
      vertex 10 -16.5369 0.799999
      vertex 4.64965 -19.2 0.799999
      vertex 7.61088 -19.2 0.799999
    endloop
  endfacet
  facet normal 0 0 1
    outer loop
      vertex 0.799999 15.3732 0.799999
      vertex 4.59218 17.7137 0.799999
      vertex 0.799999 17.5747 0.799999
    endloop
  endfacet
  facet normal 0 0 1
    outer loop
      vertex 11.0898 -10 0.799999
      vertex 10 13.9855 0.799999
      vertex 10.8 -10.5455 0.799999
    endloop
  endfacet
  facet normal 0 0 1
    outer loop
      vertex 10.8 -10.5455 0.799999
      vertex 10 13.9855 0.799999
      vertex 10 -12.0516 0.799999
    endloop
  endfacet
  facet normal 0 0 1
    outer loop
      vertex 13.5008 15.3243 0.799999
      vertex 20 11.7463 0.799999
      vertex 20 13.9921 0.799999
    endloop
  endfacet
  facet normal 0 0 1
    outer loop
      vertex 20 11.7463 0.799999
      vertex 10.8 13.7709 0.799999
      vertex 19.4872 0 0.799999
    endloop
  endfacet
  facet normal 0 0 1
    outer loop
      vertex 19.4872 0 0.799999
      vertex 10.8 13.7709 0.799999
      vertex 17.456 -4.67935 0.799999
    endloop
  endfacet
  facet normal 0 -0 1
    outer loop
      vertex 11.5147 -9.2 0.799999
      vertex 17.456 -4.67935 0.799999
      vertex 10.8 13.7709 0.799999
    endloop
  endfacet
  facet normal 0 0 1
    outer loop
      vertex 20 11.7463 0.799999
      vertex 13.5008 15.3243 0.799999
      vertex 10.8 13.7709 0.799999
    endloop
  endfacet
  facet normal 0 0 1
    outer loop
      vertex 17.456 -4.67935 0.799999
      vertex 11.5147 -9.2 0.799999
      vertex 14.5136 -8.24393 0.799999
    endloop
  endfacet
  facet normal 0 0 1
    outer loop
      vertex 14.5136 -8.24393 0.799999
      vertex 11.5147 -9.2 0.799999
      vertex 14.0058 -9.2 0.799999
    endloop
  endfacet
  facet normal 0 0 1
    outer loop
      vertex 10.8 13.7709 0.799999
      vertex 13.5008 15.3243 0.799999
      vertex 10.8 16.0487 0.799999
    endloop
  endfacet
  facet normal 0 0 1
    outer loop
      vertex 20 11.7463 0.799999
      vertex 20.8 1.14066 0.799999
      vertex 20.8 11.5823 0.799999
    endloop
  endfacet
  facet normal 0 0 1
    outer loop
      vertex 20.8 1.14066 0.799999
      vertex 20 11.7463 0.799999
      vertex 19.4872 0 0.799999
    endloop
  endfacet
  facet normal 0 0 1
    outer loop
      vertex 27.2876 12.4982 0.799999
      vertex 24.6164 10.8 0.799999
      vertex 27.9539 10.8 0.799999
    endloop
  endfacet
  facet normal 0 0 1
    outer loop
      vertex 20.8 13.8281 0.799999
      vertex 24.6164 10.8 0.799999
      vertex 27.2876 12.4982 0.799999
    endloop
  endfacet
  facet normal -0 0 1
    outer loop
      vertex 20.8 11.5823 0.799999
      vertex 24.6164 10.8 0.799999
      vertex 20.8 13.8281 0.799999
    endloop
  endfacet
  facet normal 0 0 1
    outer loop
      vertex 20.8 1.14066 0.799999
      vertex 24.6164 10.8 0.799999
      vertex 20.8 11.5823 0.799999
    endloop
  endfacet
  facet normal 0 0 1
    outer loop
      vertex 24.6164 10.8 0.799999
      vertex 20.8 1.14066 0.799999
      vertex 23.7622 0.799999 0.799999
    endloop
  endfacet
  facet normal 0 0 1
    outer loop
      vertex 23.7622 0.799999 0.799999
      vertex 20.8 1.14066 0.799999
      vertex 20.8 0.799999 0.799999
    endloop
  endfacet
  facet normal -0 0 1
    outer loop
      vertex 25.9045 10 0.799999
      vertex 29.5456 6.74344 0.799999
      vertex 28.2678 10 0.799999
    endloop
  endfacet
  facet normal 0 -0 1
    outer loop
      vertex 26.118 2.84698 0.799999
      vertex 29.5456 6.74344 0.799999
      vertex 25.9045 10 0.799999
    endloop
  endfacet
  facet normal 0 0 1
    outer loop
      vertex 29.5456 6.74344 0.799999
      vertex 26.118 2.84698 0.799999
      vertex 29.9266 4.158 0.799999
    endloop
  endfacet
  facet normal 0 0 1
    outer loop
      vertex 24.6164 10.8 0.799999
      vertex 25.9045 10 0.799999
      vertex 25.6758 10.5828 0.799999
    endloop
  endfacet
  facet normal 0 0 1
    outer loop
      vertex 25.9045 10 0.799999
      vertex 24.6164 10.8 0.799999
      vertex 26.118 2.84698 0.799999
    endloop
  endfacet
  facet normal 0 0 1
    outer loop
      vertex 26.118 2.84698 0.799999
      vertex 24.6164 10.8 0.799999
      vertex 23.7622 0.799999 0.799999
    endloop
  endfacet
  facet normal -0 0 1
    outer loop
      vertex 19.4872 0 0.799999
      vertex 20 -2.46891 0.799999
      vertex 20 0 0.799999
    endloop
  endfacet
  facet normal 0 0 1
    outer loop
      vertex 20 -2.46891 0.799999
      vertex 19.4872 0 0.799999
      vertex 17.456 -4.67935 0.799999
    endloop
  endfacet
  facet normal 0 0 1
    outer loop
      vertex 10 13.9855 0.799999
      vertex 11.5147 -9.2 0.799999
      vertex 10.8 13.7709 0.799999
    endloop
  endfacet
  facet normal 0 0 1
    outer loop
      vertex 11.5147 -9.2 0.799999
      vertex 10 13.9855 0.799999
      vertex 11.0898 -10 0.799999
    endloop
  endfacet
  facet normal 0 0 1
    outer loop
      vertex 10.8 -10.5455 0.799999
      vertex 13.5809 -10 0.799999
      vertex 11.0898 -10 0.799999
    endloop
  endfacet
  facet normal 0 0 1
    outer loop
      vertex 13.5809 -10 0.799999
      vertex 10.8 -10.5455 0.799999
      vertex 10.8 -15.2353 0.799999
    endloop
  endfacet
  facet normal -0 0 1
    outer loop
      vertex 3.46329 -20 0.799999
      vertex 6.11977 -20.8621 0.799999
      vertex 6.89319 -20 0.799999
    endloop
  endfacet
  facet normal 0 0 1
    outer loop
      vertex 10 -12.0516 0.799999
      vertex 4.64965 -19.2 0.799999
      vertex 10 -16.5369 0.799999
    endloop
  endfacet
  facet normal 0 0 1
    outer loop
      vertex 10 -12.0516 0.799999
      vertex 3.46329 -20 0.799999
      vertex 4.64965 -19.2 0.799999
    endloop
  endfacet
  facet normal 0 0 1
    outer loop
      vertex 0.799999 -24.4494 0.799999
      vertex 3.46329 -20 0.799999
      vertex 0.799999 -21.7959 0.799999
    endloop
  endfacet
  facet normal 0 0 1
    outer loop
      vertex 3.46329 -20 0.799999
      vertex 0.799999 -24.4494 0.799999
      vertex 6.11977 -20.8621 0.799999
    endloop
  endfacet
  facet normal -0 0 1
    outer loop
      vertex -12.1622 -10 0.799999
      vertex -10 -11.2845 0.799999
      vertex -10 -10 0.799999
    endloop
  endfacet
  facet normal 0 0 1
    outer loop
      vertex -12.2968 -12.317 0.799999
      vertex -10 -11.2845 0.799999
      vertex -12.1622 -10 0.799999
    endloop
  endfacet
  facet normal 0 0 1
    outer loop
      vertex -10 -11.2845 0.799999
      vertex -12.2968 -12.317 0.799999
      vertex -10 -12.1777 0.799999
    endloop
  endfacet
  facet normal 0 0 1
    outer loop
      vertex -10 -12.1777 0.799999
      vertex -12.2968 -12.317 0.799999
      vertex -10 -18.4582 0.799999
    endloop
  endfacet
  facet normal 0 -0 1
    outer loop
      vertex -12.2968 -12.317 0.799999
      vertex -12.1622 -10 0.799999
      vertex -17.017 -12.8371 0.799999
    endloop
  endfacet
  facet normal 0 0 1
    outer loop
      vertex -10 -12.1777 0.799999
      vertex -9.2 -10.817 0.799999
      vertex -10 -11.2845 0.799999
    endloop
  endfacet
  facet normal 0 0 1
    outer loop
      vertex -9.2 -10.817 0.799999
      vertex -10 -12.1777 0.799999
      vertex -9.2 -14.3168 0.799999
    endloop
  endfacet
  facet normal 0 0 1
    outer loop
      vertex 0 15.3439 0.799999
      vertex -8.93141 0.799999 0.799999
      vertex -8.86648 0 0.799999
    endloop
  endfacet
  facet normal -0 0 1
    outer loop
      vertex -9.2 10 0.799999
      vertex -8.93141 0.799999 0.799999
      vertex -8.74083 10 0.799999
    endloop
  endfacet
  facet normal 0 0 1
    outer loop
      vertex -8.93141 0.799999 0.799999
      vertex -9.2 10 0.799999
      vertex -9.2 0.799999 0.799999
    endloop
  endfacet
  facet normal -0 0 1
    outer loop
      vertex -3.77429 17.407 0.799999
      vertex 0 15.3439 0.799999
      vertex 0 17.5454 0.799999
    endloop
  endfacet
  facet normal 0 0 1
    outer loop
      vertex 0 15.3439 0.799999
      vertex -8.11975 -9.2 0.799999
      vertex 0 -22.3354 0.799999
    endloop
  endfacet
  facet normal -0 -0 1
    outer loop
      vertex -8.05482 -10 0.799999
      vertex 0 -22.3354 0.799999
      vertex -8.11975 -9.2 0.799999
    endloop
  endfacet
  facet normal 0 0 1
    outer loop
      vertex -8.8385 10.8 0.799999
      vertex 0 15.3439 0.799999
      vertex -3.77429 17.407 0.799999
    endloop
  endfacet
  facet normal -0 -0 1
    outer loop
      vertex -7.37373 -19.2 0.799999
      vertex 0 -22.3354 0.799999
      vertex -8.05482 -10 0.799999
    endloop
  endfacet
  facet normal 0 0 1
    outer loop
      vertex -1.47882 -25.9861 0.799999
      vertex -7.07454 -20 0.799999
      vertex -6.38307 -28.1292 0.799999
    endloop
  endfacet
  facet normal 0 -0 1
    outer loop
      vertex -1.47882 -25.9861 0.799999
      vertex 0 -22.3354 0.799999
      vertex -7.07454 -20 0.799999
    endloop
  endfacet
  facet normal 0 0 1
    outer loop
      vertex 0 -22.3354 0.799999
      vertex -1.47882 -25.9861 0.799999
      vertex 0 -24.9889 0.799999
    endloop
  endfacet
  facet normal -0 -0 1
    outer loop
      vertex -7.07454 -20 0.799999
      vertex 0 -22.3354 0.799999
      vertex -7.37373 -19.2 0.799999
    endloop
  endfacet
  facet normal 0 0 1
    outer loop
      vertex -8.93141 0.799999 0.799999
      vertex 0 15.3439 0.799999
      vertex -8.74083 10 0.799999
    endloop
  endfacet
  facet normal 0 0 1
    outer loop
      vertex 0 15.3439 0.799999
      vertex -8.8385 10.8 0.799999
      vertex -8.74083 10 0.799999
    endloop
  endfacet
  facet normal -0 0 1
    outer loop
      vertex -9.2 15.7644 0.799999
      vertex -8.8385 10.8 0.799999
      vertex -3.77429 17.407 0.799999
    endloop
  endfacet
  facet normal 0 0 1
    outer loop
      vertex -8.8385 10.8 0.799999
      vertex -9.2 15.7644 0.799999
      vertex -9.2 10.8 0.799999
    endloop
  endfacet
  facet normal 0 0 1
    outer loop
      vertex 3.46329 -20 0.799999
      vertex 0 15.3439 0.799999
      vertex 0.799999 -21.7959 0.799999
    endloop
  endfacet
  facet normal 0 0 1
    outer loop
      vertex 0.799999 -21.7959 0.799999
      vertex 0 15.3439 0.799999
      vertex 0 -22.3354 0.799999
    endloop
  endfacet
  facet normal 0 0 1
    outer loop
      vertex -9.2 -20.5972 0.799999
      vertex -7.07454 -20 0.799999
      vertex -9.2 -20 0.799999
    endloop
  endfacet
  facet normal 0 0 1
    outer loop
      vertex -7.07454 -20 0.799999
      vertex -9.2 -20.5972 0.799999
      vertex -6.38307 -28.1292 0.799999
    endloop
  endfacet
  facet normal 0 0 1
    outer loop
      vertex -9.2 -10.817 0.799999
      vertex -8.05482 -10 0.799999
      vertex -9.2 -10 0.799999
    endloop
  endfacet
  facet normal 0 0 1
    outer loop
      vertex -9.2 -14.3168 0.799999
      vertex -8.05482 -10 0.799999
      vertex -9.2 -10.817 0.799999
    endloop
  endfacet
  facet normal 0 0 1
    outer loop
      vertex -8.05482 -10 0.799999
      vertex -9.2 -14.3168 0.799999
      vertex -7.37373 -19.2 0.799999
    endloop
  endfacet
  facet normal 0 0 1
    outer loop
      vertex -7.37373 -19.2 0.799999
      vertex -9.2 -14.3168 0.799999
      vertex -9.2 -19.2 0.799999
    endloop
  endfacet
  facet normal 0 0 1
    outer loop
      vertex 0 15.3439 0.799999
      vertex -8.86648 0 0.799999
      vertex -8.11975 -9.2 0.799999
    endloop
  endfacet
  facet normal 0 0 1
    outer loop
      vertex -9.2 -9.2 0.799999
      vertex -8.86648 0 0.799999
      vertex -9.2 0 0.799999
    endloop
  endfacet
  facet normal 0 0 1
    outer loop
      vertex -8.86648 0 0.799999
      vertex -9.2 -9.2 0.799999
      vertex -8.11975 -9.2 0.799999
    endloop
  endfacet
  facet normal 0 0 1
    outer loop
      vertex -10 0 0.799999
      vertex -10.3481 -8.93982 0.799999
      vertex -10 -9.2 0.799999
    endloop
  endfacet
  facet normal 0 -0 1
    outer loop
      vertex -10.3481 -8.93982 0.799999
      vertex -10 0 0.799999
      vertex -11.0737 0 0.799999
    endloop
  endfacet
  facet normal 0 0 1
    outer loop
      vertex -10 -9.2 0.799999
      vertex -10.3481 -8.93982 0.799999
      vertex -10.7933 -9.2 0.799999
    endloop
  endfacet
  facet normal -0 0 1
    outer loop
      vertex 20.8 0 0.799999
      vertex 20.8 -1.7738 0.799999
      vertex 22.8415 0 0.799999
    endloop
  endfacet
  facet normal -0.559094 0.829104 4.62077e-06
    outer loop
      vertex 6.11977 -20.8621 25
      vertex 0.799999 -24.4494 23
      vertex -1.47882 -25.9861 25
    endloop
  endfacet
  facet normal -0.559093 0.829105 0
    outer loop
      vertex 6.11977 -20.8621 0.799999
      vertex 0.799999 -24.4494 23
      vertex 6.11977 -20.8621 25
    endloop
  endfacet
  facet normal -0.559093 0.829105 0
    outer loop
      vertex 0.799999 -24.4494 23
      vertex 6.11977 -20.8621 0.799999
      vertex 0.799999 -24.4494 0.799999
    endloop
  endfacet
  facet normal -0.559117 0.829089 -3.33642e-05
    outer loop
      vertex 0 -24.9889 23
      vertex -1.47882 -25.9861 25
      vertex 0.799999 -24.4494 23
    endloop
  endfacet
  facet normal -0.559086 0.829109 0
    outer loop
      vertex -1.47882 -25.9861 0.799999
      vertex 0 -24.9889 23
      vertex 0 -24.9889 0.799999
    endloop
  endfacet
  facet normal -0.559086 0.829109 0
    outer loop
      vertex 0 -24.9889 23
      vertex -1.47882 -25.9861 0.799999
      vertex -1.47882 -25.9861 25
    endloop
  endfacet
  facet normal -0.744354 0.667786 0
    outer loop
      vertex 6.89319 -20 0.799999
      vertex 6.11977 -20.8621 0.799999
      vertex 6.89319 -20 23
    endloop
  endfacet
  facet normal -0.744359 0.667779 0
    outer loop
      vertex 10 -16.5369 0.799999
      vertex 7.61088 -19.2 0.799999
      vertex 10 -16.5369 23
    endloop
  endfacet
  facet normal -0.744303 0.667842 0
    outer loop
      vertex 10 -16.5369 23
      vertex 10.2664 -16.24 25
      vertex 10.2664 -16.24 23
    endloop
  endfacet
  facet normal -0.744359 0.667779 0
    outer loop
      vertex 7.61088 -19.2 23
      vertex 10 -16.5369 23
      vertex 7.61088 -19.2 0.799999
    endloop
  endfacet
  facet normal -0.744359 0.667779 1.67862e-05
    outer loop
      vertex 7.61088 -19.2 23
      vertex 10.2664 -16.24 25
      vertex 10 -16.5369 23
    endloop
  endfacet
  facet normal -0.744362 0.667776 -7.18821e-06
    outer loop
      vertex 6.11977 -20.8621 25
      vertex 7.61088 -19.2 23
      vertex 6.89319 -20 23
    endloop
  endfacet
  facet normal -0.744355 0.667784 4.36361e-06
    outer loop
      vertex 7.61088 -19.2 23
      vertex 6.11977 -20.8621 25
      vertex 10.2664 -16.24 25
    endloop
  endfacet
  facet normal -0.744354 0.667786 0
    outer loop
      vertex 6.11977 -20.8621 25
      vertex 6.89319 -20 23
      vertex 6.11977 -20.8621 0.799999
    endloop
  endfacet
  facet normal -0.88314 0.469109 0
    outer loop
      vertex 13.5809 -10 0.799999
      vertex 10.8 -15.2353 0.799999
      vertex 13.5809 -10 23
    endloop
  endfacet
  facet normal -0.883159 0.469074 0
    outer loop
      vertex 14.0058 -9.2 23
      vertex 14.5136 -8.24393 0.799999
      vertex 14.0058 -9.2 0.799999
    endloop
  endfacet
  facet normal -0.883159 0.469074 0
    outer loop
      vertex 14.5136 -8.24393 0.799999
      vertex 14.0058 -9.2 23
      vertex 14.5136 -8.24393 25
    endloop
  endfacet
  facet normal -0.883161 0.469069 3.23292e-06
    outer loop
      vertex 13.5809 -10 23
      vertex 14.5136 -8.24393 25
      vertex 14.0058 -9.2 23
    endloop
  endfacet
  facet normal -0.88314 0.469109 0
    outer loop
      vertex 10.8 -15.2353 23
      vertex 13.5809 -10 23
      vertex 10.8 -15.2353 0.799999
    endloop
  endfacet
  facet normal -0.88314 0.469109 3.49314e-05
    outer loop
      vertex 10.2664 -16.24 25
      vertex 13.5809 -10 23
      vertex 10.8 -15.2353 23
    endloop
  endfacet
  facet normal -0.883169 0.469055 0
    outer loop
      vertex 10.2664 -16.24 25
      vertex 10.8 -15.2353 23
      vertex 10.2664 -16.24 23
    endloop
  endfacet
  facet normal -0.883148 0.469094 -2.46307e-05
    outer loop
      vertex 13.5809 -10 23
      vertex 10.2664 -16.24 25
      vertex 14.5136 -8.24393 25
    endloop
  endfacet
  facet normal -0.771201 0.636592 0
    outer loop
      vertex 14.5136 -8.24393 0.799999
      vertex 17.456 -4.67935 25
      vertex 17.456 -4.67935 0.799999
    endloop
  endfacet
  facet normal -0.771201 0.636592 0
    outer loop
      vertex 17.456 -4.67935 25
      vertex 14.5136 -8.24393 0.799999
      vertex 14.5136 -8.24393 25
    endloop
  endfacet
  facet normal -0.65588 0.754865 0
    outer loop
      vertex 22.8415 0 0.799999
      vertex 20.8 -1.7738 23
      vertex 22.8415 0 23
    endloop
  endfacet
  facet normal -0.65588 0.754865 0
    outer loop
      vertex 20.8 -1.7738 23
      vertex 22.8415 0 0.799999
      vertex 20.8 -1.7738 0.799999
    endloop
  endfacet
  facet normal -0.655894 0.754853 -7.28146e-06
    outer loop
      vertex 22.8415 0 23
      vertex 26.118 2.84698 25
      vertex 23.7622 0.799999 23
    endloop
  endfacet
  facet normal -0.655898 0.75485 0
    outer loop
      vertex 26.118 2.84698 0.799999
      vertex 23.7622 0.799999 23
      vertex 26.118 2.84698 25
    endloop
  endfacet
  facet normal -0.655898 0.75485 0
    outer loop
      vertex 23.7622 0.799999 23
      vertex 26.118 2.84698 0.799999
      vertex 23.7622 0.799999 0.799999
    endloop
  endfacet
  facet normal -0.655889 0.754858 -2.26804e-05
    outer loop
      vertex 26.118 2.84698 25
      vertex 22.8415 0 23
      vertex 17.456 -4.67935 25
    endloop
  endfacet
  facet normal -0.65588 0.754865 1.72169e-05
    outer loop
      vertex 20.8 -1.7738 23
      vertex 17.456 -4.67935 25
      vertex 22.8415 0 23
    endloop
  endfacet
  facet normal -0.655887 0.754859 -3.69881e-06
    outer loop
      vertex 20 -2.46891 23
      vertex 17.456 -4.67935 25
      vertex 20.8 -1.7738 23
    endloop
  endfacet
  facet normal -0.655886 0.75486 0
    outer loop
      vertex 17.456 -4.67935 0.799999
      vertex 20 -2.46891 23
      vertex 20 -2.46891 0.799999
    endloop
  endfacet
  facet normal -0.655886 0.75486 0
    outer loop
      vertex 20 -2.46891 23
      vertex 17.456 -4.67935 0.799999
      vertex 17.456 -4.67935 25
    endloop
  endfacet
  facet normal -0.325482 0.945548 0
    outer loop
      vertex 29.9266 4.158 0.799999
      vertex 26.118 2.84698 25
      vertex 29.9266 4.158 25
    endloop
  endfacet
  facet normal -0.325482 0.945548 0
    outer loop
      vertex 26.118 2.84698 25
      vertex 29.9266 4.158 0.799999
      vertex 26.118 2.84698 0.799999
    endloop
  endfacet
  facet normal -0.989316 -0.145789 0
    outer loop
      vertex 29.9266 4.158 0.799999
      vertex 29.5456 6.74344 25
      vertex 29.5456 6.74344 0.799999
    endloop
  endfacet
  facet normal -0.989316 -0.145789 0
    outer loop
      vertex 29.5456 6.74344 25
      vertex 29.9266 4.158 0.799999
      vertex 29.9266 4.158 25
    endloop
  endfacet
  facet normal -0.930903 -0.365265 0
    outer loop
      vertex 28.2678 10 0.799999
      vertex 29.5456 6.74344 0.799999
      vertex 28.2678 10 23
    endloop
  endfacet
  facet normal -0.93091 -0.365249 -0
    outer loop
      vertex 27.9539 10.8 23
      vertex 27.2876 12.4982 0.799999
      vertex 27.9539 10.8 0.799999
    endloop
  endfacet
  facet normal -0.93091 -0.365249 0
    outer loop
      vertex 27.2876 12.4982 0.799999
      vertex 27.9539 10.8 23
      vertex 27.2876 12.4982 25
    endloop
  endfacet
  facet normal -0.930904 -0.365264 1.45337e-05
    outer loop
      vertex 28.2678 10 23
      vertex 27.2876 12.4982 25
      vertex 27.9539 10.8 23
    endloop
  endfacet
  facet normal -0.930905 -0.36526 9.69347e-06
    outer loop
      vertex 28.2678 10 23
      vertex 29.5456 6.74344 25
      vertex 27.2876 12.4982 25
    endloop
  endfacet
  facet normal -0.930903 -0.365265 -0
    outer loop
      vertex 29.5456 6.74344 25
      vertex 28.2678 10 23
      vertex 29.5456 6.74344 0.799999
    endloop
  endfacet
  facet normal -0.20081 -0.97963 -2.18198e-05
    outer loop
      vertex 13.5008 15.3243 25
      vertex 20 13.9921 23
      vertex 27.2876 12.4982 25
    endloop
  endfacet
  facet normal -0.200804 -0.979631 0
    outer loop
      vertex 13.5008 15.3243 0.799999
      vertex 20 13.9921 23
      vertex 13.5008 15.3243 25
    endloop
  endfacet
  facet normal -0.200804 -0.979631 -0
    outer loop
      vertex 20 13.9921 23
      vertex 13.5008 15.3243 0.799999
      vertex 20 13.9921 0.799999
    endloop
  endfacet
  facet normal -0.200824 -0.979627 2.84092e-05
    outer loop
      vertex 20.8 13.8281 23
      vertex 27.2876 12.4982 25
      vertex 20 13.9921 23
    endloop
  endfacet
  facet normal -0.200815 -0.979629 0
    outer loop
      vertex 27.2876 12.4982 0.799999
      vertex 20.8 13.8281 23
      vertex 20.8 13.8281 0.799999
    endloop
  endfacet
  facet normal -0.200815 -0.979629 0
    outer loop
      vertex 20.8 13.8281 23
      vertex 27.2876 12.4982 0.799999
      vertex 27.2876 12.4982 25
    endloop
  endfacet
  facet normal -0.259056 -0.965862 -2.07438e-05
    outer loop
      vertex 4.59218 17.7137 25
      vertex 10 16.2633 23
      vertex 13.5008 15.3243 25
    endloop
  endfacet
  facet normal -0.259049 -0.965864 0
    outer loop
      vertex 4.59218 17.7137 0.799999
      vertex 10 16.2633 23
      vertex 4.59218 17.7137 25
    endloop
  endfacet
  facet normal -0.259049 -0.965864 -0
    outer loop
      vertex 10 16.2633 23
      vertex 4.59218 17.7137 0.799999
      vertex 10 16.2633 0.799999
    endloop
  endfacet
  facet normal -0.25909 -0.965853 4.32702e-05
    outer loop
      vertex 10.8 16.0487 23
      vertex 13.5008 15.3243 25
      vertex 10 16.2633 23
    endloop
  endfacet
  facet normal -0.25906 -0.965861 0
    outer loop
      vertex 13.5008 15.3243 0.799999
      vertex 10.8 16.0487 23
      vertex 10.8 16.0487 0.799999
    endloop
  endfacet
  facet normal -0.25906 -0.965861 0
    outer loop
      vertex 10.8 16.0487 23
      vertex 13.5008 15.3243 0.799999
      vertex 13.5008 15.3243 25
    endloop
  endfacet
  facet normal 0.0366336 -0.999329 -2.05866e-05
    outer loop
      vertex -3.77429 17.407 25
      vertex 0 17.5454 23
      vertex 4.59218 17.7137 25
    endloop
  endfacet
  facet normal 0.0366445 -0.999328 0
    outer loop
      vertex -3.77429 17.407 0.799999
      vertex 0 17.5454 23
      vertex -3.77429 17.407 25
    endloop
  endfacet
  facet normal 0.0366445 -0.999328 0
    outer loop
      vertex 0 17.5454 23
      vertex -3.77429 17.407 0.799999
      vertex 0 17.5454 0.799999
    endloop
  endfacet
  facet normal 0.0366005 -0.99933 5.55614e-05
    outer loop
      vertex 0.799999 17.5747 23
      vertex 4.59218 17.7137 25
      vertex 0 17.5454 23
    endloop
  endfacet
  facet normal 0.0366298 -0.999329 0
    outer loop
      vertex 4.59218 17.7137 0.799999
      vertex 0.799999 17.5747 23
      vertex 0.799999 17.5747 0.799999
    endloop
  endfacet
  facet normal 0.0366298 -0.999329 0
    outer loop
      vertex 0.799999 17.5747 23
      vertex 4.59218 17.7137 0.799999
      vertex 4.59218 17.7137 25
    endloop
  endfacet
  facet normal 0.289762 -0.957099 -1.07674e-05
    outer loop
      vertex -9.2 15.7644 23
      vertex -11.81 14.9742 25
      vertex -10 15.5222 23
    endloop
  endfacet
  facet normal 0.289773 -0.957096 0
    outer loop
      vertex -11.81 14.9742 0.799999
      vertex -10 15.5222 23
      vertex -11.81 14.9742 25
    endloop
  endfacet
  facet normal 0.289773 -0.957096 0
    outer loop
      vertex -10 15.5222 23
      vertex -11.81 14.9742 0.799999
      vertex -10 15.5222 0.799999
    endloop
  endfacet
  facet normal 0.28976 -0.957099 -1.25086e-05
    outer loop
      vertex -11.81 14.9742 25
      vertex -9.2 15.7644 23
      vertex -3.77429 17.407 25
    endloop
  endfacet
  facet normal 0.289756 -0.9571 0
    outer loop
      vertex -3.77429 17.407 0.799999
      vertex -9.2 15.7644 23
      vertex -9.2 15.7644 0.799999
    endloop
  endfacet
  facet normal 0.289756 -0.9571 0
    outer loop
      vertex -9.2 15.7644 23
      vertex -3.77429 17.407 0.799999
      vertex -3.77429 17.407 25
    endloop
  endfacet
  facet normal -0.0474679 0.998873 0
    outer loop
      vertex -11.5659 14.9858 0.799999
      vertex -11.81 14.9742 25
      vertex -11.5659 14.9858 25
    endloop
  endfacet
  facet normal -0.0474679 0.998873 0
    outer loop
      vertex -11.81 14.9742 25
      vertex -11.5659 14.9858 0.799999
      vertex -11.81 14.9742 0.799999
    endloop
  endfacet
  facet normal 0.992628 0.121203 0
    outer loop
      vertex -11.5659 14.9858 25
      vertex -11.0548 10.8 23
      vertex -11.5659 14.9858 0.799999
    endloop
  endfacet
  facet normal 0.992629 0.121191 2.49539e-05
    outer loop
      vertex -10.5093 6.33162 25
      vertex -11.0548 10.8 23
      vertex -11.5659 14.9858 25
    endloop
  endfacet
  facet normal 0.99264 0.121102 -0.000177504
    outer loop
      vertex -11.0548 10.8 23
      vertex -10.5093 6.33162 25
      vertex -10.9572 10 23
    endloop
  endfacet
  facet normal 0.992628 0.121197 -0
    outer loop
      vertex -10.5093 6.33162 0.799999
      vertex -10.9572 10 23
      vertex -10.5093 6.33162 25
    endloop
  endfacet
  facet normal 0.992628 0.121197 0
    outer loop
      vertex -10.9572 10 23
      vertex -10.5093 6.33162 0.799999
      vertex -10.9572 10 0.799999
    endloop
  endfacet
  facet normal 0.992628 0.121203 0
    outer loop
      vertex -11.5659 14.9858 0.799999
      vertex -11.0548 10.8 23
      vertex -11.0548 10.8 0.799999
    endloop
  endfacet
  facet normal 0.990999 -0.13387 0
    outer loop
      vertex -11.1829 1.34518 25
      vertex -10.5093 6.33162 0.799999
      vertex -10.5093 6.33162 25
    endloop
  endfacet
  facet normal 0.990999 -0.13387 0
    outer loop
      vertex -10.5093 6.33162 0.799999
      vertex -11.1829 1.34518 25
      vertex -11.1829 1.34518 0.799999
    endloop
  endfacet
  facet normal 0.996715 0.0809905 0
    outer loop
      vertex -11.1829 1.34518 25
      vertex -11.1386 0.799999 23
      vertex -11.1829 1.34518 0.799999
    endloop
  endfacet
  facet normal 0.996726 0.0808595 3.59499e-05
    outer loop
      vertex -11.1829 1.34518 25
      vertex -11.0737 0 23
      vertex -11.1386 0.799999 23
    endloop
  endfacet
  facet normal 0.996722 0.0809007 8.03076e-06
    outer loop
      vertex -10.3481 -8.93982 25
      vertex -11.0737 0 23
      vertex -11.1829 1.34518 25
    endloop
  endfacet
  facet normal 0.996722 0.0808989 -0
    outer loop
      vertex -10.3481 -8.93982 0.799999
      vertex -11.0737 0 23
      vertex -10.3481 -8.93982 25
    endloop
  endfacet
  facet normal 0.996722 0.0808989 0
    outer loop
      vertex -11.0737 0 23
      vertex -10.3481 -8.93982 0.799999
      vertex -11.0737 0 0.799999
    endloop
  endfacet
  facet normal 0.996715 0.0809905 0
    outer loop
      vertex -11.1829 1.34518 0.799999
      vertex -11.1386 0.799999 23
      vertex -11.1386 0.799999 0.799999
    endloop
  endfacet
  facet normal 0.504556 -0.863379 1.15711e-05
    outer loop
      vertex -17.017 -12.8371 25
      vertex -12.1622 -10 23
      vertex -10.3481 -8.93982 25
    endloop
  endfacet
  facet normal 0.504552 -0.863381 0
    outer loop
      vertex -17.017 -12.8371 0.799999
      vertex -12.1622 -10 23
      vertex -17.017 -12.8371 25
    endloop
  endfacet
  facet normal 0.504552 -0.863381 0
    outer loop
      vertex -12.1622 -10 23
      vertex -17.017 -12.8371 0.799999
      vertex -12.1622 -10 0.799999
    endloop
  endfacet
  facet normal 0.504565 -0.863374 1.26772e-07
    outer loop
      vertex -10.7933 -9.2 23
      vertex -10.3481 -8.93982 25
      vertex -12.1622 -10 23
    endloop
  endfacet
  facet normal 0.504565 -0.863373 0
    outer loop
      vertex -10.3481 -8.93982 0.799999
      vertex -10.7933 -9.2 23
      vertex -10.7933 -9.2 0.799999
    endloop
  endfacet
  facet normal 0.504565 -0.863373 0
    outer loop
      vertex -10.7933 -9.2 23
      vertex -10.3481 -8.93982 0.799999
      vertex -10.3481 -8.93982 25
    endloop
  endfacet
  facet normal -0.109523 0.993984 0
    outer loop
      vertex -12.2968 -12.317 0.799999
      vertex -17.017 -12.8371 25
      vertex -12.2968 -12.317 25
    endloop
  endfacet
  facet normal -0.109523 0.993984 0
    outer loop
      vertex -17.017 -12.8371 25
      vertex -12.2968 -12.317 0.799999
      vertex -17.017 -12.8371 0.799999
    endloop
  endfacet
  facet normal 0.936637 0.350301 0
    outer loop
      vertex -12.2968 -12.317 25
      vertex -10 -18.4582 23
      vertex -12.2968 -12.317 0.799999
    endloop
  endfacet
  facet normal 0.936635 0.350308 -2.29451e-05
    outer loop
      vertex -12.2968 -12.317 25
      vertex -9.2 -20.5972 23
      vertex -10 -18.4582 23
    endloop
  endfacet
  facet normal 0.936637 0.3503 1.04791e-05
    outer loop
      vertex -6.38307 -28.1292 25
      vertex -9.2 -20.5972 23
      vertex -12.2968 -12.317 25
    endloop
  endfacet
  facet normal 0.936638 0.350298 -0
    outer loop
      vertex -6.38307 -28.1292 0.799999
      vertex -9.2 -20.5972 23
      vertex -6.38307 -28.1292 25
    endloop
  endfacet
  facet normal 0.936638 0.350298 0
    outer loop
      vertex -9.2 -20.5972 23
      vertex -6.38307 -28.1292 0.799999
      vertex -9.2 -20.5972 0.799999
    endloop
  endfacet
  facet normal 0.936637 0.350301 0
    outer loop
      vertex -12.2968 -12.317 0.799999
      vertex -10 -18.4582 23
      vertex -10 -18.4582 0.799999
    endloop
  endfacet
  facet normal -0.400425 0.916329 0
    outer loop
      vertex -1.47882 -25.9861 0.799999
      vertex -6.38307 -28.1292 25
      vertex -1.47882 -25.9861 25
    endloop
  endfacet
  facet normal -0.400425 0.916329 0
    outer loop
      vertex -6.38307 -28.1292 25
      vertex -1.47882 -25.9861 0.799999
      vertex -6.38307 -28.1292 0.799999
    endloop
  endfacet
endsolid OpenSCAD_Model
