<svg xmlns="http://www.w3.org/2000/svg">
      <path d="M -33.75,-5.18 -34.42,-9.3 -30.95,-19.86 -28.27,-22.39 -32.63,-30.84 -31.18,-36.01 -32.41,-38.97 -29.94,-39.92 -16.52,-42.35 17.5,-49.74 18.95,-46.68 23.09,-32.95 26.67,-18.17 27.68,-10.14 25.22,-5.71 26.79,-4.55 23.65,3.69 23.09,12.98 25.33,20.06 28.58,25.86 32.83,35.9 27.35,37.69 18.39,41.92 14.48,42.87 7.32,40.65 3.29,36.53 2.28,32.41 2.62,23.12 1.16,19.32 -2.64,14.14 -6,11.61 -11.59,8.97 -16.18,8.12 -16.74,4.32 -19.31,-2.22 -33.75,-5.18 Z" />
    </svg>
