solid OpenSCAD_Model
  facet normal -0 0 -1
    outer loop
      vertex 50.2773 -17.2625 0
      vertex 48.3777 -20.51 0
      vertex 40.6656 -3.97881 0
    endloop
  endfacet
  facet normal -0 0 -1
    outer loop
      vertex 1.24536 -32.8398 0
      vertex -3.91191 -33.6732 0
      vertex 3.69336 -31.8944 0
    endloop
  endfacet
  facet normal 0 -0 -1
    outer loop
      vertex 45.1546 3.34746 0
      vertex 50.2773 -17.2625 0
      vertex 40.6656 -3.97881 0
    endloop
  endfacet
  facet normal 0 0 -1
    outer loop
      vertex 17.2265 -29.4457 0
      vertex 48.3777 -20.51 0
      vertex 49.4438 -22.4453 0
    endloop
  endfacet
  facet normal 0 0 -1
    outer loop
      vertex 45.1546 3.34746 0
      vertex 40.6656 -3.97881 0
      vertex 44.0598 3.04292 0
    endloop
  endfacet
  facet normal 0 0 -1
    outer loop
      vertex 40.6656 -3.97881 0
      vertex 32.4487 0.818298 0
      vertex 34.3662 1.23996 0
    endloop
  endfacet
  facet normal -0 0 -1
    outer loop
      vertex 40.6656 -3.97881 0
      vertex 17.2265 -29.4457 0
      vertex 32.4487 0.818298 0
    endloop
  endfacet
  facet normal 0 0 -1
    outer loop
      vertex 32.4487 0.818298 0
      vertex 14.1173 9.33214 0
      vertex 23.6491 8.24669 0
    endloop
  endfacet
  facet normal -0 0 -1
    outer loop
      vertex 32.4487 0.818298 0
      vertex 17.2265 -29.4457 0
      vertex 14.1173 9.33214 0
    endloop
  endfacet
  facet normal 0 -0 -1
    outer loop
      vertex 40.6656 -3.97881 0
      vertex 48.3777 -20.51 0
      vertex 17.2265 -29.4457 0
    endloop
  endfacet
  facet normal 0 0 -1
    outer loop
      vertex 24.5352 9.61066 0
      vertex 23.6491 8.24669 0
      vertex 14.1173 9.33214 0
    endloop
  endfacet
  facet normal 0 -0 -1
    outer loop
      vertex -24.9168 2.5024 0
      vertex 14.1173 9.33214 0
      vertex -25.0316 -5.87738 0
    endloop
  endfacet
  facet normal 0 0 -1
    outer loop
      vertex 14.1173 9.33214 0
      vertex 14.8953 17.6503 0
      vertex 24.5352 9.61066 0
    endloop
  endfacet
  facet normal 0 -0 -1
    outer loop
      vertex -26.6045 14.4478 0
      vertex -1.73373 22.3624 0
      vertex -26.9698 8.31561 0
    endloop
  endfacet
  facet normal 0 0 -1
    outer loop
      vertex -24.9012 26.2159 0
      vertex -24.8625 26.2615 0
      vertex -23.8568 22.0694 0
    endloop
  endfacet
  facet normal 0 -0 -1
    outer loop
      vertex 14.1173 9.33214 0
      vertex 17.2265 -29.4457 0
      vertex 3.69336 -31.8944 0
    endloop
  endfacet
  facet normal 0 0 -1
    outer loop
      vertex -1.73373 22.3624 0
      vertex -22.2333 29.9755 0
      vertex -16.308 34.6486 0
    endloop
  endfacet
  facet normal -0 0 -1
    outer loop
      vertex -16.308 34.6486 0
      vertex -22.2333 29.9755 0
      vertex -16.6082 34.8292 0
    endloop
  endfacet
  facet normal 0 0 -1
    outer loop
      vertex -23.8568 22.0694 0
      vertex -24.8625 26.2615 0
      vertex -22.2333 29.9755 0
    endloop
  endfacet
  facet normal 0 0 -1
    outer loop
      vertex -23.8568 22.0694 0
      vertex -22.2333 29.9755 0
      vertex -1.73373 22.3624 0
    endloop
  endfacet
  facet normal 0 0 -1
    outer loop
      vertex -26.6045 14.4478 0
      vertex -23.8568 22.0694 0
      vertex -1.73373 22.3624 0
    endloop
  endfacet
  facet normal 0 0 -1
    outer loop
      vertex -26.9698 8.31561 0
      vertex -1.73373 22.3624 0
      vertex -24.9168 2.5024 0
    endloop
  endfacet
  facet normal 0 -0 -1
    outer loop
      vertex -26.4929 19.8083 0
      vertex -23.8568 22.0694 0
      vertex -26.6045 14.4478 0
    endloop
  endfacet
  facet normal 0 0 -1
    outer loop
      vertex -3.91191 -33.6732 0
      vertex -27.49 -19.8081 0
      vertex -25.0316 -5.87738 0
    endloop
  endfacet
  facet normal 0 0 -1
    outer loop
      vertex -3.91191 -33.6732 0
      vertex -27.0946 -38.7375 0
      vertex -27.49 -35.7511 0
    endloop
  endfacet
  facet normal 0 0 -1
    outer loop
      vertex -24.9168 2.5024 0
      vertex -1.73373 22.3624 0
      vertex 14.1173 9.33214 0
    endloop
  endfacet
  facet normal 0 0 -1
    outer loop
      vertex -26.9698 8.31561 0
      vertex -29.9243 12.1189 0
      vertex -26.6045 14.4478 0
    endloop
  endfacet
  facet normal 0 0 -1
    outer loop
      vertex -25.0316 -5.87738 0
      vertex 14.1173 9.33214 0
      vertex 3.69336 -31.8944 0
    endloop
  endfacet
  facet normal 0 0 -1
    outer loop
      vertex -3.91191 -33.6732 0
      vertex -25.0316 -5.87738 0
      vertex 3.69336 -31.8944 0
    endloop
  endfacet
  facet normal 0 0 -1
    outer loop
      vertex -27.49 -35.7511 0
      vertex -27.49 -19.8081 0
      vertex -3.91191 -33.6732 0
    endloop
  endfacet
  facet normal 0 0 1
    outer loop
      vertex 40.6656 -3.97881 4
      vertex 48.3777 -20.51 4
      vertex 50.2773 -17.2625 4
    endloop
  endfacet
  facet normal 0 0 1
    outer loop
      vertex 3.69336 -31.8944 4
      vertex -3.91191 -33.6732 4
      vertex 1.24536 -32.8398 4
    endloop
  endfacet
  facet normal -0 0 1
    outer loop
      vertex 40.6656 -3.97881 4
      vertex 50.2773 -17.2625 4
      vertex 45.1546 3.34746 4
    endloop
  endfacet
  facet normal 0 0 1
    outer loop
      vertex 49.4438 -22.4453 4
      vertex 48.3777 -20.51 4
      vertex 17.2265 -29.4457 4
    endloop
  endfacet
  facet normal -0 0 1
    outer loop
      vertex 44.0598 3.04292 4
      vertex 40.6656 -3.97881 4
      vertex 45.1546 3.34746 4
    endloop
  endfacet
  facet normal 0 0 1
    outer loop
      vertex 34.3662 1.23996 4
      vertex 32.4487 0.818298 4
      vertex 40.6656 -3.97881 4
    endloop
  endfacet
  facet normal 0 0 1
    outer loop
      vertex 32.4487 0.818298 4
      vertex 17.2265 -29.4457 4
      vertex 40.6656 -3.97881 4
    endloop
  endfacet
  facet normal 0 0 1
    outer loop
      vertex 23.6491 8.24669 4
      vertex 14.1173 9.33214 4
      vertex 32.4487 0.818298 4
    endloop
  endfacet
  facet normal 0 0 1
    outer loop
      vertex 14.1173 9.33214 4
      vertex 17.2265 -29.4457 4
      vertex 32.4487 0.818298 4
    endloop
  endfacet
  facet normal 0 0 1
    outer loop
      vertex 17.2265 -29.4457 4
      vertex 48.3777 -20.51 4
      vertex 40.6656 -3.97881 4
    endloop
  endfacet
  facet normal -0 0 1
    outer loop
      vertex 14.1173 9.33214 4
      vertex 23.6491 8.24669 4
      vertex 24.5352 9.61066 4
    endloop
  endfacet
  facet normal 0 0 1
    outer loop
      vertex -25.0316 -5.87738 4
      vertex 14.1173 9.33214 4
      vertex -24.9168 2.5024 4
    endloop
  endfacet
  facet normal 0 0 1
    outer loop
      vertex 24.5352 9.61066 4
      vertex 14.8953 17.6503 4
      vertex 14.1173 9.33214 4
    endloop
  endfacet
  facet normal 0 0 1
    outer loop
      vertex -26.9698 8.31561 4
      vertex -1.73373 22.3624 4
      vertex -26.6045 14.4478 4
    endloop
  endfacet
  facet normal 0 0 1
    outer loop
      vertex -23.8568 22.0694 4
      vertex -24.8625 26.2615 4
      vertex -24.9012 26.2159 4
    endloop
  endfacet
  facet normal 0 0 1
    outer loop
      vertex 3.69336 -31.8944 4
      vertex 17.2265 -29.4457 4
      vertex 14.1173 9.33214 4
    endloop
  endfacet
  facet normal 0 0 1
    outer loop
      vertex -16.308 34.6486 4
      vertex -22.2333 29.9755 4
      vertex -1.73373 22.3624 4
    endloop
  endfacet
  facet normal 0 0 1
    outer loop
      vertex -16.6082 34.8292 4
      vertex -22.2333 29.9755 4
      vertex -16.308 34.6486 4
    endloop
  endfacet
  facet normal 0 0 1
    outer loop
      vertex -22.2333 29.9755 4
      vertex -24.8625 26.2615 4
      vertex -23.8568 22.0694 4
    endloop
  endfacet
  facet normal 0 0 1
    outer loop
      vertex -1.73373 22.3624 4
      vertex -22.2333 29.9755 4
      vertex -23.8568 22.0694 4
    endloop
  endfacet
  facet normal 0 0 1
    outer loop
      vertex -1.73373 22.3624 4
      vertex -23.8568 22.0694 4
      vertex -26.6045 14.4478 4
    endloop
  endfacet
  facet normal 0 -0 1
    outer loop
      vertex -24.9168 2.5024 4
      vertex -1.73373 22.3624 4
      vertex -26.9698 8.31561 4
    endloop
  endfacet
  facet normal 0 0 1
    outer loop
      vertex -26.6045 14.4478 4
      vertex -23.8568 22.0694 4
      vertex -26.4929 19.8083 4
    endloop
  endfacet
  facet normal 0 0 1
    outer loop
      vertex -25.0316 -5.87738 4
      vertex -27.49 -19.8081 4
      vertex -3.91191 -33.6732 4
    endloop
  endfacet
  facet normal -0 0 1
    outer loop
      vertex -27.49 -35.7511 4
      vertex -27.0946 -38.7375 4
      vertex -3.91191 -33.6732 4
    endloop
  endfacet
  facet normal 0 0 1
    outer loop
      vertex 14.1173 9.33214 4
      vertex -1.73373 22.3624 4
      vertex -24.9168 2.5024 4
    endloop
  endfacet
  facet normal 0 0 1
    outer loop
      vertex -26.6045 14.4478 4
      vertex -29.9243 12.1189 4
      vertex -26.9698 8.31561 4
    endloop
  endfacet
  facet normal 0 -0 1
    outer loop
      vertex 3.69336 -31.8944 4
      vertex 14.1173 9.33214 4
      vertex -25.0316 -5.87738 4
    endloop
  endfacet
  facet normal 0 0 1
    outer loop
      vertex 3.69336 -31.8944 4
      vertex -25.0316 -5.87738 4
      vertex -3.91191 -33.6732 4
    endloop
  endfacet
  facet normal 0 0 1
    outer loop
      vertex -3.91191 -33.6732 4
      vertex -27.49 -19.8081 4
      vertex -27.49 -35.7511 4
    endloop
  endfacet
  facet normal 0.159528 -0.987193 0
    outer loop
      vertex 1.24536 -32.8398 0
      vertex -3.91191 -33.6732 4
      vertex -3.91191 -33.6732 0
    endloop
  endfacet
  facet normal 0.159528 -0.987193 0
    outer loop
      vertex 1.24536 -32.8398 0
      vertex 1.24536 -32.8398 4
      vertex -3.91191 -33.6732 4
    endloop
  endfacet
  facet normal 0.360261 -0.932852 0
    outer loop
      vertex 3.69336 -31.8944 0
      vertex 1.24536 -32.8398 4
      vertex 1.24536 -32.8398 0
    endloop
  endfacet
  facet normal 0.360261 -0.932852 0
    outer loop
      vertex 3.69336 -31.8944 0
      vertex 3.69336 -31.8944 4
      vertex 1.24536 -32.8398 4
    endloop
  endfacet
  facet normal 0.17805 -0.984021 0
    outer loop
      vertex 17.2265 -29.4457 0
      vertex 3.69336 -31.8944 4
      vertex 3.69336 -31.8944 0
    endloop
  endfacet
  facet normal 0.17805 -0.984021 0
    outer loop
      vertex 17.2265 -29.4457 0
      vertex 17.2265 -29.4457 4
      vertex 3.69336 -31.8944 4
    endloop
  endfacet
  facet normal 0.212332 -0.977198 0
    outer loop
      vertex 49.4438 -22.4453 0
      vertex 17.2265 -29.4457 4
      vertex 17.2265 -29.4457 0
    endloop
  endfacet
  facet normal 0.212332 -0.977198 0
    outer loop
      vertex 49.4438 -22.4453 0
      vertex 49.4438 -22.4453 4
      vertex 17.2265 -29.4457 4
    endloop
  endfacet
  facet normal 0.875894 0.482504 0
    outer loop
      vertex 48.3777 -20.51 0
      vertex 49.4438 -22.4453 4
      vertex 49.4438 -22.4453 0
    endloop
  endfacet
  facet normal 0.875894 0.482504 -0
    outer loop
      vertex 48.3777 -20.51 0
      vertex 48.3777 -20.51 4
      vertex 49.4438 -22.4453 4
    endloop
  endfacet
  facet normal 0.863174 -0.504907 0
    outer loop
      vertex 50.2773 -17.2625 0
      vertex 48.3777 -20.51 4
      vertex 48.3777 -20.51 0
    endloop
  endfacet
  facet normal 0.863174 -0.504907 0
    outer loop
      vertex 50.2773 -17.2625 0
      vertex 50.2773 -17.2625 4
      vertex 48.3777 -20.51 4
    endloop
  endfacet
  facet normal 0.970472 0.241215 0
    outer loop
      vertex 45.1546 3.34746 0
      vertex 50.2773 -17.2625 4
      vertex 50.2773 -17.2625 0
    endloop
  endfacet
  facet normal 0.970472 0.241215 -0
    outer loop
      vertex 45.1546 3.34746 0
      vertex 45.1546 3.34746 4
      vertex 50.2773 -17.2625 4
    endloop
  endfacet
  facet normal -0.267994 0.963421 0
    outer loop
      vertex 44.0598 3.04292 0
      vertex 45.1546 3.34746 4
      vertex 45.1546 3.34746 0
    endloop
  endfacet
  facet normal -0.267994 0.963421 0
    outer loop
      vertex 44.0598 3.04292 0
      vertex 44.0598 3.04292 4
      vertex 45.1546 3.34746 4
    endloop
  endfacet
  facet normal -0.900331 0.435206 0
    outer loop
      vertex 40.6656 -3.97881 0
      vertex 44.0598 3.04292 4
      vertex 44.0598 3.04292 0
    endloop
  endfacet
  facet normal -0.900331 0.435206 0
    outer loop
      vertex 40.6656 -3.97881 0
      vertex 40.6656 -3.97881 4
      vertex 44.0598 3.04292 4
    endloop
  endfacet
  facet normal 0.637965 0.770066 0
    outer loop
      vertex 34.3662 1.23996 0
      vertex 40.6656 -3.97881 4
      vertex 40.6656 -3.97881 0
    endloop
  endfacet
  facet normal 0.637965 0.770066 -0
    outer loop
      vertex 34.3662 1.23996 0
      vertex 34.3662 1.23996 4
      vertex 40.6656 -3.97881 4
    endloop
  endfacet
  facet normal -0.21477 0.976665 0
    outer loop
      vertex 32.4487 0.818298 0
      vertex 34.3662 1.23996 4
      vertex 34.3662 1.23996 0
    endloop
  endfacet
  facet normal -0.21477 0.976665 0
    outer loop
      vertex 32.4487 0.818298 0
      vertex 32.4487 0.818298 4
      vertex 34.3662 1.23996 4
    endloop
  endfacet
  facet normal 0.64506 0.764132 0
    outer loop
      vertex 23.6491 8.24669 0
      vertex 32.4487 0.818298 4
      vertex 32.4487 0.818298 0
    endloop
  endfacet
  facet normal 0.64506 0.764132 -0
    outer loop
      vertex 23.6491 8.24669 0
      vertex 23.6491 8.24669 4
      vertex 32.4487 0.818298 4
    endloop
  endfacet
  facet normal 0.838579 -0.544781 0
    outer loop
      vertex 24.5352 9.61066 0
      vertex 23.6491 8.24669 4
      vertex 23.6491 8.24669 0
    endloop
  endfacet
  facet normal 0.838579 -0.544781 0
    outer loop
      vertex 24.5352 9.61066 0
      vertex 24.5352 9.61066 4
      vertex 23.6491 8.24669 4
    endloop
  endfacet
  facet normal 0.640485 0.767971 0
    outer loop
      vertex 14.8953 17.6503 0
      vertex 24.5352 9.61066 4
      vertex 24.5352 9.61066 0
    endloop
  endfacet
  facet normal 0.640485 0.767971 -0
    outer loop
      vertex 14.8953 17.6503 0
      vertex 14.8953 17.6503 4
      vertex 24.5352 9.61066 4
    endloop
  endfacet
  facet normal -0.995655 0.0931239 0
    outer loop
      vertex 14.1173 9.33214 0
      vertex 14.8953 17.6503 4
      vertex 14.8953 17.6503 0
    endloop
  endfacet
  facet normal -0.995655 0.0931239 0
    outer loop
      vertex 14.1173 9.33214 0
      vertex 14.1173 9.33214 4
      vertex 14.8953 17.6503 4
    endloop
  endfacet
  facet normal 0.635024 0.772493 0
    outer loop
      vertex -1.73373 22.3624 0
      vertex 14.1173 9.33214 4
      vertex 14.1173 9.33214 0
    endloop
  endfacet
  facet normal 0.635024 0.772493 -0
    outer loop
      vertex -1.73373 22.3624 0
      vertex -1.73373 22.3624 4
      vertex 14.1173 9.33214 4
    endloop
  endfacet
  facet normal 0.644539 0.764572 0
    outer loop
      vertex -16.308 34.6486 0
      vertex -1.73373 22.3624 4
      vertex -1.73373 22.3624 0
    endloop
  endfacet
  facet normal 0.644539 0.764572 -0
    outer loop
      vertex -16.308 34.6486 0
      vertex -16.308 34.6486 4
      vertex -1.73373 22.3624 4
    endloop
  endfacet
  facet normal 0.515503 0.856888 0
    outer loop
      vertex -16.6082 34.8292 0
      vertex -16.308 34.6486 4
      vertex -16.308 34.6486 0
    endloop
  endfacet
  facet normal 0.515503 0.856888 -0
    outer loop
      vertex -16.6082 34.8292 0
      vertex -16.6082 34.8292 4
      vertex -16.308 34.6486 4
    endloop
  endfacet
  facet normal -0.653285 0.757112 0
    outer loop
      vertex -22.2333 29.9755 0
      vertex -16.6082 34.8292 4
      vertex -16.6082 34.8292 0
    endloop
  endfacet
  facet normal -0.653285 0.757112 0
    outer loop
      vertex -22.2333 29.9755 0
      vertex -22.2333 29.9755 4
      vertex -16.6082 34.8292 4
    endloop
  endfacet
  facet normal -0.816185 0.57779 0
    outer loop
      vertex -24.8625 26.2615 0
      vertex -22.2333 29.9755 4
      vertex -22.2333 29.9755 0
    endloop
  endfacet
  facet normal -0.816185 0.57779 0
    outer loop
      vertex -24.8625 26.2615 0
      vertex -24.8625 26.2615 4
      vertex -22.2333 29.9755 4
    endloop
  endfacet
  facet normal -0.762434 0.647066 0
    outer loop
      vertex -24.9012 26.2159 0
      vertex -24.8625 26.2615 4
      vertex -24.8625 26.2615 0
    endloop
  endfacet
  facet normal -0.762434 0.647066 0
    outer loop
      vertex -24.9012 26.2159 0
      vertex -24.9012 26.2159 4
      vertex -24.8625 26.2615 4
    endloop
  endfacet
  facet normal -0.969713 -0.244247 0
    outer loop
      vertex -23.8568 22.0694 0
      vertex -24.9012 26.2159 4
      vertex -24.9012 26.2159 0
    endloop
  endfacet
  facet normal -0.969713 -0.244247 0
    outer loop
      vertex -23.8568 22.0694 0
      vertex -23.8568 22.0694 4
      vertex -24.9012 26.2159 4
    endloop
  endfacet
  facet normal -0.651055 0.759031 0
    outer loop
      vertex -26.4929 19.8083 0
      vertex -23.8568 22.0694 4
      vertex -23.8568 22.0694 0
    endloop
  endfacet
  facet normal -0.651055 0.759031 0
    outer loop
      vertex -26.4929 19.8083 0
      vertex -26.4929 19.8083 4
      vertex -23.8568 22.0694 4
    endloop
  endfacet
  facet normal -0.999783 0.0208144 0
    outer loop
      vertex -26.6045 14.4478 0
      vertex -26.4929 19.8083 4
      vertex -26.4929 19.8083 0
    endloop
  endfacet
  facet normal -0.999783 0.0208144 0
    outer loop
      vertex -26.6045 14.4478 0
      vertex -26.6045 14.4478 4
      vertex -26.4929 19.8083 4
    endloop
  endfacet
  facet normal -0.574296 0.818648 0
    outer loop
      vertex -29.9243 12.1189 0
      vertex -26.6045 14.4478 4
      vertex -26.6045 14.4478 0
    endloop
  endfacet
  facet normal -0.574296 0.818648 0
    outer loop
      vertex -29.9243 12.1189 0
      vertex -29.9243 12.1189 4
      vertex -26.6045 14.4478 4
    endloop
  endfacet
  facet normal -0.789716 -0.613473 0
    outer loop
      vertex -26.9698 8.31561 0
      vertex -29.9243 12.1189 4
      vertex -29.9243 12.1189 0
    endloop
  endfacet
  facet normal -0.789716 -0.613473 0
    outer loop
      vertex -26.9698 8.31561 0
      vertex -26.9698 8.31561 4
      vertex -29.9243 12.1189 4
    endloop
  endfacet
  facet normal -0.942925 -0.333005 0
    outer loop
      vertex -24.9168 2.5024 0
      vertex -26.9698 8.31561 4
      vertex -26.9698 8.31561 0
    endloop
  endfacet
  facet normal -0.942925 -0.333005 0
    outer loop
      vertex -24.9168 2.5024 0
      vertex -24.9168 2.5024 4
      vertex -26.9698 8.31561 4
    endloop
  endfacet
  facet normal -0.999906 0.0136984 0
    outer loop
      vertex -25.0316 -5.87738 0
      vertex -24.9168 2.5024 4
      vertex -24.9168 2.5024 0
    endloop
  endfacet
  facet normal -0.999906 0.0136984 0
    outer loop
      vertex -25.0316 -5.87738 0
      vertex -25.0316 -5.87738 4
      vertex -24.9168 2.5024 4
    endloop
  endfacet
  facet normal -0.984783 0.173788 0
    outer loop
      vertex -27.49 -19.8081 0
      vertex -25.0316 -5.87738 4
      vertex -25.0316 -5.87738 0
    endloop
  endfacet
  facet normal -0.984783 0.173788 0
    outer loop
      vertex -27.49 -19.8081 0
      vertex -27.49 -19.8081 4
      vertex -25.0316 -5.87738 4
    endloop
  endfacet
  facet normal -1 0 0
    outer loop
      vertex -27.49 -35.7511 0
      vertex -27.49 -19.8081 4
      vertex -27.49 -19.8081 0
    endloop
  endfacet
  facet normal -1 0 0
    outer loop
      vertex -27.49 -35.7511 0
      vertex -27.49 -35.7511 4
      vertex -27.49 -19.8081 4
    endloop
  endfacet
  facet normal -0.991349 -0.131255 0
    outer loop
      vertex -27.0946 -38.7375 0
      vertex -27.49 -35.7511 4
      vertex -27.49 -35.7511 0
    endloop
  endfacet
  facet normal -0.991349 -0.131255 0
    outer loop
      vertex -27.0946 -38.7375 0
      vertex -27.0946 -38.7375 4
      vertex -27.49 -35.7511 4
    endloop
  endfacet
  facet normal 0.213419 -0.976961 0
    outer loop
      vertex -3.91191 -33.6732 0
      vertex -27.0946 -38.7375 4
      vertex -27.0946 -38.7375 0
    endloop
  endfacet
  facet normal 0.213419 -0.976961 0
    outer loop
      vertex -3.91191 -33.6732 0
      vertex -3.91191 -33.6732 4
      vertex -27.0946 -38.7375 4
    endloop
  endfacet
endsolid OpenSCAD_Model
