solid OpenSCAD_Model
  facet normal -0 0 -1
    outer loop
      vertex 49.9033 -17.2087 0
      vertex 47.9752 -20.5048 0
      vertex 40.7863 -4.53333 0
    endloop
  endfacet
  facet normal -0 0 -1
    outer loop
      vertex 1.15329 -32.5001 0
      vertex -3.97723 -33.3292 0
      vertex 3.59831 -31.5559 0
    endloop
  endfacet
  facet normal 0 -0 -1
    outer loop
      vertex 44.9018 2.91382 0
      vertex 49.9033 -17.2087 0
      vertex 40.7863 -4.53333 0
    endloop
  endfacet
  facet normal 0 0 -1
    outer loop
      vertex 17.158 -29.1025 0
      vertex 47.9752 -20.5048 0
      vertex 48.9107 -22.2029 0
    endloop
  endfacet
  facet normal 0 0 -1
    outer loop
      vertex 44.9018 2.91382 0
      vertex 40.7863 -4.53333 0
      vertex 44.306 2.74812 0
    endloop
  endfacet
  facet normal 0 0 -1
    outer loop
      vertex 40.7863 -4.53333 0
      vertex 32.355 0.439331 0
      vertex 34.2745 0.86142 0
    endloop
  endfacet
  facet normal -0 0 -1
    outer loop
      vertex 40.7863 -4.53333 0
      vertex 17.158 -29.1025 0
      vertex 32.355 0.439331 0
    endloop
  endfacet
  facet normal 0 0 -1
    outer loop
      vertex 32.355 0.439331 0
      vertex 14.4044 8.64307 0
      vertex 23.1874 8.17842 0
    endloop
  endfacet
  facet normal -0 0 -1
    outer loop
      vertex 32.355 0.439331 0
      vertex 17.158 -29.1025 0
      vertex 14.4044 8.64307 0
    endloop
  endfacet
  facet normal 0 -0 -1
    outer loop
      vertex 40.7863 -4.53333 0
      vertex 47.9752 -20.5048 0
      vertex 17.158 -29.1025 0
    endloop
  endfacet
  facet normal 0 0 -1
    outer loop
      vertex 24.0724 9.54083 0
      vertex 23.1874 8.17842 0
      vertex 14.4044 8.64307 0
    endloop
  endfacet
  facet normal 0 -0 -1
    outer loop
      vertex -24.566 2.56006 0
      vertex 14.4044 8.64307 0
      vertex -24.682 -5.9104 0
    endloop
  endfacet
  facet normal 0 0 -1
    outer loop
      vertex 14.4044 8.64307 0
      vertex 15.1818 16.9556 0
      vertex 24.0724 9.54083 0
    endloop
  endfacet
  facet normal 0 -0 -1
    outer loop
      vertex -26.2583 14.2631 0
      vertex -24.566 2.56006 0
      vertex -26.6587 8.48558 0
    endloop
  endfacet
  facet normal 0 0 -1
    outer loop
      vertex -23.4645 21.9447 0
      vertex -21.9723 29.7384 0
      vertex -1.95767 22.0934 0
    endloop
  endfacet
  facet normal 0 -0 -1
    outer loop
      vertex 14.4044 8.64307 0
      vertex 17.158 -29.1025 0
      vertex 3.59831 -31.5559 0
    endloop
  endfacet
  facet normal 0 0 -1
    outer loop
      vertex -1.95767 22.0934 0
      vertex -21.9723 29.7384 0
      vertex -16.5123 34.3631 0
    endloop
  endfacet
  facet normal -0 0 -1
    outer loop
      vertex -16.5123 34.3631 0
      vertex -21.9723 29.7384 0
      vertex -16.5715 34.3987 0
    endloop
  endfacet
  facet normal 0 0 -1
    outer loop
      vertex -23.4645 21.9447 0
      vertex -24.5207 26.1385 0
      vertex -21.9723 29.7384 0
    endloop
  endfacet
  facet normal 0 0 -1
    outer loop
      vertex -26.2583 14.2631 0
      vertex -23.4645 21.9447 0
      vertex -1.95767 22.0934 0
    endloop
  endfacet
  facet normal 0 0 -1
    outer loop
      vertex -26.2583 14.2631 0
      vertex -1.95767 22.0934 0
      vertex -24.566 2.56006 0
    endloop
  endfacet
  facet normal 0 -0 -1
    outer loop
      vertex -26.1462 19.6445 0
      vertex -23.4645 21.9447 0
      vertex -26.2583 14.2631 0
    endloop
  endfacet
  facet normal 0 0 -1
    outer loop
      vertex -3.97723 -33.3292 0
      vertex -27.14 -19.8389 0
      vertex -24.682 -5.9104 0
    endloop
  endfacet
  facet normal 0 0 -1
    outer loop
      vertex -3.97723 -33.3292 0
      vertex -26.7976 -38.3144 0
      vertex -27.14 -35.7279 0
    endloop
  endfacet
  facet normal 0 0 -1
    outer loop
      vertex -24.566 2.56006 0
      vertex -1.95767 22.0934 0
      vertex 14.4044 8.64307 0
    endloop
  endfacet
  facet normal 0 0 -1
    outer loop
      vertex -26.6587 8.48558 0
      vertex -29.4225 12.0434 0
      vertex -26.2583 14.2631 0
    endloop
  endfacet
  facet normal 0 0 -1
    outer loop
      vertex -24.682 -5.9104 0
      vertex 14.4044 8.64307 0
      vertex 3.59831 -31.5559 0
    endloop
  endfacet
  facet normal 0 0 -1
    outer loop
      vertex -3.97723 -33.3292 0
      vertex -24.682 -5.9104 0
      vertex 3.59831 -31.5559 0
    endloop
  endfacet
  facet normal 0 0 -1
    outer loop
      vertex -27.14 -35.7279 0
      vertex -27.14 -19.8389 0
      vertex -3.97723 -33.3292 0
    endloop
  endfacet
  facet normal 0 0 1
    outer loop
      vertex 40.7863 -4.53333 4
      vertex 47.9752 -20.5048 4
      vertex 49.9033 -17.2087 4
    endloop
  endfacet
  facet normal 0 0 1
    outer loop
      vertex 3.59831 -31.5559 4
      vertex -3.97723 -33.3292 4
      vertex 1.15329 -32.5001 4
    endloop
  endfacet
  facet normal -0 0 1
    outer loop
      vertex 40.7863 -4.53333 4
      vertex 49.9033 -17.2087 4
      vertex 44.9018 2.91382 4
    endloop
  endfacet
  facet normal 0 0 1
    outer loop
      vertex 48.9107 -22.2029 4
      vertex 47.9752 -20.5048 4
      vertex 17.158 -29.1025 4
    endloop
  endfacet
  facet normal -0 0 1
    outer loop
      vertex 44.306 2.74812 4
      vertex 40.7863 -4.53333 4
      vertex 44.9018 2.91382 4
    endloop
  endfacet
  facet normal 0 0 1
    outer loop
      vertex 34.2745 0.86142 4
      vertex 32.355 0.439331 4
      vertex 40.7863 -4.53333 4
    endloop
  endfacet
  facet normal 0 0 1
    outer loop
      vertex 32.355 0.439331 4
      vertex 17.158 -29.1025 4
      vertex 40.7863 -4.53333 4
    endloop
  endfacet
  facet normal 0 0 1
    outer loop
      vertex 23.1874 8.17842 4
      vertex 14.4044 8.64307 4
      vertex 32.355 0.439331 4
    endloop
  endfacet
  facet normal 0 0 1
    outer loop
      vertex 14.4044 8.64307 4
      vertex 17.158 -29.1025 4
      vertex 32.355 0.439331 4
    endloop
  endfacet
  facet normal 0 0 1
    outer loop
      vertex 17.158 -29.1025 4
      vertex 47.9752 -20.5048 4
      vertex 40.7863 -4.53333 4
    endloop
  endfacet
  facet normal -0 0 1
    outer loop
      vertex 14.4044 8.64307 4
      vertex 23.1874 8.17842 4
      vertex 24.0724 9.54083 4
    endloop
  endfacet
  facet normal 0 0 1
    outer loop
      vertex -24.682 -5.9104 4
      vertex 14.4044 8.64307 4
      vertex -24.566 2.56006 4
    endloop
  endfacet
  facet normal 0 0 1
    outer loop
      vertex 24.0724 9.54083 4
      vertex 15.1818 16.9556 4
      vertex 14.4044 8.64307 4
    endloop
  endfacet
  facet normal -0 0 1
    outer loop
      vertex -26.6587 8.48558 4
      vertex -24.566 2.56006 4
      vertex -26.2583 14.2631 4
    endloop
  endfacet
  facet normal 0 0 1
    outer loop
      vertex -1.95767 22.0934 4
      vertex -21.9723 29.7384 4
      vertex -23.4645 21.9447 4
    endloop
  endfacet
  facet normal 0 0 1
    outer loop
      vertex 3.59831 -31.5559 4
      vertex 17.158 -29.1025 4
      vertex 14.4044 8.64307 4
    endloop
  endfacet
  facet normal 0 0 1
    outer loop
      vertex -16.5123 34.3631 4
      vertex -21.9723 29.7384 4
      vertex -1.95767 22.0934 4
    endloop
  endfacet
  facet normal 0 0 1
    outer loop
      vertex -16.5715 34.3987 4
      vertex -21.9723 29.7384 4
      vertex -16.5123 34.3631 4
    endloop
  endfacet
  facet normal 0 0 1
    outer loop
      vertex -21.9723 29.7384 4
      vertex -24.5207 26.1385 4
      vertex -23.4645 21.9447 4
    endloop
  endfacet
  facet normal 0 0 1
    outer loop
      vertex -1.95767 22.0934 4
      vertex -23.4645 21.9447 4
      vertex -26.2583 14.2631 4
    endloop
  endfacet
  facet normal 0 -0 1
    outer loop
      vertex -24.566 2.56006 4
      vertex -1.95767 22.0934 4
      vertex -26.2583 14.2631 4
    endloop
  endfacet
  facet normal 0 0 1
    outer loop
      vertex -26.2583 14.2631 4
      vertex -23.4645 21.9447 4
      vertex -26.1462 19.6445 4
    endloop
  endfacet
  facet normal 0 0 1
    outer loop
      vertex -24.682 -5.9104 4
      vertex -27.14 -19.8389 4
      vertex -3.97723 -33.3292 4
    endloop
  endfacet
  facet normal -0 0 1
    outer loop
      vertex -27.14 -35.7279 4
      vertex -26.7976 -38.3144 4
      vertex -3.97723 -33.3292 4
    endloop
  endfacet
  facet normal 0 0 1
    outer loop
      vertex 14.4044 8.64307 4
      vertex -1.95767 22.0934 4
      vertex -24.566 2.56006 4
    endloop
  endfacet
  facet normal 0 0 1
    outer loop
      vertex -26.2583 14.2631 4
      vertex -29.4225 12.0434 4
      vertex -26.6587 8.48558 4
    endloop
  endfacet
  facet normal 0 -0 1
    outer loop
      vertex 3.59831 -31.5559 4
      vertex 14.4044 8.64307 4
      vertex -24.682 -5.9104 4
    endloop
  endfacet
  facet normal 0 0 1
    outer loop
      vertex 3.59831 -31.5559 4
      vertex -24.682 -5.9104 4
      vertex -3.97723 -33.3292 4
    endloop
  endfacet
  facet normal 0 0 1
    outer loop
      vertex -3.97723 -33.3292 4
      vertex -27.14 -19.8389 4
      vertex -27.14 -35.7279 4
    endloop
  endfacet
  facet normal 0.159532 -0.987193 0
    outer loop
      vertex 1.15329 -32.5001 0
      vertex -3.97723 -33.3292 4
      vertex -3.97723 -33.3292 0
    endloop
  endfacet
  facet normal 0.159532 -0.987193 0
    outer loop
      vertex 1.15329 -32.5001 0
      vertex 1.15329 -32.5001 4
      vertex -3.97723 -33.3292 4
    endloop
  endfacet
  facet normal 0.360244 -0.932858 0
    outer loop
      vertex 3.59831 -31.5559 0
      vertex 1.15329 -32.5001 4
      vertex 1.15329 -32.5001 0
    endloop
  endfacet
  facet normal 0.360244 -0.932858 0
    outer loop
      vertex 3.59831 -31.5559 0
      vertex 3.59831 -31.5559 4
      vertex 1.15329 -32.5001 4
    endloop
  endfacet
  facet normal 0.178043 -0.984023 0
    outer loop
      vertex 17.158 -29.1025 0
      vertex 3.59831 -31.5559 4
      vertex 3.59831 -31.5559 0
    endloop
  endfacet
  facet normal 0.178043 -0.984023 0
    outer loop
      vertex 17.158 -29.1025 0
      vertex 17.158 -29.1025 4
      vertex 3.59831 -31.5559 4
    endloop
  endfacet
  facet normal 0.212337 -0.977197 0
    outer loop
      vertex 48.9107 -22.2029 0
      vertex 17.158 -29.1025 4
      vertex 17.158 -29.1025 0
    endloop
  endfacet
  facet normal 0.212337 -0.977197 0
    outer loop
      vertex 48.9107 -22.2029 0
      vertex 48.9107 -22.2029 4
      vertex 17.158 -29.1025 4
    endloop
  endfacet
  facet normal 0.875879 0.48253 0
    outer loop
      vertex 47.9752 -20.5048 0
      vertex 48.9107 -22.2029 4
      vertex 48.9107 -22.2029 0
    endloop
  endfacet
  facet normal 0.875879 0.48253 -0
    outer loop
      vertex 47.9752 -20.5048 0
      vertex 47.9752 -20.5048 4
      vertex 48.9107 -22.2029 4
    endloop
  endfacet
  facet normal 0.863166 -0.504921 0
    outer loop
      vertex 49.9033 -17.2087 0
      vertex 47.9752 -20.5048 4
      vertex 47.9752 -20.5048 0
    endloop
  endfacet
  facet normal 0.863166 -0.504921 0
    outer loop
      vertex 49.9033 -17.2087 0
      vertex 49.9033 -17.2087 4
      vertex 47.9752 -20.5048 4
    endloop
  endfacet
  facet normal 0.970472 0.241213 0
    outer loop
      vertex 44.9018 2.91382 0
      vertex 49.9033 -17.2087 4
      vertex 49.9033 -17.2087 0
    endloop
  endfacet
  facet normal 0.970472 0.241213 -0
    outer loop
      vertex 44.9018 2.91382 0
      vertex 44.9018 2.91382 4
      vertex 49.9033 -17.2087 4
    endloop
  endfacet
  facet normal -0.267944 0.963434 0
    outer loop
      vertex 44.306 2.74812 0
      vertex 44.9018 2.91382 4
      vertex 44.9018 2.91382 0
    endloop
  endfacet
  facet normal -0.267944 0.963434 0
    outer loop
      vertex 44.306 2.74812 0
      vertex 44.306 2.74812 4
      vertex 44.9018 2.91382 4
    endloop
  endfacet
  facet normal -0.900333 0.435202 0
    outer loop
      vertex 40.7863 -4.53333 0
      vertex 44.306 2.74812 4
      vertex 44.306 2.74812 0
    endloop
  endfacet
  facet normal -0.900333 0.435202 0
    outer loop
      vertex 40.7863 -4.53333 0
      vertex 40.7863 -4.53333 4
      vertex 44.306 2.74812 4
    endloop
  endfacet
  facet normal 0.637966 0.770065 0
    outer loop
      vertex 34.2745 0.86142 0
      vertex 40.7863 -4.53333 4
      vertex 40.7863 -4.53333 0
    endloop
  endfacet
  facet normal 0.637966 0.770065 -0
    outer loop
      vertex 34.2745 0.86142 0
      vertex 34.2745 0.86142 4
      vertex 40.7863 -4.53333 4
    endloop
  endfacet
  facet normal -0.214764 0.976666 0
    outer loop
      vertex 32.355 0.439331 0
      vertex 34.2745 0.86142 4
      vertex 34.2745 0.86142 0
    endloop
  endfacet
  facet normal -0.214764 0.976666 0
    outer loop
      vertex 32.355 0.439331 0
      vertex 32.355 0.439331 4
      vertex 34.2745 0.86142 4
    endloop
  endfacet
  facet normal 0.645062 0.76413 0
    outer loop
      vertex 23.1874 8.17842 0
      vertex 32.355 0.439331 4
      vertex 32.355 0.439331 0
    endloop
  endfacet
  facet normal 0.645062 0.76413 -0
    outer loop
      vertex 23.1874 8.17842 0
      vertex 23.1874 8.17842 4
      vertex 32.355 0.439331 4
    endloop
  endfacet
  facet normal 0.838603 -0.544743 0
    outer loop
      vertex 24.0724 9.54083 0
      vertex 23.1874 8.17842 4
      vertex 23.1874 8.17842 0
    endloop
  endfacet
  facet normal 0.838603 -0.544743 0
    outer loop
      vertex 24.0724 9.54083 0
      vertex 24.0724 9.54083 4
      vertex 23.1874 8.17842 4
    endloop
  endfacet
  facet normal 0.640487 0.767969 0
    outer loop
      vertex 15.1818 16.9556 0
      vertex 24.0724 9.54083 4
      vertex 24.0724 9.54083 0
    endloop
  endfacet
  facet normal 0.640487 0.767969 -0
    outer loop
      vertex 15.1818 16.9556 0
      vertex 15.1818 16.9556 4
      vertex 24.0724 9.54083 4
    endloop
  endfacet
  facet normal -0.995655 0.0931151 0
    outer loop
      vertex 14.4044 8.64307 0
      vertex 15.1818 16.9556 4
      vertex 15.1818 16.9556 0
    endloop
  endfacet
  facet normal -0.995655 0.0931151 0
    outer loop
      vertex 14.4044 8.64307 0
      vertex 14.4044 8.64307 4
      vertex 15.1818 16.9556 4
    endloop
  endfacet
  facet normal 0.635023 0.772493 0
    outer loop
      vertex -1.95767 22.0934 0
      vertex 14.4044 8.64307 4
      vertex 14.4044 8.64307 0
    endloop
  endfacet
  facet normal 0.635023 0.772493 -0
    outer loop
      vertex -1.95767 22.0934 0
      vertex -1.95767 22.0934 4
      vertex 14.4044 8.64307 4
    endloop
  endfacet
  facet normal 0.64454 0.76457 0
    outer loop
      vertex -16.5123 34.3631 0
      vertex -1.95767 22.0934 4
      vertex -1.95767 22.0934 0
    endloop
  endfacet
  facet normal 0.64454 0.76457 -0
    outer loop
      vertex -16.5123 34.3631 0
      vertex -16.5123 34.3631 4
      vertex -1.95767 22.0934 4
    endloop
  endfacet
  facet normal 0.515347 0.856982 0
    outer loop
      vertex -16.5715 34.3987 0
      vertex -16.5123 34.3631 4
      vertex -16.5123 34.3631 0
    endloop
  endfacet
  facet normal 0.515347 0.856982 -0
    outer loop
      vertex -16.5715 34.3987 0
      vertex -16.5715 34.3987 4
      vertex -16.5123 34.3631 4
    endloop
  endfacet
  facet normal -0.653296 0.757102 0
    outer loop
      vertex -21.9723 29.7384 0
      vertex -16.5715 34.3987 4
      vertex -16.5715 34.3987 0
    endloop
  endfacet
  facet normal -0.653296 0.757102 0
    outer loop
      vertex -21.9723 29.7384 0
      vertex -21.9723 29.7384 4
      vertex -16.5715 34.3987 4
    endloop
  endfacet
  facet normal -0.816188 0.577786 0
    outer loop
      vertex -24.5207 26.1385 0
      vertex -21.9723 29.7384 4
      vertex -21.9723 29.7384 0
    endloop
  endfacet
  facet normal -0.816188 0.577786 0
    outer loop
      vertex -24.5207 26.1385 0
      vertex -24.5207 26.1385 4
      vertex -21.9723 29.7384 4
    endloop
  endfacet
  facet normal -0.969719 -0.244222 0
    outer loop
      vertex -23.4645 21.9447 0
      vertex -24.5207 26.1385 4
      vertex -24.5207 26.1385 0
    endloop
  endfacet
  facet normal -0.969719 -0.244222 0
    outer loop
      vertex -23.4645 21.9447 0
      vertex -23.4645 21.9447 4
      vertex -24.5207 26.1385 4
    endloop
  endfacet
  facet normal -0.651052 0.759033 0
    outer loop
      vertex -26.1462 19.6445 0
      vertex -23.4645 21.9447 4
      vertex -23.4645 21.9447 0
    endloop
  endfacet
  facet normal -0.651052 0.759033 0
    outer loop
      vertex -26.1462 19.6445 0
      vertex -26.1462 19.6445 4
      vertex -23.4645 21.9447 4
    endloop
  endfacet
  facet normal -0.999783 0.0208265 0
    outer loop
      vertex -26.2583 14.2631 0
      vertex -26.1462 19.6445 4
      vertex -26.1462 19.6445 0
    endloop
  endfacet
  facet normal -0.999783 0.0208265 0
    outer loop
      vertex -26.2583 14.2631 0
      vertex -26.2583 14.2631 4
      vertex -26.1462 19.6445 4
    endloop
  endfacet
  facet normal -0.574289 0.818653 0
    outer loop
      vertex -29.4225 12.0434 0
      vertex -26.2583 14.2631 4
      vertex -26.2583 14.2631 0
    endloop
  endfacet
  facet normal -0.574289 0.818653 0
    outer loop
      vertex -29.4225 12.0434 0
      vertex -29.4225 12.0434 4
      vertex -26.2583 14.2631 4
    endloop
  endfacet
  facet normal -0.789717 -0.613471 0
    outer loop
      vertex -26.6587 8.48558 0
      vertex -29.4225 12.0434 4
      vertex -29.4225 12.0434 0
    endloop
  endfacet
  facet normal -0.789717 -0.613471 0
    outer loop
      vertex -26.6587 8.48558 0
      vertex -26.6587 8.48558 4
      vertex -29.4225 12.0434 4
    endloop
  endfacet
  facet normal -0.942923 -0.33301 0
    outer loop
      vertex -24.566 2.56006 0
      vertex -26.6587 8.48558 4
      vertex -26.6587 8.48558 0
    endloop
  endfacet
  facet normal -0.942923 -0.33301 0
    outer loop
      vertex -24.566 2.56006 0
      vertex -24.566 2.56006 4
      vertex -26.6587 8.48558 4
    endloop
  endfacet
  facet normal -0.999906 0.0136934 0
    outer loop
      vertex -24.682 -5.9104 0
      vertex -24.566 2.56006 4
      vertex -24.566 2.56006 0
    endloop
  endfacet
  facet normal -0.999906 0.0136934 0
    outer loop
      vertex -24.682 -5.9104 0
      vertex -24.682 -5.9104 4
      vertex -24.566 2.56006 4
    endloop
  endfacet
  facet normal -0.984783 0.173787 0
    outer loop
      vertex -27.14 -19.8389 0
      vertex -24.682 -5.9104 4
      vertex -24.682 -5.9104 0
    endloop
  endfacet
  facet normal -0.984783 0.173787 0
    outer loop
      vertex -27.14 -19.8389 0
      vertex -27.14 -19.8389 4
      vertex -24.682 -5.9104 4
    endloop
  endfacet
  facet normal -1 0 0
    outer loop
      vertex -27.14 -35.7279 0
      vertex -27.14 -19.8389 4
      vertex -27.14 -19.8389 0
    endloop
  endfacet
  facet normal -1 0 0
    outer loop
      vertex -27.14 -35.7279 0
      vertex -27.14 -35.7279 4
      vertex -27.14 -19.8389 4
    endloop
  endfacet
  facet normal -0.991351 -0.131235 0
    outer loop
      vertex -26.7976 -38.3144 0
      vertex -27.14 -35.7279 4
      vertex -27.14 -35.7279 0
    endloop
  endfacet
  facet normal -0.991351 -0.131235 0
    outer loop
      vertex -26.7976 -38.3144 0
      vertex -26.7976 -38.3144 4
      vertex -27.14 -35.7279 4
    endloop
  endfacet
  facet normal 0.213421 -0.97696 0
    outer loop
      vertex -3.97723 -33.3292 0
      vertex -26.7976 -38.3144 4
      vertex -26.7976 -38.3144 0
    endloop
  endfacet
  facet normal 0.213421 -0.97696 0
    outer loop
      vertex -3.97723 -33.3292 0
      vertex -3.97723 -33.3292 4
      vertex -26.7976 -38.3144 4
    endloop
  endfacet
endsolid OpenSCAD_Model
