solid OpenSCAD_Model
  facet normal 0 0 -1
    outer loop
      vertex -10.78 -6.54489 0
      vertex 3.49992 15.0285 0
      vertex 12.7348 8.10506 0
    endloop
  endfacet
  facet normal 0 -0 -1
    outer loop
      vertex 85.413 -61.8317 0
      vertex 86.5447 -62.1302 0
      vertex 79.3838 -74.7166 0
    endloop
  endfacet
  facet normal -0 0 -1
    outer loop
      vertex 30.139 0.27832 0
      vertex 13.5175 -27.2498 0
      vertex 12.7348 8.10506 0
    endloop
  endfacet
  facet normal 0 0 -1
    outer loop
      vertex 85.413 -61.8317 0
      vertex 55.2871 -59.6094 0
      vertex 55.795 -36.2341 0
    endloop
  endfacet
  facet normal 0 0 -1
    outer loop
      vertex 49.1454 -20.6004 0
      vertex 36.343 -3.59048 0
      vertex 50.7077 -13.5415 0
    endloop
  endfacet
  facet normal 0 0 -1
    outer loop
      vertex 49.1454 -20.6004 0
      vertex 50.7077 -13.5415 0
      vertex 53.5045 -14.8224 0
    endloop
  endfacet
  facet normal 0 0 -1
    outer loop
      vertex -48.2388 14.0629 0
      vertex -56.1303 21.7286 0
      vertex -46.3517 29.3018 0
    endloop
  endfacet
  facet normal 0 -0 -1
    outer loop
      vertex -20.6193 53.351 0
      vertex -14.9172 45.7343 0
      vertex -34.5618 39.4762 0
    endloop
  endfacet
  facet normal 0 0 -1
    outer loop
      vertex -10.78 -6.54489 0
      vertex -17.2087 -1.75858 0
      vertex 3.49992 15.0285 0
    endloop
  endfacet
  facet normal 0 0 -1
    outer loop
      vertex -58.4447 18.1934 0
      vertex -56.1303 21.7286 0
      vertex -48.2388 14.0629 0
    endloop
  endfacet
  facet normal 0 -0 -1
    outer loop
      vertex -34.5618 39.4762 0
      vertex -32.4241 7.07762 0
      vertex -46.3517 29.3018 0
    endloop
  endfacet
  facet normal 0 0 -1
    outer loop
      vertex 12.7348 8.10506 0
      vertex 3.49992 15.0285 0
      vertex 13.0701 11.5465 0
    endloop
  endfacet
  facet normal 0 0 -1
    outer loop
      vertex -8.54552 35.9672 0
      vertex 8.19586 26.7848 0
      vertex 7.13527 22.2321 0
    endloop
  endfacet
  facet normal 0 0 -1
    outer loop
      vertex 3.49992 15.0285 0
      vertex -8.54552 35.9672 0
      vertex 7.13527 22.2321 0
    endloop
  endfacet
  facet normal 0 0 -1
    outer loop
      vertex -34.5618 39.4762 0
      vertex -14.9172 45.7343 0
      vertex -8.54552 35.9672 0
    endloop
  endfacet
  facet normal 0 0 -1
    outer loop
      vertex -112.39 37.8903 0
      vertex -110.436 40.8648 0
      vertex -69.6591 26.3071 0
    endloop
  endfacet
  facet normal 0 0 -1
    outer loop
      vertex -14.9172 45.7343 0
      vertex -20.6193 53.351 0
      vertex -13.1827 48.044 0
    endloop
  endfacet
  facet normal 0 -0 -1
    outer loop
      vertex -46.3517 29.3018 0
      vertex -32.4241 7.07762 0
      vertex -48.2388 14.0629 0
    endloop
  endfacet
  facet normal 0 0 -1
    outer loop
      vertex -32.4241 7.07762 0
      vertex -34.5618 39.4762 0
      vertex -8.54552 35.9672 0
    endloop
  endfacet
  facet normal 0 0 -1
    outer loop
      vertex -25.9886 3.77914 0
      vertex -32.4241 7.07762 0
      vertex -8.54552 35.9672 0
    endloop
  endfacet
  facet normal 0 0 -1
    outer loop
      vertex -58.4447 18.1934 0
      vertex -69.6591 26.3071 0
      vertex -56.1303 21.7286 0
    endloop
  endfacet
  facet normal 0 0 -1
    outer loop
      vertex -58.4447 18.1934 0
      vertex -112.39 37.8903 0
      vertex -69.6591 26.3071 0
    endloop
  endfacet
  facet normal -0 0 -1
    outer loop
      vertex 3.49992 15.0285 0
      vertex -25.9886 3.77914 0
      vertex -8.54552 35.9672 0
    endloop
  endfacet
  facet normal 0 0 -1
    outer loop
      vertex 3.49992 15.0285 0
      vertex -17.2087 -1.75858 0
      vertex -25.9886 3.77914 0
    endloop
  endfacet
  facet normal 0 0 -1
    outer loop
      vertex 13.5175 -27.2498 0
      vertex -10.78 -6.54489 0
      vertex 12.7348 8.10506 0
    endloop
  endfacet
  facet normal -0 0 -1
    outer loop
      vertex 36.343 -3.59048 0
      vertex 13.5175 -27.2498 0
      vertex 30.139 0.27832 0
    endloop
  endfacet
  facet normal 0 0 -1
    outer loop
      vertex 13.5175 -27.2498 0
      vertex 49.1454 -20.6004 0
      vertex 30.1844 -41.1789 0
    endloop
  endfacet
  facet normal 0 -0 -1
    outer loop
      vertex 36.343 -3.59048 0
      vertex 49.1454 -20.6004 0
      vertex 13.5175 -27.2498 0
    endloop
  endfacet
  facet normal 0 0 -1
    outer loop
      vertex 30.1844 -41.1789 0
      vertex 49.1454 -20.6004 0
      vertex 55.795 -36.2341 0
    endloop
  endfacet
  facet normal 0 0 -1
    outer loop
      vertex 40.5559 -49.2866 0
      vertex 30.1844 -41.1789 0
      vertex 55.795 -36.2341 0
    endloop
  endfacet
  facet normal 0 0 -1
    outer loop
      vertex 55.2871 -59.6094 0
      vertex 40.5559 -49.2866 0
      vertex 55.795 -36.2341 0
    endloop
  endfacet
  facet normal 0 0 -1
    outer loop
      vertex 79.3838 -74.7166 0
      vertex 76.2177 -72.4897 0
      vertex 85.413 -61.8317 0
    endloop
  endfacet
  facet normal 0 0 -1
    outer loop
      vertex 76.2177 -72.4897 0
      vertex 55.2871 -59.6094 0
      vertex 85.413 -61.8317 0
    endloop
  endfacet
  facet normal 0 0 1
    outer loop
      vertex 12.7348 8.10506 4
      vertex 3.49992 15.0285 4
      vertex -10.78 -6.54489 4
    endloop
  endfacet
  facet normal 0 0 1
    outer loop
      vertex 79.3838 -74.7166 4
      vertex 86.5447 -62.1302 4
      vertex 85.413 -61.8317 4
    endloop
  endfacet
  facet normal 0 0 1
    outer loop
      vertex 12.7348 8.10506 4
      vertex 13.5175 -27.2498 4
      vertex 30.139 0.27832 4
    endloop
  endfacet
  facet normal 0 0 1
    outer loop
      vertex 55.795 -36.2341 4
      vertex 55.2871 -59.6094 4
      vertex 85.413 -61.8317 4
    endloop
  endfacet
  facet normal 0 0 1
    outer loop
      vertex 50.7077 -13.5415 4
      vertex 36.343 -3.59048 4
      vertex 49.1454 -20.6004 4
    endloop
  endfacet
  facet normal 0 0 1
    outer loop
      vertex 53.5045 -14.8224 4
      vertex 50.7077 -13.5415 4
      vertex 49.1454 -20.6004 4
    endloop
  endfacet
  facet normal 0 0 1
    outer loop
      vertex -46.3517 29.3018 4
      vertex -56.1303 21.7286 4
      vertex -48.2388 14.0629 4
    endloop
  endfacet
  facet normal 0 0 1
    outer loop
      vertex -34.5618 39.4762 4
      vertex -14.9172 45.7343 4
      vertex -20.6193 53.351 4
    endloop
  endfacet
  facet normal 0 0 1
    outer loop
      vertex 3.49992 15.0285 4
      vertex -17.2087 -1.75858 4
      vertex -10.78 -6.54489 4
    endloop
  endfacet
  facet normal 0 0 1
    outer loop
      vertex -48.2388 14.0629 4
      vertex -56.1303 21.7286 4
      vertex -58.4447 18.1934 4
    endloop
  endfacet
  facet normal -0 0 1
    outer loop
      vertex -46.3517 29.3018 4
      vertex -32.4241 7.07762 4
      vertex -34.5618 39.4762 4
    endloop
  endfacet
  facet normal 0 0 1
    outer loop
      vertex 13.0701 11.5465 4
      vertex 3.49992 15.0285 4
      vertex 12.7348 8.10506 4
    endloop
  endfacet
  facet normal 0 -0 1
    outer loop
      vertex 7.13527 22.2321 4
      vertex 8.19586 26.7848 4
      vertex -8.54552 35.9672 4
    endloop
  endfacet
  facet normal 0 0 1
    outer loop
      vertex 7.13527 22.2321 4
      vertex -8.54552 35.9672 4
      vertex 3.49992 15.0285 4
    endloop
  endfacet
  facet normal 0 0 1
    outer loop
      vertex -8.54552 35.9672 4
      vertex -14.9172 45.7343 4
      vertex -34.5618 39.4762 4
    endloop
  endfacet
  facet normal 0 0 1
    outer loop
      vertex -69.6591 26.3071 4
      vertex -110.436 40.8648 4
      vertex -112.39 37.8903 4
    endloop
  endfacet
  facet normal 0 0 1
    outer loop
      vertex -13.1827 48.044 4
      vertex -20.6193 53.351 4
      vertex -14.9172 45.7343 4
    endloop
  endfacet
  facet normal -0 0 1
    outer loop
      vertex -48.2388 14.0629 4
      vertex -32.4241 7.07762 4
      vertex -46.3517 29.3018 4
    endloop
  endfacet
  facet normal 0 0 1
    outer loop
      vertex -8.54552 35.9672 4
      vertex -34.5618 39.4762 4
      vertex -32.4241 7.07762 4
    endloop
  endfacet
  facet normal 0 0 1
    outer loop
      vertex -8.54552 35.9672 4
      vertex -32.4241 7.07762 4
      vertex -25.9886 3.77914 4
    endloop
  endfacet
  facet normal 0 0 1
    outer loop
      vertex -56.1303 21.7286 4
      vertex -69.6591 26.3071 4
      vertex -58.4447 18.1934 4
    endloop
  endfacet
  facet normal 0 0 1
    outer loop
      vertex -69.6591 26.3071 4
      vertex -112.39 37.8903 4
      vertex -58.4447 18.1934 4
    endloop
  endfacet
  facet normal 0 0 1
    outer loop
      vertex -8.54552 35.9672 4
      vertex -25.9886 3.77914 4
      vertex 3.49992 15.0285 4
    endloop
  endfacet
  facet normal -0 0 1
    outer loop
      vertex -25.9886 3.77914 4
      vertex -17.2087 -1.75858 4
      vertex 3.49992 15.0285 4
    endloop
  endfacet
  facet normal 0 0 1
    outer loop
      vertex 12.7348 8.10506 4
      vertex -10.78 -6.54489 4
      vertex 13.5175 -27.2498 4
    endloop
  endfacet
  facet normal 0 0 1
    outer loop
      vertex 30.139 0.27832 4
      vertex 13.5175 -27.2498 4
      vertex 36.343 -3.59048 4
    endloop
  endfacet
  facet normal 0 -0 1
    outer loop
      vertex 30.1844 -41.1789 4
      vertex 49.1454 -20.6004 4
      vertex 13.5175 -27.2498 4
    endloop
  endfacet
  facet normal 0 0 1
    outer loop
      vertex 13.5175 -27.2498 4
      vertex 49.1454 -20.6004 4
      vertex 36.343 -3.59048 4
    endloop
  endfacet
  facet normal 0 0 1
    outer loop
      vertex 55.795 -36.2341 4
      vertex 49.1454 -20.6004 4
      vertex 30.1844 -41.1789 4
    endloop
  endfacet
  facet normal 0 0 1
    outer loop
      vertex 55.795 -36.2341 4
      vertex 30.1844 -41.1789 4
      vertex 40.5559 -49.2866 4
    endloop
  endfacet
  facet normal 0 0 1
    outer loop
      vertex 55.795 -36.2341 4
      vertex 40.5559 -49.2866 4
      vertex 55.2871 -59.6094 4
    endloop
  endfacet
  facet normal 0 0 1
    outer loop
      vertex 85.413 -61.8317 4
      vertex 76.2177 -72.4897 4
      vertex 79.3838 -74.7166 4
    endloop
  endfacet
  facet normal 0 0 1
    outer loop
      vertex 85.413 -61.8317 4
      vertex 55.2871 -59.6094 4
      vertex 76.2177 -72.4897 4
    endloop
  endfacet
  facet normal 0.25504 0.966931 0
    outer loop
      vertex 85.413 -61.8317 0
      vertex 86.5447 -62.1302 4
      vertex 86.5447 -62.1302 0
    endloop
  endfacet
  facet normal 0.25504 0.966931 -0
    outer loop
      vertex 85.413 -61.8317 0
      vertex 85.413 -61.8317 4
      vertex 86.5447 -62.1302 4
    endloop
  endfacet
  facet normal 0.653889 0.75659 0
    outer loop
      vertex 55.795 -36.2341 0
      vertex 85.413 -61.8317 4
      vertex 85.413 -61.8317 0
    endloop
  endfacet
  facet normal 0.653889 0.75659 -0
    outer loop
      vertex 55.795 -36.2341 0
      vertex 55.795 -36.2341 4
      vertex 85.413 -61.8317 4
    endloop
  endfacet
  facet normal 0.920219 0.391404 0
    outer loop
      vertex 49.1454 -20.6004 0
      vertex 55.795 -36.2341 4
      vertex 55.795 -36.2341 0
    endloop
  endfacet
  facet normal 0.920219 0.391404 -0
    outer loop
      vertex 49.1454 -20.6004 0
      vertex 49.1454 -20.6004 4
      vertex 55.795 -36.2341 4
    endloop
  endfacet
  facet normal 0.798299 -0.602261 0
    outer loop
      vertex 53.5045 -14.8224 0
      vertex 49.1454 -20.6004 4
      vertex 49.1454 -20.6004 0
    endloop
  endfacet
  facet normal 0.798299 -0.602261 0
    outer loop
      vertex 53.5045 -14.8224 0
      vertex 53.5045 -14.8224 4
      vertex 49.1454 -20.6004 4
    endloop
  endfacet
  facet normal 0.416395 0.909184 0
    outer loop
      vertex 50.7077 -13.5415 0
      vertex 53.5045 -14.8224 4
      vertex 53.5045 -14.8224 0
    endloop
  endfacet
  facet normal 0.416395 0.909184 -0
    outer loop
      vertex 50.7077 -13.5415 0
      vertex 50.7077 -13.5415 4
      vertex 53.5045 -14.8224 4
    endloop
  endfacet
  facet normal 0.569451 0.822025 0
    outer loop
      vertex 36.343 -3.59048 0
      vertex 50.7077 -13.5415 4
      vertex 50.7077 -13.5415 0
    endloop
  endfacet
  facet normal 0.569451 0.822025 -0
    outer loop
      vertex 36.343 -3.59048 0
      vertex 36.343 -3.59048 4
      vertex 50.7077 -13.5415 4
    endloop
  endfacet
  facet normal 0.529143 0.848533 0
    outer loop
      vertex 30.139 0.27832 0
      vertex 36.343 -3.59048 4
      vertex 36.343 -3.59048 0
    endloop
  endfacet
  facet normal 0.529143 0.848533 -0
    outer loop
      vertex 30.139 0.27832 0
      vertex 30.139 0.27832 4
      vertex 36.343 -3.59048 4
    endloop
  endfacet
  facet normal 0.41014 0.912022 0
    outer loop
      vertex 12.7348 8.10506 0
      vertex 30.139 0.27832 4
      vertex 30.139 0.27832 0
    endloop
  endfacet
  facet normal 0.41014 0.912022 -0
    outer loop
      vertex 12.7348 8.10506 0
      vertex 12.7348 8.10506 4
      vertex 30.139 0.27832 4
    endloop
  endfacet
  facet normal 0.995287 -0.096971 0
    outer loop
      vertex 13.0701 11.5465 0
      vertex 12.7348 8.10506 4
      vertex 12.7348 8.10506 0
    endloop
  endfacet
  facet normal 0.995287 -0.096971 0
    outer loop
      vertex 13.0701 11.5465 0
      vertex 13.0701 11.5465 4
      vertex 12.7348 8.10506 4
    endloop
  endfacet
  facet normal 0.341911 0.939732 0
    outer loop
      vertex 3.49992 15.0285 0
      vertex 13.0701 11.5465 4
      vertex 13.0701 11.5465 0
    endloop
  endfacet
  facet normal 0.341911 0.939732 -0
    outer loop
      vertex 3.49992 15.0285 0
      vertex 3.49992 15.0285 4
      vertex 13.0701 11.5465 4
    endloop
  endfacet
  facet normal 0.892758 -0.450537 0
    outer loop
      vertex 7.13527 22.2321 0
      vertex 3.49992 15.0285 4
      vertex 3.49992 15.0285 0
    endloop
  endfacet
  facet normal 0.892758 -0.450537 0
    outer loop
      vertex 7.13527 22.2321 0
      vertex 7.13527 22.2321 4
      vertex 3.49992 15.0285 4
    endloop
  endfacet
  facet normal 0.973922 -0.226883 0
    outer loop
      vertex 8.19586 26.7848 0
      vertex 7.13527 22.2321 4
      vertex 7.13527 22.2321 0
    endloop
  endfacet
  facet normal 0.973922 -0.226883 0
    outer loop
      vertex 8.19586 26.7848 0
      vertex 8.19586 26.7848 4
      vertex 7.13527 22.2321 4
    endloop
  endfacet
  facet normal 0.480899 0.876776 0
    outer loop
      vertex -8.54552 35.9672 0
      vertex 8.19586 26.7848 4
      vertex 8.19586 26.7848 0
    endloop
  endfacet
  facet normal 0.480899 0.876776 -0
    outer loop
      vertex -8.54552 35.9672 0
      vertex -8.54552 35.9672 4
      vertex 8.19586 26.7848 4
    endloop
  endfacet
  facet normal 0.837539 0.546378 0
    outer loop
      vertex -14.9172 45.7343 0
      vertex -8.54552 35.9672 4
      vertex -8.54552 35.9672 0
    endloop
  endfacet
  facet normal 0.837539 0.546378 -0
    outer loop
      vertex -14.9172 45.7343 0
      vertex -14.9172 45.7343 4
      vertex -8.54552 35.9672 4
    endloop
  endfacet
  facet normal 0.79963 -0.600493 0
    outer loop
      vertex -13.1827 48.044 0
      vertex -14.9172 45.7343 4
      vertex -14.9172 45.7343 0
    endloop
  endfacet
  facet normal 0.79963 -0.600493 0
    outer loop
      vertex -13.1827 48.044 0
      vertex -13.1827 48.044 4
      vertex -14.9172 45.7343 4
    endloop
  endfacet
  facet normal 0.580886 0.813985 0
    outer loop
      vertex -20.6193 53.351 0
      vertex -13.1827 48.044 4
      vertex -13.1827 48.044 0
    endloop
  endfacet
  facet normal 0.580886 0.813985 -0
    outer loop
      vertex -20.6193 53.351 0
      vertex -20.6193 53.351 4
      vertex -13.1827 48.044 4
    endloop
  endfacet
  facet normal -0.705384 0.708826 0
    outer loop
      vertex -34.5618 39.4762 0
      vertex -20.6193 53.351 4
      vertex -20.6193 53.351 0
    endloop
  endfacet
  facet normal -0.705384 0.708826 0
    outer loop
      vertex -34.5618 39.4762 0
      vertex -34.5618 39.4762 4
      vertex -20.6193 53.351 4
    endloop
  endfacet
  facet normal -0.653333 0.75707 0
    outer loop
      vertex -46.3517 29.3018 0
      vertex -34.5618 39.4762 4
      vertex -34.5618 39.4762 0
    endloop
  endfacet
  facet normal -0.653333 0.75707 0
    outer loop
      vertex -46.3517 29.3018 0
      vertex -46.3517 29.3018 4
      vertex -34.5618 39.4762 4
    endloop
  endfacet
  facet normal -0.612308 0.790619 0
    outer loop
      vertex -56.1303 21.7286 0
      vertex -46.3517 29.3018 4
      vertex -46.3517 29.3018 0
    endloop
  endfacet
  facet normal -0.612308 0.790619 0
    outer loop
      vertex -56.1303 21.7286 0
      vertex -56.1303 21.7286 4
      vertex -46.3517 29.3018 4
    endloop
  endfacet
  facet normal 0.320566 0.947226 0
    outer loop
      vertex -69.6591 26.3071 0
      vertex -56.1303 21.7286 4
      vertex -56.1303 21.7286 0
    endloop
  endfacet
  facet normal 0.320566 0.947226 -0
    outer loop
      vertex -69.6591 26.3071 0
      vertex -69.6591 26.3071 4
      vertex -56.1303 21.7286 4
    endloop
  endfacet
  facet normal 0.336224 0.941782 0
    outer loop
      vertex -110.436 40.8648 0
      vertex -69.6591 26.3071 4
      vertex -69.6591 26.3071 0
    endloop
  endfacet
  facet normal 0.336224 0.941782 -0
    outer loop
      vertex -110.436 40.8648 0
      vertex -110.436 40.8648 4
      vertex -69.6591 26.3071 4
    endloop
  endfacet
  facet normal -0.835792 0.549046 0
    outer loop
      vertex -112.39 37.8903 0
      vertex -110.436 40.8648 4
      vertex -110.436 40.8648 0
    endloop
  endfacet
  facet normal -0.835792 0.549046 0
    outer loop
      vertex -112.39 37.8903 0
      vertex -112.39 37.8903 4
      vertex -110.436 40.8648 4
    endloop
  endfacet
  facet normal -0.34298 -0.939343 0
    outer loop
      vertex -58.4447 18.1934 0
      vertex -112.39 37.8903 4
      vertex -112.39 37.8903 0
    endloop
  endfacet
  facet normal -0.34298 -0.939343 0
    outer loop
      vertex -58.4447 18.1934 0
      vertex -58.4447 18.1934 4
      vertex -112.39 37.8903 4
    endloop
  endfacet
  facet normal -0.375157 -0.926961 0
    outer loop
      vertex -48.2388 14.0629 0
      vertex -58.4447 18.1934 4
      vertex -58.4447 18.1934 0
    endloop
  endfacet
  facet normal -0.375157 -0.926961 0
    outer loop
      vertex -48.2388 14.0629 0
      vertex -48.2388 14.0629 4
      vertex -58.4447 18.1934 4
    endloop
  endfacet
  facet normal -0.404038 -0.914742 0
    outer loop
      vertex -32.4241 7.07762 0
      vertex -48.2388 14.0629 4
      vertex -48.2388 14.0629 0
    endloop
  endfacet
  facet normal -0.404038 -0.914742 0
    outer loop
      vertex -32.4241 7.07762 0
      vertex -32.4241 7.07762 4
      vertex -48.2388 14.0629 4
    endloop
  endfacet
  facet normal -0.456122 -0.889917 0
    outer loop
      vertex -25.9886 3.77914 0
      vertex -32.4241 7.07762 4
      vertex -32.4241 7.07762 0
    endloop
  endfacet
  facet normal -0.456122 -0.889917 0
    outer loop
      vertex -25.9886 3.77914 0
      vertex -25.9886 3.77914 4
      vertex -32.4241 7.07762 4
    endloop
  endfacet
  facet normal -0.533478 -0.845814 0
    outer loop
      vertex -17.2087 -1.75858 0
      vertex -25.9886 3.77914 4
      vertex -25.9886 3.77914 0
    endloop
  endfacet
  facet normal -0.533478 -0.845814 0
    outer loop
      vertex -17.2087 -1.75858 0
      vertex -17.2087 -1.75858 4
      vertex -25.9886 3.77914 4
    endloop
  endfacet
  facet normal -0.597184 -0.802104 0
    outer loop
      vertex -10.78 -6.54489 0
      vertex -17.2087 -1.75858 4
      vertex -17.2087 -1.75858 0
    endloop
  endfacet
  facet normal -0.597184 -0.802104 0
    outer loop
      vertex -10.78 -6.54489 0
      vertex -10.78 -6.54489 4
      vertex -17.2087 -1.75858 4
    endloop
  endfacet
  facet normal -0.648594 -0.761134 0
    outer loop
      vertex 13.5175 -27.2498 0
      vertex -10.78 -6.54489 4
      vertex -10.78 -6.54489 0
    endloop
  endfacet
  facet normal -0.648594 -0.761134 0
    outer loop
      vertex 13.5175 -27.2498 0
      vertex 13.5175 -27.2498 4
      vertex -10.78 -6.54489 4
    endloop
  endfacet
  facet normal -0.641271 -0.767314 0
    outer loop
      vertex 30.1844 -41.1789 0
      vertex 13.5175 -27.2498 4
      vertex 13.5175 -27.2498 0
    endloop
  endfacet
  facet normal -0.641271 -0.767314 0
    outer loop
      vertex 30.1844 -41.1789 0
      vertex 30.1844 -41.1789 4
      vertex 13.5175 -27.2498 4
    endloop
  endfacet
  facet normal -0.615878 -0.787841 0
    outer loop
      vertex 40.5559 -49.2866 0
      vertex 30.1844 -41.1789 4
      vertex 30.1844 -41.1789 0
    endloop
  endfacet
  facet normal -0.615878 -0.787841 0
    outer loop
      vertex 40.5559 -49.2866 0
      vertex 40.5559 -49.2866 4
      vertex 30.1844 -41.1789 4
    endloop
  endfacet
  facet normal -0.573871 -0.818946 0
    outer loop
      vertex 55.2871 -59.6094 0
      vertex 40.5559 -49.2866 4
      vertex 40.5559 -49.2866 0
    endloop
  endfacet
  facet normal -0.573871 -0.818946 0
    outer loop
      vertex 55.2871 -59.6094 0
      vertex 55.2871 -59.6094 4
      vertex 40.5559 -49.2866 4
    endloop
  endfacet
  facet normal -0.524095 -0.85166 0
    outer loop
      vertex 76.2177 -72.4897 0
      vertex 55.2871 -59.6094 4
      vertex 55.2871 -59.6094 0
    endloop
  endfacet
  facet normal -0.524095 -0.85166 0
    outer loop
      vertex 76.2177 -72.4897 0
      vertex 76.2177 -72.4897 4
      vertex 55.2871 -59.6094 4
    endloop
  endfacet
  facet normal -0.575304 -0.81794 0
    outer loop
      vertex 79.3838 -74.7166 0
      vertex 76.2177 -72.4897 4
      vertex 76.2177 -72.4897 0
    endloop
  endfacet
  facet normal -0.575304 -0.81794 0
    outer loop
      vertex 79.3838 -74.7166 0
      vertex 79.3838 -74.7166 4
      vertex 76.2177 -72.4897 4
    endloop
  endfacet
  facet normal 0.869174 -0.494507 0
    outer loop
      vertex 86.5447 -62.1302 0
      vertex 79.3838 -74.7166 4
      vertex 79.3838 -74.7166 0
    endloop
  endfacet
  facet normal 0.869174 -0.494507 0
    outer loop
      vertex 86.5447 -62.1302 0
      vertex 86.5447 -62.1302 4
      vertex 79.3838 -74.7166 4
    endloop
  endfacet
endsolid OpenSCAD_Model
