<svg xmlns="http://www.w3.org/2000/svg">
      <path d="M -113.69,-37.46 -110.78,-41.89 -69.38,-27.11 -56.29,-22.68 -46.89,-29.96 -35.14,-40.1 -20.71,-54.46 -11.98,-48.23 -13.88,-45.7 -7.95,-36.61 9.17,-27.22 7.94,-21.94 4.69,-15.5 13.98,-12.12 13.64,-8.63 30.54,-1.03 36.81,2.88 51.13,12.8 54.82,14.49 50.12,20.72 56.5,35.72 85.82,61.06 87.83,61.59 79.66,75.95 75.75,73.2 54.82,60.32 40.05,49.97 29.65,41.84 12.97,27.9 -11.31,7.21 -17.69,2.46 -26.41,-3.04 -32.79,-6.31 -48.57,-13.28 -58.75,-17.4 -113.69,-37.46 Z" />
    </svg>
