solid OpenSCAD_Model
  facet normal 0 0 -1
    outer loop
      vertex -13.2075 10.9838 0
      vertex -7.40474 12.7422 0
      vertex -6.9892 12.5483 0
    endloop
  endfacet
  facet normal 0 0 -1
    outer loop
      vertex -15.0706 -16.76 0
      vertex -18.7944 -16.76 0
      vertex -15.1754 -14.9503 0
    endloop
  endfacet
  facet normal 0 0 -1
    outer loop
      vertex 3.25909 -11.2746 0
      vertex 21.401 11.338 0
      vertex 12.2267 -10.9459 0
    endloop
  endfacet
  facet normal -0 0 -1
    outer loop
      vertex 22.8712 16.5546 0
      vertex 21.401 11.338 0
      vertex 17.4379 17.8844 0
    endloop
  endfacet
  facet normal 0 0 -1
    outer loop
      vertex 21.401 11.338 0
      vertex 25.6212 3.15886 0
      vertex 23.2498 0.92012 0
    endloop
  endfacet
  facet normal 0 0 -1
    outer loop
      vertex 12.2267 -10.9459 0
      vertex 23.2498 0.92012 0
      vertex 19.6477 -10.0417 0
    endloop
  endfacet
  facet normal 0 0 -1
    outer loop
      vertex 12.2267 -10.9459 0
      vertex 19.6477 -10.0417 0
      vertex 20.1399 -13.0683 0
    endloop
  endfacet
  facet normal 0 0 -1
    outer loop
      vertex 12.2267 -10.9459 0
      vertex 21.401 11.338 0
      vertex 23.2498 0.92012 0
    endloop
  endfacet
  facet normal 0 0 -1
    outer loop
      vertex 21.401 11.338 0
      vertex -6.9892 12.5483 0
      vertex 17.4379 17.8844 0
    endloop
  endfacet
  facet normal 0 -0 -1
    outer loop
      vertex 22.0051 18.6152 0
      vertex 22.8712 16.5546 0
      vertex 17.4379 17.8844 0
    endloop
  endfacet
  facet normal -0 0 -1
    outer loop
      vertex 21.401 11.338 0
      vertex 3.25909 -11.2746 0
      vertex -6.9892 12.5483 0
    endloop
  endfacet
  facet normal 0 0 -1
    outer loop
      vertex -6.9892 12.5483 0
      vertex 3.25909 -11.2746 0
      vertex -5.4994 -13.9232 0
    endloop
  endfacet
  facet normal 0 0 -1
    outer loop
      vertex -13.2075 10.9838 0
      vertex -18.2542 4.3364 0
      vertex -15.8516 8.87581 0
    endloop
  endfacet
  facet normal 0 0 -1
    outer loop
      vertex -6.9892 12.5483 0
      vertex -18.2542 4.3364 0
      vertex -13.2075 10.9838 0
    endloop
  endfacet
  facet normal 0 -0 -1
    outer loop
      vertex -6.9892 12.5483 0
      vertex -5.4994 -13.9232 0
      vertex -18.2542 4.3364 0
    endloop
  endfacet
  facet normal 0 0 -1
    outer loop
      vertex -18.2542 4.3364 0
      vertex -5.4994 -13.9232 0
      vertex -15.1754 -14.9503 0
    endloop
  endfacet
  facet normal 0 0 -1
    outer loop
      vertex -18.7944 -16.76 0
      vertex -24.6626 1.41882 0
      vertex -15.1754 -14.9503 0
    endloop
  endfacet
  facet normal -0 0 -1
    outer loop
      vertex -18.7944 -16.76 0
      vertex -34.4716 -18.4036 0
      vertex -24.6626 1.41882 0
    endloop
  endfacet
  facet normal 0 0 -1
    outer loop
      vertex -24.6626 1.41882 0
      vertex -18.2542 4.3364 0
      vertex -15.1754 -14.9503 0
    endloop
  endfacet
  facet normal 0 0 -1
    outer loop
      vertex -24.6626 1.41882 0
      vertex -34.4716 -18.4036 0
      vertex -39.4269 -11.6051 0
    endloop
  endfacet
  facet normal 0 0 1
    outer loop
      vertex -6.9892 12.5483 4
      vertex -7.40474 12.7422 4
      vertex -13.2075 10.9838 4
    endloop
  endfacet
  facet normal 0 0 1
    outer loop
      vertex -15.1754 -14.9503 4
      vertex -18.7944 -16.76 4
      vertex -15.0706 -16.76 4
    endloop
  endfacet
  facet normal 0 -0 1
    outer loop
      vertex 12.2267 -10.9459 4
      vertex 21.401 11.338 4
      vertex 3.25909 -11.2746 4
    endloop
  endfacet
  facet normal 0 0 1
    outer loop
      vertex 17.4379 17.8844 4
      vertex 21.401 11.338 4
      vertex 22.8712 16.5546 4
    endloop
  endfacet
  facet normal 0 -0 1
    outer loop
      vertex 23.2498 0.92012 4
      vertex 25.6212 3.15886 4
      vertex 21.401 11.338 4
    endloop
  endfacet
  facet normal 0 -0 1
    outer loop
      vertex 19.6477 -10.0417 4
      vertex 23.2498 0.92012 4
      vertex 12.2267 -10.9459 4
    endloop
  endfacet
  facet normal 0 0 1
    outer loop
      vertex 20.1399 -13.0683 4
      vertex 19.6477 -10.0417 4
      vertex 12.2267 -10.9459 4
    endloop
  endfacet
  facet normal 0 0 1
    outer loop
      vertex 23.2498 0.92012 4
      vertex 21.401 11.338 4
      vertex 12.2267 -10.9459 4
    endloop
  endfacet
  facet normal 0 0 1
    outer loop
      vertex 17.4379 17.8844 4
      vertex -6.9892 12.5483 4
      vertex 21.401 11.338 4
    endloop
  endfacet
  facet normal -0 0 1
    outer loop
      vertex 17.4379 17.8844 4
      vertex 22.8712 16.5546 4
      vertex 22.0051 18.6152 4
    endloop
  endfacet
  facet normal 0 0 1
    outer loop
      vertex -6.9892 12.5483 4
      vertex 3.25909 -11.2746 4
      vertex 21.401 11.338 4
    endloop
  endfacet
  facet normal 0 -0 1
    outer loop
      vertex -5.4994 -13.9232 4
      vertex 3.25909 -11.2746 4
      vertex -6.9892 12.5483 4
    endloop
  endfacet
  facet normal -0 0 1
    outer loop
      vertex -15.8516 8.87581 4
      vertex -18.2542 4.3364 4
      vertex -13.2075 10.9838 4
    endloop
  endfacet
  facet normal -0 0 1
    outer loop
      vertex -13.2075 10.9838 4
      vertex -18.2542 4.3364 4
      vertex -6.9892 12.5483 4
    endloop
  endfacet
  facet normal -0 0 1
    outer loop
      vertex -18.2542 4.3364 4
      vertex -5.4994 -13.9232 4
      vertex -6.9892 12.5483 4
    endloop
  endfacet
  facet normal 0 -0 1
    outer loop
      vertex -15.1754 -14.9503 4
      vertex -5.4994 -13.9232 4
      vertex -18.2542 4.3364 4
    endloop
  endfacet
  facet normal 0 0 1
    outer loop
      vertex -15.1754 -14.9503 4
      vertex -24.6626 1.41882 4
      vertex -18.7944 -16.76 4
    endloop
  endfacet
  facet normal 0 0 1
    outer loop
      vertex -24.6626 1.41882 4
      vertex -34.4716 -18.4036 4
      vertex -18.7944 -16.76 4
    endloop
  endfacet
  facet normal 0 0 1
    outer loop
      vertex -15.1754 -14.9503 4
      vertex -18.2542 4.3364 4
      vertex -24.6626 1.41882 4
    endloop
  endfacet
  facet normal -0 0 1
    outer loop
      vertex -39.4269 -11.6051 4
      vertex -34.4716 -18.4036 4
      vertex -24.6626 1.41882 4
    endloop
  endfacet
  facet normal 0 -1 0
    outer loop
      vertex -15.0706 -16.76 0
      vertex -18.7944 -16.76 4
      vertex -18.7944 -16.76 0
    endloop
  endfacet
  facet normal 0 -1 0
    outer loop
      vertex -15.0706 -16.76 0
      vertex -15.0706 -16.76 4
      vertex -18.7944 -16.76 4
    endloop
  endfacet
  facet normal 0.998327 0.0578133 0
    outer loop
      vertex -15.1754 -14.9503 0
      vertex -15.0706 -16.76 4
      vertex -15.0706 -16.76 0
    endloop
  endfacet
  facet normal 0.998327 0.0578133 -0
    outer loop
      vertex -15.1754 -14.9503 0
      vertex -15.1754 -14.9503 4
      vertex -15.0706 -16.76 4
    endloop
  endfacet
  facet normal 0.105556 -0.994413 0
    outer loop
      vertex -5.4994 -13.9232 0
      vertex -15.1754 -14.9503 4
      vertex -15.1754 -14.9503 0
    endloop
  endfacet
  facet normal 0.105556 -0.994413 0
    outer loop
      vertex -5.4994 -13.9232 0
      vertex -5.4994 -13.9232 4
      vertex -15.1754 -14.9503 4
    endloop
  endfacet
  facet normal 0.289458 -0.957191 0
    outer loop
      vertex 3.25909 -11.2746 0
      vertex -5.4994 -13.9232 4
      vertex -5.4994 -13.9232 0
    endloop
  endfacet
  facet normal 0.289458 -0.957191 0
    outer loop
      vertex 3.25909 -11.2746 0
      vertex 3.25909 -11.2746 4
      vertex -5.4994 -13.9232 4
    endloop
  endfacet
  facet normal 0.0366295 -0.999329 0
    outer loop
      vertex 12.2267 -10.9459 0
      vertex 3.25909 -11.2746 4
      vertex 3.25909 -11.2746 0
    endloop
  endfacet
  facet normal 0.0366295 -0.999329 0
    outer loop
      vertex 12.2267 -10.9459 0
      vertex 12.2267 -10.9459 4
      vertex 3.25909 -11.2746 4
    endloop
  endfacet
  facet normal -0.259054 -0.965863 0
    outer loop
      vertex 20.1399 -13.0683 0
      vertex 12.2267 -10.9459 4
      vertex 12.2267 -10.9459 0
    endloop
  endfacet
  facet normal -0.259054 -0.965863 0
    outer loop
      vertex 20.1399 -13.0683 0
      vertex 20.1399 -13.0683 4
      vertex 12.2267 -10.9459 4
    endloop
  endfacet
  facet normal 0.987033 0.160516 0
    outer loop
      vertex 19.6477 -10.0417 0
      vertex 20.1399 -13.0683 4
      vertex 20.1399 -13.0683 0
    endloop
  endfacet
  facet normal 0.987033 0.160516 -0
    outer loop
      vertex 19.6477 -10.0417 0
      vertex 19.6477 -10.0417 4
      vertex 20.1399 -13.0683 4
    endloop
  endfacet
  facet normal 0.950023 -0.312181 0
    outer loop
      vertex 23.2498 0.92012 0
      vertex 19.6477 -10.0417 4
      vertex 19.6477 -10.0417 0
    endloop
  endfacet
  facet normal 0.950023 -0.312181 0
    outer loop
      vertex 23.2498 0.92012 0
      vertex 23.2498 0.92012 4
      vertex 19.6477 -10.0417 4
    endloop
  endfacet
  facet normal 0.686475 -0.727153 0
    outer loop
      vertex 25.6212 3.15886 0
      vertex 23.2498 0.92012 4
      vertex 23.2498 0.92012 0
    endloop
  endfacet
  facet normal 0.686475 -0.727153 0
    outer loop
      vertex 25.6212 3.15886 0
      vertex 25.6212 3.15886 4
      vertex 23.2498 0.92012 4
    endloop
  endfacet
  facet normal 0.888678 0.458532 0
    outer loop
      vertex 21.401 11.338 0
      vertex 25.6212 3.15886 4
      vertex 25.6212 3.15886 0
    endloop
  endfacet
  facet normal 0.888678 0.458532 -0
    outer loop
      vertex 21.401 11.338 0
      vertex 21.401 11.338 4
      vertex 25.6212 3.15886 4
    endloop
  endfacet
  facet normal 0.962505 -0.271264 0
    outer loop
      vertex 22.8712 16.5546 0
      vertex 21.401 11.338 4
      vertex 21.401 11.338 0
    endloop
  endfacet
  facet normal 0.962505 -0.271264 0
    outer loop
      vertex 22.8712 16.5546 0
      vertex 22.8712 16.5546 4
      vertex 21.401 11.338 4
    endloop
  endfacet
  facet normal 0.921879 0.387479 0
    outer loop
      vertex 22.0051 18.6152 0
      vertex 22.8712 16.5546 4
      vertex 22.8712 16.5546 0
    endloop
  endfacet
  facet normal 0.921879 0.387479 -0
    outer loop
      vertex 22.0051 18.6152 0
      vertex 22.0051 18.6152 4
      vertex 22.8712 16.5546 4
    endloop
  endfacet
  facet normal -0.158001 0.987439 0
    outer loop
      vertex 17.4379 17.8844 0
      vertex 22.0051 18.6152 4
      vertex 22.0051 18.6152 0
    endloop
  endfacet
  facet normal -0.158001 0.987439 0
    outer loop
      vertex 17.4379 17.8844 0
      vertex 17.4379 17.8844 4
      vertex 22.0051 18.6152 4
    endloop
  endfacet
  facet normal -0.213417 0.976961 0
    outer loop
      vertex -6.9892 12.5483 0
      vertex 17.4379 17.8844 4
      vertex 17.4379 17.8844 0
    endloop
  endfacet
  facet normal -0.213417 0.976961 0
    outer loop
      vertex -6.9892 12.5483 0
      vertex -6.9892 12.5483 4
      vertex 17.4379 17.8844 4
    endloop
  endfacet
  facet normal 0.422852 0.906199 0
    outer loop
      vertex -7.40474 12.7422 0
      vertex -6.9892 12.5483 4
      vertex -6.9892 12.5483 0
    endloop
  endfacet
  facet normal 0.422852 0.906199 -0
    outer loop
      vertex -7.40474 12.7422 0
      vertex -7.40474 12.7422 4
      vertex -6.9892 12.5483 4
    endloop
  endfacet
  facet normal -0.290006 0.957025 0
    outer loop
      vertex -13.2075 10.9838 0
      vertex -7.40474 12.7422 4
      vertex -7.40474 12.7422 0
    endloop
  endfacet
  facet normal -0.290006 0.957025 0
    outer loop
      vertex -13.2075 10.9838 0
      vertex -13.2075 10.9838 4
      vertex -7.40474 12.7422 4
    endloop
  endfacet
  facet normal -0.62338 0.781919 0
    outer loop
      vertex -15.8516 8.87581 0
      vertex -13.2075 10.9838 4
      vertex -13.2075 10.9838 0
    endloop
  endfacet
  facet normal -0.62338 0.781919 0
    outer loop
      vertex -15.8516 8.87581 0
      vertex -15.8516 8.87581 4
      vertex -13.2075 10.9838 4
    endloop
  endfacet
  facet normal -0.883838 0.467794 0
    outer loop
      vertex -18.2542 4.3364 0
      vertex -15.8516 8.87581 4
      vertex -15.8516 8.87581 0
    endloop
  endfacet
  facet normal -0.883838 0.467794 0
    outer loop
      vertex -18.2542 4.3364 0
      vertex -18.2542 4.3364 4
      vertex -15.8516 8.87581 4
    endloop
  endfacet
  facet normal -0.414353 0.910116 0
    outer loop
      vertex -24.6626 1.41882 0
      vertex -18.2542 4.3364 4
      vertex -18.2542 4.3364 0
    endloop
  endfacet
  facet normal -0.414353 0.910116 0
    outer loop
      vertex -24.6626 1.41882 0
      vertex -24.6626 1.41882 4
      vertex -18.2542 4.3364 4
    endloop
  endfacet
  facet normal -0.661524 0.749924 0
    outer loop
      vertex -39.4269 -11.6051 0
      vertex -24.6626 1.41882 4
      vertex -24.6626 1.41882 0
    endloop
  endfacet
  facet normal -0.661524 0.749924 0
    outer loop
      vertex -39.4269 -11.6051 0
      vertex -39.4269 -11.6051 4
      vertex -24.6626 1.41882 4
    endloop
  endfacet
  facet normal -0.808117 -0.589022 0
    outer loop
      vertex -34.4716 -18.4036 0
      vertex -39.4269 -11.6051 4
      vertex -39.4269 -11.6051 0
    endloop
  endfacet
  facet normal -0.808117 -0.589022 0
    outer loop
      vertex -34.4716 -18.4036 0
      vertex -34.4716 -18.4036 4
      vertex -39.4269 -11.6051 4
    endloop
  endfacet
  facet normal 0.104269 -0.994549 0
    outer loop
      vertex -18.7944 -16.76 0
      vertex -34.4716 -18.4036 4
      vertex -34.4716 -18.4036 0
    endloop
  endfacet
  facet normal 0.104269 -0.994549 0
    outer loop
      vertex -18.7944 -16.76 0
      vertex -18.7944 -16.76 4
      vertex -34.4716 -18.4036 4
    endloop
  endfacet
endsolid OpenSCAD_Model
