solid OpenSCAD_Model
  facet normal 0 0 -1
    outer loop
      vertex 171.332 -59.2173 0
      vertex 169.457 -123.48 0
      vertex 143.527 -64.3198 0
    endloop
  endfacet
  facet normal 0 0 -1
    outer loop
      vertex 146.831 -58.6882 0
      vertex 151.166 -47.5289 0
      vertex 159.829 -53.1539 0
    endloop
  endfacet
  facet normal 0 0 -1
    outer loop
      vertex 108.823 -92.3998 0
      vertex 143.527 -64.3198 0
      vertex 118.273 -106.768 0
    endloop
  endfacet
  facet normal 0 0 -1
    outer loop
      vertex 196.794 -66.354 0
      vertex 211.519 -68.8018 0
      vertex 217.285 -87.8982 0
    endloop
  endfacet
  facet normal 0 0 -1
    outer loop
      vertex 169.457 -123.48 0
      vertex 196.794 -66.354 0
      vertex 217.285 -87.8982 0
    endloop
  endfacet
  facet normal 0 0 -1
    outer loop
      vertex 146.831 -58.6882 0
      vertex 150.53 -47.0594 0
      vertex 151.166 -47.5289 0
    endloop
  endfacet
  facet normal -0 0 -1
    outer loop
      vertex 171.332 -59.2173 0
      vertex 143.527 -64.3198 0
      vertex 146.831 -58.6882 0
    endloop
  endfacet
  facet normal 0 0 -1
    outer loop
      vertex 147.71 -122.657 0
      vertex 140.039 -119.761 0
      vertex 152.374 -123.171 0
    endloop
  endfacet
  facet normal 0 0 -1
    outer loop
      vertex 146.831 -58.6882 0
      vertex 159.829 -53.1539 0
      vertex 171.332 -59.2173 0
    endloop
  endfacet
  facet normal 0 0 -1
    outer loop
      vertex 102.806 -38.5453 0
      vertex 92.0459 -57.7258 0
      vertex 83.6023 -51.2447 0
    endloop
  endfacet
  facet normal 0 0 -1
    outer loop
      vertex -109.025 109.387 0
      vertex -73.099 11.4735 0
      vertex -83.5381 9.54593 0
    endloop
  endfacet
  facet normal 0 0 -1
    outer loop
      vertex 133.505 -115.9 0
      vertex 118.273 -106.768 0
      vertex 143.527 -64.3198 0
    endloop
  endfacet
  facet normal 0 -0 -1
    outer loop
      vertex -188.851 94.0313 0
      vertex -185.378 97.742 0
      vertex -194.94 84.8324 0
    endloop
  endfacet
  facet normal 0 0 -1
    outer loop
      vertex 104.972 -78.3617 0
      vertex 143.527 -64.3198 0
      vertex 106.806 -83.0132 0
    endloop
  endfacet
  facet normal 0 0 -1
    outer loop
      vertex 104.849 -50.9734 0
      vertex 97.42 -64.3056 0
      vertex 92.0459 -57.7258 0
    endloop
  endfacet
  facet normal 0 0 -1
    outer loop
      vertex 26.2214 -1.3644 0
      vertex 17.4738 0.539429 0
      vertex 37.8756 41.3188 0
    endloop
  endfacet
  facet normal 0 0 -1
    outer loop
      vertex 113.198 -54.4532 0
      vertex 104.849 -50.9734 0
      vertex 108.003 -50.4673 0
    endloop
  endfacet
  facet normal 0 0 -1
    outer loop
      vertex 57.351 17.3719 0
      vertex 50.0738 -24.9799 0
      vertex 45.6798 -20.2972 0
    endloop
  endfacet
  facet normal 0 0 -1
    outer loop
      vertex 36.1079 -13.4166 0
      vertex 57.351 17.3719 0
      vertex 45.6798 -20.2972 0
    endloop
  endfacet
  facet normal 0 0 -1
    outer loop
      vertex 26.2214 -1.3644 0
      vertex 37.8756 41.3188 0
      vertex 48.3142 33.1665 0
    endloop
  endfacet
  facet normal 0 0 -1
    outer loop
      vertex 6.2984 6.57957 0
      vertex 37.8756 41.3188 0
      vertex 9.34116 5.58624 0
    endloop
  endfacet
  facet normal 0 0 -1
    outer loop
      vertex 31.6718 -5.06516 0
      vertex 57.351 17.3719 0
      vertex 36.1079 -13.4166 0
    endloop
  endfacet
  facet normal 0 0 -1
    outer loop
      vertex 57.351 17.3719 0
      vertex 48.3142 33.1665 0
      vertex 62.3437 23.3354 0
    endloop
  endfacet
  facet normal 0 0 -1
    outer loop
      vertex -73.099 11.4735 0
      vertex -50.2951 100.426 0
      vertex -61.0671 10.9358 0
    endloop
  endfacet
  facet normal 0 0 -1
    outer loop
      vertex -174.658 -11.0675 0
      vertex -89.2023 7.72531 0
      vertex -167.291 -19.9908 0
    endloop
  endfacet
  facet normal 0 0 -1
    outer loop
      vertex -196.443 38.6864 0
      vertex -130.981 109.063 0
      vertex -89.2023 7.72531 0
    endloop
  endfacet
  facet normal 0 0 -1
    outer loop
      vertex -203.333 55.5051 0
      vertex -198.496 43.8636 0
      vertex -201.601 48.3536 0
    endloop
  endfacet
  facet normal 0 0 -1
    outer loop
      vertex -198.496 43.8636 0
      vertex -201.045 73.5351 0
      vertex -194.94 84.8324 0
    endloop
  endfacet
  facet normal 0 0 -1
    outer loop
      vertex -203.333 55.5051 0
      vertex -201.045 73.5351 0
      vertex -198.496 43.8636 0
    endloop
  endfacet
  facet normal 0 -0 -1
    outer loop
      vertex -104.461 120.204 0
      vertex -50.2951 100.426 0
      vertex -109.025 109.387 0
    endloop
  endfacet
  facet normal 0 0 -1
    outer loop
      vertex -194.94 84.8324 0
      vertex -185.378 97.742 0
      vertex -130.981 109.063 0
    endloop
  endfacet
  facet normal -0 0 -1
    outer loop
      vertex -130.981 109.063 0
      vertex -185.378 97.742 0
      vertex -146.093 114.852 0
    endloop
  endfacet
  facet normal 0 -0 -1
    outer loop
      vertex -124.398 111.9 0
      vertex -120.213 112.387 0
      vertex -130.981 109.063 0
    endloop
  endfacet
  facet normal 0 0 -1
    outer loop
      vertex -130.981 109.063 0
      vertex -120.213 112.387 0
      vertex -109.025 109.387 0
    endloop
  endfacet
  facet normal 0 0 -1
    outer loop
      vertex -185.378 97.742 0
      vertex -181.713 105.088 0
      vertex -177.771 108.612 0
    endloop
  endfacet
  facet normal 0 -0 -1
    outer loop
      vertex -153.507 115.884 0
      vertex -146.093 114.852 0
      vertex -157.576 115.482 0
    endloop
  endfacet
  facet normal 0 -0 -1
    outer loop
      vertex -157.576 115.482 0
      vertex -146.093 114.852 0
      vertex -167.427 112.554 0
    endloop
  endfacet
  facet normal 0 -0 -1
    outer loop
      vertex -167.427 112.554 0
      vertex -146.093 114.852 0
      vertex -185.378 97.742 0
    endloop
  endfacet
  facet normal 0 0 -1
    outer loop
      vertex -185.378 97.742 0
      vertex -184.802 100.454 0
      vertex -181.713 105.088 0
    endloop
  endfacet
  facet normal 0 0 -1
    outer loop
      vertex -167.427 112.554 0
      vertex -185.378 97.742 0
      vertex -177.771 108.612 0
    endloop
  endfacet
  facet normal 0 0 -1
    outer loop
      vertex -203.333 55.5051 0
      vertex -203.656 65.4103 0
      vertex -201.045 73.5351 0
    endloop
  endfacet
  facet normal 0 0 -1
    outer loop
      vertex -194.94 84.8324 0
      vertex -196.443 38.6864 0
      vertex -198.496 43.8636 0
    endloop
  endfacet
  facet normal 0 -0 -1
    outer loop
      vertex -194.94 84.8324 0
      vertex -130.981 109.063 0
      vertex -196.443 38.6864 0
    endloop
  endfacet
  facet normal 0 0 -1
    outer loop
      vertex -196.443 38.6864 0
      vertex -89.2023 7.72531 0
      vertex -184.228 3.58273 0
    endloop
  endfacet
  facet normal 0 0 -1
    outer loop
      vertex -174.658 -11.0675 0
      vertex -179.149 -10.7379 0
      vertex -180.812 -8.82777 0
    endloop
  endfacet
  facet normal 0 0 -1
    outer loop
      vertex -184.228 3.58273 0
      vertex -174.658 -11.0675 0
      vertex -180.812 -8.82777 0
    endloop
  endfacet
  facet normal 0 0 -1
    outer loop
      vertex -184.228 3.58273 0
      vertex -89.2023 7.72531 0
      vertex -174.658 -11.0675 0
    endloop
  endfacet
  facet normal 0 0 -1
    outer loop
      vertex -174.658 -11.0675 0
      vertex -167.291 -19.9908 0
      vertex -172.494 -15.3627 0
    endloop
  endfacet
  facet normal 0 -0 -1
    outer loop
      vertex -109.025 109.387 0
      vertex -89.2023 7.72531 0
      vertex -130.981 109.063 0
    endloop
  endfacet
  facet normal 0 0 -1
    outer loop
      vertex -109.025 109.387 0
      vertex -83.5381 9.54593 0
      vertex -89.2023 7.72531 0
    endloop
  endfacet
  facet normal -0 0 -1
    outer loop
      vertex -50.2951 100.426 0
      vertex -73.099 11.4735 0
      vertex -109.025 109.387 0
    endloop
  endfacet
  facet normal -0 0 -1
    outer loop
      vertex -40.1411 96.317 0
      vertex -61.0671 10.9358 0
      vertex -50.2951 100.426 0
    endloop
  endfacet
  facet normal 0 -0 -1
    outer loop
      vertex -40.1411 96.317 0
      vertex -34.7612 15.6535 0
      vertex -61.0671 10.9358 0
    endloop
  endfacet
  facet normal 0 -0 -1
    outer loop
      vertex -9.401 80.6584 0
      vertex -3.06993 75.9448 0
      vertex -34.7612 15.6535 0
    endloop
  endfacet
  facet normal 0 0 -1
    outer loop
      vertex -42.3322 -6.00531 0
      vertex -51.2401 8.72997 0
      vertex -42.456 -2.4207 0
    endloop
  endfacet
  facet normal 0 -0 -1
    outer loop
      vertex 102.806 -38.5453 0
      vertex 104.849 -50.9734 0
      vertex 92.0459 -57.7258 0
    endloop
  endfacet
  facet normal 0 0 -1
    outer loop
      vertex -61.0671 10.9358 0
      vertex -34.7612 15.6535 0
      vertex -51.2401 8.72997 0
    endloop
  endfacet
  facet normal 0 0 -1
    outer loop
      vertex -34.7612 15.6535 0
      vertex -24.3958 89.3624 0
      vertex -18.0714 86.1208 0
    endloop
  endfacet
  facet normal 0 0 -1
    outer loop
      vertex -40.1411 96.317 0
      vertex -24.3958 89.3624 0
      vertex -34.7612 15.6535 0
    endloop
  endfacet
  facet normal -0 0 -1
    outer loop
      vertex -9.401 80.6584 0
      vertex -34.7612 15.6535 0
      vertex -18.0714 86.1208 0
    endloop
  endfacet
  facet normal 0 0 -1
    outer loop
      vertex -28.6862 14.6979 0
      vertex -3.06993 75.9448 0
      vertex 21.1917 55.2705 0
    endloop
  endfacet
  facet normal 0 0 -1
    outer loop
      vertex 6.2984 6.57957 0
      vertex -28.6862 14.6979 0
      vertex 21.1917 55.2705 0
    endloop
  endfacet
  facet normal 0 0 -1
    outer loop
      vertex 41.2787 -19.1809 0
      vertex 36.1079 -13.4166 0
      vertex 45.6798 -20.2972 0
    endloop
  endfacet
  facet normal 0 0 -1
    outer loop
      vertex -42.456 -2.4207 0
      vertex -51.2401 8.72997 0
      vertex -34.7612 15.6535 0
    endloop
  endfacet
  facet normal 0 0 -1
    outer loop
      vertex -34.7612 15.6535 0
      vertex -3.06993 75.9448 0
      vertex -28.6862 14.6979 0
    endloop
  endfacet
  facet normal 0 -0 -1
    outer loop
      vertex 21.1917 55.2705 0
      vertex 37.8756 41.3188 0
      vertex 6.2984 6.57957 0
    endloop
  endfacet
  facet normal 0 0 -1
    outer loop
      vertex -34.7612 15.6535 0
      vertex -28.6862 14.6979 0
      vertex -29.0823 13.0775 0
    endloop
  endfacet
  facet normal 0 0 -1
    outer loop
      vertex 37.8756 41.3188 0
      vertex 17.4738 0.539429 0
      vertex 9.34116 5.58624 0
    endloop
  endfacet
  facet normal 0 0 -1
    outer loop
      vertex 57.351 17.3719 0
      vertex 31.6718 -5.06516 0
      vertex 26.2214 -1.3644 0
    endloop
  endfacet
  facet normal 0 0 -1
    outer loop
      vertex 36.6195 -18.2402 0
      vertex 36.1079 -13.4166 0
      vertex 41.2787 -19.1809 0
    endloop
  endfacet
  facet normal -0 0 -1
    outer loop
      vertex 57.351 17.3719 0
      vertex 26.2214 -1.3644 0
      vertex 48.3142 33.1665 0
    endloop
  endfacet
  facet normal 0 0 -1
    outer loop
      vertex 59.2728 -32.6227 0
      vertex 95.0872 -19.2059 0
      vertex 71.4852 -40.4506 0
    endloop
  endfacet
  facet normal 0 0 -1
    outer loop
      vertex 71.4852 -40.4506 0
      vertex 95.0872 -19.2059 0
      vertex 99.0718 -26.1789 0
    endloop
  endfacet
  facet normal 0 0 -1
    outer loop
      vertex 94.6602 -13.6736 0
      vertex 59.2728 -32.6227 0
      vertex 50.0738 -24.9799 0
    endloop
  endfacet
  facet normal -0 0 -1
    outer loop
      vertex 94.6602 -13.6736 0
      vertex 50.0738 -24.9799 0
      vertex 57.351 17.3719 0
    endloop
  endfacet
  facet normal 0 -0 -1
    outer loop
      vertex 94.6602 -13.6736 0
      vertex 95.0872 -19.2059 0
      vertex 59.2728 -32.6227 0
    endloop
  endfacet
  facet normal -0 0 -1
    outer loop
      vertex 101.156 -31.4539 0
      vertex 71.4852 -40.4506 0
      vertex 99.0718 -26.1789 0
    endloop
  endfacet
  facet normal 0 0 -1
    outer loop
      vertex 101.156 -31.4539 0
      vertex 83.6023 -51.2447 0
      vertex 71.4852 -40.4506 0
    endloop
  endfacet
  facet normal 0 0 -1
    outer loop
      vertex 83.6023 -51.2447 0
      vertex 101.156 -31.4539 0
      vertex 102.806 -38.5453 0
    endloop
  endfacet
  facet normal 0 -0 -1
    outer loop
      vertex 104.849 -50.9734 0
      vertex 113.198 -54.4532 0
      vertex 97.42 -64.3056 0
    endloop
  endfacet
  facet normal 0 0 -1
    outer loop
      vertex 97.42 -64.3056 0
      vertex 113.198 -54.4532 0
      vertex 104.972 -78.3617 0
    endloop
  endfacet
  facet normal 0 0 -1
    outer loop
      vertex 104.972 -78.3617 0
      vertex 113.198 -54.4532 0
      vertex 143.527 -64.3198 0
    endloop
  endfacet
  facet normal 0 0 -1
    outer loop
      vertex 106.806 -83.0132 0
      vertex 143.527 -64.3198 0
      vertex 108.823 -92.3998 0
    endloop
  endfacet
  facet normal 0 0 -1
    outer loop
      vertex 108.823 -92.3998 0
      vertex 118.273 -106.768 0
      vertex 112.419 -100.73 0
    endloop
  endfacet
  facet normal 0 0 -1
    outer loop
      vertex 140.039 -119.761 0
      vertex 133.505 -115.9 0
      vertex 143.527 -64.3198 0
    endloop
  endfacet
  facet normal 0 0 -1
    outer loop
      vertex 140.039 -119.761 0
      vertex 143.527 -64.3198 0
      vertex 152.374 -123.171 0
    endloop
  endfacet
  facet normal 0 0 -1
    outer loop
      vertex 152.374 -123.171 0
      vertex 143.527 -64.3198 0
      vertex 169.457 -123.48 0
    endloop
  endfacet
  facet normal 0 0 -1
    outer loop
      vertex 169.457 -123.48 0
      vertex 171.332 -59.2173 0
      vertex 179.934 -62.4254 0
    endloop
  endfacet
  facet normal -0 0 -1
    outer loop
      vertex 196.794 -66.354 0
      vertex 169.457 -123.48 0
      vertex 179.934 -62.4254 0
    endloop
  endfacet
  facet normal 0 -0 -1
    outer loop
      vertex 217.285 -87.8982 0
      vertex 218.855 -95.6079 0
      vertex 169.457 -123.48 0
    endloop
  endfacet
  facet normal 0 0 -1
    outer loop
      vertex 228.823 -124.723 0
      vertex 169.457 -123.48 0
      vertex 223.686 -111.628 0
    endloop
  endfacet
  facet normal 0 0 -1
    outer loop
      vertex 169.457 -123.48 0
      vertex 218.855 -95.6079 0
      vertex 223.686 -111.628 0
    endloop
  endfacet
  facet normal -0 0 1
    outer loop
      vertex 143.527 -64.3198 4
      vertex 169.457 -123.48 4
      vertex 171.332 -59.2173 4
    endloop
  endfacet
  facet normal 0 0 1
    outer loop
      vertex 159.829 -53.1539 4
      vertex 151.166 -47.5289 4
      vertex 146.831 -58.6882 4
    endloop
  endfacet
  facet normal 0 -0 1
    outer loop
      vertex 118.273 -106.768 4
      vertex 143.527 -64.3198 4
      vertex 108.823 -92.3998 4
    endloop
  endfacet
  facet normal 0 0 1
    outer loop
      vertex 217.285 -87.8982 4
      vertex 211.519 -68.8018 4
      vertex 196.794 -66.354 4
    endloop
  endfacet
  facet normal 0 0 1
    outer loop
      vertex 217.285 -87.8982 4
      vertex 196.794 -66.354 4
      vertex 169.457 -123.48 4
    endloop
  endfacet
  facet normal 0 0 1
    outer loop
      vertex 151.166 -47.5289 4
      vertex 150.53 -47.0594 4
      vertex 146.831 -58.6882 4
    endloop
  endfacet
  facet normal 0 0 1
    outer loop
      vertex 146.831 -58.6882 4
      vertex 143.527 -64.3198 4
      vertex 171.332 -59.2173 4
    endloop
  endfacet
  facet normal 0 0 1
    outer loop
      vertex 152.374 -123.171 4
      vertex 140.039 -119.761 4
      vertex 147.71 -122.657 4
    endloop
  endfacet
  facet normal 0 0 1
    outer loop
      vertex 171.332 -59.2173 4
      vertex 159.829 -53.1539 4
      vertex 146.831 -58.6882 4
    endloop
  endfacet
  facet normal -0 0 1
    outer loop
      vertex 83.6023 -51.2447 4
      vertex 92.0459 -57.7258 4
      vertex 102.806 -38.5453 4
    endloop
  endfacet
  facet normal 0 -0 1
    outer loop
      vertex -83.5381 9.54593 4
      vertex -73.099 11.4735 4
      vertex -109.025 109.387 4
    endloop
  endfacet
  facet normal 0 0 1
    outer loop
      vertex 143.527 -64.3198 4
      vertex 118.273 -106.768 4
      vertex 133.505 -115.9 4
    endloop
  endfacet
  facet normal 0 0 1
    outer loop
      vertex -194.94 84.8324 4
      vertex -185.378 97.742 4
      vertex -188.851 94.0313 4
    endloop
  endfacet
  facet normal 0 -0 1
    outer loop
      vertex 106.806 -83.0132 4
      vertex 143.527 -64.3198 4
      vertex 104.972 -78.3617 4
    endloop
  endfacet
  facet normal -0 0 1
    outer loop
      vertex 92.0459 -57.7258 4
      vertex 97.42 -64.3056 4
      vertex 104.849 -50.9734 4
    endloop
  endfacet
  facet normal 0 0 1
    outer loop
      vertex 37.8756 41.3188 4
      vertex 17.4738 0.539429 4
      vertex 26.2214 -1.3644 4
    endloop
  endfacet
  facet normal 0 0 1
    outer loop
      vertex 108.003 -50.4673 4
      vertex 104.849 -50.9734 4
      vertex 113.198 -54.4532 4
    endloop
  endfacet
  facet normal -0 0 1
    outer loop
      vertex 45.6798 -20.2972 4
      vertex 50.0738 -24.9799 4
      vertex 57.351 17.3719 4
    endloop
  endfacet
  facet normal 0 -0 1
    outer loop
      vertex 45.6798 -20.2972 4
      vertex 57.351 17.3719 4
      vertex 36.1079 -13.4166 4
    endloop
  endfacet
  facet normal 0 0 1
    outer loop
      vertex 48.3142 33.1665 4
      vertex 37.8756 41.3188 4
      vertex 26.2214 -1.3644 4
    endloop
  endfacet
  facet normal 0 -0 1
    outer loop
      vertex 9.34116 5.58624 4
      vertex 37.8756 41.3188 4
      vertex 6.2984 6.57957 4
    endloop
  endfacet
  facet normal 0 -0 1
    outer loop
      vertex 36.1079 -13.4166 4
      vertex 57.351 17.3719 4
      vertex 31.6718 -5.06516 4
    endloop
  endfacet
  facet normal 0 0 1
    outer loop
      vertex 62.3437 23.3354 4
      vertex 48.3142 33.1665 4
      vertex 57.351 17.3719 4
    endloop
  endfacet
  facet normal 0 -0 1
    outer loop
      vertex -61.0671 10.9358 4
      vertex -50.2951 100.426 4
      vertex -73.099 11.4735 4
    endloop
  endfacet
  facet normal 0 -0 1
    outer loop
      vertex -167.291 -19.9908 4
      vertex -89.2023 7.72531 4
      vertex -174.658 -11.0675 4
    endloop
  endfacet
  facet normal 0 0 1
    outer loop
      vertex -89.2023 7.72531 4
      vertex -130.981 109.063 4
      vertex -196.443 38.6864 4
    endloop
  endfacet
  facet normal -0 -0 1
    outer loop
      vertex -201.601 48.3536 4
      vertex -198.496 43.8636 4
      vertex -203.333 55.5051 4
    endloop
  endfacet
  facet normal 0 0 1
    outer loop
      vertex -194.94 84.8324 4
      vertex -201.045 73.5351 4
      vertex -198.496 43.8636 4
    endloop
  endfacet
  facet normal 0 0 1
    outer loop
      vertex -198.496 43.8636 4
      vertex -201.045 73.5351 4
      vertex -203.333 55.5051 4
    endloop
  endfacet
  facet normal -0 0 1
    outer loop
      vertex -109.025 109.387 4
      vertex -50.2951 100.426 4
      vertex -104.461 120.204 4
    endloop
  endfacet
  facet normal 0 0 1
    outer loop
      vertex -130.981 109.063 4
      vertex -185.378 97.742 4
      vertex -194.94 84.8324 4
    endloop
  endfacet
  facet normal 0 0 1
    outer loop
      vertex -146.093 114.852 4
      vertex -185.378 97.742 4
      vertex -130.981 109.063 4
    endloop
  endfacet
  facet normal 0 0 1
    outer loop
      vertex -130.981 109.063 4
      vertex -120.213 112.387 4
      vertex -124.398 111.9 4
    endloop
  endfacet
  facet normal 0 0 1
    outer loop
      vertex -109.025 109.387 4
      vertex -120.213 112.387 4
      vertex -130.981 109.063 4
    endloop
  endfacet
  facet normal 0 0 1
    outer loop
      vertex -177.771 108.612 4
      vertex -181.713 105.088 4
      vertex -185.378 97.742 4
    endloop
  endfacet
  facet normal -0 0 1
    outer loop
      vertex -157.576 115.482 4
      vertex -146.093 114.852 4
      vertex -153.507 115.884 4
    endloop
  endfacet
  facet normal 0 0 1
    outer loop
      vertex -167.427 112.554 4
      vertex -146.093 114.852 4
      vertex -157.576 115.482 4
    endloop
  endfacet
  facet normal 0 0 1
    outer loop
      vertex -185.378 97.742 4
      vertex -146.093 114.852 4
      vertex -167.427 112.554 4
    endloop
  endfacet
  facet normal 0 0 1
    outer loop
      vertex -181.713 105.088 4
      vertex -184.802 100.454 4
      vertex -185.378 97.742 4
    endloop
  endfacet
  facet normal -0 0 1
    outer loop
      vertex -177.771 108.612 4
      vertex -185.378 97.742 4
      vertex -167.427 112.554 4
    endloop
  endfacet
  facet normal 0 0 1
    outer loop
      vertex -201.045 73.5351 4
      vertex -203.656 65.4103 4
      vertex -203.333 55.5051 4
    endloop
  endfacet
  facet normal -0 0 1
    outer loop
      vertex -198.496 43.8636 4
      vertex -196.443 38.6864 4
      vertex -194.94 84.8324 4
    endloop
  endfacet
  facet normal 0 0 1
    outer loop
      vertex -196.443 38.6864 4
      vertex -130.981 109.063 4
      vertex -194.94 84.8324 4
    endloop
  endfacet
  facet normal 0 -0 1
    outer loop
      vertex -184.228 3.58273 4
      vertex -89.2023 7.72531 4
      vertex -196.443 38.6864 4
    endloop
  endfacet
  facet normal 0 0 1
    outer loop
      vertex -180.812 -8.82777 4
      vertex -179.149 -10.7379 4
      vertex -174.658 -11.0675 4
    endloop
  endfacet
  facet normal -0 -0 1
    outer loop
      vertex -180.812 -8.82777 4
      vertex -174.658 -11.0675 4
      vertex -184.228 3.58273 4
    endloop
  endfacet
  facet normal 0 -0 1
    outer loop
      vertex -174.658 -11.0675 4
      vertex -89.2023 7.72531 4
      vertex -184.228 3.58273 4
    endloop
  endfacet
  facet normal -0 -0 1
    outer loop
      vertex -172.494 -15.3627 4
      vertex -167.291 -19.9908 4
      vertex -174.658 -11.0675 4
    endloop
  endfacet
  facet normal -0 0 1
    outer loop
      vertex -130.981 109.063 4
      vertex -89.2023 7.72531 4
      vertex -109.025 109.387 4
    endloop
  endfacet
  facet normal 0 -0 1
    outer loop
      vertex -89.2023 7.72531 4
      vertex -83.5381 9.54593 4
      vertex -109.025 109.387 4
    endloop
  endfacet
  facet normal 0 0 1
    outer loop
      vertex -109.025 109.387 4
      vertex -73.099 11.4735 4
      vertex -50.2951 100.426 4
    endloop
  endfacet
  facet normal 0 0 1
    outer loop
      vertex -50.2951 100.426 4
      vertex -61.0671 10.9358 4
      vertex -40.1411 96.317 4
    endloop
  endfacet
  facet normal 0 0 1
    outer loop
      vertex -61.0671 10.9358 4
      vertex -34.7612 15.6535 4
      vertex -40.1411 96.317 4
    endloop
  endfacet
  facet normal 0 0 1
    outer loop
      vertex -34.7612 15.6535 4
      vertex -3.06993 75.9448 4
      vertex -9.401 80.6584 4
    endloop
  endfacet
  facet normal 0 0 1
    outer loop
      vertex -42.456 -2.4207 4
      vertex -51.2401 8.72997 4
      vertex -42.3322 -6.00531 4
    endloop
  endfacet
  facet normal 0 0 1
    outer loop
      vertex 92.0459 -57.7258 4
      vertex 104.849 -50.9734 4
      vertex 102.806 -38.5453 4
    endloop
  endfacet
  facet normal 0 -0 1
    outer loop
      vertex -51.2401 8.72997 4
      vertex -34.7612 15.6535 4
      vertex -61.0671 10.9358 4
    endloop
  endfacet
  facet normal 0 0 1
    outer loop
      vertex -18.0714 86.1208 4
      vertex -24.3958 89.3624 4
      vertex -34.7612 15.6535 4
    endloop
  endfacet
  facet normal 0 -0 1
    outer loop
      vertex -34.7612 15.6535 4
      vertex -24.3958 89.3624 4
      vertex -40.1411 96.317 4
    endloop
  endfacet
  facet normal 0 0 1
    outer loop
      vertex -18.0714 86.1208 4
      vertex -34.7612 15.6535 4
      vertex -9.401 80.6584 4
    endloop
  endfacet
  facet normal 0 0 1
    outer loop
      vertex 21.1917 55.2705 4
      vertex -3.06993 75.9448 4
      vertex -28.6862 14.6979 4
    endloop
  endfacet
  facet normal 0 0 1
    outer loop
      vertex 21.1917 55.2705 4
      vertex -28.6862 14.6979 4
      vertex 6.2984 6.57957 4
    endloop
  endfacet
  facet normal 0 0 1
    outer loop
      vertex 45.6798 -20.2972 4
      vertex 36.1079 -13.4166 4
      vertex 41.2787 -19.1809 4
    endloop
  endfacet
  facet normal 0 0 1
    outer loop
      vertex -34.7612 15.6535 4
      vertex -51.2401 8.72997 4
      vertex -42.456 -2.4207 4
    endloop
  endfacet
  facet normal 0 -0 1
    outer loop
      vertex -28.6862 14.6979 4
      vertex -3.06993 75.9448 4
      vertex -34.7612 15.6535 4
    endloop
  endfacet
  facet normal 0 0 1
    outer loop
      vertex 6.2984 6.57957 4
      vertex 37.8756 41.3188 4
      vertex 21.1917 55.2705 4
    endloop
  endfacet
  facet normal 0 -0 1
    outer loop
      vertex -29.0823 13.0775 4
      vertex -28.6862 14.6979 4
      vertex -34.7612 15.6535 4
    endloop
  endfacet
  facet normal -0 0 1
    outer loop
      vertex 9.34116 5.58624 4
      vertex 17.4738 0.539429 4
      vertex 37.8756 41.3188 4
    endloop
  endfacet
  facet normal -0 0 1
    outer loop
      vertex 26.2214 -1.3644 4
      vertex 31.6718 -5.06516 4
      vertex 57.351 17.3719 4
    endloop
  endfacet
  facet normal 0 0 1
    outer loop
      vertex 41.2787 -19.1809 4
      vertex 36.1079 -13.4166 4
      vertex 36.6195 -18.2402 4
    endloop
  endfacet
  facet normal 0 0 1
    outer loop
      vertex 48.3142 33.1665 4
      vertex 26.2214 -1.3644 4
      vertex 57.351 17.3719 4
    endloop
  endfacet
  facet normal 0 -0 1
    outer loop
      vertex 71.4852 -40.4506 4
      vertex 95.0872 -19.2059 4
      vertex 59.2728 -32.6227 4
    endloop
  endfacet
  facet normal 0 0 1
    outer loop
      vertex 99.0718 -26.1789 4
      vertex 95.0872 -19.2059 4
      vertex 71.4852 -40.4506 4
    endloop
  endfacet
  facet normal -0 0 1
    outer loop
      vertex 50.0738 -24.9799 4
      vertex 59.2728 -32.6227 4
      vertex 94.6602 -13.6736 4
    endloop
  endfacet
  facet normal 0 0 1
    outer loop
      vertex 57.351 17.3719 4
      vertex 50.0738 -24.9799 4
      vertex 94.6602 -13.6736 4
    endloop
  endfacet
  facet normal 0 0 1
    outer loop
      vertex 59.2728 -32.6227 4
      vertex 95.0872 -19.2059 4
      vertex 94.6602 -13.6736 4
    endloop
  endfacet
  facet normal 0 0 1
    outer loop
      vertex 99.0718 -26.1789 4
      vertex 71.4852 -40.4506 4
      vertex 101.156 -31.4539 4
    endloop
  endfacet
  facet normal -0 0 1
    outer loop
      vertex 71.4852 -40.4506 4
      vertex 83.6023 -51.2447 4
      vertex 101.156 -31.4539 4
    endloop
  endfacet
  facet normal 0 0 1
    outer loop
      vertex 102.806 -38.5453 4
      vertex 101.156 -31.4539 4
      vertex 83.6023 -51.2447 4
    endloop
  endfacet
  facet normal 0 0 1
    outer loop
      vertex 97.42 -64.3056 4
      vertex 113.198 -54.4532 4
      vertex 104.849 -50.9734 4
    endloop
  endfacet
  facet normal 0 -0 1
    outer loop
      vertex 104.972 -78.3617 4
      vertex 113.198 -54.4532 4
      vertex 97.42 -64.3056 4
    endloop
  endfacet
  facet normal 0 0 1
    outer loop
      vertex 143.527 -64.3198 4
      vertex 113.198 -54.4532 4
      vertex 104.972 -78.3617 4
    endloop
  endfacet
  facet normal 0 -0 1
    outer loop
      vertex 108.823 -92.3998 4
      vertex 143.527 -64.3198 4
      vertex 106.806 -83.0132 4
    endloop
  endfacet
  facet normal -0 -0 1
    outer loop
      vertex 112.419 -100.73 4
      vertex 118.273 -106.768 4
      vertex 108.823 -92.3998 4
    endloop
  endfacet
  facet normal 0 0 1
    outer loop
      vertex 143.527 -64.3198 4
      vertex 133.505 -115.9 4
      vertex 140.039 -119.761 4
    endloop
  endfacet
  facet normal 0 0 1
    outer loop
      vertex 152.374 -123.171 4
      vertex 143.527 -64.3198 4
      vertex 140.039 -119.761 4
    endloop
  endfacet
  facet normal 0 0 1
    outer loop
      vertex 169.457 -123.48 4
      vertex 143.527 -64.3198 4
      vertex 152.374 -123.171 4
    endloop
  endfacet
  facet normal 0 0 1
    outer loop
      vertex 179.934 -62.4254 4
      vertex 171.332 -59.2173 4
      vertex 169.457 -123.48 4
    endloop
  endfacet
  facet normal 0 0 1
    outer loop
      vertex 179.934 -62.4254 4
      vertex 169.457 -123.48 4
      vertex 196.794 -66.354 4
    endloop
  endfacet
  facet normal 0 0 1
    outer loop
      vertex 169.457 -123.48 4
      vertex 218.855 -95.6079 4
      vertex 217.285 -87.8982 4
    endloop
  endfacet
  facet normal 0 0 1
    outer loop
      vertex 223.686 -111.628 4
      vertex 169.457 -123.48 4
      vertex 228.823 -124.723 4
    endloop
  endfacet
  facet normal 0 0 1
    outer loop
      vertex 223.686 -111.628 4
      vertex 218.855 -95.6079 4
      vertex 169.457 -123.48 4
    endloop
  endfacet
  facet normal 0.957415 0.288717 0
    outer loop
      vertex 218.855 -95.6079 0
      vertex 223.686 -111.628 4
      vertex 223.686 -111.628 0
    endloop
  endfacet
  facet normal 0.957415 0.288717 -0
    outer loop
      vertex 218.855 -95.6079 0
      vertex 218.855 -95.6079 4
      vertex 223.686 -111.628 4
    endloop
  endfacet
  facet normal 0.979889 0.199544 0
    outer loop
      vertex 217.285 -87.8982 0
      vertex 218.855 -95.6079 4
      vertex 218.855 -95.6079 0
    endloop
  endfacet
  facet normal 0.979889 0.199544 -0
    outer loop
      vertex 217.285 -87.8982 0
      vertex 217.285 -87.8982 4
      vertex 218.855 -95.6079 4
    endloop
  endfacet
  facet normal 0.957313 0.289053 0
    outer loop
      vertex 211.519 -68.8018 0
      vertex 217.285 -87.8982 4
      vertex 217.285 -87.8982 0
    endloop
  endfacet
  facet normal 0.957313 0.289053 -0
    outer loop
      vertex 211.519 -68.8018 0
      vertex 211.519 -68.8018 4
      vertex 217.285 -87.8982 4
    endloop
  endfacet
  facet normal 0.163984 0.986463 0
    outer loop
      vertex 196.794 -66.354 0
      vertex 211.519 -68.8018 4
      vertex 211.519 -68.8018 0
    endloop
  endfacet
  facet normal 0.163984 0.986463 -0
    outer loop
      vertex 196.794 -66.354 0
      vertex 196.794 -66.354 4
      vertex 211.519 -68.8018 4
    endloop
  endfacet
  facet normal 0.226934 0.97391 0
    outer loop
      vertex 179.934 -62.4254 0
      vertex 196.794 -66.354 4
      vertex 196.794 -66.354 0
    endloop
  endfacet
  facet normal 0.226934 0.97391 -0
    outer loop
      vertex 179.934 -62.4254 0
      vertex 179.934 -62.4254 4
      vertex 196.794 -66.354 4
    endloop
  endfacet
  facet normal 0.349437 0.93696 0
    outer loop
      vertex 171.332 -59.2173 0
      vertex 179.934 -62.4254 4
      vertex 179.934 -62.4254 0
    endloop
  endfacet
  facet normal 0.349437 0.93696 -0
    outer loop
      vertex 171.332 -59.2173 0
      vertex 171.332 -59.2173 4
      vertex 179.934 -62.4254 4
    endloop
  endfacet
  facet normal 0.4663 0.884627 0
    outer loop
      vertex 159.829 -53.1539 0
      vertex 171.332 -59.2173 4
      vertex 171.332 -59.2173 0
    endloop
  endfacet
  facet normal 0.4663 0.884627 -0
    outer loop
      vertex 159.829 -53.1539 0
      vertex 159.829 -53.1539 4
      vertex 171.332 -59.2173 4
    endloop
  endfacet
  facet normal 0.544583 0.838707 0
    outer loop
      vertex 151.166 -47.5289 0
      vertex 159.829 -53.1539 4
      vertex 159.829 -53.1539 0
    endloop
  endfacet
  facet normal 0.544583 0.838707 -0
    outer loop
      vertex 151.166 -47.5289 0
      vertex 151.166 -47.5289 4
      vertex 159.829 -53.1539 4
    endloop
  endfacet
  facet normal 0.593911 0.804531 0
    outer loop
      vertex 150.53 -47.0594 0
      vertex 151.166 -47.5289 4
      vertex 151.166 -47.5289 0
    endloop
  endfacet
  facet normal 0.593911 0.804531 -0
    outer loop
      vertex 150.53 -47.0594 0
      vertex 150.53 -47.0594 4
      vertex 151.166 -47.5289 4
    endloop
  endfacet
  facet normal -0.952951 0.303124 0
    outer loop
      vertex 146.831 -58.6882 0
      vertex 150.53 -47.0594 4
      vertex 150.53 -47.0594 0
    endloop
  endfacet
  facet normal -0.952951 0.303124 0
    outer loop
      vertex 146.831 -58.6882 0
      vertex 146.831 -58.6882 4
      vertex 150.53 -47.0594 4
    endloop
  endfacet
  facet normal -0.862516 0.506029 0
    outer loop
      vertex 143.527 -64.3198 0
      vertex 146.831 -58.6882 4
      vertex 146.831 -58.6882 0
    endloop
  endfacet
  facet normal -0.862516 0.506029 0
    outer loop
      vertex 143.527 -64.3198 0
      vertex 143.527 -64.3198 4
      vertex 146.831 -58.6882 4
    endloop
  endfacet
  facet normal 0.30936 0.950945 0
    outer loop
      vertex 113.198 -54.4532 0
      vertex 143.527 -64.3198 4
      vertex 143.527 -64.3198 0
    endloop
  endfacet
  facet normal 0.30936 0.950945 -0
    outer loop
      vertex 113.198 -54.4532 0
      vertex 113.198 -54.4532 4
      vertex 143.527 -64.3198 4
    endloop
  endfacet
  facet normal 0.608726 0.79338 0
    outer loop
      vertex 108.003 -50.4673 0
      vertex 113.198 -54.4532 4
      vertex 113.198 -54.4532 0
    endloop
  endfacet
  facet normal 0.608726 0.79338 -0
    outer loop
      vertex 108.003 -50.4673 0
      vertex 108.003 -50.4673 4
      vertex 113.198 -54.4532 4
    endloop
  endfacet
  facet normal -0.158436 0.987369 0
    outer loop
      vertex 104.849 -50.9734 0
      vertex 108.003 -50.4673 4
      vertex 108.003 -50.4673 0
    endloop
  endfacet
  facet normal -0.158436 0.987369 0
    outer loop
      vertex 104.849 -50.9734 0
      vertex 104.849 -50.9734 4
      vertex 108.003 -50.4673 4
    endloop
  endfacet
  facet normal 0.986757 0.162209 0
    outer loop
      vertex 102.806 -38.5453 0
      vertex 104.849 -50.9734 4
      vertex 104.849 -50.9734 0
    endloop
  endfacet
  facet normal 0.986757 0.162209 -0
    outer loop
      vertex 102.806 -38.5453 0
      vertex 102.806 -38.5453 4
      vertex 104.849 -50.9734 4
    endloop
  endfacet
  facet normal 0.973983 0.226623 0
    outer loop
      vertex 101.156 -31.4539 0
      vertex 102.806 -38.5453 4
      vertex 102.806 -38.5453 0
    endloop
  endfacet
  facet normal 0.973983 0.226623 -0
    outer loop
      vertex 101.156 -31.4539 0
      vertex 101.156 -31.4539 4
      vertex 102.806 -38.5453 4
    endloop
  endfacet
  facet normal 0.930037 0.367466 0
    outer loop
      vertex 99.0718 -26.1789 0
      vertex 101.156 -31.4539 4
      vertex 101.156 -31.4539 0
    endloop
  endfacet
  facet normal 0.930037 0.367466 -0
    outer loop
      vertex 99.0718 -26.1789 0
      vertex 99.0718 -26.1789 4
      vertex 101.156 -31.4539 4
    endloop
  endfacet
  facet normal 0.868242 0.496142 0
    outer loop
      vertex 95.0872 -19.2059 0
      vertex 99.0718 -26.1789 4
      vertex 99.0718 -26.1789 0
    endloop
  endfacet
  facet normal 0.868242 0.496142 -0
    outer loop
      vertex 95.0872 -19.2059 0
      vertex 95.0872 -19.2059 4
      vertex 99.0718 -26.1789 4
    endloop
  endfacet
  facet normal 0.997035 0.0769542 0
    outer loop
      vertex 94.6602 -13.6736 0
      vertex 95.0872 -19.2059 4
      vertex 95.0872 -19.2059 0
    endloop
  endfacet
  facet normal 0.997035 0.0769542 -0
    outer loop
      vertex 94.6602 -13.6736 0
      vertex 94.6602 -13.6736 4
      vertex 95.0872 -19.2059 4
    endloop
  endfacet
  facet normal 0.639631 0.768682 0
    outer loop
      vertex 57.351 17.3719 0
      vertex 94.6602 -13.6736 4
      vertex 94.6602 -13.6736 0
    endloop
  endfacet
  facet normal 0.639631 0.768682 -0
    outer loop
      vertex 57.351 17.3719 0
      vertex 57.351 17.3719 4
      vertex 94.6602 -13.6736 4
    endloop
  endfacet
  facet normal 0.766758 -0.641937 0
    outer loop
      vertex 62.3437 23.3354 0
      vertex 57.351 17.3719 4
      vertex 57.351 17.3719 0
    endloop
  endfacet
  facet normal 0.766758 -0.641937 0
    outer loop
      vertex 62.3437 23.3354 0
      vertex 62.3437 23.3354 4
      vertex 57.351 17.3719 4
    endloop
  endfacet
  facet normal 0.573872 0.818945 0
    outer loop
      vertex 48.3142 33.1665 0
      vertex 62.3437 23.3354 4
      vertex 62.3437 23.3354 0
    endloop
  endfacet
  facet normal 0.573872 0.818945 -0
    outer loop
      vertex 48.3142 33.1665 0
      vertex 48.3142 33.1665 4
      vertex 62.3437 23.3354 4
    endloop
  endfacet
  facet normal 0.61551 0.788129 0
    outer loop
      vertex 37.8756 41.3188 0
      vertex 48.3142 33.1665 4
      vertex 48.3142 33.1665 0
    endloop
  endfacet
  facet normal 0.61551 0.788129 -0
    outer loop
      vertex 37.8756 41.3188 0
      vertex 37.8756 41.3188 4
      vertex 48.3142 33.1665 4
    endloop
  endfacet
  facet normal 0.641498 0.767125 0
    outer loop
      vertex 21.1917 55.2705 0
      vertex 37.8756 41.3188 4
      vertex 37.8756 41.3188 0
    endloop
  endfacet
  facet normal 0.641498 0.767125 -0
    outer loop
      vertex 21.1917 55.2705 0
      vertex 21.1917 55.2705 4
      vertex 37.8756 41.3188 4
    endloop
  endfacet
  facet normal 0.648593 0.761135 0
    outer loop
      vertex -3.06993 75.9448 0
      vertex 21.1917 55.2705 4
      vertex 21.1917 55.2705 0
    endloop
  endfacet
  facet normal 0.648593 0.761135 -0
    outer loop
      vertex -3.06993 75.9448 0
      vertex -3.06993 75.9448 4
      vertex 21.1917 55.2705 4
    endloop
  endfacet
  facet normal 0.597182 0.802105 0
    outer loop
      vertex -9.401 80.6584 0
      vertex -3.06993 75.9448 4
      vertex -3.06993 75.9448 0
    endloop
  endfacet
  facet normal 0.597182 0.802105 -0
    outer loop
      vertex -9.401 80.6584 0
      vertex -9.401 80.6584 4
      vertex -3.06993 75.9448 4
    endloop
  endfacet
  facet normal 0.533041 0.846089 0
    outer loop
      vertex -18.0714 86.1208 0
      vertex -9.401 80.6584 4
      vertex -9.401 80.6584 0
    endloop
  endfacet
  facet normal 0.533041 0.846089 -0
    outer loop
      vertex -18.0714 86.1208 0
      vertex -18.0714 86.1208 4
      vertex -9.401 80.6584 4
    endloop
  endfacet
  facet normal 0.456129 0.889914 0
    outer loop
      vertex -24.3958 89.3624 0
      vertex -18.0714 86.1208 4
      vertex -18.0714 86.1208 0
    endloop
  endfacet
  facet normal 0.456129 0.889914 -0
    outer loop
      vertex -24.3958 89.3624 0
      vertex -24.3958 89.3624 4
      vertex -18.0714 86.1208 4
    endloop
  endfacet
  facet normal 0.404036 0.914743 0
    outer loop
      vertex -40.1411 96.317 0
      vertex -24.3958 89.3624 4
      vertex -24.3958 89.3624 0
    endloop
  endfacet
  facet normal 0.404036 0.914743 -0
    outer loop
      vertex -40.1411 96.317 0
      vertex -40.1411 96.317 4
      vertex -24.3958 89.3624 4
    endloop
  endfacet
  facet normal 0.375118 0.926977 0
    outer loop
      vertex -50.2951 100.426 0
      vertex -40.1411 96.317 4
      vertex -40.1411 96.317 0
    endloop
  endfacet
  facet normal 0.375118 0.926977 -0
    outer loop
      vertex -50.2951 100.426 0
      vertex -50.2951 100.426 4
      vertex -40.1411 96.317 4
    endloop
  endfacet
  facet normal 0.342988 0.93934 0
    outer loop
      vertex -104.461 120.204 0
      vertex -50.2951 100.426 4
      vertex -50.2951 100.426 0
    endloop
  endfacet
  facet normal 0.342988 0.93934 -0
    outer loop
      vertex -104.461 120.204 0
      vertex -104.461 120.204 4
      vertex -50.2951 100.426 4
    endloop
  endfacet
  facet normal -0.921347 0.388742 0
    outer loop
      vertex -109.025 109.387 0
      vertex -104.461 120.204 4
      vertex -104.461 120.204 0
    endloop
  endfacet
  facet normal -0.921347 0.388742 0
    outer loop
      vertex -109.025 109.387 0
      vertex -109.025 109.387 4
      vertex -104.461 120.204 4
    endloop
  endfacet
  facet normal 0.258995 0.965879 0
    outer loop
      vertex -120.213 112.387 0
      vertex -109.025 109.387 4
      vertex -109.025 109.387 0
    endloop
  endfacet
  facet normal 0.258995 0.965879 -0
    outer loop
      vertex -120.213 112.387 0
      vertex -120.213 112.387 4
      vertex -109.025 109.387 4
    endloop
  endfacet
  facet normal -0.115588 0.993297 0
    outer loop
      vertex -124.398 111.9 0
      vertex -120.213 112.387 4
      vertex -120.213 112.387 0
    endloop
  endfacet
  facet normal -0.115588 0.993297 0
    outer loop
      vertex -124.398 111.9 0
      vertex -124.398 111.9 4
      vertex -120.213 112.387 4
    endloop
  endfacet
  facet normal -0.395771 0.918349 0
    outer loop
      vertex -130.981 109.063 0
      vertex -124.398 111.9 4
      vertex -124.398 111.9 0
    endloop
  endfacet
  facet normal -0.395771 0.918349 0
    outer loop
      vertex -130.981 109.063 0
      vertex -130.981 109.063 4
      vertex -124.398 111.9 4
    endloop
  endfacet
  facet normal 0.357724 0.933827 0
    outer loop
      vertex -146.093 114.852 0
      vertex -130.981 109.063 4
      vertex -130.981 109.063 0
    endloop
  endfacet
  facet normal 0.357724 0.933827 -0
    outer loop
      vertex -146.093 114.852 0
      vertex -146.093 114.852 4
      vertex -130.981 109.063 4
    endloop
  endfacet
  facet normal 0.137867 0.990451 0
    outer loop
      vertex -153.507 115.884 0
      vertex -146.093 114.852 4
      vertex -146.093 114.852 0
    endloop
  endfacet
  facet normal 0.137867 0.990451 -0
    outer loop
      vertex -153.507 115.884 0
      vertex -153.507 115.884 4
      vertex -146.093 114.852 4
    endloop
  endfacet
  facet normal -0.0983171 0.995155 0
    outer loop
      vertex -157.576 115.482 0
      vertex -153.507 115.884 4
      vertex -153.507 115.884 0
    endloop
  endfacet
  facet normal -0.0983171 0.995155 0
    outer loop
      vertex -157.576 115.482 0
      vertex -157.576 115.482 4
      vertex -153.507 115.884 4
    endloop
  endfacet
  facet normal -0.28491 0.958554 0
    outer loop
      vertex -167.427 112.554 0
      vertex -157.576 115.482 4
      vertex -157.576 115.482 0
    endloop
  endfacet
  facet normal -0.28491 0.958554 0
    outer loop
      vertex -167.427 112.554 0
      vertex -167.427 112.554 4
      vertex -157.576 115.482 4
    endloop
  endfacet
  facet normal -0.356108 0.934445 0
    outer loop
      vertex -177.771 108.612 0
      vertex -167.427 112.554 4
      vertex -167.427 112.554 0
    endloop
  endfacet
  facet normal -0.356108 0.934445 0
    outer loop
      vertex -177.771 108.612 0
      vertex -177.771 108.612 4
      vertex -167.427 112.554 4
    endloop
  endfacet
  facet normal -0.666474 0.745528 0
    outer loop
      vertex -181.713 105.088 0
      vertex -177.771 108.612 4
      vertex -177.771 108.612 0
    endloop
  endfacet
  facet normal -0.666474 0.745528 0
    outer loop
      vertex -181.713 105.088 0
      vertex -181.713 105.088 4
      vertex -177.771 108.612 4
    endloop
  endfacet
  facet normal -0.832078 0.554659 0
    outer loop
      vertex -184.802 100.454 0
      vertex -181.713 105.088 4
      vertex -181.713 105.088 0
    endloop
  endfacet
  facet normal -0.832078 0.554659 0
    outer loop
      vertex -184.802 100.454 0
      vertex -184.802 100.454 4
      vertex -181.713 105.088 4
    endloop
  endfacet
  facet normal -0.978181 0.207755 0
    outer loop
      vertex -185.378 97.742 0
      vertex -184.802 100.454 4
      vertex -184.802 100.454 0
    endloop
  endfacet
  facet normal -0.978181 0.207755 0
    outer loop
      vertex -185.378 97.742 0
      vertex -185.378 97.742 4
      vertex -184.802 100.454 4
    endloop
  endfacet
  facet normal -0.730105 0.683335 0
    outer loop
      vertex -188.851 94.0313 0
      vertex -185.378 97.742 4
      vertex -185.378 97.742 0
    endloop
  endfacet
  facet normal -0.730105 0.683335 0
    outer loop
      vertex -188.851 94.0313 0
      vertex -188.851 94.0313 4
      vertex -185.378 97.742 4
    endloop
  endfacet
  facet normal -0.83387 0.551961 0
    outer loop
      vertex -194.94 84.8324 0
      vertex -188.851 94.0313 4
      vertex -188.851 94.0313 0
    endloop
  endfacet
  facet normal -0.83387 0.551961 0
    outer loop
      vertex -194.94 84.8324 0
      vertex -194.94 84.8324 4
      vertex -188.851 94.0313 4
    endloop
  endfacet
  facet normal -0.87976 0.475418 0
    outer loop
      vertex -201.045 73.5351 0
      vertex -194.94 84.8324 4
      vertex -194.94 84.8324 0
    endloop
  endfacet
  facet normal -0.87976 0.475418 0
    outer loop
      vertex -201.045 73.5351 0
      vertex -201.045 73.5351 4
      vertex -194.94 84.8324 4
    endloop
  endfacet
  facet normal -0.952047 0.305952 0
    outer loop
      vertex -203.656 65.4103 0
      vertex -201.045 73.5351 4
      vertex -201.045 73.5351 0
    endloop
  endfacet
  facet normal -0.952047 0.305952 0
    outer loop
      vertex -203.656 65.4103 0
      vertex -203.656 65.4103 4
      vertex -201.045 73.5351 4
    endloop
  endfacet
  facet normal -0.999469 -0.0325918 0
    outer loop
      vertex -203.333 55.5051 0
      vertex -203.656 65.4103 4
      vertex -203.656 65.4103 0
    endloop
  endfacet
  facet normal -0.999469 -0.0325918 0
    outer loop
      vertex -203.333 55.5051 0
      vertex -203.333 55.5051 4
      vertex -203.656 65.4103 4
    endloop
  endfacet
  facet normal -0.971903 -0.235382 0
    outer loop
      vertex -201.601 48.3536 0
      vertex -203.333 55.5051 4
      vertex -203.333 55.5051 0
    endloop
  endfacet
  facet normal -0.971903 -0.235382 0
    outer loop
      vertex -201.601 48.3536 0
      vertex -201.601 48.3536 4
      vertex -203.333 55.5051 4
    endloop
  endfacet
  facet normal -0.822489 -0.568781 0
    outer loop
      vertex -198.496 43.8636 0
      vertex -201.601 48.3536 4
      vertex -201.601 48.3536 0
    endloop
  endfacet
  facet normal -0.822489 -0.568781 0
    outer loop
      vertex -198.496 43.8636 0
      vertex -198.496 43.8636 4
      vertex -201.601 48.3536 4
    endloop
  endfacet
  facet normal -0.92958 -0.368621 0
    outer loop
      vertex -196.443 38.6864 0
      vertex -198.496 43.8636 4
      vertex -198.496 43.8636 0
    endloop
  endfacet
  facet normal -0.92958 -0.368621 0
    outer loop
      vertex -196.443 38.6864 0
      vertex -196.443 38.6864 4
      vertex -198.496 43.8636 4
    endloop
  endfacet
  facet normal -0.944455 -0.328641 0
    outer loop
      vertex -184.228 3.58273 0
      vertex -196.443 38.6864 4
      vertex -196.443 38.6864 0
    endloop
  endfacet
  facet normal -0.944455 -0.328641 0
    outer loop
      vertex -184.228 3.58273 0
      vertex -184.228 3.58273 4
      vertex -196.443 38.6864 4
    endloop
  endfacet
  facet normal -0.964144 -0.265381 0
    outer loop
      vertex -180.812 -8.82777 0
      vertex -184.228 3.58273 4
      vertex -184.228 3.58273 0
    endloop
  endfacet
  facet normal -0.964144 -0.265381 0
    outer loop
      vertex -180.812 -8.82777 0
      vertex -180.812 -8.82777 4
      vertex -184.228 3.58273 4
    endloop
  endfacet
  facet normal -0.754211 -0.656632 0
    outer loop
      vertex -179.149 -10.7379 0
      vertex -180.812 -8.82777 4
      vertex -180.812 -8.82777 0
    endloop
  endfacet
  facet normal -0.754211 -0.656632 0
    outer loop
      vertex -179.149 -10.7379 0
      vertex -179.149 -10.7379 4
      vertex -180.812 -8.82777 4
    endloop
  endfacet
  facet normal -0.0731944 -0.997318 0
    outer loop
      vertex -174.658 -11.0675 0
      vertex -179.149 -10.7379 4
      vertex -179.149 -10.7379 0
    endloop
  endfacet
  facet normal -0.0731944 -0.997318 0
    outer loop
      vertex -174.658 -11.0675 0
      vertex -174.658 -11.0675 4
      vertex -179.149 -10.7379 4
    endloop
  endfacet
  facet normal -0.893059 -0.449939 0
    outer loop
      vertex -172.494 -15.3627 0
      vertex -174.658 -11.0675 4
      vertex -174.658 -11.0675 0
    endloop
  endfacet
  facet normal -0.893059 -0.449939 0
    outer loop
      vertex -172.494 -15.3627 0
      vertex -172.494 -15.3627 4
      vertex -174.658 -11.0675 4
    endloop
  endfacet
  facet normal -0.664621 -0.74718 0
    outer loop
      vertex -167.291 -19.9908 0
      vertex -172.494 -15.3627 4
      vertex -172.494 -15.3627 0
    endloop
  endfacet
  facet normal -0.664621 -0.74718 0
    outer loop
      vertex -167.291 -19.9908 0
      vertex -167.291 -19.9908 4
      vertex -172.494 -15.3627 4
    endloop
  endfacet
  facet normal 0.334487 -0.9424 0
    outer loop
      vertex -89.2023 7.72531 0
      vertex -167.291 -19.9908 4
      vertex -167.291 -19.9908 0
    endloop
  endfacet
  facet normal 0.334487 -0.9424 0
    outer loop
      vertex -89.2023 7.72531 0
      vertex -89.2023 7.72531 4
      vertex -167.291 -19.9908 4
    endloop
  endfacet
  facet normal 0.306007 -0.952029 0
    outer loop
      vertex -83.5381 9.54593 0
      vertex -89.2023 7.72531 4
      vertex -89.2023 7.72531 0
    endloop
  endfacet
  facet normal 0.306007 -0.952029 0
    outer loop
      vertex -83.5381 9.54593 0
      vertex -83.5381 9.54593 4
      vertex -89.2023 7.72531 4
    endloop
  endfacet
  facet normal 0.18158 -0.983376 0
    outer loop
      vertex -73.099 11.4735 0
      vertex -83.5381 9.54593 4
      vertex -83.5381 9.54593 0
    endloop
  endfacet
  facet normal 0.18158 -0.983376 0
    outer loop
      vertex -73.099 11.4735 0
      vertex -73.099 11.4735 4
      vertex -83.5381 9.54593 4
    endloop
  endfacet
  facet normal -0.044645 -0.999003 0
    outer loop
      vertex -61.0671 10.9358 0
      vertex -73.099 11.4735 4
      vertex -73.099 11.4735 0
    endloop
  endfacet
  facet normal -0.044645 -0.999003 0
    outer loop
      vertex -61.0671 10.9358 0
      vertex -61.0671 10.9358 4
      vertex -73.099 11.4735 4
    endloop
  endfacet
  facet normal -0.219016 -0.975721 0
    outer loop
      vertex -51.2401 8.72997 0
      vertex -61.0671 10.9358 4
      vertex -61.0671 10.9358 0
    endloop
  endfacet
  facet normal -0.219016 -0.975721 0
    outer loop
      vertex -51.2401 8.72997 0
      vertex -51.2401 8.72997 4
      vertex -61.0671 10.9358 4
    endloop
  endfacet
  facet normal -0.855778 -0.517343 0
    outer loop
      vertex -42.3322 -6.00531 0
      vertex -51.2401 8.72997 4
      vertex -51.2401 8.72997 0
    endloop
  endfacet
  facet normal -0.855778 -0.517343 0
    outer loop
      vertex -42.3322 -6.00531 0
      vertex -42.3322 -6.00531 4
      vertex -51.2401 8.72997 4
    endloop
  endfacet
  facet normal 0.999404 0.034516 0
    outer loop
      vertex -42.456 -2.4207 0
      vertex -42.3322 -6.00531 4
      vertex -42.3322 -6.00531 0
    endloop
  endfacet
  facet normal 0.999404 0.034516 -0
    outer loop
      vertex -42.456 -2.4207 0
      vertex -42.456 -2.4207 4
      vertex -42.3322 -6.00531 4
    endloop
  endfacet
  facet normal 0.920088 -0.391713 0
    outer loop
      vertex -34.7612 15.6535 0
      vertex -42.456 -2.4207 4
      vertex -42.456 -2.4207 0
    endloop
  endfacet
  facet normal 0.920088 -0.391713 0
    outer loop
      vertex -34.7612 15.6535 0
      vertex -34.7612 15.6535 4
      vertex -42.456 -2.4207 4
    endloop
  endfacet
  facet normal -0.413096 -0.910687 0
    outer loop
      vertex -29.0823 13.0775 0
      vertex -34.7612 15.6535 4
      vertex -34.7612 15.6535 0
    endloop
  endfacet
  facet normal -0.413096 -0.910687 0
    outer loop
      vertex -29.0823 13.0775 0
      vertex -29.0823 13.0775 4
      vertex -34.7612 15.6535 4
    endloop
  endfacet
  facet normal 0.971399 -0.237454 0
    outer loop
      vertex -28.6862 14.6979 0
      vertex -29.0823 13.0775 4
      vertex -29.0823 13.0775 0
    endloop
  endfacet
  facet normal 0.971399 -0.237454 0
    outer loop
      vertex -28.6862 14.6979 0
      vertex -28.6862 14.6979 4
      vertex -29.0823 13.0775 4
    endloop
  endfacet
  facet normal -0.226048 -0.974116 0
    outer loop
      vertex 6.2984 6.57957 0
      vertex -28.6862 14.6979 4
      vertex -28.6862 14.6979 0
    endloop
  endfacet
  facet normal -0.226048 -0.974116 0
    outer loop
      vertex 6.2984 6.57957 0
      vertex 6.2984 6.57957 4
      vertex -28.6862 14.6979 4
    endloop
  endfacet
  facet normal -0.310338 -0.950626 0
    outer loop
      vertex 9.34116 5.58624 0
      vertex 6.2984 6.57957 4
      vertex 6.2984 6.57957 0
    endloop
  endfacet
  facet normal -0.310338 -0.950626 0
    outer loop
      vertex 9.34116 5.58624 0
      vertex 9.34116 5.58624 4
      vertex 6.2984 6.57957 4
    endloop
  endfacet
  facet normal -0.527285 -0.849689 0
    outer loop
      vertex 17.4738 0.539429 0
      vertex 9.34116 5.58624 4
      vertex 9.34116 5.58624 0
    endloop
  endfacet
  facet normal -0.527285 -0.849689 0
    outer loop
      vertex 17.4738 0.539429 0
      vertex 17.4738 0.539429 4
      vertex 9.34116 5.58624 4
    endloop
  endfacet
  facet normal -0.212662 -0.977126 0
    outer loop
      vertex 26.2214 -1.3644 0
      vertex 17.4738 0.539429 4
      vertex 17.4738 0.539429 0
    endloop
  endfacet
  facet normal -0.212662 -0.977126 0
    outer loop
      vertex 26.2214 -1.3644 0
      vertex 26.2214 -1.3644 4
      vertex 17.4738 0.539429 4
    endloop
  endfacet
  facet normal -0.561738 -0.827315 0
    outer loop
      vertex 31.6718 -5.06516 0
      vertex 26.2214 -1.3644 4
      vertex 26.2214 -1.3644 0
    endloop
  endfacet
  facet normal -0.561738 -0.827315 0
    outer loop
      vertex 31.6718 -5.06516 0
      vertex 31.6718 -5.06516 4
      vertex 26.2214 -1.3644 4
    endloop
  endfacet
  facet normal -0.883142 -0.469106 0
    outer loop
      vertex 36.1079 -13.4166 0
      vertex 31.6718 -5.06516 4
      vertex 31.6718 -5.06516 0
    endloop
  endfacet
  facet normal -0.883142 -0.469106 0
    outer loop
      vertex 36.1079 -13.4166 0
      vertex 36.1079 -13.4166 4
      vertex 31.6718 -5.06516 4
    endloop
  endfacet
  facet normal -0.994422 -0.10547 0
    outer loop
      vertex 36.6195 -18.2402 0
      vertex 36.1079 -13.4166 4
      vertex 36.1079 -13.4166 0
    endloop
  endfacet
  facet normal -0.994422 -0.10547 0
    outer loop
      vertex 36.6195 -18.2402 0
      vertex 36.6195 -18.2402 4
      vertex 36.1079 -13.4166 4
    endloop
  endfacet
  facet normal -0.197908 -0.980221 0
    outer loop
      vertex 41.2787 -19.1809 0
      vertex 36.6195 -18.2402 4
      vertex 36.6195 -18.2402 0
    endloop
  endfacet
  facet normal -0.197908 -0.980221 0
    outer loop
      vertex 41.2787 -19.1809 0
      vertex 41.2787 -19.1809 4
      vertex 36.6195 -18.2402 4
    endloop
  endfacet
  facet normal -0.245856 -0.969306 0
    outer loop
      vertex 45.6798 -20.2972 0
      vertex 41.2787 -19.1809 4
      vertex 41.2787 -19.1809 0
    endloop
  endfacet
  facet normal -0.245856 -0.969306 0
    outer loop
      vertex 45.6798 -20.2972 0
      vertex 45.6798 -20.2972 4
      vertex 41.2787 -19.1809 4
    endloop
  endfacet
  facet normal -0.729229 -0.68427 0
    outer loop
      vertex 50.0738 -24.9799 0
      vertex 45.6798 -20.2972 4
      vertex 45.6798 -20.2972 0
    endloop
  endfacet
  facet normal -0.729229 -0.68427 0
    outer loop
      vertex 50.0738 -24.9799 0
      vertex 50.0738 -24.9799 4
      vertex 45.6798 -20.2972 4
    endloop
  endfacet
  facet normal -0.639047 -0.769168 0
    outer loop
      vertex 59.2728 -32.6227 0
      vertex 50.0738 -24.9799 4
      vertex 50.0738 -24.9799 0
    endloop
  endfacet
  facet normal -0.639047 -0.769168 0
    outer loop
      vertex 59.2728 -32.6227 0
      vertex 59.2728 -32.6227 4
      vertex 50.0738 -24.9799 4
    endloop
  endfacet
  facet normal -0.539639 -0.841897 0
    outer loop
      vertex 71.4852 -40.4506 0
      vertex 59.2728 -32.6227 4
      vertex 59.2728 -32.6227 0
    endloop
  endfacet
  facet normal -0.539639 -0.841897 0
    outer loop
      vertex 71.4852 -40.4506 0
      vertex 71.4852 -40.4506 4
      vertex 59.2728 -32.6227 4
    endloop
  endfacet
  facet normal -0.665167 -0.746695 0
    outer loop
      vertex 83.6023 -51.2447 0
      vertex 71.4852 -40.4506 4
      vertex 71.4852 -40.4506 0
    endloop
  endfacet
  facet normal -0.665167 -0.746695 0
    outer loop
      vertex 83.6023 -51.2447 0
      vertex 83.6023 -51.2447 4
      vertex 71.4852 -40.4506 4
    endloop
  endfacet
  facet normal -0.608885 -0.793258 0
    outer loop
      vertex 92.0459 -57.7258 0
      vertex 83.6023 -51.2447 4
      vertex 83.6023 -51.2447 0
    endloop
  endfacet
  facet normal -0.608885 -0.793258 0
    outer loop
      vertex 92.0459 -57.7258 0
      vertex 92.0459 -57.7258 4
      vertex 83.6023 -51.2447 4
    endloop
  endfacet
  facet normal -0.774498 -0.632577 0
    outer loop
      vertex 97.42 -64.3056 0
      vertex 92.0459 -57.7258 4
      vertex 92.0459 -57.7258 0
    endloop
  endfacet
  facet normal -0.774498 -0.632577 0
    outer loop
      vertex 97.42 -64.3056 0
      vertex 97.42 -64.3056 4
      vertex 92.0459 -57.7258 4
    endloop
  endfacet
  facet normal -0.880907 -0.47329 0
    outer loop
      vertex 104.972 -78.3617 0
      vertex 97.42 -64.3056 4
      vertex 97.42 -64.3056 0
    endloop
  endfacet
  facet normal -0.880907 -0.47329 0
    outer loop
      vertex 104.972 -78.3617 0
      vertex 104.972 -78.3617 4
      vertex 97.42 -64.3056 4
    endloop
  endfacet
  facet normal -0.9303 -0.3668 0
    outer loop
      vertex 106.806 -83.0132 0
      vertex 104.972 -78.3617 4
      vertex 104.972 -78.3617 0
    endloop
  endfacet
  facet normal -0.9303 -0.3668 0
    outer loop
      vertex 106.806 -83.0132 0
      vertex 106.806 -83.0132 4
      vertex 104.972 -78.3617 4
    endloop
  endfacet
  facet normal -0.977683 -0.210085 0
    outer loop
      vertex 108.823 -92.3998 0
      vertex 106.806 -83.0132 4
      vertex 106.806 -83.0132 0
    endloop
  endfacet
  facet normal -0.977683 -0.210085 0
    outer loop
      vertex 108.823 -92.3998 0
      vertex 108.823 -92.3998 4
      vertex 106.806 -83.0132 4
    endloop
  endfacet
  facet normal -0.918108 -0.396331 0
    outer loop
      vertex 112.419 -100.73 0
      vertex 108.823 -92.3998 4
      vertex 108.823 -92.3998 0
    endloop
  endfacet
  facet normal -0.918108 -0.396331 0
    outer loop
      vertex 112.419 -100.73 0
      vertex 112.419 -100.73 4
      vertex 108.823 -92.3998 4
    endloop
  endfacet
  facet normal -0.717962 -0.696083 0
    outer loop
      vertex 118.273 -106.768 0
      vertex 112.419 -100.73 4
      vertex 112.419 -100.73 0
    endloop
  endfacet
  facet normal -0.717962 -0.696083 0
    outer loop
      vertex 118.273 -106.768 0
      vertex 118.273 -106.768 4
      vertex 112.419 -100.73 4
    endloop
  endfacet
  facet normal -0.514198 -0.857672 0
    outer loop
      vertex 133.505 -115.9 0
      vertex 118.273 -106.768 4
      vertex 118.273 -106.768 0
    endloop
  endfacet
  facet normal -0.514198 -0.857672 0
    outer loop
      vertex 133.505 -115.9 0
      vertex 133.505 -115.9 4
      vertex 118.273 -106.768 4
    endloop
  endfacet
  facet normal -0.508729 -0.860927 0
    outer loop
      vertex 140.039 -119.761 0
      vertex 133.505 -115.9 4
      vertex 133.505 -115.9 0
    endloop
  endfacet
  facet normal -0.508729 -0.860927 0
    outer loop
      vertex 140.039 -119.761 0
      vertex 140.039 -119.761 4
      vertex 133.505 -115.9 4
    endloop
  endfacet
  facet normal -0.353194 -0.93555 0
    outer loop
      vertex 147.71 -122.657 0
      vertex 140.039 -119.761 4
      vertex 140.039 -119.761 0
    endloop
  endfacet
  facet normal -0.353194 -0.93555 0
    outer loop
      vertex 147.71 -122.657 0
      vertex 147.71 -122.657 4
      vertex 140.039 -119.761 4
    endloop
  endfacet
  facet normal -0.109543 -0.993982 0
    outer loop
      vertex 152.374 -123.171 0
      vertex 147.71 -122.657 4
      vertex 147.71 -122.657 0
    endloop
  endfacet
  facet normal -0.109543 -0.993982 0
    outer loop
      vertex 152.374 -123.171 0
      vertex 152.374 -123.171 4
      vertex 147.71 -122.657 4
    endloop
  endfacet
  facet normal -0.0180852 -0.999836 0
    outer loop
      vertex 169.457 -123.48 0
      vertex 152.374 -123.171 4
      vertex 152.374 -123.171 0
    endloop
  endfacet
  facet normal -0.0180852 -0.999836 0
    outer loop
      vertex 169.457 -123.48 0
      vertex 169.457 -123.48 4
      vertex 152.374 -123.171 4
    endloop
  endfacet
  facet normal -0.0209333 -0.999781 0
    outer loop
      vertex 228.823 -124.723 0
      vertex 169.457 -123.48 4
      vertex 169.457 -123.48 0
    endloop
  endfacet
  facet normal -0.0209333 -0.999781 0
    outer loop
      vertex 228.823 -124.723 0
      vertex 228.823 -124.723 4
      vertex 169.457 -123.48 4
    endloop
  endfacet
  facet normal 0.930932 0.365193 0
    outer loop
      vertex 223.686 -111.628 0
      vertex 228.823 -124.723 4
      vertex 228.823 -124.723 0
    endloop
  endfacet
  facet normal 0.930932 0.365193 -0
    outer loop
      vertex 223.686 -111.628 0
      vertex 223.686 -111.628 4
      vertex 228.823 -124.723 4
    endloop
  endfacet
endsolid OpenSCAD_Model
