<svg xmlns="http://www.w3.org/2000/svg">
      <path d="M -31.86,-12.41 -27.94,-15.16 -27.83,-20.44 -25.37,-22.55 -26.38,-26.56 -25.93,-27.09 -23.24,-30.89 -16.75,-36.49 -15.52,-35.75 -0.87,-23.4 13.01,-11.99 13.79,-20.33 26.32,-9.88 25.43,-8.51 32.81,-2.28 34.72,-2.7 40.2,1.84 43.11,-4.18 46.13,-5.02 51.72,17.47 49.93,20.53 51.5,23.38 17.49,30.77 4.06,33.2 1.6,34.15 -3.66,35 -27.83,40.28 -28.28,40.07 -28.84,35.84 -28.84,19.69 -26.38,5.75 -26.27,-2.28 -28.17,-7.66 -31.86,-12.41 Z" />
    </svg>
