solid OpenSCAD_Model
  facet normal -0 0 -1
    outer loop
      vertex 22.6436 -16.9591 0
      vertex 20.3762 -19.4002 0
      vertex 20.812 -9.63283 0
    endloop
  endfacet
  facet normal 0 0 -1
    outer loop
      vertex 4.66745 25.2361 0
      vertex 13.0236 22.7163 0
      vertex 21.9676 -2.87503 0
    endloop
  endfacet
  facet normal 0 0 -1
    outer loop
      vertex -8.7872 24.8221 0
      vertex 4.66745 25.2361 0
      vertex 21.9676 -2.87503 0
    endloop
  endfacet
  facet normal 0 0 -1
    outer loop
      vertex 17.5167 22.4884 0
      vertex 24.965 16.7864 0
      vertex 24.1922 8.50438 0
    endloop
  endfacet
  facet normal -0 0 -1
    outer loop
      vertex 24.3527 6.66559 0
      vertex 21.9676 -2.87503 0
      vertex 24.1922 8.50438 0
    endloop
  endfacet
  facet normal 0 0 -1
    outer loop
      vertex 24.3527 6.66559 0
      vertex 24.1922 8.50438 0
      vertex 25.5709 8.84906 0
    endloop
  endfacet
  facet normal 0 0 -1
    outer loop
      vertex 17.5167 22.4884 0
      vertex 23.7958 26.0965 0
      vertex 24.965 16.7864 0
    endloop
  endfacet
  facet normal 0 0 -1
    outer loop
      vertex 13.0236 22.7163 0
      vertex 17.5167 22.4884 0
      vertex 24.1922 8.50438 0
    endloop
  endfacet
  facet normal 0 0 -1
    outer loop
      vertex 21.9676 -2.87503 0
      vertex 13.0236 22.7163 0
      vertex 24.1922 8.50438 0
    endloop
  endfacet
  facet normal 0 0 -1
    outer loop
      vertex -8.7872 24.8221 0
      vertex -25.5028 -11.9649 0
      vertex -28.8113 -5.41667 0
    endloop
  endfacet
  facet normal 0 0 -1
    outer loop
      vertex -16.9563 23.4705 0
      vertex -28.8113 -5.41667 0
      vertex -25.9221 20.7491 0
    endloop
  endfacet
  facet normal 0 0 -1
    outer loop
      vertex -25.9221 20.7491 0
      vertex -28.8113 -5.41667 0
      vertex -33.4926 3.94589 0
    endloop
  endfacet
  facet normal 0 -0 -1
    outer loop
      vertex -16.9563 23.4705 0
      vertex -8.7872 24.8221 0
      vertex -28.8113 -5.41667 0
    endloop
  endfacet
  facet normal 0 0 -1
    outer loop
      vertex -33.4926 3.94589 0
      vertex -34.8797 17.01 0
      vertex -25.9221 20.7491 0
    endloop
  endfacet
  facet normal 0 -0 -1
    outer loop
      vertex -8.7872 24.8221 0
      vertex 21.9676 -2.87503 0
      vertex -25.5028 -11.9649 0
    endloop
  endfacet
  facet normal -0 -0 -1
    outer loop
      vertex -34.8797 17.01 0
      vertex -33.4926 3.94589 0
      vertex -38.6138 17.01 0
    endloop
  endfacet
  facet normal 0 0 -1
    outer loop
      vertex -25.5028 -11.9649 0
      vertex 21.9676 -2.87503 0
      vertex -16.556 -21.8695 0
    endloop
  endfacet
  facet normal 0 0 -1
    outer loop
      vertex -16.556 -21.8695 0
      vertex 21.9676 -2.87503 0
      vertex 20.812 -9.63283 0
    endloop
  endfacet
  facet normal 0 0 -1
    outer loop
      vertex -13.0708 -24.8485 0
      vertex -16.556 -21.8695 0
      vertex 20.812 -9.63283 0
    endloop
  endfacet
  facet normal 0 0 -1
    outer loop
      vertex -4.76811 -29.8657 0
      vertex -13.0708 -24.8485 0
      vertex 20.812 -9.63283 0
    endloop
  endfacet
  facet normal -0 0 -1
    outer loop
      vertex 20.3762 -19.4002 0
      vertex -4.76811 -29.8657 0
      vertex 20.812 -9.63283 0
    endloop
  endfacet
  facet normal 0 0 -1
    outer loop
      vertex 20.3762 -19.4002 0
      vertex 3.11082 -33.8399 0
      vertex -4.76811 -29.8657 0
    endloop
  endfacet
  facet normal 0 0 -1
    outer loop
      vertex 20.3762 -19.4002 0
      vertex 10.9227 -36.7521 0
      vertex 3.11082 -33.8399 0
    endloop
  endfacet
  facet normal 0 -0 -1
    outer loop
      vertex 20.3762 -19.4002 0
      vertex 20.5888 -38.1741 0
      vertex 10.9227 -36.7521 0
    endloop
  endfacet
  facet normal 0 0 1
    outer loop
      vertex 20.812 -9.63283 4
      vertex 20.3762 -19.4002 4
      vertex 22.6436 -16.9591 4
    endloop
  endfacet
  facet normal 0 0 1
    outer loop
      vertex 21.9676 -2.87503 4
      vertex 13.0236 22.7163 4
      vertex 4.66745 25.2361 4
    endloop
  endfacet
  facet normal 0 0 1
    outer loop
      vertex 21.9676 -2.87503 4
      vertex 4.66745 25.2361 4
      vertex -8.7872 24.8221 4
    endloop
  endfacet
  facet normal 0 -0 1
    outer loop
      vertex 24.1922 8.50438 4
      vertex 24.965 16.7864 4
      vertex 17.5167 22.4884 4
    endloop
  endfacet
  facet normal 0 0 1
    outer loop
      vertex 24.1922 8.50438 4
      vertex 21.9676 -2.87503 4
      vertex 24.3527 6.66559 4
    endloop
  endfacet
  facet normal 0 0 1
    outer loop
      vertex 25.5709 8.84906 4
      vertex 24.1922 8.50438 4
      vertex 24.3527 6.66559 4
    endloop
  endfacet
  facet normal 0 0 1
    outer loop
      vertex 24.965 16.7864 4
      vertex 23.7958 26.0965 4
      vertex 17.5167 22.4884 4
    endloop
  endfacet
  facet normal 0 0 1
    outer loop
      vertex 24.1922 8.50438 4
      vertex 17.5167 22.4884 4
      vertex 13.0236 22.7163 4
    endloop
  endfacet
  facet normal 0 0 1
    outer loop
      vertex 24.1922 8.50438 4
      vertex 13.0236 22.7163 4
      vertex 21.9676 -2.87503 4
    endloop
  endfacet
  facet normal -0 0 1
    outer loop
      vertex -28.8113 -5.41667 4
      vertex -25.5028 -11.9649 4
      vertex -8.7872 24.8221 4
    endloop
  endfacet
  facet normal -0 0 1
    outer loop
      vertex -25.9221 20.7491 4
      vertex -28.8113 -5.41667 4
      vertex -16.9563 23.4705 4
    endloop
  endfacet
  facet normal -0 0 1
    outer loop
      vertex -33.4926 3.94589 4
      vertex -28.8113 -5.41667 4
      vertex -25.9221 20.7491 4
    endloop
  endfacet
  facet normal 0 0 1
    outer loop
      vertex -28.8113 -5.41667 4
      vertex -8.7872 24.8221 4
      vertex -16.9563 23.4705 4
    endloop
  endfacet
  facet normal 0 0 1
    outer loop
      vertex -25.9221 20.7491 4
      vertex -34.8797 17.01 4
      vertex -33.4926 3.94589 4
    endloop
  endfacet
  facet normal 0 0 1
    outer loop
      vertex -25.5028 -11.9649 4
      vertex 21.9676 -2.87503 4
      vertex -8.7872 24.8221 4
    endloop
  endfacet
  facet normal -0 0 1
    outer loop
      vertex -38.6138 17.01 4
      vertex -33.4926 3.94589 4
      vertex -34.8797 17.01 4
    endloop
  endfacet
  facet normal 0 -0 1
    outer loop
      vertex -16.556 -21.8695 4
      vertex 21.9676 -2.87503 4
      vertex -25.5028 -11.9649 4
    endloop
  endfacet
  facet normal 0 -0 1
    outer loop
      vertex 20.812 -9.63283 4
      vertex 21.9676 -2.87503 4
      vertex -16.556 -21.8695 4
    endloop
  endfacet
  facet normal 0 0 1
    outer loop
      vertex 20.812 -9.63283 4
      vertex -16.556 -21.8695 4
      vertex -13.0708 -24.8485 4
    endloop
  endfacet
  facet normal 0 0 1
    outer loop
      vertex 20.812 -9.63283 4
      vertex -13.0708 -24.8485 4
      vertex -4.76811 -29.8657 4
    endloop
  endfacet
  facet normal 0 0 1
    outer loop
      vertex 20.812 -9.63283 4
      vertex -4.76811 -29.8657 4
      vertex 20.3762 -19.4002 4
    endloop
  endfacet
  facet normal -0 0 1
    outer loop
      vertex -4.76811 -29.8657 4
      vertex 3.11082 -33.8399 4
      vertex 20.3762 -19.4002 4
    endloop
  endfacet
  facet normal -0 0 1
    outer loop
      vertex 3.11082 -33.8399 4
      vertex 10.9227 -36.7521 4
      vertex 20.3762 -19.4002 4
    endloop
  endfacet
  facet normal -0 0 1
    outer loop
      vertex 10.9227 -36.7521 4
      vertex 20.5888 -38.1741 4
      vertex 20.3762 -19.4002 4
    endloop
  endfacet
  facet normal 0.732694 -0.680558 0
    outer loop
      vertex 22.6436 -16.9591 0
      vertex 20.3762 -19.4002 4
      vertex 20.3762 -19.4002 0
    endloop
  endfacet
  facet normal 0.732694 -0.680558 0
    outer loop
      vertex 22.6436 -16.9591 0
      vertex 22.6436 -16.9591 4
      vertex 20.3762 -19.4002 4
    endloop
  endfacet
  facet normal 0.970141 0.24254 0
    outer loop
      vertex 20.812 -9.63283 0
      vertex 22.6436 -16.9591 4
      vertex 22.6436 -16.9591 0
    endloop
  endfacet
  facet normal 0.970141 0.24254 -0
    outer loop
      vertex 20.812 -9.63283 0
      vertex 20.812 -9.63283 4
      vertex 22.6436 -16.9591 4
    endloop
  endfacet
  facet normal 0.985692 -0.168556 0
    outer loop
      vertex 21.9676 -2.87503 0
      vertex 20.812 -9.63283 4
      vertex 20.812 -9.63283 0
    endloop
  endfacet
  facet normal 0.985692 -0.168556 0
    outer loop
      vertex 21.9676 -2.87503 0
      vertex 21.9676 -2.87503 4
      vertex 20.812 -9.63283 4
    endloop
  endfacet
  facet normal 0.970144 -0.24253 0
    outer loop
      vertex 24.3527 6.66559 0
      vertex 21.9676 -2.87503 4
      vertex 21.9676 -2.87503 0
    endloop
  endfacet
  facet normal 0.970144 -0.24253 0
    outer loop
      vertex 24.3527 6.66559 0
      vertex 24.3527 6.66559 4
      vertex 21.9676 -2.87503 4
    endloop
  endfacet
  facet normal 0.87328 -0.487219 0
    outer loop
      vertex 25.5709 8.84906 0
      vertex 24.3527 6.66559 4
      vertex 24.3527 6.66559 0
    endloop
  endfacet
  facet normal 0.87328 -0.487219 0
    outer loop
      vertex 25.5709 8.84906 0
      vertex 25.5709 8.84906 4
      vertex 24.3527 6.66559 4
    endloop
  endfacet
  facet normal -0.242539 0.970142 0
    outer loop
      vertex 24.1922 8.50438 0
      vertex 25.5709 8.84906 4
      vertex 25.5709 8.84906 0
    endloop
  endfacet
  facet normal -0.242539 0.970142 0
    outer loop
      vertex 24.1922 8.50438 0
      vertex 24.1922 8.50438 4
      vertex 25.5709 8.84906 4
    endloop
  endfacet
  facet normal 0.995675 -0.092907 0
    outer loop
      vertex 24.965 16.7864 0
      vertex 24.1922 8.50438 4
      vertex 24.1922 8.50438 0
    endloop
  endfacet
  facet normal 0.995675 -0.092907 0
    outer loop
      vertex 24.965 16.7864 0
      vertex 24.965 16.7864 4
      vertex 24.1922 8.50438 4
    endloop
  endfacet
  facet normal 0.992206 0.124605 0
    outer loop
      vertex 23.7958 26.0965 0
      vertex 24.965 16.7864 4
      vertex 24.965 16.7864 0
    endloop
  endfacet
  facet normal 0.992206 0.124605 -0
    outer loop
      vertex 23.7958 26.0965 0
      vertex 23.7958 26.0965 4
      vertex 24.965 16.7864 4
    endloop
  endfacet
  facet normal -0.498224 0.867048 0
    outer loop
      vertex 17.5167 22.4884 0
      vertex 23.7958 26.0965 4
      vertex 23.7958 26.0965 0
    endloop
  endfacet
  facet normal -0.498224 0.867048 0
    outer loop
      vertex 17.5167 22.4884 0
      vertex 17.5167 22.4884 4
      vertex 23.7958 26.0965 4
    endloop
  endfacet
  facet normal 0.0506571 0.998716 0
    outer loop
      vertex 13.0236 22.7163 0
      vertex 17.5167 22.4884 4
      vertex 17.5167 22.4884 0
    endloop
  endfacet
  facet normal 0.0506571 0.998716 -0
    outer loop
      vertex 13.0236 22.7163 0
      vertex 13.0236 22.7163 4
      vertex 17.5167 22.4884 4
    endloop
  endfacet
  facet normal 0.288709 0.957417 0
    outer loop
      vertex 4.66745 25.2361 0
      vertex 13.0236 22.7163 4
      vertex 13.0236 22.7163 0
    endloop
  endfacet
  facet normal 0.288709 0.957417 -0
    outer loop
      vertex 4.66745 25.2361 0
      vertex 4.66745 25.2361 4
      vertex 13.0236 22.7163 4
    endloop
  endfacet
  facet normal -0.0307555 0.999527 0
    outer loop
      vertex -8.7872 24.8221 0
      vertex 4.66745 25.2361 4
      vertex 4.66745 25.2361 0
    endloop
  endfacet
  facet normal -0.0307555 0.999527 0
    outer loop
      vertex -8.7872 24.8221 0
      vertex -8.7872 24.8221 4
      vertex 4.66745 25.2361 4
    endloop
  endfacet
  facet normal -0.163234 0.986587 0
    outer loop
      vertex -16.9563 23.4705 0
      vertex -8.7872 24.8221 4
      vertex -8.7872 24.8221 0
    endloop
  endfacet
  facet normal -0.163234 0.986587 0
    outer loop
      vertex -16.9563 23.4705 0
      vertex -16.9563 23.4705 4
      vertex -8.7872 24.8221 4
    endloop
  endfacet
  facet normal -0.290446 0.956891 0
    outer loop
      vertex -25.9221 20.7491 0
      vertex -16.9563 23.4705 4
      vertex -16.9563 23.4705 0
    endloop
  endfacet
  facet normal -0.290446 0.956891 0
    outer loop
      vertex -25.9221 20.7491 0
      vertex -25.9221 20.7491 4
      vertex -16.9563 23.4705 4
    endloop
  endfacet
  facet normal -0.385209 0.922829 0
    outer loop
      vertex -34.8797 17.01 0
      vertex -25.9221 20.7491 4
      vertex -25.9221 20.7491 0
    endloop
  endfacet
  facet normal -0.385209 0.922829 0
    outer loop
      vertex -34.8797 17.01 0
      vertex -34.8797 17.01 4
      vertex -25.9221 20.7491 4
    endloop
  endfacet
  facet normal 0 1 0
    outer loop
      vertex -38.6138 17.01 0
      vertex -34.8797 17.01 4
      vertex -34.8797 17.01 0
    endloop
  endfacet
  facet normal 0 1 0
    outer loop
      vertex -38.6138 17.01 0
      vertex -38.6138 17.01 4
      vertex -34.8797 17.01 4
    endloop
  endfacet
  facet normal -0.931021 -0.364965 0
    outer loop
      vertex -33.4926 3.94589 0
      vertex -38.6138 17.01 4
      vertex -38.6138 17.01 0
    endloop
  endfacet
  facet normal -0.931021 -0.364965 0
    outer loop
      vertex -33.4926 3.94589 0
      vertex -33.4926 3.94589 4
      vertex -38.6138 17.01 4
    endloop
  endfacet
  facet normal -0.894426 -0.447215 0
    outer loop
      vertex -28.8113 -5.41667 0
      vertex -33.4926 3.94589 4
      vertex -33.4926 3.94589 0
    endloop
  endfacet
  facet normal -0.894426 -0.447215 0
    outer loop
      vertex -28.8113 -5.41667 0
      vertex -28.8113 -5.41667 4
      vertex -33.4926 3.94589 4
    endloop
  endfacet
  facet normal -0.892545 -0.450959 0
    outer loop
      vertex -25.5028 -11.9649 0
      vertex -28.8113 -5.41667 4
      vertex -28.8113 -5.41667 0
    endloop
  endfacet
  facet normal -0.892545 -0.450959 0
    outer loop
      vertex -25.5028 -11.9649 0
      vertex -25.5028 -11.9649 4
      vertex -28.8113 -5.41667 4
    endloop
  endfacet
  facet normal -0.742076 -0.670316 0
    outer loop
      vertex -16.556 -21.8695 0
      vertex -25.5028 -11.9649 4
      vertex -25.5028 -11.9649 0
    endloop
  endfacet
  facet normal -0.742076 -0.670316 0
    outer loop
      vertex -16.556 -21.8695 0
      vertex -16.556 -21.8695 4
      vertex -25.5028 -11.9649 4
    endloop
  endfacet
  facet normal -0.649745 -0.760152 0
    outer loop
      vertex -13.0708 -24.8485 0
      vertex -16.556 -21.8695 4
      vertex -16.556 -21.8695 0
    endloop
  endfacet
  facet normal -0.649745 -0.760152 0
    outer loop
      vertex -13.0708 -24.8485 0
      vertex -13.0708 -24.8485 4
      vertex -16.556 -21.8695 4
    endloop
  endfacet
  facet normal -0.517191 -0.85587 0
    outer loop
      vertex -4.76811 -29.8657 0
      vertex -13.0708 -24.8485 4
      vertex -13.0708 -24.8485 0
    endloop
  endfacet
  facet normal -0.517191 -0.85587 0
    outer loop
      vertex -4.76811 -29.8657 0
      vertex -4.76811 -29.8657 4
      vertex -13.0708 -24.8485 4
    endloop
  endfacet
  facet normal -0.45036 -0.892847 0
    outer loop
      vertex 3.11082 -33.8399 0
      vertex -4.76811 -29.8657 4
      vertex -4.76811 -29.8657 0
    endloop
  endfacet
  facet normal -0.45036 -0.892847 0
    outer loop
      vertex 3.11082 -33.8399 0
      vertex 3.11082 -33.8399 4
      vertex -4.76811 -29.8657 4
    endloop
  endfacet
  facet normal -0.349308 -0.937008 0
    outer loop
      vertex 10.9227 -36.7521 0
      vertex 3.11082 -33.8399 4
      vertex 3.11082 -33.8399 0
    endloop
  endfacet
  facet normal -0.349308 -0.937008 0
    outer loop
      vertex 10.9227 -36.7521 0
      vertex 10.9227 -36.7521 4
      vertex 3.11082 -33.8399 4
    endloop
  endfacet
  facet normal -0.145546 -0.989352 0
    outer loop
      vertex 20.5888 -38.1741 0
      vertex 10.9227 -36.7521 4
      vertex 10.9227 -36.7521 0
    endloop
  endfacet
  facet normal -0.145546 -0.989352 0
    outer loop
      vertex 20.5888 -38.1741 0
      vertex 20.5888 -38.1741 4
      vertex 10.9227 -36.7521 4
    endloop
  endfacet
  facet normal 0.999936 0.0113235 0
    outer loop
      vertex 20.3762 -19.4002 0
      vertex 20.5888 -38.1741 4
      vertex 20.5888 -38.1741 0
    endloop
  endfacet
  facet normal 0.999936 0.0113235 -0
    outer loop
      vertex 20.3762 -19.4002 0
      vertex 20.3762 -19.4002 4
      vertex 20.5888 -38.1741 4
    endloop
  endfacet
endsolid OpenSCAD_Model
