<svg xmlns="http://www.w3.org/2000/svg">
      <path d="M 0.36,-33.04 8.3,-35.15 15.13,-36 25.87,-34.94 43.44,-30.29 54.07,-29.45 53.85,-22.06 58.32,-19.63 53.51,-7.59 46.91,10.25 46.91,19.02 43.1,25.35 43.55,27.47 36.84,28.84 30.57,32.32 26.32,28.21 20.72,25.78 18.93,26.52 16.25,24.19 4.84,20.71 -3,21.98 -8.03,19.76 -12.51,19.55 -17.32,20.71 -24.14,21.13 -28.28,24.51 -30.52,28.1 -32.65,28.63 -31.98,21.45 -33.32,10.78 -32.87,8.88 -29.4,9.2 -25.82,1.6 -21.01,-0.83 -19.11,-6.22 -20.34,-10.44 -18.55,-16.04 -24.48,-20.26 -33.43,-22.59 -34.77,-18.36 -41.6,-19 -48.31,-30.72 -33.54,-26.7 -26.27,-25.65 -16.87,-26.92 0.36,-33.04 Z M 4.54,0.39 0.29,-9.22 -3.51,-10.06 -1.95,-3.62 -7.43,-0.88 -0.38,1.97 -2.39,7.25 3.98,9.68 2.31,4.09 4.54,0.39 Z" />
    </svg>
