solid OpenSCAD_Model
  facet normal 0 0 1
    outer loop
      vertex -10 10.8 23
      vertex -11.0327 10 23
      vertex -10 10 23
    endloop
  endfacet
  facet normal 0 -0 1
    outer loop
      vertex -11.0327 10 23
      vertex -10 10.8 23
      vertex -11.2081 10.8 23
    endloop
  endfacet
  facet normal 0 0 1
    outer loop
      vertex -10 10.8 23
      vertex -9.2 10.8 23
      vertex -9.2 11.715 23
    endloop
  endfacet
  facet normal 0 0 1
    outer loop
      vertex -9.2 10.8 23
      vertex -10 10.8 23
      vertex -9.2 10 23
    endloop
  endfacet
  facet normal 0 0 1
    outer loop
      vertex -10 10.8 23
      vertex -9.2 11.715 23
      vertex -10 11.7888 23
    endloop
  endfacet
  facet normal 0 0 1
    outer loop
      vertex -9.2 10 23
      vertex -10 10.8 23
      vertex -10 10 23
    endloop
  endfacet
  facet normal 0 0 1
    outer loop
      vertex -9.2 10 23
      vertex -10 10 23
      vertex -10 5.2903 23
    endloop
  endfacet
  facet normal 0 0 1
    outer loop
      vertex -9.2 10 23
      vertex -10 5.2903 23
      vertex -9.2 1.64171 23
    endloop
  endfacet
  facet normal -0 0 1
    outer loop
      vertex -9.2 10.8 23
      vertex -3.1878 10 23
      vertex -2.93376 10.8 23
    endloop
  endfacet
  facet normal 0 0 1
    outer loop
      vertex -3.1878 10 23
      vertex -9.2 10.8 23
      vertex -9.2 10 23
    endloop
  endfacet
  facet normal -0 0 1
    outer loop
      vertex -0.679776 -9.2 23
      vertex 0 -10 23
      vertex 0 -9.2 23
    endloop
  endfacet
  facet normal 0 0 1
    outer loop
      vertex 0 -10 23
      vertex -0.679776 -9.2 23
      vertex -1.05662 -10 23
    endloop
  endfacet
  facet normal -0 0 1
    outer loop
      vertex 0 -7.75689 23
      vertex 0.799999 -9.2 23
      vertex 0.799999 -6.05856 23
    endloop
  endfacet
  facet normal 0 0 1
    outer loop
      vertex 0 -9.2 23
      vertex 0.799999 -9.2 23
      vertex 0 -7.75689 23
    endloop
  endfacet
  facet normal 0 0 1
    outer loop
      vertex 0.799999 -9.2 23
      vertex 0 -9.2 23
      vertex 0.799999 -10 23
    endloop
  endfacet
  facet normal 0 0 1
    outer loop
      vertex 0 -10 23
      vertex 0.799999 -10 23
      vertex 0 -9.2 23
    endloop
  endfacet
  facet normal 0 0 1
    outer loop
      vertex 0.799999 -10 23
      vertex 0 -10 23
      vertex 0.799999 -11.2212 23
    endloop
  endfacet
  facet normal 0 0 1
    outer loop
      vertex 0.799999 -11.2212 23
      vertex 0 -10 23
      vertex 0 -12.9195 23
    endloop
  endfacet
  facet normal -0 0 1
    outer loop
      vertex 0.799999 -9.2 23
      vertex 1.37523 -10 23
      vertex 1.75207 -9.2 23
    endloop
  endfacet
  facet normal 0 0 1
    outer loop
      vertex 1.37523 -10 23
      vertex 0.799999 -9.2 23
      vertex 0.799999 -10 23
    endloop
  endfacet
  facet normal 0 0 1
    outer loop
      vertex -6.75158 0.799999 23
      vertex -8.8018 0 23
      vertex -6.46372 0 23
    endloop
  endfacet
  facet normal 0 0 1
    outer loop
      vertex -6.75158 0.799999 23
      vertex -8.89967 0.272003 23
      vertex -8.8018 0 23
    endloop
  endfacet
  facet normal 0 -0 1
    outer loop
      vertex -8.89967 0.272003 23
      vertex -6.75158 0.799999 23
      vertex -9.01544 0.799999 23
    endloop
  endfacet
  facet normal 0 0 1
    outer loop
      vertex -2.87207 -9.98177 23
      vertex -5.20359 -10 23
      vertex -2.86319 -10 23
    endloop
  endfacet
  facet normal 0 0 1
    outer loop
      vertex -3.15337 -9.2 23
      vertex -5.20359 -10 23
      vertex -2.87207 -9.98177 23
    endloop
  endfacet
  facet normal 0 -0 1
    outer loop
      vertex -5.20359 -10 23
      vertex -3.15337 -9.2 23
      vertex -5.49145 -9.2 23
    endloop
  endfacet
  facet normal 0 0 1
    outer loop
      vertex 0 12.1962 23
      vertex 0.799999 14.2615 23
      vertex 0 14.4689 23
    endloop
  endfacet
  facet normal 0 0 1
    outer loop
      vertex 0.799999 14.2615 23
      vertex 0 12.1962 23
      vertex 0.799999 11.9888 23
    endloop
  endfacet
  facet normal 0 0 1
    outer loop
      vertex 7.89335 10.8 23
      vertex 5.22318 10 23
      vertex 9.01752 10 23
    endloop
  endfacet
  facet normal 0 -0 1
    outer loop
      vertex 5.22318 10 23
      vertex 7.89335 10.8 23
      vertex 4.09901 10.8 23
    endloop
  endfacet
  facet normal 0 0 1
    outer loop
      vertex 8.9681 0.799999 23
      vertex 6.67655 0.799999 23
      vertex 6.86977 0.1371 23
    endloop
  endfacet
  facet normal 0 0 1
    outer loop
      vertex 8.9681 0.799999 23
      vertex 9.15412 0 23
      vertex 9.17993 0.0732269 23
    endloop
  endfacet
  facet normal -0 0 1
    outer loop
      vertex 6.86977 0.1371 23
      vertex 9.15412 0 23
      vertex 8.9681 0.799999 23
    endloop
  endfacet
  facet normal 0 0 1
    outer loop
      vertex 9.15412 0 23
      vertex 6.86977 0.1371 23
      vertex 6.82144 0 23
    endloop
  endfacet
  facet normal 0 0 -1
    outer loop
      vertex 3.31 -7.76999 0
      vertex 10.02 0.0499878 0
      vertex 8.12 -5.34 0
    endloop
  endfacet
  facet normal 0 0 -1
    outer loop
      vertex 8.78999 4.26999 0
      vertex 4.64999 14.09 0
      vertex 10.58 9.87 0
    endloop
  endfacet
  facet normal -0 0 -1
    outer loop
      vertex 10.02 0.0499878 0
      vertex 3.31 -7.76999 0
      vertex 8.78999 4.26999 0
    endloop
  endfacet
  facet normal 0 0 -1
    outer loop
      vertex 8.78999 4.26999 0
      vertex 3.31 -7.76999 0
      vertex -9.67 0.0499878 0
    endloop
  endfacet
  facet normal 0 0 -1
    outer loop
      vertex -5.64 -11.15 0
      vertex 3.31 -7.76999 0
      vertex -0.269989 -15.37 0
    endloop
  endfacet
  facet normal 0 0 -1
    outer loop
      vertex -5.64 -11.15 0
      vertex -0.269989 -15.37 0
      vertex -3.73999 -15.05 0
    endloop
  endfacet
  facet normal 0 0 -1
    outer loop
      vertex -9.67 0.0499878 0
      vertex 3.31 -7.76999 0
      vertex -5.64 -11.15 0
    endloop
  endfacet
  facet normal -0 0 -1
    outer loop
      vertex 8.78999 4.26999 0
      vertex -9.67 0.0499878 0
      vertex -5.64 12.19 0
    endloop
  endfacet
  facet normal -0 0 -1
    outer loop
      vertex 4.64999 14.09 0
      vertex -5.64 12.19 0
      vertex -4.29999 16.41 0
    endloop
  endfacet
  facet normal 0 0 -1
    outer loop
      vertex 8.78999 4.26999 0
      vertex -5.64 12.19 0
      vertex 4.64999 14.09 0
    endloop
  endfacet
  facet normal -0 0 -1
    outer loop
      vertex -5.64 12.19 0
      vertex -9.67 0.0499878 0
      vertex -12.47 12.82 0
    endloop
  endfacet
  facet normal 0 1 -0
    outer loop
      vertex -10 10.8 0.799999
      vertex -11.2081 10.8 23
      vertex -10 10.8 23
    endloop
  endfacet
  facet normal 0 1 0
    outer loop
      vertex -11.2081 10.8 23
      vertex -10 10.8 0.799999
      vertex -11.2081 10.8 0.799999
    endloop
  endfacet
  facet normal 0 1 -0
    outer loop
      vertex -2.93376 10.8 0.799999
      vertex -9.2 10.8 23
      vertex -2.93376 10.8 23
    endloop
  endfacet
  facet normal 0 1 0
    outer loop
      vertex -9.2 10.8 23
      vertex -2.93376 10.8 0.799999
      vertex -9.2 10.8 0.799999
    endloop
  endfacet
  facet normal 0 1 -0
    outer loop
      vertex 7.89335 10.8 0.799999
      vertex 4.09901 10.8 23
      vertex 7.89335 10.8 23
    endloop
  endfacet
  facet normal 0 1 0
    outer loop
      vertex 4.09901 10.8 23
      vertex 7.89335 10.8 0.799999
      vertex 4.09901 10.8 0.799999
    endloop
  endfacet
  facet normal 0 -1 0
    outer loop
      vertex -11.0327 10 0.799999
      vertex -10 10 23
      vertex -11.0327 10 23
    endloop
  endfacet
  facet normal 0 -1 -0
    outer loop
      vertex -10 10 23
      vertex -11.0327 10 0.799999
      vertex -10 10 0.799999
    endloop
  endfacet
  facet normal 0 -1 0
    outer loop
      vertex -9.2 10 0.799999
      vertex -3.1878 10 23
      vertex -9.2 10 23
    endloop
  endfacet
  facet normal 0 -1 -0
    outer loop
      vertex -3.1878 10 23
      vertex -9.2 10 0.799999
      vertex -3.1878 10 0.799999
    endloop
  endfacet
  facet normal 0 -1 0
    outer loop
      vertex 5.22318 10 0.799999
      vertex 9.01752 10 23
      vertex 5.22318 10 23
    endloop
  endfacet
  facet normal 0 -1 -0
    outer loop
      vertex 9.01752 10 23
      vertex 5.22318 10 0.799999
      vertex 9.01752 10 0.799999
    endloop
  endfacet
  facet normal 0 1 -0
    outer loop
      vertex -6.75158 0.799999 0.799999
      vertex -9.01544 0.799999 23
      vertex -6.75158 0.799999 23
    endloop
  endfacet
  facet normal 0 1 0
    outer loop
      vertex -9.01544 0.799999 23
      vertex -6.75158 0.799999 0.799999
      vertex -9.01544 0.799999 0.799999
    endloop
  endfacet
  facet normal 0 1 -0
    outer loop
      vertex 8.9681 0.799999 0.799999
      vertex 6.67655 0.799999 23
      vertex 8.9681 0.799999 23
    endloop
  endfacet
  facet normal 0 1 0
    outer loop
      vertex 6.67655 0.799999 23
      vertex 8.9681 0.799999 0.799999
      vertex 6.67655 0.799999 0.799999
    endloop
  endfacet
  facet normal 0 -1 0
    outer loop
      vertex -8.8018 0 0.799999
      vertex -6.46372 0 23
      vertex -8.8018 0 23
    endloop
  endfacet
  facet normal 0 -1 -0
    outer loop
      vertex -6.46372 0 23
      vertex -8.8018 0 0.799999
      vertex -6.46372 0 0.799999
    endloop
  endfacet
  facet normal 0 -1 0
    outer loop
      vertex 6.82144 0 0.799999
      vertex 9.15412 0 23
      vertex 6.82144 0 23
    endloop
  endfacet
  facet normal 0 -1 -0
    outer loop
      vertex 9.15412 0 23
      vertex 6.82144 0 0.799999
      vertex 9.15412 0 0.799999
    endloop
  endfacet
  facet normal -1 0 0
    outer loop
      vertex 0 -12.9195 0.799999
      vertex 0 -10 23
      vertex 0 -10 0.799999
    endloop
  endfacet
  facet normal -1 -0 0
    outer loop
      vertex 0 -10 23
      vertex 0 -12.9195 0.799999
      vertex 0 -12.9195 23
    endloop
  endfacet
  facet normal -1 0 0
    outer loop
      vertex 0 -9.2 0.799999
      vertex 0 -7.75689 23
      vertex 0 -7.75689 0.799999
    endloop
  endfacet
  facet normal -1 -0 0
    outer loop
      vertex 0 -7.75689 23
      vertex 0 -9.2 0.799999
      vertex 0 -9.2 23
    endloop
  endfacet
  facet normal -1 0 0
    outer loop
      vertex 0 12.1962 0.799999
      vertex 0 14.4689 23
      vertex 0 14.4689 0.799999
    endloop
  endfacet
  facet normal -1 -0 0
    outer loop
      vertex 0 14.4689 23
      vertex 0 12.1962 0.799999
      vertex 0 12.1962 23
    endloop
  endfacet
  facet normal 1 -0 0
    outer loop
      vertex 0.799999 -11.2212 23
      vertex 0.799999 -10 0.799999
      vertex 0.799999 -10 23
    endloop
  endfacet
  facet normal 1 0 0
    outer loop
      vertex 0.799999 -10 0.799999
      vertex 0.799999 -11.2212 23
      vertex 0.799999 -11.2212 0.799999
    endloop
  endfacet
  facet normal 1 -0 0
    outer loop
      vertex 0.799999 -9.2 23
      vertex 0.799999 -6.05856 0.799999
      vertex 0.799999 -6.05856 23
    endloop
  endfacet
  facet normal 1 0 0
    outer loop
      vertex 0.799999 -6.05856 0.799999
      vertex 0.799999 -9.2 23
      vertex 0.799999 -9.2 0.799999
    endloop
  endfacet
  facet normal 1 -0 0
    outer loop
      vertex 0.799999 11.9888 23
      vertex 0.799999 14.2615 0.799999
      vertex 0.799999 14.2615 23
    endloop
  endfacet
  facet normal 1 0 0
    outer loop
      vertex 0.799999 14.2615 0.799999
      vertex 0.799999 11.9888 23
      vertex 0.799999 11.9888 0.799999
    endloop
  endfacet
  facet normal 0 1 -0
    outer loop
      vertex 0 -9.2 0.799999
      vertex -0.679776 -9.2 23
      vertex 0 -9.2 23
    endloop
  endfacet
  facet normal 0 1 0
    outer loop
      vertex -0.679776 -9.2 23
      vertex 0 -9.2 0.799999
      vertex -0.679776 -9.2 0.799999
    endloop
  endfacet
  facet normal 0 1 -0
    outer loop
      vertex 1.75207 -9.2 0.799999
      vertex 0.799999 -9.2 23
      vertex 1.75207 -9.2 23
    endloop
  endfacet
  facet normal 0 1 0
    outer loop
      vertex 0.799999 -9.2 23
      vertex 1.75207 -9.2 0.799999
      vertex 0.799999 -9.2 0.799999
    endloop
  endfacet
  facet normal 0 1 -0
    outer loop
      vertex -3.15337 -9.2 0.799999
      vertex -5.49145 -9.2 23
      vertex -3.15337 -9.2 23
    endloop
  endfacet
  facet normal 0 1 0
    outer loop
      vertex -5.49145 -9.2 23
      vertex -3.15337 -9.2 0.799999
      vertex -5.49145 -9.2 0.799999
    endloop
  endfacet
  facet normal 0 -1 0
    outer loop
      vertex -1.05662 -10 0.799999
      vertex 0 -10 23
      vertex -1.05662 -10 23
    endloop
  endfacet
  facet normal 0 -1 -0
    outer loop
      vertex 0 -10 23
      vertex -1.05662 -10 0.799999
      vertex 0 -10 0.799999
    endloop
  endfacet
  facet normal 0 -1 0
    outer loop
      vertex 0.799999 -10 0.799999
      vertex 1.37523 -10 23
      vertex 0.799999 -10 23
    endloop
  endfacet
  facet normal 0 -1 -0
    outer loop
      vertex 1.37523 -10 23
      vertex 0.799999 -10 0.799999
      vertex 1.37523 -10 0.799999
    endloop
  endfacet
  facet normal 0 -1 0
    outer loop
      vertex -5.20359 -10 0.799999
      vertex -2.86319 -10 23
      vertex -5.20359 -10 23
    endloop
  endfacet
  facet normal 0 -1 -0
    outer loop
      vertex -2.86319 -10 23
      vertex -5.20359 -10 0.799999
      vertex -2.86319 -10 0.799999
    endloop
  endfacet
  facet normal -1 0 0
    outer loop
      vertex -10 10.8 0.799999
      vertex -10 11.7888 23
      vertex -10 11.7888 0.799999
    endloop
  endfacet
  facet normal -1 -0 0
    outer loop
      vertex -10 11.7888 23
      vertex -10 10.8 0.799999
      vertex -10 10.8 23
    endloop
  endfacet
  facet normal -1 0 0
    outer loop
      vertex -10 5.2903 0.799999
      vertex -10 10 23
      vertex -10 10 0.799999
    endloop
  endfacet
  facet normal -1 -0 0
    outer loop
      vertex -10 10 23
      vertex -10 5.2903 0.799999
      vertex -10 5.2903 23
    endloop
  endfacet
  facet normal 1 -0 0
    outer loop
      vertex -9.2 10.8 23
      vertex -9.2 11.715 0.799999
      vertex -9.2 11.715 23
    endloop
  endfacet
  facet normal 1 0 0
    outer loop
      vertex -9.2 11.715 0.799999
      vertex -9.2 10.8 23
      vertex -9.2 10.8 0.799999
    endloop
  endfacet
  facet normal 1 -0 0
    outer loop
      vertex -9.2 1.64171 23
      vertex -9.2 10 0.799999
      vertex -9.2 10 23
    endloop
  endfacet
  facet normal 1 0 0
    outer loop
      vertex -9.2 10 0.799999
      vertex -9.2 1.64171 23
      vertex -9.2 1.64171 0.799999
    endloop
  endfacet
  facet normal 0.943119 -0.332455 0
    outer loop
      vertex 8.12 -5.34 25
      vertex 10.02 0.0499878 0
      vertex 10.02 0.0499878 25
    endloop
  endfacet
  facet normal 0.943119 -0.332455 0
    outer loop
      vertex 10.02 0.0499878 0
      vertex 8.12 -5.34 25
      vertex 8.12 -5.34 0
    endloop
  endfacet
  facet normal 0.96005 0.279827 0
    outer loop
      vertex 10.02 0.0499878 25
      vertex 8.78999 4.26999 0
      vertex 8.78999 4.26999 25
    endloop
  endfacet
  facet normal 0.96005 0.279827 0
    outer loop
      vertex 8.78999 4.26999 0
      vertex 10.02 0.0499878 25
      vertex 10.02 0.0499878 0
    endloop
  endfacet
  facet normal 0.952523 -0.304468 0
    outer loop
      vertex 8.78999 4.26999 25
      vertex 10.58 9.87 0
      vertex 10.58 9.87 25
    endloop
  endfacet
  facet normal 0.952523 -0.304468 0
    outer loop
      vertex 10.58 9.87 0
      vertex 8.78999 4.26999 25
      vertex 8.78999 4.26999 0
    endloop
  endfacet
  facet normal 0.579807 0.814754 -0
    outer loop
      vertex 10.58 9.87 0
      vertex 4.64999 14.09 25
      vertex 10.58 9.87 25
    endloop
  endfacet
  facet normal 0.579807 0.814754 0
    outer loop
      vertex 4.64999 14.09 25
      vertex 10.58 9.87 0
      vertex 4.64999 14.09 0
    endloop
  endfacet
  facet normal 0.250925 0.968006 -0
    outer loop
      vertex 4.64999 14.09 0
      vertex -4.29999 16.41 25
      vertex 4.64999 14.09 25
    endloop
  endfacet
  facet normal 0.250925 0.968006 0
    outer loop
      vertex -4.29999 16.41 25
      vertex 4.64999 14.09 0
      vertex -4.29999 16.41 0
    endloop
  endfacet
  facet normal 0.0918502 0.995773 -0
    outer loop
      vertex -5.64 12.19 0
      vertex -12.47 12.82 25
      vertex -5.64 12.19 25
    endloop
  endfacet
  facet normal 0.0918502 0.995773 0
    outer loop
      vertex -12.47 12.82 25
      vertex -5.64 12.19 0
      vertex -12.47 12.82 0
    endloop
  endfacet
  facet normal -0.976795 -0.214176 0
    outer loop
      vertex -9.67 0.0499878 0
      vertex -12.47 12.82 25
      vertex -12.47 12.82 0
    endloop
  endfacet
  facet normal -0.976795 -0.214176 0
    outer loop
      vertex -12.47 12.82 25
      vertex -9.67 0.0499878 0
      vertex -9.67 0.0499878 25
    endloop
  endfacet
  facet normal -0.940941 -0.338571 0
    outer loop
      vertex -5.64 -11.15 0
      vertex -9.67 0.0499878 25
      vertex -9.67 0.0499878 0
    endloop
  endfacet
  facet normal -0.940941 -0.338571 0
    outer loop
      vertex -9.67 0.0499878 25
      vertex -5.64 -11.15 0
      vertex -5.64 -11.15 25
    endloop
  endfacet
  facet normal 0.904657 -0.426139 0
    outer loop
      vertex -0.269989 -15.37 25
      vertex 3.31 -7.76999 0
      vertex 3.31 -7.76999 25
    endloop
  endfacet
  facet normal 0.904657 -0.426139 0
    outer loop
      vertex 3.31 -7.76999 0
      vertex -0.269989 -15.37 25
      vertex -0.269989 -15.37 0
    endloop
  endfacet
  facet normal -0.943116 0.332464 0
    outer loop
      vertex 6.82144 0 0.799999
      vertex 6.86977 0.1371 23
      vertex 6.86977 0.1371 0.799999
    endloop
  endfacet
  facet normal -0.943116 0.332464 0
    outer loop
      vertex 6.86977 0.1371 23
      vertex 6.82144 0 0.799999
      vertex 6.82144 0 23
    endloop
  endfacet
  facet normal -0.960049 -0.279832 0
    outer loop
      vertex 6.86977 0.1371 0.799999
      vertex 6.67655 0.799999 23
      vertex 6.67655 0.799999 0.799999
    endloop
  endfacet
  facet normal -0.960049 -0.279832 0
    outer loop
      vertex 6.67655 0.799999 23
      vertex 6.86977 0.1371 0.799999
      vertex 6.86977 0.1371 23
    endloop
  endfacet
  facet normal -0.579808 -0.814753 0
    outer loop
      vertex 4.09901 10.8 0.799999
      vertex 5.22318 10 23
      vertex 4.09901 10.8 23
    endloop
  endfacet
  facet normal -0.579808 -0.814753 -0
    outer loop
      vertex 5.22318 10 23
      vertex 4.09901 10.8 0.799999
      vertex 5.22318 10 0.799999
    endloop
  endfacet
  facet normal -0.250954 -0.967999 0
    outer loop
      vertex 0 12.1962 0.799999
      vertex 0.799999 11.9888 23
      vertex 0 12.1962 23
    endloop
  endfacet
  facet normal -0.250954 -0.967999 -0
    outer loop
      vertex 0.799999 11.9888 23
      vertex 0 12.1962 0.799999
      vertex 0.799999 11.9888 0.799999
    endloop
  endfacet
  facet normal 0.9531 -0.302657 0
    outer loop
      vertex -3.1878 10 23
      vertex -2.93376 10.8 0.799999
      vertex -2.93376 10.8 23
    endloop
  endfacet
  facet normal 0.9531 -0.302657 0
    outer loop
      vertex -2.93376 10.8 0.799999
      vertex -3.1878 10 23
      vertex -3.1878 10 0.799999
    endloop
  endfacet
  facet normal 0.94094 0.338574 0
    outer loop
      vertex -6.46372 0 23
      vertex -6.75158 0.799999 0.799999
      vertex -6.75158 0.799999 23
    endloop
  endfacet
  facet normal 0.94094 0.338574 0
    outer loop
      vertex -6.75158 0.799999 0.799999
      vertex -6.46372 0 23
      vertex -6.46372 0 0.799999
    endloop
  endfacet
  facet normal 0.94094 0.338573 0
    outer loop
      vertex -2.87207 -9.98177 23
      vertex -3.15337 -9.2 0.799999
      vertex -3.15337 -9.2 23
    endloop
  endfacet
  facet normal 0.94094 0.338573 0
    outer loop
      vertex -3.15337 -9.2 0.799999
      vertex -2.87207 -9.98177 23
      vertex -2.87207 -9.98177 0.799999
    endloop
  endfacet
  facet normal 0.899015 0.437918 0
    outer loop
      vertex -2.86319 -10 23
      vertex -2.87207 -9.98177 0.799999
      vertex -2.87207 -9.98177 23
    endloop
  endfacet
  facet normal 0.899015 0.437918 0
    outer loop
      vertex -2.87207 -9.98177 0.799999
      vertex -2.86319 -10 23
      vertex -2.86319 -10 0.799999
    endloop
  endfacet
  facet normal -0.904656 0.426143 0
    outer loop
      vertex -1.05662 -10 0.799999
      vertex -0.679776 -9.2 23
      vertex -0.679776 -9.2 0.799999
    endloop
  endfacet
  facet normal -0.904656 0.426143 0
    outer loop
      vertex -0.679776 -9.2 23
      vertex -1.05662 -10 0.799999
      vertex -1.05662 -10 23
    endloop
  endfacet
  facet normal -0.904658 0.426139 0
    outer loop
      vertex 0 -7.75689 0.799999
      vertex 0.799999 -6.05856 23
      vertex 0.799999 -6.05856 0.799999
    endloop
  endfacet
  facet normal -0.904658 0.426139 0
    outer loop
      vertex 0.799999 -6.05856 23
      vertex 0 -7.75689 0.799999
      vertex 0 -7.75689 23
    endloop
  endfacet
  facet normal 0 0 1
    outer loop
      vertex 4.64999 14.09 25
      vertex 9.64006 9.55698 25
      vertex 10.58 9.87 25
    endloop
  endfacet
  facet normal 0 0 1
    outer loop
      vertex 4.64999 14.09 25
      vertex 4.30635 13.3526 25
      vertex 9.64006 9.55698 25
    endloop
  endfacet
  facet normal 0 0 1
    outer loop
      vertex 4.64999 14.09 25
      vertex -3.76692 15.4454 25
      vertex 4.30635 13.3526 25
    endloop
  endfacet
  facet normal 0 0 1
    outer loop
      vertex -4.29999 16.41 25
      vertex -3.76692 15.4454 25
      vertex 4.64999 14.09 25
    endloop
  endfacet
  facet normal 0 0 1
    outer loop
      vertex -5.64 12.19 25
      vertex -3.76692 15.4454 25
      vertex -4.29999 16.41 25
    endloop
  endfacet
  facet normal 0 0 1
    outer loop
      vertex -3.76692 15.4454 25
      vertex -5.64 12.19 25
      vertex -5.07237 11.3342 25
    endloop
  endfacet
  facet normal 0 0 1
    outer loop
      vertex -5.64 12.19 25
      vertex -11.4543 11.9229 25
      vertex -5.07237 11.3342 25
    endloop
  endfacet
  facet normal 0 -0 1
    outer loop
      vertex -11.4543 11.9229 25
      vertex -5.64 12.19 25
      vertex -12.47 12.82 25
    endloop
  endfacet
  facet normal -0 0 1
    outer loop
      vertex 9.64006 9.55698 25
      vertex 8.78999 4.26999 25
      vertex 10.58 9.87 25
    endloop
  endfacet
  facet normal 0 -0 1
    outer loop
      vertex 8.78999 4.26999 25
      vertex 9.64006 9.55698 25
      vertex 7.95357 4.28076 25
    endloop
  endfacet
  facet normal 0 0 1
    outer loop
      vertex 8.78999 4.26999 25
      vertex 9.17993 0.0732269 25
      vertex 10.02 0.0499878 25
    endloop
  endfacet
  facet normal 0 0 1
    outer loop
      vertex 9.17993 0.0732269 25
      vertex 8.78999 4.26999 25
      vertex 7.95357 4.28076 25
    endloop
  endfacet
  facet normal 0 0 1
    outer loop
      vertex 7.47235 -4.77089 25
      vertex 10.02 0.0499878 25
      vertex 9.17993 0.0732269 25
    endloop
  endfacet
  facet normal 0 0 1
    outer loop
      vertex 10.02 0.0499878 25
      vertex 7.47235 -4.77089 25
      vertex 8.12 -5.34 25
    endloop
  endfacet
  facet normal 0 0 1
    outer loop
      vertex 7.47235 -4.77089 25
      vertex 3.31 -7.76999 25
      vertex 8.12 -5.34 25
    endloop
  endfacet
  facet normal -0 0 1
    outer loop
      vertex 2.70357 -7.18005 25
      vertex 3.31 -7.76999 25
      vertex 7.47235 -4.77089 25
    endloop
  endfacet
  facet normal 0 0 1
    outer loop
      vertex -0.754807 -14.5219 25
      vertex 3.31 -7.76999 25
      vertex 2.70357 -7.18005 25
    endloop
  endfacet
  facet normal 0 0 1
    outer loop
      vertex 3.31 -7.76999 25
      vertex -0.754807 -14.5219 25
      vertex -0.269989 -15.37 25
    endloop
  endfacet
  facet normal 0 0 1
    outer loop
      vertex -3.73999 -15.05 25
      vertex -0.754807 -14.5219 25
      vertex -3.21805 -14.2947 25
    endloop
  endfacet
  facet normal 0 0 1
    outer loop
      vertex -0.754807 -14.5219 25
      vertex -3.73999 -15.05 25
      vertex -0.269989 -15.37 25
    endloop
  endfacet
  facet normal -0 0 1
    outer loop
      vertex -5.64 -11.15 25
      vertex -3.21805 -14.2947 25
      vertex -4.9019 -10.8384 25
    endloop
  endfacet
  facet normal 0 0 1
    outer loop
      vertex -3.21805 -14.2947 25
      vertex -5.64 -11.15 25
      vertex -3.73999 -15.05 25
    endloop
  endfacet
  facet normal 0 0 1
    outer loop
      vertex -8.89967 0.272003 25
      vertex -5.64 -11.15 25
      vertex -4.9019 -10.8384 25
    endloop
  endfacet
  facet normal 0 0 1
    outer loop
      vertex -8.89967 0.272003 25
      vertex -9.67 0.0499878 25
      vertex -5.64 -11.15 25
    endloop
  endfacet
  facet normal 0 0 1
    outer loop
      vertex -11.4543 11.9229 25
      vertex -9.67 0.0499878 25
      vertex -8.89967 0.272003 25
    endloop
  endfacet
  facet normal 0 0 1
    outer loop
      vertex -9.67 0.0499878 25
      vertex -11.4543 11.9229 25
      vertex -12.47 12.82 25
    endloop
  endfacet
  facet normal 0.45092 -0.892565 0
    outer loop
      vertex 3.31 -7.76999 0
      vertex 8.12 -5.34 25
      vertex 3.31 -7.76999 25
    endloop
  endfacet
  facet normal 0.45092 -0.892565 0
    outer loop
      vertex 8.12 -5.34 25
      vertex 3.31 -7.76999 0
      vertex 8.12 -5.34 0
    endloop
  endfacet
  facet normal -0.953103 0.302646 0
    outer loop
      vertex -5.64 12.19 0
      vertex -4.29999 16.41 25
      vertex -4.29999 16.41 0
    endloop
  endfacet
  facet normal -0.953103 0.302646 0
    outer loop
      vertex -4.29999 16.41 25
      vertex -5.64 12.19 0
      vertex -5.64 12.19 25
    endloop
  endfacet
  facet normal -0.898989 -0.437971 0
    outer loop
      vertex -3.73999 -15.05 0
      vertex -5.64 -11.15 25
      vertex -5.64 -11.15 0
    endloop
  endfacet
  facet normal -0.898989 -0.437971 0
    outer loop
      vertex -5.64 -11.15 25
      vertex -3.73999 -15.05 0
      vertex -3.73999 -15.05 25
    endloop
  endfacet
  facet normal -0.0918293 -0.995775 0
    outer loop
      vertex -3.73999 -15.05 0
      vertex -0.269989 -15.37 25
      vertex -3.73999 -15.05 25
    endloop
  endfacet
  facet normal -0.0918293 -0.995775 -0
    outer loop
      vertex -0.269989 -15.37 25
      vertex -3.73999 -15.05 0
      vertex -0.269989 -15.37 0
    endloop
  endfacet
  facet normal 0 0 1
    outer loop
      vertex 9.01752 10 0.799999
      vertex 7.95357 4.28076 0.799999
      vertex 9.64006 9.55698 0.799999
    endloop
  endfacet
  facet normal -0 0 1
    outer loop
      vertex 5.22318 10 0.799999
      vertex 7.95357 4.28076 0.799999
      vertex 9.01752 10 0.799999
    endloop
  endfacet
  facet normal 0 0 1
    outer loop
      vertex 7.95357 4.28076 0.799999
      vertex 5.22318 10 0.799999
      vertex 6.67655 0.799999 0.799999
    endloop
  endfacet
  facet normal 0 0 1
    outer loop
      vertex 8.9681 0.799999 0.799999
      vertex 7.95357 4.28076 0.799999
      vertex 6.67655 0.799999 0.799999
    endloop
  endfacet
  facet normal 0 0 1
    outer loop
      vertex 6.86977 0.1371 0.799999
      vertex 6.67655 0.799999 0.799999
      vertex 6.82144 0 0.799999
    endloop
  endfacet
  facet normal -0 0 1
    outer loop
      vertex 6.82144 0 0.799999
      vertex 7.47235 -4.77089 0.799999
      vertex 9.15412 0 0.799999
    endloop
  endfacet
  facet normal 0 0 1
    outer loop
      vertex 0.799999 -6.05856 0.799999
      vertex 6.82144 0 0.799999
      vertex 6.67655 0.799999 0.799999
    endloop
  endfacet
  facet normal 0 0 1
    outer loop
      vertex 4.09901 10.8 0.799999
      vertex 6.67655 0.799999 0.799999
      vertex 5.22318 10 0.799999
    endloop
  endfacet
  facet normal 0 0 1
    outer loop
      vertex 0.799999 11.9888 0.799999
      vertex 6.67655 0.799999 0.799999
      vertex 4.09901 10.8 0.799999
    endloop
  endfacet
  facet normal 0 0 1
    outer loop
      vertex 6.82144 0 0.799999
      vertex 0.799999 -6.05856 0.799999
      vertex 7.47235 -4.77089 0.799999
    endloop
  endfacet
  facet normal 0 0 1
    outer loop
      vertex -3.76692 15.4454 0.799999
      vertex 0 12.1962 0.799999
      vertex 0 14.4689 0.799999
    endloop
  endfacet
  facet normal 0 0 1
    outer loop
      vertex 0 12.1962 0.799999
      vertex -3.1878 10 0.799999
      vertex 0 -7.75689 0.799999
    endloop
  endfacet
  facet normal -0 0 1
    outer loop
      vertex -6.46372 0 0.799999
      vertex 0 -7.75689 0.799999
      vertex -3.1878 10 0.799999
    endloop
  endfacet
  facet normal 0 -0 1
    outer loop
      vertex -3.15337 -9.2 0.799999
      vertex 0 -7.75689 0.799999
      vertex -6.46372 0 0.799999
    endloop
  endfacet
  facet normal 0 0 1
    outer loop
      vertex 0 -7.75689 0.799999
      vertex -0.679776 -9.2 0.799999
      vertex 0 -9.2 0.799999
    endloop
  endfacet
  facet normal -0 -0 1
    outer loop
      vertex -2.87207 -9.98177 0.799999
      vertex -1.05662 -10 0.799999
      vertex -3.15337 -9.2 0.799999
    endloop
  endfacet
  facet normal 0 0 1
    outer loop
      vertex 0 12.1962 0.799999
      vertex -2.93376 10.8 0.799999
      vertex -3.1878 10 0.799999
    endloop
  endfacet
  facet normal 0 0 1
    outer loop
      vertex 0 12.1962 0.799999
      vertex -3.76692 15.4454 0.799999
      vertex -2.93376 10.8 0.799999
    endloop
  endfacet
  facet normal -0 0 1
    outer loop
      vertex -5.07237 11.3342 0.799999
      vertex -2.93376 10.8 0.799999
      vertex -3.76692 15.4454 0.799999
    endloop
  endfacet
  facet normal 0 0 1
    outer loop
      vertex -9.2 10.8 0.799999
      vertex -5.07237 11.3342 0.799999
      vertex -9.2 11.715 0.799999
    endloop
  endfacet
  facet normal 0 0 1
    outer loop
      vertex -5.07237 11.3342 0.799999
      vertex -9.2 10.8 0.799999
      vertex -2.93376 10.8 0.799999
    endloop
  endfacet
  facet normal 0 0 1
    outer loop
      vertex 6.67655 0.799999 0.799999
      vertex 0 12.1962 0.799999
      vertex 0.799999 -6.05856 0.799999
    endloop
  endfacet
  facet normal 0 0 1
    outer loop
      vertex 0.799999 -6.05856 0.799999
      vertex 0 12.1962 0.799999
      vertex 0 -7.75689 0.799999
    endloop
  endfacet
  facet normal 0 0 1
    outer loop
      vertex 4.30635 13.3526 0.799999
      vertex 4.09901 10.8 0.799999
      vertex 7.89335 10.8 0.799999
    endloop
  endfacet
  facet normal 0 0 1
    outer loop
      vertex 7.47235 -4.77089 0.799999
      vertex 0.799999 -6.05856 0.799999
      vertex 2.70357 -7.18005 0.799999
    endloop
  endfacet
  facet normal -0 0 1
    outer loop
      vertex 0.799999 11.9888 0.799999
      vertex 4.09901 10.8 0.799999
      vertex 4.30635 13.3526 0.799999
    endloop
  endfacet
  facet normal 0 0 1
    outer loop
      vertex 0.799999 11.9888 0.799999
      vertex 4.30635 13.3526 0.799999
      vertex 0.799999 14.2615 0.799999
    endloop
  endfacet
  facet normal 0 0 1
    outer loop
      vertex 0 12.1962 0.799999
      vertex 6.67655 0.799999 0.799999
      vertex 0.799999 11.9888 0.799999
    endloop
  endfacet
  facet normal 0 0 1
    outer loop
      vertex 0.799999 -9.2 0.799999
      vertex 2.70357 -7.18005 0.799999
      vertex 0.799999 -6.05856 0.799999
    endloop
  endfacet
  facet normal 0 0 1
    outer loop
      vertex 2.70357 -7.18005 0.799999
      vertex 0.799999 -9.2 0.799999
      vertex 1.75207 -9.2 0.799999
    endloop
  endfacet
  facet normal -0 0 1
    outer loop
      vertex -1.05662 -10 0.799999
      vertex 0 -12.9195 0.799999
      vertex 0 -10 0.799999
    endloop
  endfacet
  facet normal -0 0 1
    outer loop
      vertex -2.86319 -10 0.799999
      vertex 0 -12.9195 0.799999
      vertex -1.05662 -10 0.799999
    endloop
  endfacet
  facet normal 0 0 1
    outer loop
      vertex 0 -12.9195 0.799999
      vertex -2.86319 -10 0.799999
      vertex -3.21805 -14.2947 0.799999
    endloop
  endfacet
  facet normal 0 0 1
    outer loop
      vertex 0 -12.9195 0.799999
      vertex -3.21805 -14.2947 0.799999
      vertex -0.754807 -14.5219 0.799999
    endloop
  endfacet
  facet normal 0 0 1
    outer loop
      vertex -2.86319 -10 0.799999
      vertex -4.9019 -10.8384 0.799999
      vertex -3.21805 -14.2947 0.799999
    endloop
  endfacet
  facet normal 0 -0 1
    outer loop
      vertex -4.9019 -10.8384 0.799999
      vertex -2.86319 -10 0.799999
      vertex -5.20359 -10 0.799999
    endloop
  endfacet
  facet normal 0 0 1
    outer loop
      vertex 0 -7.75689 0.799999
      vertex -3.15337 -9.2 0.799999
      vertex -0.679776 -9.2 0.799999
    endloop
  endfacet
  facet normal 0 0 1
    outer loop
      vertex -1.05662 -10 0.799999
      vertex -2.87207 -9.98177 0.799999
      vertex -2.86319 -10 0.799999
    endloop
  endfacet
  facet normal 0 0 1
    outer loop
      vertex -0.679776 -9.2 0.799999
      vertex -3.15337 -9.2 0.799999
      vertex -1.05662 -10 0.799999
    endloop
  endfacet
  facet normal 0 0 1
    outer loop
      vertex -3.15337 -9.2 0.799999
      vertex -6.46372 0 0.799999
      vertex -5.49145 -9.2 0.799999
    endloop
  endfacet
  facet normal 0 0 1
    outer loop
      vertex -3.1878 10 0.799999
      vertex -6.75158 0.799999 0.799999
      vertex -6.46372 0 0.799999
    endloop
  endfacet
  facet normal -0 0 1
    outer loop
      vertex -9.2 10 0.799999
      vertex -6.75158 0.799999 0.799999
      vertex -3.1878 10 0.799999
    endloop
  endfacet
  facet normal 0 0 1
    outer loop
      vertex -6.75158 0.799999 0.799999
      vertex -9.2 10 0.799999
      vertex -9.2 1.64171 0.799999
    endloop
  endfacet
  facet normal 0 0 1
    outer loop
      vertex -6.75158 0.799999 0.799999
      vertex -9.2 1.64171 0.799999
      vertex -9.01544 0.799999 0.799999
    endloop
  endfacet
  facet normal 0 0 1
    outer loop
      vertex -5.49145 -9.2 0.799999
      vertex -6.46372 0 0.799999
      vertex -8.8018 0 0.799999
    endloop
  endfacet
  facet normal 0 0 1
    outer loop
      vertex -10 11.7888 0.799999
      vertex -11.2081 10.8 0.799999
      vertex -10 10.8 0.799999
    endloop
  endfacet
  facet normal 0 -0 1
    outer loop
      vertex -11.2081 10.8 0.799999
      vertex -10 11.7888 0.799999
      vertex -11.4543 11.9229 0.799999
    endloop
  endfacet
  facet normal 0 0 1
    outer loop
      vertex -10 10 0.799999
      vertex -11.0327 10 0.799999
      vertex -10 5.2903 0.799999
    endloop
  endfacet
  facet normal -0 0 1
    outer loop
      vertex 0.799999 -10 0.799999
      vertex 0.799999 -11.2212 0.799999
      vertex 1.37523 -10 0.799999
    endloop
  endfacet
  facet normal -0.450919 0.892565 0
    outer loop
      vertex 7.47235 -4.77089 0.799999
      vertex 2.70357 -7.18005 25
      vertex 7.47235 -4.77089 25
    endloop
  endfacet
  facet normal -0.450919 0.892565 0
    outer loop
      vertex 2.70357 -7.18005 25
      vertex 7.47235 -4.77089 0.799999
      vertex 2.70357 -7.18005 0.799999
    endloop
  endfacet
  facet normal -0.943119 0.332456 0
    outer loop
      vertex 9.15412 0 0.799999
      vertex 7.47235 -4.77089 0.799999
      vertex 9.15412 0 23
    endloop
  endfacet
  facet normal -0.943131 0.332422 0
    outer loop
      vertex 9.15412 0 23
      vertex 9.17993 0.0732269 25
      vertex 9.17993 0.0732269 23
    endloop
  endfacet
  facet normal -0.943119 0.332456 0
    outer loop
      vertex 7.47235 -4.77089 25
      vertex 9.15412 0 23
      vertex 7.47235 -4.77089 0.799999
    endloop
  endfacet
  facet normal -0.943119 0.332455 -1.37578e-06
    outer loop
      vertex 9.15412 0 23
      vertex 7.47235 -4.77089 25
      vertex 9.17993 0.0732269 25
    endloop
  endfacet
  facet normal -0.960051 -0.279824 -0
    outer loop
      vertex 8.9681 0.799999 23
      vertex 7.95357 4.28076 0.799999
      vertex 8.9681 0.799999 0.799999
    endloop
  endfacet
  facet normal -0.960051 -0.279824 0
    outer loop
      vertex 7.95357 4.28076 0.799999
      vertex 8.9681 0.799999 23
      vertex 7.95357 4.28076 25
    endloop
  endfacet
  facet normal -0.960052 -0.279823 -0
    outer loop
      vertex 9.17993 0.0732269 25
      vertex 8.9681 0.799999 23
      vertex 9.17993 0.0732269 23
    endloop
  endfacet
  facet normal -0.960051 -0.279824 -2.8476e-07
    outer loop
      vertex 8.9681 0.799999 23
      vertex 9.17993 0.0732269 25
      vertex 7.95357 4.28076 25
    endloop
  endfacet
  facet normal -0.952524 0.304464 0
    outer loop
      vertex 7.95357 4.28076 0.799999
      vertex 9.64006 9.55698 25
      vertex 9.64006 9.55698 0.799999
    endloop
  endfacet
  facet normal -0.952524 0.304464 0
    outer loop
      vertex 9.64006 9.55698 25
      vertex 7.95357 4.28076 0.799999
      vertex 7.95357 4.28076 25
    endloop
  endfacet
  facet normal -0.579804 -0.814756 -4.64332e-06
    outer loop
      vertex 4.30635 13.3526 25
      vertex 7.89335 10.8 23
      vertex 9.64006 9.55698 25
    endloop
  endfacet
  facet normal -0.579802 -0.814757 0
    outer loop
      vertex 4.30635 13.3526 0.799999
      vertex 7.89335 10.8 23
      vertex 4.30635 13.3526 25
    endloop
  endfacet
  facet normal -0.579802 -0.814757 -0
    outer loop
      vertex 7.89335 10.8 23
      vertex 4.30635 13.3526 0.799999
      vertex 7.89335 10.8 0.799999
    endloop
  endfacet
  facet normal -0.579808 -0.814753 7.99628e-07
    outer loop
      vertex 9.01752 10 23
      vertex 9.64006 9.55698 25
      vertex 7.89335 10.8 23
    endloop
  endfacet
  facet normal -0.579806 -0.814754 0
    outer loop
      vertex 9.64006 9.55698 0.799999
      vertex 9.01752 10 23
      vertex 9.01752 10 0.799999
    endloop
  endfacet
  facet normal -0.579806 -0.814754 0
    outer loop
      vertex 9.01752 10 23
      vertex 9.64006 9.55698 0.799999
      vertex 9.64006 9.55698 25
    endloop
  endfacet
  facet normal -0.250932 -0.968005 8.27201e-06
    outer loop
      vertex -3.76692 15.4454 25
      vertex 0 14.4689 23
      vertex 4.30635 13.3526 25
    endloop
  endfacet
  facet normal -0.250936 -0.968004 0
    outer loop
      vertex -3.76692 15.4454 0.799999
      vertex 0 14.4689 23
      vertex -3.76692 15.4454 25
    endloop
  endfacet
  facet normal -0.250936 -0.968004 -0
    outer loop
      vertex 0 14.4689 23
      vertex -3.76692 15.4454 0.799999
      vertex 0 14.4689 0.799999
    endloop
  endfacet
  facet normal -0.250954 -0.967999 5.93543e-05
    outer loop
      vertex 0.799999 14.2615 23
      vertex 4.30635 13.3526 25
      vertex 0 14.4689 23
    endloop
  endfacet
  facet normal -0.250922 -0.968007 0
    outer loop
      vertex 4.30635 13.3526 0.799999
      vertex 0.799999 14.2615 23
      vertex 0.799999 14.2615 0.799999
    endloop
  endfacet
  facet normal -0.250922 -0.968007 0
    outer loop
      vertex 0.799999 14.2615 23
      vertex 4.30635 13.3526 0.799999
      vertex 4.30635 13.3526 25
    endloop
  endfacet
  facet normal 0.953104 -0.302644 0
    outer loop
      vertex -5.07237 11.3342 25
      vertex -3.76692 15.4454 0.799999
      vertex -3.76692 15.4454 25
    endloop
  endfacet
  facet normal 0.953104 -0.302644 0
    outer loop
      vertex -3.76692 15.4454 0.799999
      vertex -5.07237 11.3342 25
      vertex -5.07237 11.3342 0.799999
    endloop
  endfacet
  facet normal -0.09186 -0.995772 -2.94624e-05
    outer loop
      vertex -9.2 11.715 23
      vertex -11.4543 11.9229 25
      vertex -10 11.7888 23
    endloop
  endfacet
  facet normal -0.0918198 -0.995776 0
    outer loop
      vertex -11.4543 11.9229 0.799999
      vertex -10 11.7888 23
      vertex -11.4543 11.9229 25
    endloop
  endfacet
  facet normal -0.0918198 -0.995776 -0
    outer loop
      vertex -10 11.7888 23
      vertex -11.4543 11.9229 0.799999
      vertex -10 11.7888 0.799999
    endloop
  endfacet
  facet normal -0.0918548 -0.995772 -2.36513e-05
    outer loop
      vertex -11.4543 11.9229 25
      vertex -9.2 11.715 23
      vertex -5.07237 11.3342 25
    endloop
  endfacet
  facet normal -0.0918662 -0.995771 0
    outer loop
      vertex -5.07237 11.3342 0.799999
      vertex -9.2 11.715 23
      vertex -9.2 11.715 0.799999
    endloop
  endfacet
  facet normal -0.0918662 -0.995771 0
    outer loop
      vertex -9.2 11.715 23
      vertex -5.07237 11.3342 0.799999
      vertex -5.07237 11.3342 25
    endloop
  endfacet
  facet normal 0.976797 0.214166 0
    outer loop
      vertex -11.4543 11.9229 25
      vertex -11.2081 10.8 23
      vertex -11.4543 11.9229 0.799999
    endloop
  endfacet
  facet normal 0.976798 0.214163 2.03907e-06
    outer loop
      vertex -11.4543 11.9229 25
      vertex -11.0327 10 23
      vertex -11.2081 10.8 23
    endloop
  endfacet
  facet normal 0.976794 0.214182 0
    outer loop
      vertex -11.0327 10 23
      vertex -10 5.2903 23
      vertex -11.0327 10 0.799999
    endloop
  endfacet
  facet normal 0.976794 0.214182 -1.75575e-05
    outer loop
      vertex -11.4543 11.9229 25
      vertex -10 5.2903 23
      vertex -11.0327 10 23
    endloop
  endfacet
  facet normal 0.976795 0.214177 2.53901e-06
    outer loop
      vertex -8.89967 0.272003 25
      vertex -10 5.2903 23
      vertex -11.4543 11.9229 25
    endloop
  endfacet
  facet normal 0.976794 0.214179 0
    outer loop
      vertex -9.2 1.64171 23
      vertex -9.01544 0.799999 23
      vertex -9.2 1.64171 0.799999
    endloop
  endfacet
  facet normal 0.976795 0.214175 -2.06608e-06
    outer loop
      vertex -10 5.2903 23
      vertex -8.89967 0.272003 25
      vertex -9.2 1.64171 23
    endloop
  endfacet
  facet normal 0.976794 0.214179 1.19489e-06
    outer loop
      vertex -9.2 1.64171 23
      vertex -8.89967 0.272003 25
      vertex -9.01544 0.799999 23
    endloop
  endfacet
  facet normal 0.976795 0.214175 0
    outer loop
      vertex -9.01544 0.799999 23
      vertex -8.89967 0.272003 25
      vertex -8.89967 0.272003 23
    endloop
  endfacet
  facet normal 0.976797 0.214166 0
    outer loop
      vertex -11.4543 11.9229 0.799999
      vertex -11.2081 10.8 23
      vertex -11.2081 10.8 0.799999
    endloop
  endfacet
  facet normal 0.976794 0.214182 0
    outer loop
      vertex -11.0327 10 0.799999
      vertex -10 5.2903 23
      vertex -10 5.2903 0.799999
    endloop
  endfacet
  facet normal 0.976794 0.214179 0
    outer loop
      vertex -9.2 1.64171 0.799999
      vertex -9.01544 0.799999 23
      vertex -9.01544 0.799999 0.799999
    endloop
  endfacet
  facet normal 0.940944 0.338563 0
    outer loop
      vertex -8.89967 0.272003 25
      vertex -8.8018 0 23
      vertex -8.89967 0.272003 23
    endloop
  endfacet
  facet normal 0.940941 0.33857 0
    outer loop
      vertex -8.8018 0 23
      vertex -5.49145 -9.2 23
      vertex -8.8018 0 0.799999
    endloop
  endfacet
  facet normal 0.940941 0.33857 -1.0806e-06
    outer loop
      vertex -8.89967 0.272003 25
      vertex -5.49145 -9.2 23
      vertex -8.8018 0 23
    endloop
  endfacet
  facet normal 0.940941 0.338571 -8.11842e-06
    outer loop
      vertex -4.9019 -10.8384 25
      vertex -5.49145 -9.2 23
      vertex -8.89967 0.272003 25
    endloop
  endfacet
  facet normal 0.94094 0.338574 -5.98438e-06
    outer loop
      vertex -5.49145 -9.2 23
      vertex -4.9019 -10.8384 25
      vertex -5.20359 -10 23
    endloop
  endfacet
  facet normal 0.940935 0.338586 -0
    outer loop
      vertex -4.9019 -10.8384 0.799999
      vertex -5.20359 -10 23
      vertex -4.9019 -10.8384 25
    endloop
  endfacet
  facet normal 0.940935 0.338586 0
    outer loop
      vertex -5.20359 -10 23
      vertex -4.9019 -10.8384 0.799999
      vertex -5.20359 -10 0.799999
    endloop
  endfacet
  facet normal 0.940941 0.33857 0
    outer loop
      vertex -8.8018 0 0.799999
      vertex -5.49145 -9.2 23
      vertex -5.49145 -9.2 0.799999
    endloop
  endfacet
  facet normal 0.898989 0.437972 0
    outer loop
      vertex -3.21805 -14.2947 25
      vertex -4.9019 -10.8384 0.799999
      vertex -4.9019 -10.8384 25
    endloop
  endfacet
  facet normal 0.898989 0.437972 0
    outer loop
      vertex -4.9019 -10.8384 0.799999
      vertex -3.21805 -14.2947 25
      vertex -3.21805 -14.2947 0.799999
    endloop
  endfacet
  facet normal 0.0918463 0.995773 -0
    outer loop
      vertex -0.754807 -14.5219 0.799999
      vertex -3.21805 -14.2947 25
      vertex -0.754807 -14.5219 25
    endloop
  endfacet
  facet normal 0.0918463 0.995773 0
    outer loop
      vertex -3.21805 -14.2947 25
      vertex -0.754807 -14.5219 0.799999
      vertex -3.21805 -14.2947 0.799999
    endloop
  endfacet
  facet normal -0.904658 0.426137 0
    outer loop
      vertex 0 -12.9195 0.799999
      vertex -0.754807 -14.5219 0.799999
      vertex 0 -12.9195 23
    endloop
  endfacet
  facet normal -0.904662 0.42613 0
    outer loop
      vertex 1.37523 -10 0.799999
      vertex 0.799999 -11.2212 0.799999
      vertex 1.37523 -10 23
    endloop
  endfacet
  facet normal -0.904657 0.42614 0
    outer loop
      vertex 1.75207 -9.2 23
      vertex 2.70357 -7.18005 0.799999
      vertex 1.75207 -9.2 0.799999
    endloop
  endfacet
  facet normal -0.904657 0.42614 0
    outer loop
      vertex 2.70357 -7.18005 0.799999
      vertex 1.75207 -9.2 23
      vertex 2.70357 -7.18005 25
    endloop
  endfacet
  facet normal -0.904658 0.426139 1.15457e-06
    outer loop
      vertex 1.37523 -10 23
      vertex 2.70357 -7.18005 25
      vertex 1.75207 -9.2 23
    endloop
  endfacet
  facet normal -0.904662 0.42613 0
    outer loop
      vertex 0.799999 -11.2212 23
      vertex 1.37523 -10 23
      vertex 0.799999 -11.2212 0.799999
    endloop
  endfacet
  facet normal -0.904662 0.42613 1.70937e-05
    outer loop
      vertex 0.799999 -11.2212 23
      vertex 2.70357 -7.18005 25
      vertex 1.37523 -10 23
    endloop
  endfacet
  facet normal -0.904655 0.426145 7.90221e-06
    outer loop
      vertex -0.754807 -14.5219 25
      vertex 0.799999 -11.2212 23
      vertex 0 -12.9195 23
    endloop
  endfacet
  facet normal -0.904658 0.426139 -5.38882e-06
    outer loop
      vertex 0.799999 -11.2212 23
      vertex -0.754807 -14.5219 25
      vertex 2.70357 -7.18005 25
    endloop
  endfacet
  facet normal -0.904658 0.426137 0
    outer loop
      vertex -0.754807 -14.5219 25
      vertex 0 -12.9195 23
      vertex -0.754807 -14.5219 0.799999
    endloop
  endfacet
endsolid OpenSCAD_Model
