<svg xmlns="http://www.w3.org/2000/svg">
      <path d="M -21.13,-30.43 -17.1,-26.31 -9.94,-24.1 -6.02,-25.05 2.93,-29.27 8.41,-31.07 16.36,-33.07 23.18,-34.44 39.97,-31.81 48.02,-29.27 47.69,-22.51 40.64,7.48 38.73,17.93 37.39,17.72 30.57,17.4 22.17,22.47 15.8,25.32 9.42,29.33 7.85,31.34 -4.57,34.93 -11.62,33.14 -16.54,34.3 -24.26,34.3 -24.93,29.44 -28.96,22.47 -34.89,18.04 -31.31,15.08 -26.05,9.17 -16.54,8.11 -15.42,1.46 -11.51,0.82 -18.33,-14.17 -22.7,-20.72 -26.16,-27.58 -21.13,-30.43 Z" />
    </svg>
