<svg xmlns="http://www.w3.org/2000/svg">
      <path d="M -167.48,20.96 -173.18,15.89 -175.2,11.88 -179.56,11.56 -181.58,9.24 -185.04,-3.33 -197.24,-38.39 -199.25,-43.46 -202.39,-48 -204.18,-55.39 -204.51,-65.53 -201.83,-73.87 -195.67,-85.27 -189.52,-94.56 -186.16,-98.15 -185.6,-100.79 -182.36,-105.65 -178.22,-109.35 -167.7,-113.36 -157.74,-116.32 -153.49,-116.74 -145.88,-115.68 -131,-109.98 -124.62,-112.73 -120.15,-113.25 -109.52,-110.4 -104.93,-121.28 -49.99,-101.22 -39.81,-97.1 -24.03,-90.13 -17.65,-86.86 -8.92,-81.36 -2.54,-76.61 21.74,-55.92 38.41,-41.98 48.82,-33.85 63.59,-23.5 58.55,-17.48 95.48,13.25 95.92,18.95 99.84,25.81 101.97,31.2 103.64,38.38 105.55,50 108.23,49.57 113.6,53.69 143.14,63.3 146.05,58.34 150.08,45.67 151.65,46.83 160.26,52.42 171.68,58.44 180.18,61.61 196.96,65.52 212.18,68.05 218.11,87.69 219.68,95.4 224.49,111.35 230.08,125.6 169.44,124.33 152.32,124.02 147.51,123.49 139.67,120.53 133.07,116.63 117.74,107.44 111.7,101.21 108.01,92.66 105.99,83.26 104.2,78.72 96.71,64.78 91.45,58.34 83.06,51.9 70.97,41.13 58.77,33.31 49.49,25.6 45.23,21.06 41.09,20.01 35.84,18.95 35.28,13.67 31.02,5.65 25.88,2.16 17.15,0.26 8.98,-4.81 6.07,-5.76 -28.06,-13.68 -28.5,-11.88 -34.32,-14.52 -41.6,2.58 -41.37,9.24 -51.78,-7.98 -61.18,-10.09 -73.04,-10.62 -83.33,-8.72 -88.93,-6.92 -167.48,20.96 Z" />
    </svg>
