solid OpenSCAD_Model
  facet normal 0 0 1
    outer loop
      vertex -9.2 -6.18577 23
      vertex -10 -7.15054 23
      vertex -9.2 -9.2 23
    endloop
  endfacet
  facet normal 0 0 1
    outer loop
      vertex -10 -9.2 23
      vertex -9.2 -9.2 23
      vertex -10 -7.15054 23
    endloop
  endfacet
  facet normal 0 0 1
    outer loop
      vertex -10.4343 -10 23
      vertex -9.2 -9.2 23
      vertex -10 -9.2 23
    endloop
  endfacet
  facet normal -0 0 1
    outer loop
      vertex -9.2 -9.2 23
      vertex -10.4343 -10 23
      vertex -7.42386 -9.2 23
    endloop
  endfacet
  facet normal -0 0 1
    outer loop
      vertex -10.836 -9.2 23
      vertex -10.4343 -10 23
      vertex -10 -9.2 23
    endloop
  endfacet
  facet normal 0 0 1
    outer loop
      vertex -10.4343 -10 23
      vertex -10.836 -9.2 23
      vertex -10.4385 -10 23
    endloop
  endfacet
  facet normal -0 0 1
    outer loop
      vertex -12.1987 10.8 23
      vertex -10 10 23
      vertex -10 10.8 23
    endloop
  endfacet
  facet normal -0 0 1
    outer loop
      vertex -12.2951 10.7238 23
      vertex -10 10 23
      vertex -12.1987 10.8 23
    endloop
  endfacet
  facet normal 0 0 1
    outer loop
      vertex -10 10 23
      vertex -12.2951 10.7238 23
      vertex -13.5331 10 23
    endloop
  endfacet
  facet normal 0 0 1
    outer loop
      vertex -10 10.8 23
      vertex -9.2 10.8 23
      vertex -9.2 11.8963 23
    endloop
  endfacet
  facet normal 0 0 1
    outer loop
      vertex -9.2 10.8 23
      vertex -10 10.8 23
      vertex -9.2 10 23
    endloop
  endfacet
  facet normal 0 0 1
    outer loop
      vertex -10 10 23
      vertex -9.2 10 23
      vertex -10 10.8 23
    endloop
  endfacet
  facet normal 0 0 1
    outer loop
      vertex -10 10.8 23
      vertex -9.2 11.8963 23
      vertex -10 11.9785 23
    endloop
  endfacet
  facet normal 0 -0 1
    outer loop
      vertex -9.96338 9.76314 23
      vertex -9.2 10 23
      vertex -10 10 23
    endloop
  endfacet
  facet normal 0 0 1
    outer loop
      vertex -9.2 10 23
      vertex -9.96338 9.76314 23
      vertex -9.2 9.68477 23
    endloop
  endfacet
  facet normal 0 0 1
    outer loop
      vertex -9.96338 9.76314 23
      vertex -10 10 23
      vertex -10 9.73417 23
    endloop
  endfacet
  facet normal -0 0 1
    outer loop
      vertex -9.2 10.8 23
      vertex 0 10 23
      vertex 0 10.8 23
    endloop
  endfacet
  facet normal 0 0 1
    outer loop
      vertex 0 10 23
      vertex -9.2 10.8 23
      vertex -9.2 10 23
    endloop
  endfacet
  facet normal 0 0 1
    outer loop
      vertex 0 10.8 23
      vertex 0.799999 10.8 23
      vertex 0.799999 10.8698 23
    endloop
  endfacet
  facet normal 0 0 1
    outer loop
      vertex 0.799999 10.8 23
      vertex 0 10.8 23
      vertex 0.799999 10 23
    endloop
  endfacet
  facet normal 0 0 1
    outer loop
      vertex 0 10.8 23
      vertex 0.799999 10.8698 23
      vertex 0 10.9519 23
    endloop
  endfacet
  facet normal 0 0 1
    outer loop
      vertex 0.799999 10 23
      vertex 0 10.8 23
      vertex 0 10 23
    endloop
  endfacet
  facet normal 0 0 1
    outer loop
      vertex 0 8.74033 23
      vertex 0.799999 10 23
      vertex 0 10 23
    endloop
  endfacet
  facet normal 0 0 1
    outer loop
      vertex 0.799999 10 23
      vertex 0 8.74033 23
      vertex 0.799999 8.6582 23
    endloop
  endfacet
  facet normal 0 0 1
    outer loop
      vertex 0.799999 10 23
      vertex 8.16463 10.1138 23
      vertex 1.47976 10.8 23
    endloop
  endfacet
  facet normal 0 0 1
    outer loop
      vertex 0.799999 10 23
      vertex 1.47976 10.8 23
      vertex 0.799999 10.8 23
    endloop
  endfacet
  facet normal 0 0 1
    outer loop
      vertex 8.16463 10.1138 23
      vertex 0.799999 10 23
      vertex 8.37138 10 23
    endloop
  endfacet
  facet normal 0 0 1
    outer loop
      vertex -10 0.799999 23
      vertex -9.2 0.799999 23
      vertex -9.2 4.68676 23
    endloop
  endfacet
  facet normal 0 -0 1
    outer loop
      vertex -9.97603 0.695786 23
      vertex -9.2 0.799999 23
      vertex -10 0.799999 23
    endloop
  endfacet
  facet normal 0 0 1
    outer loop
      vertex -9.2 0.799999 23
      vertex -9.97603 0.695786 23
      vertex -9.2 0 23
    endloop
  endfacet
  facet normal 0 0 1
    outer loop
      vertex -10 0.799999 23
      vertex -9.2 4.68676 23
      vertex -10 6.69142 23
    endloop
  endfacet
  facet normal 0 0 1
    outer loop
      vertex -9.2 0 23
      vertex -9.97603 0.695786 23
      vertex -9.2 -0.436713 23
    endloop
  endfacet
  facet normal 0 0 1
    outer loop
      vertex -9.97603 0.695786 23
      vertex -10 0.799999 23
      vertex -10.0176 0.799999 23
    endloop
  endfacet
  facet normal 0 0 1
    outer loop
      vertex -9.2 0 23
      vertex -7.3805 0.799999 23
      vertex -9.2 0.799999 23
    endloop
  endfacet
  facet normal 0 0 1
    outer loop
      vertex -7.3805 0.799999 23
      vertex -9.2 0 23
      vertex -6.83231 0 23
    endloop
  endfacet
  facet normal -0 0 1
    outer loop
      vertex 0 -5.50129 23
      vertex 0.799999 -7.61948 23
      vertex 0.799999 -5.4029 23
    endloop
  endfacet
  facet normal 0 0 1
    outer loop
      vertex 0.799999 -7.61948 23
      vertex 0 -5.50129 23
      vertex 0 -7.71788 23
    endloop
  endfacet
  facet normal 0 0 1
    outer loop
      vertex 10 -7.89557 23
      vertex 10.8 -5.7633 23
      vertex 10 -5.68509 23
    endloop
  endfacet
  facet normal 0 0 1
    outer loop
      vertex 10.8 -5.7633 23
      vertex 10 -7.89557 23
      vertex 10.8 -7.97378 23
    endloop
  endfacet
  facet normal 0 0 1
    outer loop
      vertex 10 9.10395 23
      vertex 10.8 7.70282 23
      vertex 10.2386 8.97269 23
    endloop
  endfacet
  facet normal 0 0 1
    outer loop
      vertex 10.8 7.70282 23
      vertex 10 9.10395 23
      vertex 10 4.11383 23
    endloop
  endfacet
  facet normal 0 0 1
    outer loop
      vertex 10.8 7.70282 23
      vertex 10 4.11383 23
      vertex 10.8 3.24761 23
    endloop
  endfacet
  facet normal 0 0 1
    outer loop
      vertex 16.0552 0.799999 23
      vertex 13.7993 0 23
      vertex 16.794 0 23
    endloop
  endfacet
  facet normal 0 -0 1
    outer loop
      vertex 13.7993 0 23
      vertex 16.0552 0.799999 23
      vertex 13.0605 0.799999 23
    endloop
  endfacet
  facet normal 0 0 -1
    outer loop
      vertex -10.8638 -10.9419 0
      vertex -8.04424 -3.53867 0
      vertex -3.28516 -8.92793 0
    endloop
  endfacet
  facet normal 0 0 -1
    outer loop
      vertex -8.04424 -3.53867 0
      vertex -10.8638 -10.9419 0
      vertex -12.1075 -8.43878 0
    endloop
  endfacet
  facet normal 0 0 -1
    outer loop
      vertex 14.7239 -5.96181 0
      vertex 12.5063 5.82181 0
      vertex 19.8006 -2.07629 0
    endloop
  endfacet
  facet normal 0 0 -1
    outer loop
      vertex 3.63373 -8.077 0
      vertex 14.7239 -5.96181 0
      vertex 13.9928 -9.08974 0
    endloop
  endfacet
  facet normal -0 0 -1
    outer loop
      vertex 14.7239 -5.96181 0
      vertex 3.63373 -8.077 0
      vertex 12.5063 5.82181 0
    endloop
  endfacet
  facet normal 0 -0 -1
    outer loop
      vertex 8.40793 10.893 0
      vertex 12.5063 5.82181 0
      vertex 3.63373 -8.077 0
    endloop
  endfacet
  facet normal 0 0 -1
    outer loop
      vertex 12.5063 5.82181 0
      vertex 8.40793 10.893 0
      vertex 10.861 9.54333 0
    endloop
  endfacet
  facet normal 0 0 -1
    outer loop
      vertex -8.04424 -3.53867 0
      vertex 3.63373 -8.077 0
      vertex -3.28516 -8.92793 0
    endloop
  endfacet
  facet normal 0 0 -1
    outer loop
      vertex 3.63373 -8.077 0
      vertex -8.04424 -3.53867 0
      vertex 8.40793 10.893 0
    endloop
  endfacet
  facet normal 0 0 -1
    outer loop
      vertex -10.6862 0.316849 0
      vertex 8.40793 10.893 0
      vertex -8.04424 -3.53867 0
    endloop
  endfacet
  facet normal 0 0 -1
    outer loop
      vertex -10.6862 0.316849 0
      vertex -10.8691 12.8719 0
      vertex 8.40793 10.893 0
    endloop
  endfacet
  facet normal 0 0 -1
    outer loop
      vertex -13.261 6.76892 0
      vertex -10.8691 12.8719 0
      vertex -10.6862 0.316849 0
    endloop
  endfacet
  facet normal 0 0 -1
    outer loop
      vertex -10.8691 12.8719 0
      vertex -13.261 6.76892 0
      vertex -12.7473 11.3861 0
    endloop
  endfacet
  facet normal 0 0 -1
    outer loop
      vertex -12.7473 11.3861 0
      vertex -13.261 6.76892 0
      vertex -15.5394 9.75378 0
    endloop
  endfacet
  facet normal 0 1 -0
    outer loop
      vertex 0 10.8 0.799999
      vertex -9.2 10.8 23
      vertex 0 10.8 23
    endloop
  endfacet
  facet normal 0 1 0
    outer loop
      vertex -9.2 10.8 23
      vertex 0 10.8 0.799999
      vertex -9.2 10.8 0.799999
    endloop
  endfacet
  facet normal 0 1 -0
    outer loop
      vertex 1.47976 10.8 0.799999
      vertex 0.799999 10.8 23
      vertex 1.47976 10.8 23
    endloop
  endfacet
  facet normal 0 1 0
    outer loop
      vertex 0.799999 10.8 23
      vertex 1.47976 10.8 0.799999
      vertex 0.799999 10.8 0.799999
    endloop
  endfacet
  facet normal 0 1 -0
    outer loop
      vertex -10 10.8 0.799999
      vertex -12.1987 10.8 23
      vertex -10 10.8 23
    endloop
  endfacet
  facet normal 0 1 0
    outer loop
      vertex -12.1987 10.8 23
      vertex -10 10.8 0.799999
      vertex -12.1987 10.8 0.799999
    endloop
  endfacet
  facet normal 0 -1 0
    outer loop
      vertex -9.2 10 0.799999
      vertex 0 10 23
      vertex -9.2 10 23
    endloop
  endfacet
  facet normal 0 -1 -0
    outer loop
      vertex 0 10 23
      vertex -9.2 10 0.799999
      vertex 0 10 0.799999
    endloop
  endfacet
  facet normal 0 -1 0
    outer loop
      vertex 0.799999 10 0.799999
      vertex 8.37138 10 23
      vertex 0.799999 10 23
    endloop
  endfacet
  facet normal 0 -1 -0
    outer loop
      vertex 8.37138 10 23
      vertex 0.799999 10 0.799999
      vertex 8.37138 10 0.799999
    endloop
  endfacet
  facet normal 0 -1 0
    outer loop
      vertex -13.5331 10 0.799999
      vertex -10 10 23
      vertex -13.5331 10 23
    endloop
  endfacet
  facet normal 0 -1 -0
    outer loop
      vertex -10 10 23
      vertex -13.5331 10 0.799999
      vertex -10 10 0.799999
    endloop
  endfacet
  facet normal -1 0 0
    outer loop
      vertex 10 -7.89557 0.799999
      vertex 10 -5.68509 23
      vertex 10 -5.68509 0.799999
    endloop
  endfacet
  facet normal -1 -0 0
    outer loop
      vertex 10 -5.68509 23
      vertex 10 -7.89557 0.799999
      vertex 10 -7.89557 23
    endloop
  endfacet
  facet normal -1 0 0
    outer loop
      vertex 10 4.11383 0.799999
      vertex 10 9.10395 23
      vertex 10 9.10395 0.799999
    endloop
  endfacet
  facet normal -1 -0 0
    outer loop
      vertex 10 9.10395 23
      vertex 10 4.11383 0.799999
      vertex 10 4.11383 23
    endloop
  endfacet
  facet normal 1 -0 0
    outer loop
      vertex 10.8 -7.97378 23
      vertex 10.8 -5.7633 0.799999
      vertex 10.8 -5.7633 23
    endloop
  endfacet
  facet normal 1 0 0
    outer loop
      vertex 10.8 -5.7633 0.799999
      vertex 10.8 -7.97378 23
      vertex 10.8 -7.97378 0.799999
    endloop
  endfacet
  facet normal 1 -0 0
    outer loop
      vertex 10.8 3.24761 23
      vertex 10.8 7.70282 0.799999
      vertex 10.8 7.70282 23
    endloop
  endfacet
  facet normal 1 0 0
    outer loop
      vertex 10.8 7.70282 0.799999
      vertex 10.8 3.24761 23
      vertex 10.8 3.24761 0.799999
    endloop
  endfacet
  facet normal 0 1 -0
    outer loop
      vertex -10 0.799999 0.799999
      vertex -10.0176 0.799999 23
      vertex -10 0.799999 23
    endloop
  endfacet
  facet normal 0 1 0
    outer loop
      vertex -10.0176 0.799999 23
      vertex -10 0.799999 0.799999
      vertex -10.0176 0.799999 0.799999
    endloop
  endfacet
  facet normal 0 1 -0
    outer loop
      vertex -7.3805 0.799999 0.799999
      vertex -9.2 0.799999 23
      vertex -7.3805 0.799999 23
    endloop
  endfacet
  facet normal 0 1 0
    outer loop
      vertex -9.2 0.799999 23
      vertex -7.3805 0.799999 0.799999
      vertex -9.2 0.799999 0.799999
    endloop
  endfacet
  facet normal 0 1 -0
    outer loop
      vertex 16.0552 0.799999 0.799999
      vertex 13.0605 0.799999 23
      vertex 16.0552 0.799999 23
    endloop
  endfacet
  facet normal 0 1 0
    outer loop
      vertex 13.0605 0.799999 23
      vertex 16.0552 0.799999 0.799999
      vertex 13.0605 0.799999 0.799999
    endloop
  endfacet
  facet normal 0 -1 0
    outer loop
      vertex -9.2 0 0.799999
      vertex -6.83231 0 23
      vertex -9.2 0 23
    endloop
  endfacet
  facet normal 0 -1 -0
    outer loop
      vertex -6.83231 0 23
      vertex -9.2 0 0.799999
      vertex -6.83231 0 0.799999
    endloop
  endfacet
  facet normal 0 -1 0
    outer loop
      vertex 13.7993 0 0.799999
      vertex 16.794 0 23
      vertex 13.7993 0 23
    endloop
  endfacet
  facet normal 0 -1 -0
    outer loop
      vertex 16.794 0 23
      vertex 13.7993 0 0.799999
      vertex 16.794 0 0.799999
    endloop
  endfacet
  facet normal -1 0 0
    outer loop
      vertex 0 8.74033 0.799999
      vertex 0 10 23
      vertex 0 10 0.799999
    endloop
  endfacet
  facet normal -1 -0 0
    outer loop
      vertex 0 10 23
      vertex 0 8.74033 0.799999
      vertex 0 8.74033 23
    endloop
  endfacet
  facet normal -1 0 0
    outer loop
      vertex 0 10.8 0.799999
      vertex 0 10.9519 23
      vertex 0 10.9519 0.799999
    endloop
  endfacet
  facet normal -1 -0 0
    outer loop
      vertex 0 10.9519 23
      vertex 0 10.8 0.799999
      vertex 0 10.8 23
    endloop
  endfacet
  facet normal -1 0 0
    outer loop
      vertex 0 -7.71788 0.799999
      vertex 0 -5.50129 23
      vertex 0 -5.50129 0.799999
    endloop
  endfacet
  facet normal -1 -0 0
    outer loop
      vertex 0 -5.50129 23
      vertex 0 -7.71788 0.799999
      vertex 0 -7.71788 23
    endloop
  endfacet
  facet normal 1 -0 0
    outer loop
      vertex 0.799999 8.6582 23
      vertex 0.799999 10 0.799999
      vertex 0.799999 10 23
    endloop
  endfacet
  facet normal 1 0 0
    outer loop
      vertex 0.799999 10 0.799999
      vertex 0.799999 8.6582 23
      vertex 0.799999 8.6582 0.799999
    endloop
  endfacet
  facet normal 1 -0 0
    outer loop
      vertex 0.799999 10.8 23
      vertex 0.799999 10.8698 0.799999
      vertex 0.799999 10.8698 23
    endloop
  endfacet
  facet normal 1 0 0
    outer loop
      vertex 0.799999 10.8698 0.799999
      vertex 0.799999 10.8 23
      vertex 0.799999 10.8 0.799999
    endloop
  endfacet
  facet normal 1 -0 0
    outer loop
      vertex 0.799999 -7.61948 23
      vertex 0.799999 -5.4029 0.799999
      vertex 0.799999 -5.4029 23
    endloop
  endfacet
  facet normal 1 0 0
    outer loop
      vertex 0.799999 -5.4029 0.799999
      vertex 0.799999 -7.61948 23
      vertex 0.799999 -7.61948 0.799999
    endloop
  endfacet
  facet normal 0 1 -0
    outer loop
      vertex -10 -9.2 0.799999
      vertex -10.836 -9.2 23
      vertex -10 -9.2 23
    endloop
  endfacet
  facet normal 0 1 0
    outer loop
      vertex -10.836 -9.2 23
      vertex -10 -9.2 0.799999
      vertex -10.836 -9.2 0.799999
    endloop
  endfacet
  facet normal 0 1 -0
    outer loop
      vertex -7.42386 -9.2 0.799999
      vertex -9.2 -9.2 23
      vertex -7.42386 -9.2 23
    endloop
  endfacet
  facet normal 0 1 0
    outer loop
      vertex -9.2 -9.2 23
      vertex -7.42386 -9.2 0.799999
      vertex -9.2 -9.2 0.799999
    endloop
  endfacet
  facet normal 0 -1 0
    outer loop
      vertex -10.4385 -10 0.799999
      vertex -10.4343 -10 23
      vertex -10.4385 -10 23
    endloop
  endfacet
  facet normal 0 -1 -0
    outer loop
      vertex -10.4343 -10 23
      vertex -10.4385 -10 0.799999
      vertex -10.4343 -10 0.799999
    endloop
  endfacet
  facet normal -1 0 0
    outer loop
      vertex -10 -9.2 0.799999
      vertex -10 -7.15054 23
      vertex -10 -7.15054 0.799999
    endloop
  endfacet
  facet normal -1 -0 0
    outer loop
      vertex -10 -7.15054 23
      vertex -10 -9.2 0.799999
      vertex -10 -9.2 23
    endloop
  endfacet
  facet normal -1 0 0
    outer loop
      vertex -10 0.799999 0.799999
      vertex -10 6.69142 23
      vertex -10 6.69142 0.799999
    endloop
  endfacet
  facet normal -1 -0 0
    outer loop
      vertex -10 6.69142 23
      vertex -10 0.799999 0.799999
      vertex -10 0.799999 23
    endloop
  endfacet
  facet normal -1 0 0
    outer loop
      vertex -10 9.73417 0.799999
      vertex -10 10 23
      vertex -10 10 0.799999
    endloop
  endfacet
  facet normal -1 -0 0
    outer loop
      vertex -10 10 23
      vertex -10 9.73417 0.799999
      vertex -10 9.73417 23
    endloop
  endfacet
  facet normal -1 0 0
    outer loop
      vertex -10 10.8 0.799999
      vertex -10 11.9785 23
      vertex -10 11.9785 0.799999
    endloop
  endfacet
  facet normal -1 -0 0
    outer loop
      vertex -10 11.9785 23
      vertex -10 10.8 0.799999
      vertex -10 10.8 23
    endloop
  endfacet
  facet normal 1 -0 0
    outer loop
      vertex -9.2 -9.2 23
      vertex -9.2 -6.18577 0.799999
      vertex -9.2 -6.18577 23
    endloop
  endfacet
  facet normal 1 0 0
    outer loop
      vertex -9.2 -6.18577 0.799999
      vertex -9.2 -9.2 23
      vertex -9.2 -9.2 0.799999
    endloop
  endfacet
  facet normal 1 -0 0
    outer loop
      vertex -9.2 -0.436713 23
      vertex -9.2 0 0.799999
      vertex -9.2 0 23
    endloop
  endfacet
  facet normal 1 0 0
    outer loop
      vertex -9.2 0 0.799999
      vertex -9.2 -0.436713 23
      vertex -9.2 -0.436713 0.799999
    endloop
  endfacet
  facet normal 1 -0 0
    outer loop
      vertex -9.2 0.799999 23
      vertex -9.2 4.68676 0.799999
      vertex -9.2 4.68676 23
    endloop
  endfacet
  facet normal 1 0 0
    outer loop
      vertex -9.2 4.68676 0.799999
      vertex -9.2 0.799999 23
      vertex -9.2 0.799999 0.799999
    endloop
  endfacet
  facet normal 1 -0 0
    outer loop
      vertex -9.2 9.68477 23
      vertex -9.2 10 0.799999
      vertex -9.2 10 23
    endloop
  endfacet
  facet normal 1 0 0
    outer loop
      vertex -9.2 10 0.799999
      vertex -9.2 9.68477 23
      vertex -9.2 9.68477 0.799999
    endloop
  endfacet
  facet normal 1 -0 0
    outer loop
      vertex -9.2 10.8 23
      vertex -9.2 11.8963 0.799999
      vertex -9.2 11.8963 23
    endloop
  endfacet
  facet normal 1 0 0
    outer loop
      vertex -9.2 11.8963 0.799999
      vertex -9.2 10.8 23
      vertex -9.2 10.8 0.799999
    endloop
  endfacet
  facet normal 0.122067 -0.992522 0
    outer loop
      vertex -3.28516 -8.92793 0
      vertex 3.63373 -8.077 25
      vertex -3.28516 -8.92793 25
    endloop
  endfacet
  facet normal 0.122067 -0.992522 0
    outer loop
      vertex 3.63373 -8.077 25
      vertex -3.28516 -8.92793 0
      vertex 3.63373 -8.077 0
    endloop
  endfacet
  facet normal -0.0972997 -0.995255 0
    outer loop
      vertex 3.63373 -8.077 0
      vertex 13.9928 -9.08974 25
      vertex 3.63373 -8.077 25
    endloop
  endfacet
  facet normal -0.0972997 -0.995255 -0
    outer loop
      vertex 13.9928 -9.08974 25
      vertex 3.63373 -8.077 0
      vertex 13.9928 -9.08974 0
    endloop
  endfacet
  facet normal 0.73463 0.678468 0
    outer loop
      vertex 19.8006 -2.07629 25
      vertex 12.5063 5.82181 0
      vertex 12.5063 5.82181 25
    endloop
  endfacet
  facet normal 0.73463 0.678468 0
    outer loop
      vertex 12.5063 5.82181 0
      vertex 19.8006 -2.07629 25
      vertex 19.8006 -2.07629 0
    endloop
  endfacet
  facet normal 0.482051 0.876143 -0
    outer loop
      vertex 10.861 9.54333 0
      vertex 8.40793 10.893 25
      vertex 10.861 9.54333 25
    endloop
  endfacet
  facet normal 0.482051 0.876143 0
    outer loop
      vertex 8.40793 10.893 25
      vertex 10.861 9.54333 0
      vertex 8.40793 10.893 0
    endloop
  endfacet
  facet normal 0.102119 0.994772 -0
    outer loop
      vertex 8.40793 10.893 0
      vertex -10.8691 12.8719 25
      vertex 8.40793 10.893 25
    endloop
  endfacet
  facet normal 0.102119 0.994772 0
    outer loop
      vertex -10.8691 12.8719 25
      vertex 8.40793 10.893 0
      vertex -10.8691 12.8719 0
    endloop
  endfacet
  facet normal -0.5047 0.863295 0
    outer loop
      vertex -12.7473 11.3861 0
      vertex -15.5394 9.75378 25
      vertex -12.7473 11.3861 25
    endloop
  endfacet
  facet normal -0.5047 0.863295 0
    outer loop
      vertex -15.5394 9.75378 25
      vertex -12.7473 11.3861 0
      vertex -15.5394 9.75378 0
    endloop
  endfacet
  facet normal -0.928776 -0.370642 0
    outer loop
      vertex -10.6862 0.316849 0
      vertex -13.261 6.76892 25
      vertex -13.261 6.76892 0
    endloop
  endfacet
  facet normal -0.928776 -0.370642 0
    outer loop
      vertex -13.261 6.76892 25
      vertex -10.6862 0.316849 0
      vertex -10.6862 0.316849 25
    endloop
  endfacet
  facet normal -0.824911 -0.565263 0
    outer loop
      vertex -8.04424 -3.53867 0
      vertex -10.6862 0.316849 25
      vertex -10.6862 0.316849 0
    endloop
  endfacet
  facet normal -0.824911 -0.565263 0
    outer loop
      vertex -10.6862 0.316849 25
      vertex -8.04424 -3.53867 0
      vertex -8.04424 -3.53867 25
    endloop
  endfacet
  facet normal -0.769777 0.638313 0
    outer loop
      vertex -12.1075 -8.43878 0
      vertex -8.04424 -3.53867 25
      vertex -8.04424 -3.53867 0
    endloop
  endfacet
  facet normal -0.769777 0.638313 0
    outer loop
      vertex -8.04424 -3.53867 25
      vertex -12.1075 -8.43878 0
      vertex -12.1075 -8.43878 25
    endloop
  endfacet
  facet normal -0.895549 -0.444963 0
    outer loop
      vertex -10.8638 -10.9419 0
      vertex -12.1075 -8.43878 25
      vertex -12.1075 -8.43878 0
    endloop
  endfacet
  facet normal -0.895549 -0.444963 0
    outer loop
      vertex -12.1075 -8.43878 25
      vertex -10.8638 -10.9419 0
      vertex -10.8638 -10.9419 25
    endloop
  endfacet
  facet normal 0.256829 -0.966457 0
    outer loop
      vertex -10.8638 -10.9419 0
      vertex -3.28516 -8.92793 25
      vertex -10.8638 -10.9419 25
    endloop
  endfacet
  facet normal 0.256829 -0.966457 0
    outer loop
      vertex -3.28516 -8.92793 25
      vertex -10.8638 -10.9419 0
      vertex -3.28516 -8.92793 0
    endloop
  endfacet
  facet normal -0.122068 0.992522 0
    outer loop
      vertex 0.799999 -5.4029 0.799999
      vertex 0 -5.50129 23
      vertex 0.799999 -5.4029 23
    endloop
  endfacet
  facet normal -0.122068 0.992522 0
    outer loop
      vertex 0 -5.50129 23
      vertex 0.799999 -5.4029 0.799999
      vertex 0 -5.50129 0.799999
    endloop
  endfacet
  facet normal 0.0972986 0.995255 -0
    outer loop
      vertex 10.8 -5.7633 0.799999
      vertex 10 -5.68509 23
      vertex 10.8 -5.7633 23
    endloop
  endfacet
  facet normal 0.0972986 0.995255 0
    outer loop
      vertex 10 -5.68509 23
      vertex 10.8 -5.7633 0.799999
      vertex 10 -5.68509 0.799999
    endloop
  endfacet
  facet normal -0.734629 -0.678469 0
    outer loop
      vertex 10.8 3.24761 0.799999
      vertex 10 4.11383 23
      vertex 10 4.11383 0.799999
    endloop
  endfacet
  facet normal -0.734629 -0.678469 0
    outer loop
      vertex 10 4.11383 23
      vertex 10.8 3.24761 0.799999
      vertex 10.8 3.24761 23
    endloop
  endfacet
  facet normal -0.734648 -0.678448 0
    outer loop
      vertex 13.7993 0 0.799999
      vertex 13.0605 0.799999 23
      vertex 13.0605 0.799999 0.799999
    endloop
  endfacet
  facet normal -0.734648 -0.678448 0
    outer loop
      vertex 13.0605 0.799999 23
      vertex 13.7993 0 0.799999
      vertex 13.7993 0 23
    endloop
  endfacet
  facet normal -0.102125 -0.994772 0
    outer loop
      vertex -9.96338 9.76314 0.799999
      vertex -9.2 9.68477 23
      vertex -9.96338 9.76314 23
    endloop
  endfacet
  facet normal -0.102125 -0.994772 -0
    outer loop
      vertex -9.2 9.68477 23
      vertex -9.96338 9.76314 0.799999
      vertex -9.2 9.68477 0.799999
    endloop
  endfacet
  facet normal -0.102126 -0.994771 0
    outer loop
      vertex 0 8.74033 0.799999
      vertex 0.799999 8.6582 23
      vertex 0 8.74033 23
    endloop
  endfacet
  facet normal -0.102126 -0.994771 -0
    outer loop
      vertex 0.799999 8.6582 23
      vertex 0 8.74033 0.799999
      vertex 0.799999 8.6582 0.799999
    endloop
  endfacet
  facet normal 0.620429 -0.784263 0
    outer loop
      vertex -10 9.73417 0.799999
      vertex -9.96338 9.76314 23
      vertex -10 9.73417 23
    endloop
  endfacet
  facet normal 0.620429 -0.784263 0
    outer loop
      vertex -9.96338 9.76314 23
      vertex -10 9.73417 0.799999
      vertex -9.96338 9.76314 0.799999
    endloop
  endfacet
  facet normal 0.928774 0.370646 0
    outer loop
      vertex -9.2 4.68676 23
      vertex -10 6.69142 0.799999
      vertex -10 6.69142 23
    endloop
  endfacet
  facet normal 0.928774 0.370646 0
    outer loop
      vertex -10 6.69142 0.799999
      vertex -9.2 4.68676 23
      vertex -9.2 4.68676 0.799999
    endloop
  endfacet
  facet normal 0.824912 0.565261 0
    outer loop
      vertex -6.83231 0 23
      vertex -7.3805 0.799999 0.799999
      vertex -7.3805 0.799999 23
    endloop
  endfacet
  facet normal 0.824912 0.565261 0
    outer loop
      vertex -7.3805 0.799999 0.799999
      vertex -6.83231 0 23
      vertex -6.83231 0 0.799999
    endloop
  endfacet
  facet normal 0 0 1
    outer loop
      vertex -9.97603 0.695786 25
      vertex -8.04424 -3.53867 25
      vertex -7.043 -3.58453 25
    endloop
  endfacet
  facet normal 0 0 1
    outer loop
      vertex -9.97603 0.695786 25
      vertex -10.6862 0.316849 25
      vertex -8.04424 -3.53867 25
    endloop
  endfacet
  facet normal -0 0 1
    outer loop
      vertex -13.261 6.76892 25
      vertex -9.97603 0.695786 25
      vertex -12.5586 7.16722 25
    endloop
  endfacet
  facet normal 0 0 1
    outer loop
      vertex -9.97603 0.695786 25
      vertex -13.261 6.76892 25
      vertex -10.6862 0.316849 25
    endloop
  endfacet
  facet normal 0 0 1
    outer loop
      vertex -14.3544 9.51987 25
      vertex -13.261 6.76892 25
      vertex -12.5586 7.16722 25
    endloop
  endfacet
  facet normal 0 0 1
    outer loop
      vertex -13.261 6.76892 25
      vertex -14.3544 9.51987 25
      vertex -15.5394 9.75378 25
    endloop
  endfacet
  facet normal 0 0 1
    outer loop
      vertex -8.04424 -3.53867 25
      vertex -11.1595 -8.54886 25
      vertex -7.043 -3.58453 25
    endloop
  endfacet
  facet normal 0 -0 1
    outer loop
      vertex -11.1595 -8.54886 25
      vertex -8.04424 -3.53867 25
      vertex -12.1075 -8.43878 25
    endloop
  endfacet
  facet normal 0 0 1
    outer loop
      vertex 12.5063 5.82181 25
      vertex 18.6174 -1.97438 25
      vertex 19.8006 -2.07629 25
    endloop
  endfacet
  facet normal 0 0 1
    outer loop
      vertex 12.5063 5.82181 25
      vertex 11.8284 5.37672 25
      vertex 18.6174 -1.97438 25
    endloop
  endfacet
  facet normal -0 0 1
    outer loop
      vertex 10.2386 8.97269 25
      vertex 12.5063 5.82181 25
      vertex 10.861 9.54333 25
    endloop
  endfacet
  facet normal 0 0 1
    outer loop
      vertex 12.5063 5.82181 25
      vertex 10.2386 8.97269 25
      vertex 11.8284 5.37672 25
    endloop
  endfacet
  facet normal 0 0 1
    outer loop
      vertex 8.40793 10.893 25
      vertex 10.2386 8.97269 25
      vertex 10.861 9.54333 25
    endloop
  endfacet
  facet normal 0 0 1
    outer loop
      vertex 8.40793 10.893 25
      vertex 8.16463 10.1138 25
      vertex 10.2386 8.97269 25
    endloop
  endfacet
  facet normal 0 0 1
    outer loop
      vertex 8.40793 10.893 25
      vertex -10.6275 12.0429 25
      vertex 8.16463 10.1138 25
    endloop
  endfacet
  facet normal 0 0 1
    outer loop
      vertex -10.8691 12.8719 25
      vertex -10.6275 12.0429 25
      vertex 8.40793 10.893 25
    endloop
  endfacet
  facet normal 0 0 1
    outer loop
      vertex -12.7473 11.3861 25
      vertex -10.6275 12.0429 25
      vertex -10.8691 12.8719 25
    endloop
  endfacet
  facet normal 0 0 1
    outer loop
      vertex -10.6275 12.0429 25
      vertex -12.7473 11.3861 25
      vertex -12.2951 10.7238 25
    endloop
  endfacet
  facet normal 0 0 1
    outer loop
      vertex -12.7473 11.3861 25
      vertex -14.3544 9.51987 25
      vertex -12.2951 10.7238 25
    endloop
  endfacet
  facet normal 0 -0 1
    outer loop
      vertex -14.3544 9.51987 25
      vertex -12.7473 11.3861 25
      vertex -15.5394 9.75378 25
    endloop
  endfacet
  facet normal 0 0 1
    outer loop
      vertex 18.6174 -1.97438 25
      vertex 14.7239 -5.96181 25
      vertex 19.8006 -2.07629 25
    endloop
  endfacet
  facet normal -0 0 1
    outer loop
      vertex 14.0101 -5.50069 25
      vertex 14.7239 -5.96181 25
      vertex 18.6174 -1.97438 25
    endloop
  endfacet
  facet normal 0 0 1
    outer loop
      vertex 13.3733 -8.22536 25
      vertex 14.7239 -5.96181 25
      vertex 14.0101 -5.50069 25
    endloop
  endfacet
  facet normal 0 0 1
    outer loop
      vertex 14.7239 -5.96181 25
      vertex 13.3733 -8.22536 25
      vertex 13.9928 -9.08974 25
    endloop
  endfacet
  facet normal 0 0 1
    outer loop
      vertex 13.3733 -8.22536 25
      vertex 3.63373 -8.077 25
      vertex 13.9928 -9.08974 25
    endloop
  endfacet
  facet normal 0 0 1
    outer loop
      vertex 3.6237 -7.2722 25
      vertex 3.63373 -8.077 25
      vertex 13.3733 -8.22536 25
    endloop
  endfacet
  facet normal 0 0 1
    outer loop
      vertex -3.43744 -8.14064 25
      vertex 3.63373 -8.077 25
      vertex 3.6237 -7.2722 25
    endloop
  endfacet
  facet normal 0 0 1
    outer loop
      vertex 3.63373 -8.077 25
      vertex -3.43744 -8.14064 25
      vertex -3.28516 -8.92793 25
    endloop
  endfacet
  facet normal 0 0 1
    outer loop
      vertex -10.438 -10.001 25
      vertex -3.28516 -8.92793 25
      vertex -3.43744 -8.14064 25
    endloop
  endfacet
  facet normal -0 0 1
    outer loop
      vertex -10.438 -10.001 25
      vertex -10.8638 -10.9419 25
      vertex -3.28516 -8.92793 25
    endloop
  endfacet
  facet normal 0 0 1
    outer loop
      vertex -12.1075 -8.43878 25
      vertex -10.438 -10.001 25
      vertex -11.1595 -8.54886 25
    endloop
  endfacet
  facet normal 0 0 1
    outer loop
      vertex -10.438 -10.001 25
      vertex -12.1075 -8.43878 25
      vertex -10.8638 -10.9419 25
    endloop
  endfacet
  facet normal 0.973755 -0.227599 0
    outer loop
      vertex 13.9928 -9.08974 25
      vertex 14.7239 -5.96181 0
      vertex 14.7239 -5.96181 25
    endloop
  endfacet
  facet normal 0.973755 -0.227599 0
    outer loop
      vertex 14.7239 -5.96181 0
      vertex 13.9928 -9.08974 25
      vertex 13.9928 -9.08974 0
    endloop
  endfacet
  facet normal 0.607779 -0.794106 0
    outer loop
      vertex 14.7239 -5.96181 0
      vertex 19.8006 -2.07629 25
      vertex 14.7239 -5.96181 25
    endloop
  endfacet
  facet normal 0.607779 -0.794106 0
    outer loop
      vertex 19.8006 -2.07629 25
      vertex 14.7239 -5.96181 0
      vertex 19.8006 -2.07629 0
    endloop
  endfacet
  facet normal 0.914604 0.40435 0
    outer loop
      vertex 12.5063 5.82181 25
      vertex 10.861 9.54333 0
      vertex 10.861 9.54333 25
    endloop
  endfacet
  facet normal 0.914604 0.40435 0
    outer loop
      vertex 10.861 9.54333 0
      vertex 12.5063 5.82181 25
      vertex 12.5063 5.82181 0
    endloop
  endfacet
  facet normal -0.620418 0.784271 0
    outer loop
      vertex -10.8691 12.8719 0
      vertex -12.7473 11.3861 25
      vertex -10.8691 12.8719 25
    endloop
  endfacet
  facet normal -0.620418 0.784271 0
    outer loop
      vertex -12.7473 11.3861 25
      vertex -10.8691 12.8719 0
      vertex -12.7473 11.3861 0
    endloop
  endfacet
  facet normal -0.79489 -0.606754 0
    outer loop
      vertex -13.261 6.76892 0
      vertex -15.5394 9.75378 25
      vertex -15.5394 9.75378 0
    endloop
  endfacet
  facet normal -0.79489 -0.606754 0
    outer loop
      vertex -15.5394 9.75378 25
      vertex -13.261 6.76892 0
      vertex -13.261 6.76892 25
    endloop
  endfacet
  facet normal 0 0 1
    outer loop
      vertex 16.0552 0.799999 0.799999
      vertex 11.8284 5.37672 0.799999
      vertex 13.0605 0.799999 0.799999
    endloop
  endfacet
  facet normal 0 0 1
    outer loop
      vertex 16.794 0 0.799999
      vertex 14.0101 -5.50069 0.799999
      vertex 18.6174 -1.97438 0.799999
    endloop
  endfacet
  facet normal -0 0 1
    outer loop
      vertex 13.7993 0 0.799999
      vertex 14.0101 -5.50069 0.799999
      vertex 16.794 0 0.799999
    endloop
  endfacet
  facet normal 0 0 1
    outer loop
      vertex 10.8 -5.7633 0.799999
      vertex 14.0101 -5.50069 0.799999
      vertex 13.7993 0 0.799999
    endloop
  endfacet
  facet normal 0 0 1
    outer loop
      vertex 10.8 -5.7633 0.799999
      vertex 13.7993 0 0.799999
      vertex 13.0605 0.799999 0.799999
    endloop
  endfacet
  facet normal -0 0 1
    outer loop
      vertex 10.8 3.24761 0.799999
      vertex 13.0605 0.799999 0.799999
      vertex 11.8284 5.37672 0.799999
    endloop
  endfacet
  facet normal 0 0 1
    outer loop
      vertex 10.8 3.24761 0.799999
      vertex 11.8284 5.37672 0.799999
      vertex 10.8 7.70282 0.799999
    endloop
  endfacet
  facet normal 0 0 1
    outer loop
      vertex 10 -5.68509 0.799999
      vertex 13.0605 0.799999 0.799999
      vertex 10.8 3.24761 0.799999
    endloop
  endfacet
  facet normal 0 0 1
    outer loop
      vertex 14.0101 -5.50069 0.799999
      vertex 10.8 -5.7633 0.799999
      vertex 13.3733 -8.22536 0.799999
    endloop
  endfacet
  facet normal 0 0 1
    outer loop
      vertex 13.3733 -8.22536 0.799999
      vertex 10.8 -5.7633 0.799999
      vertex 10.8 -7.97378 0.799999
    endloop
  endfacet
  facet normal -0 0 1
    outer loop
      vertex -13.5331 10 0.799999
      vertex -10 9.73417 0.799999
      vertex -10 10 0.799999
    endloop
  endfacet
  facet normal 0 0 1
    outer loop
      vertex -10 9.73417 0.799999
      vertex -12.5586 7.16722 0.799999
      vertex -10 6.69142 0.799999
    endloop
  endfacet
  facet normal 0 -0 1
    outer loop
      vertex -10.0176 0.799999 0.799999
      vertex -10 6.69142 0.799999
      vertex -12.5586 7.16722 0.799999
    endloop
  endfacet
  facet normal 0 0 1
    outer loop
      vertex -10 6.69142 0.799999
      vertex -10.0176 0.799999 0.799999
      vertex -10 0.799999 0.799999
    endloop
  endfacet
  facet normal 0 0 1
    outer loop
      vertex -10 9.73417 0.799999
      vertex -13.5331 10 0.799999
      vertex -12.5586 7.16722 0.799999
    endloop
  endfacet
  facet normal 0 0 1
    outer loop
      vertex -12.5586 7.16722 0.799999
      vertex -13.5331 10 0.799999
      vertex -14.3544 9.51987 0.799999
    endloop
  endfacet
  facet normal -0 0 1
    outer loop
      vertex -10 9.73417 0.799999
      vertex -9.2 9.68477 0.799999
      vertex -9.96338 9.76314 0.799999
    endloop
  endfacet
  facet normal 0 0 1
    outer loop
      vertex -9.2 9.68477 0.799999
      vertex -10 9.73417 0.799999
      vertex -10 6.69142 0.799999
    endloop
  endfacet
  facet normal 0 0 1
    outer loop
      vertex -9.2 9.68477 0.799999
      vertex -10 6.69142 0.799999
      vertex -9.2 4.68676 0.799999
    endloop
  endfacet
  facet normal 0 0 1
    outer loop
      vertex -9.2 -0.436713 0.799999
      vertex -6.83231 0 0.799999
      vertex -9.2 0 0.799999
    endloop
  endfacet
  facet normal 0 0 1
    outer loop
      vertex -6.83231 0 0.799999
      vertex -9.2 -0.436713 0.799999
      vertex -7.043 -3.58453 0.799999
    endloop
  endfacet
  facet normal -0 0 1
    outer loop
      vertex -9.2 9.68477 0.799999
      vertex 0 8.74033 0.799999
      vertex 0 10 0.799999
    endloop
  endfacet
  facet normal 0 0 1
    outer loop
      vertex 0 8.74033 0.799999
      vertex -6.83231 0 0.799999
      vertex 0 -5.50129 0.799999
    endloop
  endfacet
  facet normal -0 0 1
    outer loop
      vertex -7.043 -3.58453 0.799999
      vertex 0 -5.50129 0.799999
      vertex -6.83231 0 0.799999
    endloop
  endfacet
  facet normal 0 -0 1
    outer loop
      vertex -3.43744 -8.14064 0.799999
      vertex 0 -5.50129 0.799999
      vertex -7.043 -3.58453 0.799999
    endloop
  endfacet
  facet normal 0 0 1
    outer loop
      vertex 0 8.74033 0.799999
      vertex -7.3805 0.799999 0.799999
      vertex -6.83231 0 0.799999
    endloop
  endfacet
  facet normal 0 0 1
    outer loop
      vertex -9.2 9.68477 0.799999
      vertex 0 10 0.799999
      vertex -9.2 10 0.799999
    endloop
  endfacet
  facet normal 0 0 1
    outer loop
      vertex 0 8.74033 0.799999
      vertex -9.2 9.68477 0.799999
      vertex -9.2 4.68676 0.799999
    endloop
  endfacet
  facet normal 0 0 1
    outer loop
      vertex 0 8.74033 0.799999
      vertex -9.2 4.68676 0.799999
      vertex -7.3805 0.799999 0.799999
    endloop
  endfacet
  facet normal 0 0 1
    outer loop
      vertex -7.3805 0.799999 0.799999
      vertex -9.2 4.68676 0.799999
      vertex -9.2 0.799999 0.799999
    endloop
  endfacet
  facet normal 0 0 1
    outer loop
      vertex 0 8.74033 0.799999
      vertex 0.799999 -5.4029 0.799999
      vertex 0.799999 8.6582 0.799999
    endloop
  endfacet
  facet normal 0 0 1
    outer loop
      vertex 0.799999 -5.4029 0.799999
      vertex 0 8.74033 0.799999
      vertex 0 -5.50129 0.799999
    endloop
  endfacet
  facet normal 0 0 1
    outer loop
      vertex 8.37138 10 0.799999
      vertex 10 4.11383 0.799999
      vertex 10 9.10395 0.799999
    endloop
  endfacet
  facet normal 0 0 1
    outer loop
      vertex 0.799999 -5.4029 0.799999
      vertex 10 4.11383 0.799999
      vertex 0.799999 8.6582 0.799999
    endloop
  endfacet
  facet normal 0 0 1
    outer loop
      vertex 10 4.11383 0.799999
      vertex 8.37138 10 0.799999
      vertex 0.799999 8.6582 0.799999
    endloop
  endfacet
  facet normal 0 0 1
    outer loop
      vertex 10 -5.68509 0.799999
      vertex 3.6237 -7.2722 0.799999
      vertex 10 -7.89557 0.799999
    endloop
  endfacet
  facet normal 0 0 1
    outer loop
      vertex 0.799999 8.6582 0.799999
      vertex 8.37138 10 0.799999
      vertex 0.799999 10 0.799999
    endloop
  endfacet
  facet normal 0 0 1
    outer loop
      vertex 10 4.11383 0.799999
      vertex 0.799999 -5.4029 0.799999
      vertex 10 -5.68509 0.799999
    endloop
  endfacet
  facet normal 0 0 1
    outer loop
      vertex 10 -5.68509 0.799999
      vertex 0.799999 -5.4029 0.799999
      vertex 3.6237 -7.2722 0.799999
    endloop
  endfacet
  facet normal 0 0 1
    outer loop
      vertex 3.6237 -7.2722 0.799999
      vertex 0.799999 -5.4029 0.799999
      vertex 0.799999 -7.61948 0.799999
    endloop
  endfacet
  facet normal 0 0 1
    outer loop
      vertex 10 -5.68509 0.799999
      vertex 10.8 3.24761 0.799999
      vertex 10 4.11383 0.799999
    endloop
  endfacet
  facet normal 0 0 1
    outer loop
      vertex 13.0605 0.799999 0.799999
      vertex 10 -5.68509 0.799999
      vertex 10.8 -5.7633 0.799999
    endloop
  endfacet
  facet normal 0 0 1
    outer loop
      vertex 0 -5.50129 0.799999
      vertex -3.43744 -8.14064 0.799999
      vertex 0 -7.71788 0.799999
    endloop
  endfacet
  facet normal 0 0 1
    outer loop
      vertex -7.043 -3.58453 0.799999
      vertex -7.42386 -9.2 0.799999
      vertex -3.43744 -8.14064 0.799999
    endloop
  endfacet
  facet normal -0 0 1
    outer loop
      vertex -9.2 -6.18577 0.799999
      vertex -7.42386 -9.2 0.799999
      vertex -7.043 -3.58453 0.799999
    endloop
  endfacet
  facet normal 0 0 1
    outer loop
      vertex -7.42386 -9.2 0.799999
      vertex -9.2 -6.18577 0.799999
      vertex -9.2 -9.2 0.799999
    endloop
  endfacet
  facet normal 0 0 1
    outer loop
      vertex -10.6275 12.0429 0.799999
      vertex -10 10.8 0.799999
      vertex -10 11.9785 0.799999
    endloop
  endfacet
  facet normal 0 0 1
    outer loop
      vertex -10 10.8 0.799999
      vertex -10.6275 12.0429 0.799999
      vertex -12.1987 10.8 0.799999
    endloop
  endfacet
  facet normal -0 0 1
    outer loop
      vertex -11.1595 -8.54886 0.799999
      vertex -10 -9.2 0.799999
      vertex -10 -7.15054 0.799999
    endloop
  endfacet
  facet normal 0 0 1
    outer loop
      vertex -10 -9.2 0.799999
      vertex -11.1595 -8.54886 0.799999
      vertex -10.836 -9.2 0.799999
    endloop
  endfacet
  facet normal 0 0 1
    outer loop
      vertex -10.4343 -10 0.799999
      vertex -10.4385 -10 0.799999
      vertex -10.438 -10.001 0.799999
    endloop
  endfacet
  facet normal 0 0 1
    outer loop
      vertex -9.2 10.8 0.799999
      vertex 0 10.9519 0.799999
      vertex -9.2 11.8963 0.799999
    endloop
  endfacet
  facet normal 0 0 1
    outer loop
      vertex 0 10.9519 0.799999
      vertex -9.2 10.8 0.799999
      vertex 0 10.8 0.799999
    endloop
  endfacet
  facet normal 0 0 1
    outer loop
      vertex 0.799999 10.8698 0.799999
      vertex 0.799999 10.8 0.799999
      vertex 1.47976 10.8 0.799999
    endloop
  endfacet
  facet normal -0.12208 0.99252 1.76952e-05
    outer loop
      vertex 0 -7.71788 23
      vertex 3.6237 -7.2722 25
      vertex 0.799999 -7.61948 23
    endloop
  endfacet
  facet normal -0.122068 0.992522 0
    outer loop
      vertex 3.6237 -7.2722 0.799999
      vertex 0.799999 -7.61948 23
      vertex 3.6237 -7.2722 25
    endloop
  endfacet
  facet normal -0.122068 0.992522 0
    outer loop
      vertex 0.799999 -7.61948 23
      vertex 3.6237 -7.2722 0.799999
      vertex 0.799999 -7.61948 0.799999
    endloop
  endfacet
  facet normal -0.122069 0.992522 -3.01132e-06
    outer loop
      vertex 3.6237 -7.2722 25
      vertex 0 -7.71788 23
      vertex -3.43744 -8.14064 25
    endloop
  endfacet
  facet normal -0.122067 0.992522 0
    outer loop
      vertex -3.43744 -8.14064 0.799999
      vertex 0 -7.71788 23
      vertex 0 -7.71788 0.799999
    endloop
  endfacet
  facet normal -0.122067 0.992522 0
    outer loop
      vertex 0 -7.71788 23
      vertex -3.43744 -8.14064 0.799999
      vertex -3.43744 -8.14064 25
    endloop
  endfacet
  facet normal 0.0972986 0.995255 3.86097e-06
    outer loop
      vertex 10 -7.89557 23
      vertex 13.3733 -8.22536 25
      vertex 10.8 -7.97378 23
    endloop
  endfacet
  facet normal 0.0973016 0.995255 -0
    outer loop
      vertex 13.3733 -8.22536 0.799999
      vertex 10.8 -7.97378 23
      vertex 13.3733 -8.22536 25
    endloop
  endfacet
  facet normal 0.0973016 0.995255 0
    outer loop
      vertex 10.8 -7.97378 23
      vertex 13.3733 -8.22536 0.799999
      vertex 10.8 -7.97378 0.799999
    endloop
  endfacet
  facet normal 0.0973001 0.995255 1.32482e-06
    outer loop
      vertex 13.3733 -8.22536 25
      vertex 10 -7.89557 23
      vertex 3.6237 -7.2722 25
    endloop
  endfacet
  facet normal 0.0972997 0.995255 0
    outer loop
      vertex 3.6237 -7.2722 0.799999
      vertex 10 -7.89557 23
      vertex 10 -7.89557 0.799999
    endloop
  endfacet
  facet normal 0.0972997 0.995255 0
    outer loop
      vertex 10 -7.89557 23
      vertex 3.6237 -7.2722 0.799999
      vertex 3.6237 -7.2722 25
    endloop
  endfacet
  facet normal -0.973759 0.227583 0
    outer loop
      vertex 13.3733 -8.22536 0.799999
      vertex 14.0101 -5.50069 25
      vertex 14.0101 -5.50069 0.799999
    endloop
  endfacet
  facet normal -0.973759 0.227583 0
    outer loop
      vertex 14.0101 -5.50069 25
      vertex 13.3733 -8.22536 0.799999
      vertex 13.3733 -8.22536 25
    endloop
  endfacet
  facet normal -0.607785 0.794102 0
    outer loop
      vertex 18.6174 -1.97438 0.799999
      vertex 14.0101 -5.50069 25
      vertex 18.6174 -1.97438 25
    endloop
  endfacet
  facet normal -0.607785 0.794102 0
    outer loop
      vertex 14.0101 -5.50069 25
      vertex 18.6174 -1.97438 0.799999
      vertex 14.0101 -5.50069 0.799999
    endloop
  endfacet
  facet normal -0.734637 -0.67846 0
    outer loop
      vertex 16.794 0 0.799999
      vertex 18.6174 -1.97438 0.799999
      vertex 16.794 0 23
    endloop
  endfacet
  facet normal -0.734633 -0.678465 -0
    outer loop
      vertex 16.0552 0.799999 23
      vertex 11.8284 5.37672 0.799999
      vertex 16.0552 0.799999 0.799999
    endloop
  endfacet
  facet normal -0.734633 -0.678465 0
    outer loop
      vertex 11.8284 5.37672 0.799999
      vertex 16.0552 0.799999 23
      vertex 11.8284 5.37672 25
    endloop
  endfacet
  facet normal -0.734648 -0.678448 2.1228e-05
    outer loop
      vertex 18.6174 -1.97438 25
      vertex 16.0552 0.799999 23
      vertex 16.794 0 23
    endloop
  endfacet
  facet normal -0.734636 -0.678462 -1.35218e-05
    outer loop
      vertex 16.0552 0.799999 23
      vertex 18.6174 -1.97438 25
      vertex 11.8284 5.37672 25
    endloop
  endfacet
  facet normal -0.734637 -0.67846 -0
    outer loop
      vertex 18.6174 -1.97438 25
      vertex 16.794 0 23
      vertex 18.6174 -1.97438 0.799999
    endloop
  endfacet
  facet normal -0.914601 -0.404357 0
    outer loop
      vertex 10.8 7.70282 0.799999
      vertex 11.8284 5.37672 0.799999
      vertex 10.8 7.70282 23
    endloop
  endfacet
  facet normal -0.914608 -0.404341 0
    outer loop
      vertex 10.8 7.70282 23
      vertex 10.2386 8.97269 25
      vertex 10.2386 8.97269 23
    endloop
  endfacet
  facet normal -0.914604 -0.404352 7.85508e-06
    outer loop
      vertex 10.8 7.70282 23
      vertex 11.8284 5.37672 25
      vertex 10.2386 8.97269 25
    endloop
  endfacet
  facet normal -0.914601 -0.404357 -0
    outer loop
      vertex 11.8284 5.37672 25
      vertex 10.8 7.70282 23
      vertex 11.8284 5.37672 0.799999
    endloop
  endfacet
  facet normal -0.482046 -0.876146 0
    outer loop
      vertex 8.37138 10 0.799999
      vertex 10 9.10395 23
      vertex 8.37138 10 23
    endloop
  endfacet
  facet normal -0.482046 -0.876146 -0
    outer loop
      vertex 10 9.10395 23
      vertex 8.37138 10 0.799999
      vertex 10 9.10395 0.799999
    endloop
  endfacet
  facet normal -0.482203 -0.876059 0
    outer loop
      vertex 8.37138 10 23
      vertex 8.16463 10.1138 25
      vertex 8.16463 10.1138 23
    endloop
  endfacet
  facet normal -0.482046 -0.876146 2.11471e-05
    outer loop
      vertex 10 9.10395 23
      vertex 8.16463 10.1138 25
      vertex 8.37138 10 23
    endloop
  endfacet
  facet normal -0.482057 -0.87614 8.35256e-06
    outer loop
      vertex 8.16463 10.1138 25
      vertex 10 9.10395 23
      vertex 10.2386 8.97269 25
    endloop
  endfacet
  facet normal -0.482003 -0.876169 -0
    outer loop
      vertex 10.2386 8.97269 25
      vertex 10 9.10395 23
      vertex 10.2386 8.97269 23
    endloop
  endfacet
  facet normal -0.102146 -0.994769 0
    outer loop
      vertex 0.799999 10.8698 0.799999
      vertex 1.47976 10.8 23
      vertex 0.799999 10.8698 23
    endloop
  endfacet
  facet normal -0.102146 -0.994769 -0
    outer loop
      vertex 1.47976 10.8 23
      vertex 0.799999 10.8698 0.799999
      vertex 1.47976 10.8 0.799999
    endloop
  endfacet
  facet normal -0.102116 -0.994773 0
    outer loop
      vertex -9.2 11.8963 0.799999
      vertex 0 10.9519 23
      vertex -9.2 11.8963 23
    endloop
  endfacet
  facet normal -0.102116 -0.994773 -0
    outer loop
      vertex 0 10.9519 23
      vertex -9.2 11.8963 0.799999
      vertex 0 10.9519 0.799999
    endloop
  endfacet
  facet normal -0.102212 -0.994763 -3.76145e-05
    outer loop
      vertex -9.2 11.8963 23
      vertex -10.6275 12.0429 25
      vertex -10 11.9785 23
    endloop
  endfacet
  facet normal -0.102093 -0.994775 0
    outer loop
      vertex -10.6275 12.0429 0.799999
      vertex -10 11.9785 23
      vertex -10.6275 12.0429 25
    endloop
  endfacet
  facet normal -0.102093 -0.994775 -0
    outer loop
      vertex -10 11.9785 23
      vertex -10.6275 12.0429 0.799999
      vertex -10 11.9785 0.799999
    endloop
  endfacet
  facet normal -0.102116 -0.994773 3.18435e-05
    outer loop
      vertex 0 10.9519 23
      vertex -10.6275 12.0429 25
      vertex -9.2 11.8963 23
    endloop
  endfacet
  facet normal -0.102118 -0.994772 1.86222e-05
    outer loop
      vertex -10.6275 12.0429 25
      vertex 0 10.9519 23
      vertex 8.16463 10.1138 25
    endloop
  endfacet
  facet normal -0.102089 -0.994775 -0.000101367
    outer loop
      vertex 0.799999 10.8698 23
      vertex 8.16463 10.1138 25
      vertex 0 10.9519 23
    endloop
  endfacet
  facet normal -0.102146 -0.994769 0.000111166
    outer loop
      vertex 1.47976 10.8 23
      vertex 8.16463 10.1138 25
      vertex 0.799999 10.8698 23
    endloop
  endfacet
  facet normal -0.102113 -0.994773 -0
    outer loop
      vertex 8.16463 10.1138 25
      vertex 1.47976 10.8 23
      vertex 8.16463 10.1138 23
    endloop
  endfacet
  facet normal 0.620119 -0.784508 0
    outer loop
      vertex -12.1987 10.8 23
      vertex -12.2951 10.7238 25
      vertex -12.2951 10.7238 23
    endloop
  endfacet
  facet normal 0.62039 -0.784294 2.11923e-05
    outer loop
      vertex -12.2951 10.7238 25
      vertex -12.1987 10.8 23
      vertex -10.6275 12.0429 25
    endloop
  endfacet
  facet normal 0.620406 -0.784281 0
    outer loop
      vertex -10.6275 12.0429 0.799999
      vertex -12.1987 10.8 23
      vertex -12.1987 10.8 0.799999
    endloop
  endfacet
  facet normal 0.620406 -0.784281 0
    outer loop
      vertex -12.1987 10.8 23
      vertex -10.6275 12.0429 0.799999
      vertex -10.6275 12.0429 25
    endloop
  endfacet
  facet normal 0.504706 -0.863291 1.1738e-05
    outer loop
      vertex -14.3544 9.51987 25
      vertex -13.5331 10 23
      vertex -12.2951 10.7238 25
    endloop
  endfacet
  facet normal 0.504685 -0.863303 0
    outer loop
      vertex -14.3544 9.51987 0.799999
      vertex -13.5331 10 23
      vertex -14.3544 9.51987 25
    endloop
  endfacet
  facet normal 0.504685 -0.863303 0
    outer loop
      vertex -13.5331 10 23
      vertex -14.3544 9.51987 0.799999
      vertex -13.5331 10 0.799999
    endloop
  endfacet
  facet normal 0.504721 -0.863283 0
    outer loop
      vertex -12.2951 10.7238 25
      vertex -13.5331 10 23
      vertex -12.2951 10.7238 23
    endloop
  endfacet
  facet normal 0.794893 0.606749 0
    outer loop
      vertex -12.5586 7.16722 25
      vertex -14.3544 9.51987 0.799999
      vertex -14.3544 9.51987 25
    endloop
  endfacet
  facet normal 0.794893 0.606749 0
    outer loop
      vertex -14.3544 9.51987 0.799999
      vertex -12.5586 7.16722 25
      vertex -12.5586 7.16722 0.799999
    endloop
  endfacet
  facet normal 0.928773 0.37065 0
    outer loop
      vertex -12.5586 7.16722 25
      vertex -10.0176 0.799999 23
      vertex -12.5586 7.16722 0.799999
    endloop
  endfacet
  facet normal 0.928774 0.370648 8.60081e-06
    outer loop
      vertex -9.97603 0.695786 25
      vertex -10.0176 0.799999 23
      vertex -12.5586 7.16722 25
    endloop
  endfacet
  facet normal 0.92883 0.370505 0
    outer loop
      vertex -10.0176 0.799999 23
      vertex -9.97603 0.695786 25
      vertex -9.97603 0.695786 23
    endloop
  endfacet
  facet normal 0.928773 0.37065 0
    outer loop
      vertex -12.5586 7.16722 0.799999
      vertex -10.0176 0.799999 23
      vertex -10.0176 0.799999 0.799999
    endloop
  endfacet
  facet normal 0.824913 0.56526 0
    outer loop
      vertex -9.97603 0.695786 25
      vertex -9.2 -0.436713 23
      vertex -9.97603 0.695786 23
    endloop
  endfacet
  facet normal 0.824913 0.56526 8.04712e-09
    outer loop
      vertex -7.043 -3.58453 25
      vertex -9.2 -0.436713 23
      vertex -9.97603 0.695786 25
    endloop
  endfacet
  facet normal 0.824913 0.56526 -0
    outer loop
      vertex -7.043 -3.58453 0.799999
      vertex -9.2 -0.436713 23
      vertex -7.043 -3.58453 25
    endloop
  endfacet
  facet normal 0.824913 0.56526 0
    outer loop
      vertex -9.2 -0.436713 23
      vertex -7.043 -3.58453 0.799999
      vertex -9.2 -0.436713 0.799999
    endloop
  endfacet
  facet normal 0.769776 -0.638314 0
    outer loop
      vertex -7.043 -3.58453 25
      vertex -9.2 -6.18577 23
      vertex -7.043 -3.58453 0.799999
    endloop
  endfacet
  facet normal 0.769778 -0.638312 -4.29133e-06
    outer loop
      vertex -11.1595 -8.54886 25
      vertex -9.2 -6.18577 23
      vertex -7.043 -3.58453 25
    endloop
  endfacet
  facet normal 0.769779 -0.638311 -2.06853e-06
    outer loop
      vertex -9.2 -6.18577 23
      vertex -11.1595 -8.54886 25
      vertex -10 -7.15054 23
    endloop
  endfacet
  facet normal 0.76978 -0.638309 0
    outer loop
      vertex -11.1595 -8.54886 0.799999
      vertex -10 -7.15054 23
      vertex -11.1595 -8.54886 25
    endloop
  endfacet
  facet normal 0.76978 -0.638309 0
    outer loop
      vertex -10 -7.15054 23
      vertex -11.1595 -8.54886 0.799999
      vertex -10 -7.15054 0.799999
    endloop
  endfacet
  facet normal 0.769776 -0.638314 0
    outer loop
      vertex -7.043 -3.58453 0.799999
      vertex -9.2 -6.18577 23
      vertex -9.2 -6.18577 0.799999
    endloop
  endfacet
  facet normal 0.895563 0.444935 0
    outer loop
      vertex -11.1595 -8.54886 25
      vertex -10.836 -9.2 23
      vertex -11.1595 -8.54886 0.799999
    endloop
  endfacet
  facet normal 0.895552 0.444957 -9.31851e-06
    outer loop
      vertex -10.438 -10.001 25
      vertex -10.836 -9.2 23
      vertex -11.1595 -8.54886 25
    endloop
  endfacet
  facet normal 0.895544 0.444973 -1.39929e-06
    outer loop
      vertex -10.836 -9.2 23
      vertex -10.438 -10.001 25
      vertex -10.4385 -10 23
    endloop
  endfacet
  facet normal 0.894427 0.447214 -0
    outer loop
      vertex -10.438 -10.001 0.799999
      vertex -10.4385 -10 23
      vertex -10.438 -10.001 25
    endloop
  endfacet
  facet normal 0.894427 0.447214 0
    outer loop
      vertex -10.4385 -10 23
      vertex -10.438 -10.001 0.799999
      vertex -10.4385 -10 0.799999
    endloop
  endfacet
  facet normal 0.895563 0.444935 0
    outer loop
      vertex -11.1595 -8.54886 0.799999
      vertex -10.836 -9.2 23
      vertex -10.836 -9.2 0.799999
    endloop
  endfacet
  facet normal -0.25683 0.966456 4.35351e-06
    outer loop
      vertex -3.43744 -8.14064 25
      vertex -7.42386 -9.2 23
      vertex -10.438 -10.001 25
    endloop
  endfacet
  facet normal -0.256828 0.966457 0
    outer loop
      vertex -3.43744 -8.14064 0.799999
      vertex -7.42386 -9.2 23
      vertex -3.43744 -8.14064 25
    endloop
  endfacet
  facet normal -0.256828 0.966457 0
    outer loop
      vertex -7.42386 -9.2 23
      vertex -3.43744 -8.14064 0.799999
      vertex -7.42386 -9.2 0.799999
    endloop
  endfacet
  facet normal -0.256828 0.966457 8.09651e-06
    outer loop
      vertex -10.4343 -10 23
      vertex -10.438 -10.001 25
      vertex -7.42386 -9.2 23
    endloop
  endfacet
  facet normal -0.260909 0.965363 0
    outer loop
      vertex -10.438 -10.001 0.799999
      vertex -10.4343 -10 23
      vertex -10.4343 -10 0.799999
    endloop
  endfacet
  facet normal -0.260909 0.965363 0
    outer loop
      vertex -10.4343 -10 23
      vertex -10.438 -10.001 0.799999
      vertex -10.438 -10.001 25
    endloop
  endfacet
endsolid OpenSCAD_Model
