solid OpenSCAD_Model
  facet normal -0 0 1
    outer loop
      vertex -10 16.0446 23
      vertex -9.2 13.9882 23
      vertex -9.2 16.2868 23
    endloop
  endfacet
  facet normal 0 0 1
    outer loop
      vertex -9.2 13.9882 23
      vertex -10 16.0446 23
      vertex -9.71251 13.833 23
    endloop
  endfacet
  facet normal 0 0 1
    outer loop
      vertex -10 10 23
      vertex -9.2 3.32515 23
      vertex -9.2 9.63504 23
    endloop
  endfacet
  facet normal -0 0 1
    outer loop
      vertex -10 10.8 23
      vertex -9.2 9.63504 23
      vertex -9.71251 13.833 23
    endloop
  endfacet
  facet normal 0 0 1
    outer loop
      vertex -10 -9.2 23
      vertex -9.2 -9.2 23
      vertex -9.2 -2.07126 23
    endloop
  endfacet
  facet normal 0 0 1
    outer loop
      vertex -9.2 -9.2 23
      vertex -10 -9.2 23
      vertex -9.2 -10 23
    endloop
  endfacet
  facet normal -0 0 1
    outer loop
      vertex -10 0 23
      vertex -9.2 -2.07126 23
      vertex -9.4736 1.29967 23
    endloop
  endfacet
  facet normal 0 0 1
    outer loop
      vertex -10 10.8 23
      vertex -9.71251 13.833 23
      vertex -10 16.0446 23
    endloop
  endfacet
  facet normal 0 0 1
    outer loop
      vertex -9.2 9.63504 23
      vertex -10 10.8 23
      vertex -10 10 23
    endloop
  endfacet
  facet normal 0 0 1
    outer loop
      vertex -10 0.799999 23
      vertex -9.2 3.32515 23
      vertex -10 10 23
    endloop
  endfacet
  facet normal 0 0 1
    outer loop
      vertex -9.2 3.32515 23
      vertex -10 0.799999 23
      vertex -9.4736 1.29967 23
    endloop
  endfacet
  facet normal 0 0 1
    outer loop
      vertex -10 0 23
      vertex -9.4736 1.29967 23
      vertex -10 0.799999 23
    endloop
  endfacet
  facet normal 0 0 1
    outer loop
      vertex -10 -9.2 23
      vertex -9.2 -2.07126 23
      vertex -10 0 23
    endloop
  endfacet
  facet normal 0 0 1
    outer loop
      vertex -10 -10 23
      vertex -9.2 -10 23
      vertex -10 -9.2 23
    endloop
  endfacet
  facet normal 0 0 1
    outer loop
      vertex -9.2 -10 23
      vertex -10 -10 23
      vertex -9.2 -10.2379 23
    endloop
  endfacet
  facet normal 0 0 1
    outer loop
      vertex -9.2 -10.2379 23
      vertex -10 -10 23
      vertex -10 -10.7054 23
    endloop
  endfacet
  facet normal 0 0 1
    outer loop
      vertex -8.62139 -9.2 23
      vertex -8.79294 -10 23
      vertex -8.56717 -9.86806 23
    endloop
  endfacet
  facet normal -0 0 1
    outer loop
      vertex -9.2 -9.2 23
      vertex -8.79294 -10 23
      vertex -8.62139 -9.2 23
    endloop
  endfacet
  facet normal 0 0 1
    outer loop
      vertex -8.79294 -10 23
      vertex -9.2 -9.2 23
      vertex -9.2 -10 23
    endloop
  endfacet
  facet normal -0 0 1
    outer loop
      vertex -11.7843 -9.2 23
      vertex -10 -10 23
      vertex -10 -9.2 23
    endloop
  endfacet
  facet normal 0 0 1
    outer loop
      vertex -10 -10 23
      vertex -11.7843 -9.2 23
      vertex -13.1532 -10 23
    endloop
  endfacet
  facet normal 0 0 1
    outer loop
      vertex -10 0.799999 23
      vertex -11.5754 0 23
      vertex -10 0 23
    endloop
  endfacet
  facet normal 0 -0 1
    outer loop
      vertex -11.5754 0 23
      vertex -10 0.799999 23
      vertex -11.6403 0.799999 23
    endloop
  endfacet
  facet normal 0 0 1
    outer loop
      vertex -10 10.8 23
      vertex -11.4609 10 23
      vertex -10 10 23
    endloop
  endfacet
  facet normal 0 -0 1
    outer loop
      vertex -11.4609 10 23
      vertex -10 10.8 23
      vertex -11.5586 10.8 23
    endloop
  endfacet
  facet normal 0 0 1
    outer loop
      vertex -10 -19.2 23
      vertex -9.2 -19.2 23
      vertex -9.2 -15.7442 23
    endloop
  endfacet
  facet normal 0 0 1
    outer loop
      vertex -9.2 -19.2 23
      vertex -10 -19.2 23
      vertex -9.2 -20 23
    endloop
  endfacet
  facet normal 0 0 1
    outer loop
      vertex -10 -19.2 23
      vertex -9.2 -15.7442 23
      vertex -10 -13.6051 23
    endloop
  endfacet
  facet normal -0 0 1
    outer loop
      vertex -10.2564 -19.2 23
      vertex -9.2 -20 23
      vertex -10 -19.2 23
    endloop
  endfacet
  facet normal 0 0 1
    outer loop
      vertex -9.2 -20 23
      vertex -10.2564 -19.2 23
      vertex -9.2 -22.0246 23
    endloop
  endfacet
  facet normal 0 0 1
    outer loop
      vertex -9.2 -20 23
      vertex -7.90756 -19.2 23
      vertex -9.2 -19.2 23
    endloop
  endfacet
  facet normal 0 0 1
    outer loop
      vertex -7.90756 -19.2 23
      vertex -9.2 -20 23
      vertex -7.60836 -20 23
    endloop
  endfacet
  facet normal -0 0 1
    outer loop
      vertex 21.1703 0.799999 23
      vertex 23.6038 0 23
      vertex 24.5245 0.799999 23
    endloop
  endfacet
  facet normal 0 0 1
    outer loop
      vertex 21.1703 0.799999 23
      vertex 20.8 0 23
      vertex 23.6038 0 23
    endloop
  endfacet
  facet normal 0 0 1
    outer loop
      vertex 20 -0.216827 23
      vertex 20.8 0 23
      vertex 21.1703 0.799999 23
    endloop
  endfacet
  facet normal -0 0 1
    outer loop
      vertex 20 -0.216827 23
      vertex 20.8 -2.43618 23
      vertex 20.8 0 23
    endloop
  endfacet
  facet normal 0 0 1
    outer loop
      vertex 20.8 -2.43618 23
      vertex 20 -0.216827 23
      vertex 20 -3.13129 23
    endloop
  endfacet
  facet normal -0 0 1
    outer loop
      vertex 0 18.0457 23
      vertex 0.799999 15.8736 23
      vertex 0.799999 18.075 23
    endloop
  endfacet
  facet normal 0 0 1
    outer loop
      vertex 0.799999 15.8736 23
      vertex 0 18.0457 23
      vertex 0 15.8442 23
    endloop
  endfacet
  facet normal -0 0 1
    outer loop
      vertex 0 -22.9385 23
      vertex 0.799999 -25.0525 23
      vertex 0.799999 -22.399 23
    endloop
  endfacet
  facet normal 0 0 1
    outer loop
      vertex 0.799999 -25.0525 23
      vertex 0 -22.9385 23
      vertex 0 -25.5919 23
    endloop
  endfacet
  facet normal -0 0 1
    outer loop
      vertex 5.32705 -19.2 23
      vertex 7.5649 -20 23
      vertex 8.2826 -19.2 23
    endloop
  endfacet
  facet normal -0 0 1
    outer loop
      vertex 4.99487 -19.5703 23
      vertex 7.5649 -20 23
      vertex 5.32705 -19.2 23
    endloop
  endfacet
  facet normal 0 0 1
    outer loop
      vertex 7.5649 -20 23
      vertex 4.99487 -19.5703 23
      vertex 4.3576 -20 23
    endloop
  endfacet
  facet normal 0 0 1
    outer loop
      vertex 10 14.5032 23
      vertex 10.8 16.5663 23
      vertex 10 16.7809 23
    endloop
  endfacet
  facet normal 0 0 1
    outer loop
      vertex 10.8 16.5663 23
      vertex 10 14.5032 23
      vertex 10.8 14.2886 23
    endloop
  endfacet
  facet normal -0 0 1
    outer loop
      vertex 10 -13.1175 23
      vertex 10.8 -16.3012 23
      vertex 10.8 -11.6114 23
    endloop
  endfacet
  facet normal 0 0 1
    outer loop
      vertex 10.8 -16.3012 23
      vertex 10 -13.1175 23
      vertex 10.6793 -16.5284 23
    endloop
  endfacet
  facet normal 0 0 1
    outer loop
      vertex 10.6793 -16.5284 23
      vertex 10 -13.1175 23
      vertex 10 -17.2857 23
    endloop
  endfacet
  facet normal -0 0 1
    outer loop
      vertex 12.0809 -9.2 23
      vertex 14.147 -10 23
      vertex 14.572 -9.2 23
    endloop
  endfacet
  facet normal 0 0 1
    outer loop
      vertex 14.147 -10 23
      vertex 12.0809 -9.2 23
      vertex 11.6559 -10 23
    endloop
  endfacet
  facet normal 0 0 1
    outer loop
      vertex 20 12.2567 23
      vertex 20.8 14.3384 23
      vertex 20 14.5024 23
    endloop
  endfacet
  facet normal 0 0 1
    outer loop
      vertex 20.8 14.3384 23
      vertex 20 12.2567 23
      vertex 20.8 12.0927 23
    endloop
  endfacet
  facet normal 0 0 1
    outer loop
      vertex 28.491 10.8 23
      vertex 26.4416 10 23
      vertex 28.8049 10 23
    endloop
  endfacet
  facet normal 0 -0 1
    outer loop
      vertex 26.4416 10 23
      vertex 28.491 10.8 23
      vertex 26.1277 10.8 23
    endloop
  endfacet
  facet normal 0 0 1
    outer loop
      vertex 30 3.65448 23
      vertex 30.0319 6.87294 23
      vertex 30 6.95414 23
    endloop
  endfacet
  facet normal 0 0 1
    outer loop
      vertex 30.0319 6.87294 23
      vertex 30 3.65448 23
      vertex 30.4817 3.8203 23
    endloop
  endfacet
  facet normal -0 0 1
    outer loop
      vertex -20 14.4826 23
      vertex -19.2 14.1226 23
      vertex -19.2 14.5674 23
    endloop
  endfacet
  facet normal 0 0 1
    outer loop
      vertex -19.2 14.1226 23
      vertex -20 14.4826 23
      vertex -20 14.0845 23
    endloop
  endfacet
  facet normal 0 0 -1
    outer loop
      vertex 15.6 -8.96999 0
      vertex -12.49 1.37999 0
      vertex -11.82 6.34 0
    endloop
  endfacet
  facet normal 0 0 -1
    outer loop
      vertex 6.98 -21.85 0
      vertex -13.16 -13.72 0
      vertex -11.71 -8.23 0
    endloop
  endfacet
  facet normal 0 0 -1
    outer loop
      vertex -18.76 -12.35 0
      vertex -13.16 -13.72 0
      vertex -17.97 -14.25 0
    endloop
  endfacet
  facet normal 0 0 -1
    outer loop
      vertex -13.16 -13.72 0
      vertex -18.76 -12.35 0
      vertex -11.71 -8.23 0
    endloop
  endfacet
  facet normal 0 0 -1
    outer loop
      vertex 26.78 1.7 0
      vertex 30.81 7.07999 0
      vertex 31.37 3.28 0
    endloop
  endfacet
  facet normal -0 0 -1
    outer loop
      vertex 30.81 7.07999 0
      vertex 26.78 1.7 0
      vertex 28.24 13.63 0
    endloop
  endfacet
  facet normal 0 0 -1
    outer loop
      vertex 13.8 16.59 0
      vertex 26.78 1.7 0
      vertex 18.39 -5.59 0
    endloop
  endfacet
  facet normal 0 0 -1
    outer loop
      vertex 4.73999 19.02 0
      vertex 18.39 -5.59 0
      vertex 15.6 -8.96999 0
    endloop
  endfacet
  facet normal 0 0 -1
    outer loop
      vertex 26.78 1.7 0
      vertex 13.8 16.59 0
      vertex 28.24 13.63 0
    endloop
  endfacet
  facet normal 0 0 -1
    outer loop
      vertex -11.71 -8.23 0
      vertex 15.6 -8.96999 0
      vertex 11.34 -16.99 0
    endloop
  endfacet
  facet normal 0 0 -1
    outer loop
      vertex -11.71 -8.23 0
      vertex 11.34 -16.99 0
      vertex 6.98 -21.85 0
    endloop
  endfacet
  facet normal 0 0 -1
    outer loop
      vertex -12.49 1.37999 0
      vertex 15.6 -8.96999 0
      vertex -11.71 -8.23 0
    endloop
  endfacet
  facet normal 0 0 -1
    outer loop
      vertex -13.16 -13.72 0
      vertex 6.98 -21.85 0
      vertex -0.849991 -27.13 0
    endloop
  endfacet
  facet normal 0 -0 -1
    outer loop
      vertex 4.73999 19.02 0
      vertex 15.6 -8.96999 0
      vertex -11.82 6.34 0
    endloop
  endfacet
  facet normal 0 0 -1
    outer loop
      vertex -13.16 -13.72 0
      vertex -0.849991 -27.13 0
      vertex -7.12 -29.87 0
    endloop
  endfacet
  facet normal 0 0 -1
    outer loop
      vertex 18.39 -5.59 0
      vertex 4.73999 19.02 0
      vertex 13.8 16.59 0
    endloop
  endfacet
  facet normal 0 0 -1
    outer loop
      vertex 4.73999 19.02 0
      vertex -11.82 6.34 0
      vertex -3.98999 18.7 0
    endloop
  endfacet
  facet normal 0 0 -1
    outer loop
      vertex -12.71 13.63 0
      vertex -3.98999 18.7 0
      vertex -11.82 6.34 0
    endloop
  endfacet
  facet normal 0 0 -1
    outer loop
      vertex -12.71 13.63 0
      vertex -12.71 16.06 0
      vertex -3.98999 18.7 0
    endloop
  endfacet
  facet normal 0 0 -1
    outer loop
      vertex -21.67 15.11 0
      vertex -12.71 13.63 0
      vertex -21.55 13.21 0
    endloop
  endfacet
  facet normal 0 0 -1
    outer loop
      vertex -12.71 13.63 0
      vertex -21.67 15.11 0
      vertex -12.71 16.06 0
    endloop
  endfacet
  facet normal -1 0 0
    outer loop
      vertex 30 3.65448 0.799999
      vertex 30 6.95414 23
      vertex 30 6.95414 0.799999
    endloop
  endfacet
  facet normal -1 -0 0
    outer loop
      vertex 30 6.95414 23
      vertex 30 3.65448 0.799999
      vertex 30 3.65448 23
    endloop
  endfacet
  facet normal -1 0 0
    outer loop
      vertex 20 12.2567 0.799999
      vertex 20 14.5024 23
      vertex 20 14.5024 0.799999
    endloop
  endfacet
  facet normal -1 -0 0
    outer loop
      vertex 20 14.5024 23
      vertex 20 12.2567 0.799999
      vertex 20 12.2567 23
    endloop
  endfacet
  facet normal -1 0 0
    outer loop
      vertex 20 -3.13129 0.799999
      vertex 20 -0.216827 23
      vertex 20 -0.216827 0.799999
    endloop
  endfacet
  facet normal -1 -0 0
    outer loop
      vertex 20 -0.216827 23
      vertex 20 -3.13129 0.799999
      vertex 20 -3.13129 23
    endloop
  endfacet
  facet normal 1 -0 0
    outer loop
      vertex 20.8 -2.43618 23
      vertex 20.8 0 0.799999
      vertex 20.8 0 23
    endloop
  endfacet
  facet normal 1 0 0
    outer loop
      vertex 20.8 0 0.799999
      vertex 20.8 -2.43618 23
      vertex 20.8 -2.43618 0.799999
    endloop
  endfacet
  facet normal 1 -0 0
    outer loop
      vertex 20.8 12.0927 23
      vertex 20.8 14.3384 0.799999
      vertex 20.8 14.3384 23
    endloop
  endfacet
  facet normal 1 0 0
    outer loop
      vertex 20.8 14.3384 0.799999
      vertex 20.8 12.0927 23
      vertex 20.8 12.0927 0.799999
    endloop
  endfacet
  facet normal 0 1 -0
    outer loop
      vertex -10 10.8 0.799999
      vertex -11.5586 10.8 23
      vertex -10 10.8 23
    endloop
  endfacet
  facet normal 0 1 0
    outer loop
      vertex -11.5586 10.8 23
      vertex -10 10.8 0.799999
      vertex -11.5586 10.8 0.799999
    endloop
  endfacet
  facet normal 0 1 -0
    outer loop
      vertex 28.491 10.8 0.799999
      vertex 26.1277 10.8 23
      vertex 28.491 10.8 23
    endloop
  endfacet
  facet normal 0 1 0
    outer loop
      vertex 26.1277 10.8 23
      vertex 28.491 10.8 0.799999
      vertex 26.1277 10.8 0.799999
    endloop
  endfacet
  facet normal 0 -1 0
    outer loop
      vertex -11.4609 10 0.799999
      vertex -10 10 23
      vertex -11.4609 10 23
    endloop
  endfacet
  facet normal 0 -1 -0
    outer loop
      vertex -10 10 23
      vertex -11.4609 10 0.799999
      vertex -10 10 0.799999
    endloop
  endfacet
  facet normal 0 -1 0
    outer loop
      vertex 26.4416 10 0.799999
      vertex 28.8049 10 23
      vertex 26.4416 10 23
    endloop
  endfacet
  facet normal 0 -1 -0
    outer loop
      vertex 28.8049 10 23
      vertex 26.4416 10 0.799999
      vertex 28.8049 10 0.799999
    endloop
  endfacet
  facet normal -1 0 0
    outer loop
      vertex 10 14.5032 0.799999
      vertex 10 16.7809 23
      vertex 10 16.7809 0.799999
    endloop
  endfacet
  facet normal -1 -0 0
    outer loop
      vertex 10 16.7809 23
      vertex 10 14.5032 0.799999
      vertex 10 14.5032 23
    endloop
  endfacet
  facet normal -1 0 0
    outer loop
      vertex 10 -17.2857 0.799999
      vertex 10 -13.1175 23
      vertex 10 -13.1175 0.799999
    endloop
  endfacet
  facet normal -1 -0 0
    outer loop
      vertex 10 -13.1175 23
      vertex 10 -17.2857 0.799999
      vertex 10 -17.2857 23
    endloop
  endfacet
  facet normal 1 -0 0
    outer loop
      vertex 10.8 14.2886 23
      vertex 10.8 16.5663 0.799999
      vertex 10.8 16.5663 23
    endloop
  endfacet
  facet normal 1 0 0
    outer loop
      vertex 10.8 16.5663 0.799999
      vertex 10.8 14.2886 23
      vertex 10.8 14.2886 0.799999
    endloop
  endfacet
  facet normal 1 -0 0
    outer loop
      vertex 10.8 -16.3012 23
      vertex 10.8 -11.6114 0.799999
      vertex 10.8 -11.6114 23
    endloop
  endfacet
  facet normal 1 0 0
    outer loop
      vertex 10.8 -11.6114 0.799999
      vertex 10.8 -16.3012 23
      vertex 10.8 -16.3012 0.799999
    endloop
  endfacet
  facet normal 0 1 -0
    outer loop
      vertex -10 0.799999 0.799999
      vertex -11.6403 0.799999 23
      vertex -10 0.799999 23
    endloop
  endfacet
  facet normal 0 1 0
    outer loop
      vertex -11.6403 0.799999 23
      vertex -10 0.799999 0.799999
      vertex -11.6403 0.799999 0.799999
    endloop
  endfacet
  facet normal 0 1 -0
    outer loop
      vertex 24.5245 0.799999 0.799999
      vertex 21.1703 0.799999 23
      vertex 24.5245 0.799999 23
    endloop
  endfacet
  facet normal 0 1 0
    outer loop
      vertex 21.1703 0.799999 23
      vertex 24.5245 0.799999 0.799999
      vertex 21.1703 0.799999 0.799999
    endloop
  endfacet
  facet normal 0 -1 0
    outer loop
      vertex -11.5754 0 0.799999
      vertex -10 0 23
      vertex -11.5754 0 23
    endloop
  endfacet
  facet normal 0 -1 -0
    outer loop
      vertex -10 0 23
      vertex -11.5754 0 0.799999
      vertex -10 0 0.799999
    endloop
  endfacet
  facet normal 0 -1 0
    outer loop
      vertex 20.8 0 0.799999
      vertex 23.6038 0 23
      vertex 20.8 0 23
    endloop
  endfacet
  facet normal 0 -1 -0
    outer loop
      vertex 23.6038 0 23
      vertex 20.8 0 0.799999
      vertex 23.6038 0 0.799999
    endloop
  endfacet
  facet normal -1 0 0
    outer loop
      vertex 0 15.8442 0.799999
      vertex 0 18.0457 23
      vertex 0 18.0457 0.799999
    endloop
  endfacet
  facet normal -1 -0 0
    outer loop
      vertex 0 18.0457 23
      vertex 0 15.8442 0.799999
      vertex 0 15.8442 23
    endloop
  endfacet
  facet normal -1 0 0
    outer loop
      vertex 0 -25.5919 0.799999
      vertex 0 -22.9385 23
      vertex 0 -22.9385 0.799999
    endloop
  endfacet
  facet normal -1 -0 0
    outer loop
      vertex 0 -22.9385 23
      vertex 0 -25.5919 0.799999
      vertex 0 -25.5919 23
    endloop
  endfacet
  facet normal 1 -0 0
    outer loop
      vertex 0.799999 15.8736 23
      vertex 0.799999 18.075 0.799999
      vertex 0.799999 18.075 23
    endloop
  endfacet
  facet normal 1 0 0
    outer loop
      vertex 0.799999 18.075 0.799999
      vertex 0.799999 15.8736 23
      vertex 0.799999 15.8736 0.799999
    endloop
  endfacet
  facet normal 1 -0 0
    outer loop
      vertex 0.799999 -25.0525 23
      vertex 0.799999 -22.399 0.799999
      vertex 0.799999 -22.399 23
    endloop
  endfacet
  facet normal 1 0 0
    outer loop
      vertex 0.799999 -22.399 0.799999
      vertex 0.799999 -25.0525 23
      vertex 0.799999 -25.0525 0.799999
    endloop
  endfacet
  facet normal 0 1 -0
    outer loop
      vertex -10 -9.2 0.799999
      vertex -11.7843 -9.2 23
      vertex -10 -9.2 23
    endloop
  endfacet
  facet normal 0 1 0
    outer loop
      vertex -11.7843 -9.2 23
      vertex -10 -9.2 0.799999
      vertex -11.7843 -9.2 0.799999
    endloop
  endfacet
  facet normal 0 1 -0
    outer loop
      vertex -8.62139 -9.2 0.799999
      vertex -9.2 -9.2 23
      vertex -8.62139 -9.2 23
    endloop
  endfacet
  facet normal 0 1 0
    outer loop
      vertex -9.2 -9.2 23
      vertex -8.62139 -9.2 0.799999
      vertex -9.2 -9.2 0.799999
    endloop
  endfacet
  facet normal 0 1 -0
    outer loop
      vertex 14.572 -9.2 0.799999
      vertex 12.0809 -9.2 23
      vertex 14.572 -9.2 23
    endloop
  endfacet
  facet normal 0 1 0
    outer loop
      vertex 12.0809 -9.2 23
      vertex 14.572 -9.2 0.799999
      vertex 12.0809 -9.2 0.799999
    endloop
  endfacet
  facet normal 0 -1 0
    outer loop
      vertex -13.1532 -10 0.799999
      vertex -10 -10 23
      vertex -13.1532 -10 23
    endloop
  endfacet
  facet normal 0 -1 -0
    outer loop
      vertex -10 -10 23
      vertex -13.1532 -10 0.799999
      vertex -10 -10 0.799999
    endloop
  endfacet
  facet normal 0 -1 0
    outer loop
      vertex -9.2 -10 0.799999
      vertex -8.79294 -10 23
      vertex -9.2 -10 23
    endloop
  endfacet
  facet normal 0 -1 -0
    outer loop
      vertex -8.79294 -10 23
      vertex -9.2 -10 0.799999
      vertex -8.79294 -10 0.799999
    endloop
  endfacet
  facet normal 0 -1 0
    outer loop
      vertex 11.6559 -10 0.799999
      vertex 14.147 -10 23
      vertex 11.6559 -10 23
    endloop
  endfacet
  facet normal 0 -1 -0
    outer loop
      vertex 14.147 -10 23
      vertex 11.6559 -10 0.799999
      vertex 14.147 -10 0.799999
    endloop
  endfacet
  facet normal -1 0 0
    outer loop
      vertex -10 -10.7054 0.799999
      vertex -10 -10 23
      vertex -10 -10 0.799999
    endloop
  endfacet
  facet normal -1 -0 0
    outer loop
      vertex -10 -10 23
      vertex -10 -10.7054 0.799999
      vertex -10 -10.7054 23
    endloop
  endfacet
  facet normal -1 0 0
    outer loop
      vertex -10 -9.2 0.799999
      vertex -10 0 23
      vertex -10 0 0.799999
    endloop
  endfacet
  facet normal -1 -0 0
    outer loop
      vertex -10 0 23
      vertex -10 -9.2 0.799999
      vertex -10 -9.2 23
    endloop
  endfacet
  facet normal -1 0 0
    outer loop
      vertex -10 -19.2 0.799999
      vertex -10 -13.6051 23
      vertex -10 -13.6051 0.799999
    endloop
  endfacet
  facet normal -1 -0 0
    outer loop
      vertex -10 -13.6051 23
      vertex -10 -19.2 0.799999
      vertex -10 -19.2 23
    endloop
  endfacet
  facet normal -1 0 0
    outer loop
      vertex -10 0.799999 0.799999
      vertex -10 10 23
      vertex -10 10 0.799999
    endloop
  endfacet
  facet normal -1 -0 0
    outer loop
      vertex -10 10 23
      vertex -10 0.799999 0.799999
      vertex -10 0.799999 23
    endloop
  endfacet
  facet normal -1 0 0
    outer loop
      vertex -10 10.8 0.799999
      vertex -10 16.0446 23
      vertex -10 16.0446 0.799999
    endloop
  endfacet
  facet normal -1 -0 0
    outer loop
      vertex -10 16.0446 23
      vertex -10 10.8 0.799999
      vertex -10 10.8 23
    endloop
  endfacet
  facet normal 1 -0 0
    outer loop
      vertex -9.2 -10.2379 23
      vertex -9.2 -10 0.799999
      vertex -9.2 -10 23
    endloop
  endfacet
  facet normal 1 0 0
    outer loop
      vertex -9.2 -10 0.799999
      vertex -9.2 -10.2379 23
      vertex -9.2 -10.2379 0.799999
    endloop
  endfacet
  facet normal 1 -0 0
    outer loop
      vertex -9.2 -9.2 23
      vertex -9.2 -2.07126 0.799999
      vertex -9.2 -2.07126 23
    endloop
  endfacet
  facet normal 1 0 0
    outer loop
      vertex -9.2 -2.07126 0.799999
      vertex -9.2 -9.2 23
      vertex -9.2 -9.2 0.799999
    endloop
  endfacet
  facet normal 1 -0 0
    outer loop
      vertex -9.2 -22.0246 23
      vertex -9.2 -20 0.799999
      vertex -9.2 -20 23
    endloop
  endfacet
  facet normal 1 0 0
    outer loop
      vertex -9.2 -20 0.799999
      vertex -9.2 -22.0246 23
      vertex -9.2 -22.0246 0.799999
    endloop
  endfacet
  facet normal 1 -0 0
    outer loop
      vertex -9.2 -19.2 23
      vertex -9.2 -15.7442 0.799999
      vertex -9.2 -15.7442 23
    endloop
  endfacet
  facet normal 1 0 0
    outer loop
      vertex -9.2 -15.7442 0.799999
      vertex -9.2 -19.2 23
      vertex -9.2 -19.2 0.799999
    endloop
  endfacet
  facet normal 1 -0 0
    outer loop
      vertex -9.2 13.9882 23
      vertex -9.2 16.2868 0.799999
      vertex -9.2 16.2868 23
    endloop
  endfacet
  facet normal 1 0 0
    outer loop
      vertex -9.2 16.2868 0.799999
      vertex -9.2 13.9882 23
      vertex -9.2 13.9882 0.799999
    endloop
  endfacet
  facet normal 1 -0 0
    outer loop
      vertex -9.2 3.32515 23
      vertex -9.2 9.63504 0.799999
      vertex -9.2 9.63504 23
    endloop
  endfacet
  facet normal 1 0 0
    outer loop
      vertex -9.2 9.63504 0.799999
      vertex -9.2 3.32515 23
      vertex -9.2 3.32515 0.799999
    endloop
  endfacet
  facet normal 0 1 -0
    outer loop
      vertex -10 -19.2 0.799999
      vertex -10.2564 -19.2 23
      vertex -10 -19.2 23
    endloop
  endfacet
  facet normal 0 1 0
    outer loop
      vertex -10.2564 -19.2 23
      vertex -10 -19.2 0.799999
      vertex -10.2564 -19.2 0.799999
    endloop
  endfacet
  facet normal 0 1 -0
    outer loop
      vertex -7.90756 -19.2 0.799999
      vertex -9.2 -19.2 23
      vertex -7.90756 -19.2 23
    endloop
  endfacet
  facet normal 0 1 0
    outer loop
      vertex -9.2 -19.2 23
      vertex -7.90756 -19.2 0.799999
      vertex -9.2 -19.2 0.799999
    endloop
  endfacet
  facet normal 0 1 -0
    outer loop
      vertex 8.2826 -19.2 0.799999
      vertex 5.32705 -19.2 23
      vertex 8.2826 -19.2 23
    endloop
  endfacet
  facet normal 0 1 0
    outer loop
      vertex 5.32705 -19.2 23
      vertex 8.2826 -19.2 0.799999
      vertex 5.32705 -19.2 0.799999
    endloop
  endfacet
  facet normal 0 -1 0
    outer loop
      vertex -9.2 -20 0.799999
      vertex -7.60836 -20 23
      vertex -9.2 -20 23
    endloop
  endfacet
  facet normal 0 -1 -0
    outer loop
      vertex -7.60836 -20 23
      vertex -9.2 -20 0.799999
      vertex -7.60836 -20 0.799999
    endloop
  endfacet
  facet normal 0 -1 0
    outer loop
      vertex 4.3576 -20 0.799999
      vertex 7.5649 -20 23
      vertex 4.3576 -20 23
    endloop
  endfacet
  facet normal 0 -1 -0
    outer loop
      vertex 7.5649 -20 23
      vertex 4.3576 -20 0.799999
      vertex 7.5649 -20 0.799999
    endloop
  endfacet
  facet normal -1 0 0
    outer loop
      vertex -20 14.0845 0.799999
      vertex -20 14.4826 23
      vertex -20 14.4826 0.799999
    endloop
  endfacet
  facet normal -1 -0 0
    outer loop
      vertex -20 14.4826 23
      vertex -20 14.0845 0.799999
      vertex -20 14.0845 23
    endloop
  endfacet
  facet normal 1 -0 0
    outer loop
      vertex -19.2 14.1226 23
      vertex -19.2 14.5674 0.799999
      vertex -19.2 14.5674 23
    endloop
  endfacet
  facet normal 1 0 0
    outer loop
      vertex -19.2 14.5674 0.799999
      vertex -19.2 14.1226 23
      vertex -19.2 14.1226 0.799999
    endloop
  endfacet
  facet normal 0.559091 -0.829106 0
    outer loop
      vertex -0.849991 -27.13 0
      vertex 6.98 -21.85 25
      vertex -0.849991 -27.13 25
    endloop
  endfacet
  facet normal 0.559091 -0.829106 0
    outer loop
      vertex 6.98 -21.85 25
      vertex -0.849991 -27.13 0
      vertex 6.98 -21.85 0
    endloop
  endfacet
  facet normal 0.744359 -0.667779 0
    outer loop
      vertex 6.98 -21.85 25
      vertex 11.34 -16.99 0
      vertex 11.34 -16.99 25
    endloop
  endfacet
  facet normal 0.744359 -0.667779 0
    outer loop
      vertex 11.34 -16.99 0
      vertex 6.98 -21.85 25
      vertex 6.98 -21.85 0
    endloop
  endfacet
  facet normal 0.883144 -0.469101 0
    outer loop
      vertex 11.34 -16.99 25
      vertex 15.6 -8.96999 0
      vertex 15.6 -8.96999 25
    endloop
  endfacet
  facet normal 0.883144 -0.469101 0
    outer loop
      vertex 15.6 -8.96999 0
      vertex 11.34 -16.99 25
      vertex 11.34 -16.99 0
    endloop
  endfacet
  facet normal 0.655889 -0.754857 0
    outer loop
      vertex 18.39 -5.59 0
      vertex 26.78 1.7 25
      vertex 18.39 -5.59 25
    endloop
  endfacet
  facet normal 0.655889 -0.754857 0
    outer loop
      vertex 26.78 1.7 25
      vertex 18.39 -5.59 0
      vertex 26.78 1.7 0
    endloop
  endfacet
  facet normal 0.325483 -0.945548 0
    outer loop
      vertex 26.78 1.7 0
      vertex 31.37 3.28 25
      vertex 26.78 1.7 25
    endloop
  endfacet
  facet normal 0.325483 -0.945548 0
    outer loop
      vertex 31.37 3.28 25
      vertex 26.78 1.7 0
      vertex 31.37 3.28 0
    endloop
  endfacet
  facet normal 0.930907 0.365256 0
    outer loop
      vertex 30.81 7.07999 25
      vertex 28.24 13.63 0
      vertex 28.24 13.63 25
    endloop
  endfacet
  facet normal 0.930907 0.365256 0
    outer loop
      vertex 28.24 13.63 0
      vertex 30.81 7.07999 25
      vertex 30.81 7.07999 0
    endloop
  endfacet
  facet normal 0.200811 0.97963 -0
    outer loop
      vertex 28.24 13.63 0
      vertex 13.8 16.59 25
      vertex 28.24 13.63 25
    endloop
  endfacet
  facet normal 0.200811 0.97963 0
    outer loop
      vertex 13.8 16.59 25
      vertex 28.24 13.63 0
      vertex 13.8 16.59 0
    endloop
  endfacet
  facet normal 0.259056 0.965862 -0
    outer loop
      vertex 13.8 16.59 0
      vertex 4.73999 19.02 25
      vertex 13.8 16.59 25
    endloop
  endfacet
  facet normal 0.259056 0.965862 0
    outer loop
      vertex 4.73999 19.02 25
      vertex 13.8 16.59 0
      vertex 4.73999 19.02 0
    endloop
  endfacet
  facet normal -0.0366307 0.999329 0
    outer loop
      vertex 4.73999 19.02 0
      vertex -3.98999 18.7 25
      vertex 4.73999 19.02 25
    endloop
  endfacet
  facet normal -0.0366307 0.999329 0
    outer loop
      vertex -3.98999 18.7 25
      vertex 4.73999 19.02 0
      vertex -3.98999 18.7 0
    endloop
  endfacet
  facet normal -0.289763 0.957098 0
    outer loop
      vertex -3.98999 18.7 0
      vertex -12.71 16.06 25
      vertex -3.98999 18.7 25
    endloop
  endfacet
  facet normal -0.289763 0.957098 0
    outer loop
      vertex -12.71 16.06 25
      vertex -3.98999 18.7 0
      vertex -12.71 16.06 0
    endloop
  endfacet
  facet normal -0.105436 0.994426 0
    outer loop
      vertex -12.71 16.06 0
      vertex -21.67 15.11 25
      vertex -12.71 16.06 25
    endloop
  endfacet
  facet normal -0.105436 0.994426 0
    outer loop
      vertex -21.67 15.11 25
      vertex -12.71 16.06 0
      vertex -21.67 15.11 0
    endloop
  endfacet
  facet normal 0.0474578 -0.998873 0
    outer loop
      vertex -21.55 13.21 0
      vertex -12.71 13.63 25
      vertex -21.55 13.21 25
    endloop
  endfacet
  facet normal 0.0474578 -0.998873 0
    outer loop
      vertex -12.71 13.63 25
      vertex -21.55 13.21 0
      vertex -12.71 13.63 0
    endloop
  endfacet
  facet normal -0.99263 -0.121185 0
    outer loop
      vertex -11.82 6.34 0
      vertex -12.71 13.63 25
      vertex -12.71 13.63 0
    endloop
  endfacet
  facet normal -0.99263 -0.121185 0
    outer loop
      vertex -12.71 13.63 25
      vertex -11.82 6.34 0
      vertex -11.82 6.34 25
    endloop
  endfacet
  facet normal -0.996722 -0.0808995 0
    outer loop
      vertex -11.71 -8.23 0
      vertex -12.49 1.37999 25
      vertex -12.49 1.37999 0
    endloop
  endfacet
  facet normal -0.996722 -0.0808995 0
    outer loop
      vertex -12.49 1.37999 25
      vertex -11.71 -8.23 0
      vertex -11.71 -8.23 25
    endloop
  endfacet
  facet normal -0.504556 0.863379 0
    outer loop
      vertex -11.71 -8.23 0
      vertex -18.76 -12.35 25
      vertex -11.71 -8.23 25
    endloop
  endfacet
  facet normal -0.504556 0.863379 0
    outer loop
      vertex -18.76 -12.35 25
      vertex -11.71 -8.23 0
      vertex -18.76 -12.35 0
    endloop
  endfacet
  facet normal -0.936639 -0.350297 0
    outer loop
      vertex -7.12 -29.87 0
      vertex -13.16 -13.72 25
      vertex -13.16 -13.72 0
    endloop
  endfacet
  facet normal -0.936639 -0.350297 0
    outer loop
      vertex -13.16 -13.72 25
      vertex -7.12 -29.87 0
      vertex -7.12 -29.87 25
    endloop
  endfacet
  facet normal 0.400435 -0.916325 0
    outer loop
      vertex -7.12 -29.87 0
      vertex -0.849991 -27.13 25
      vertex -7.12 -29.87 25
    endloop
  endfacet
  facet normal 0.400435 -0.916325 0
    outer loop
      vertex -0.849991 -27.13 25
      vertex -7.12 -29.87 0
      vertex -0.849991 -27.13 0
    endloop
  endfacet
  facet normal -0.559117 0.829089 0
    outer loop
      vertex 0.799999 -22.399 0.799999
      vertex 0 -22.9385 23
      vertex 0.799999 -22.399 23
    endloop
  endfacet
  facet normal -0.559117 0.829089 0
    outer loop
      vertex 0 -22.9385 23
      vertex 0.799999 -22.399 0.799999
      vertex 0 -22.9385 0.799999
    endloop
  endfacet
  facet normal -0.559064 0.829124 0
    outer loop
      vertex 4.99487 -19.5703 0.799999
      vertex 4.3576 -20 23
      vertex 4.99487 -19.5703 23
    endloop
  endfacet
  facet normal -0.559064 0.829124 0
    outer loop
      vertex 4.3576 -20 23
      vertex 4.99487 -19.5703 0.799999
      vertex 4.3576 -20 0.799999
    endloop
  endfacet
  facet normal -0.744383 0.667753 0
    outer loop
      vertex 4.99487 -19.5703 0.799999
      vertex 5.32705 -19.2 23
      vertex 5.32705 -19.2 0.799999
    endloop
  endfacet
  facet normal -0.744383 0.667753 0
    outer loop
      vertex 5.32705 -19.2 23
      vertex 4.99487 -19.5703 0.799999
      vertex 4.99487 -19.5703 23
    endloop
  endfacet
  facet normal -0.883144 0.469102 0
    outer loop
      vertex 10 -13.1175 0.799999
      vertex 10.8 -11.6114 23
      vertex 10.8 -11.6114 0.799999
    endloop
  endfacet
  facet normal -0.883144 0.469102 0
    outer loop
      vertex 10.8 -11.6114 23
      vertex 10 -13.1175 0.799999
      vertex 10 -13.1175 23
    endloop
  endfacet
  facet normal -0.883116 0.469155 0
    outer loop
      vertex 11.6559 -10 0.799999
      vertex 12.0809 -9.2 23
      vertex 12.0809 -9.2 0.799999
    endloop
  endfacet
  facet normal -0.883116 0.469155 0
    outer loop
      vertex 12.0809 -9.2 23
      vertex 11.6559 -10 0.799999
      vertex 11.6559 -10 23
    endloop
  endfacet
  facet normal -0.655875 0.754869 0
    outer loop
      vertex 21.1703 0.799999 0.799999
      vertex 20 -0.216827 23
      vertex 21.1703 0.799999 23
    endloop
  endfacet
  facet normal -0.655875 0.754869 0
    outer loop
      vertex 20 -0.216827 23
      vertex 21.1703 0.799999 0.799999
      vertex 20 -0.216827 0.799999
    endloop
  endfacet
  facet normal -0.930904 -0.365264 0
    outer loop
      vertex 26.4416 10 0.799999
      vertex 26.1277 10.8 23
      vertex 26.1277 10.8 0.799999
    endloop
  endfacet
  facet normal -0.930904 -0.365264 0
    outer loop
      vertex 26.1277 10.8 23
      vertex 26.4416 10 0.799999
      vertex 26.4416 10 23
    endloop
  endfacet
  facet normal -0.200824 -0.979627 0
    outer loop
      vertex 20 12.2567 0.799999
      vertex 20.8 12.0927 23
      vertex 20 12.2567 23
    endloop
  endfacet
  facet normal -0.200824 -0.979627 -0
    outer loop
      vertex 20.8 12.0927 23
      vertex 20 12.2567 0.799999
      vertex 20.8 12.0927 0.799999
    endloop
  endfacet
  facet normal -0.25909 -0.965853 0
    outer loop
      vertex 10 14.5032 0.799999
      vertex 10.8 14.2886 23
      vertex 10 14.5032 23
    endloop
  endfacet
  facet normal -0.25909 -0.965853 -0
    outer loop
      vertex 10.8 14.2886 23
      vertex 10 14.5032 0.799999
      vertex 10.8 14.2886 0.799999
    endloop
  endfacet
  facet normal 0.0367253 -0.999325 0
    outer loop
      vertex 0 15.8442 0.799999
      vertex 0.799999 15.8736 23
      vertex 0 15.8442 23
    endloop
  endfacet
  facet normal 0.0367253 -0.999325 0
    outer loop
      vertex 0.799999 15.8736 23
      vertex 0 15.8442 0.799999
      vertex 0.799999 15.8736 0.799999
    endloop
  endfacet
  facet normal 0.289826 -0.957079 0
    outer loop
      vertex -9.71251 13.833 0.799999
      vertex -9.2 13.9882 23
      vertex -9.71251 13.833 23
    endloop
  endfacet
  facet normal 0.289826 -0.957079 0
    outer loop
      vertex -9.2 13.9882 23
      vertex -9.71251 13.833 0.799999
      vertex -9.2 13.9882 0.799999
    endloop
  endfacet
  facet normal 0.99263 0.121186 0
    outer loop
      vertex -9.2 9.63504 23
      vertex -9.71251 13.833 0.799999
      vertex -9.71251 13.833 23
    endloop
  endfacet
  facet normal 0.99263 0.121186 0
    outer loop
      vertex -9.71251 13.833 0.799999
      vertex -9.2 9.63504 23
      vertex -9.2 9.63504 0.799999
    endloop
  endfacet
  facet normal 0.991 -0.133863 0
    outer loop
      vertex -9.4736 1.29967 23
      vertex -9.2 3.32515 0.799999
      vertex -9.2 3.32515 23
    endloop
  endfacet
  facet normal 0.991 -0.133863 0
    outer loop
      vertex -9.2 3.32515 0.799999
      vertex -9.4736 1.29967 23
      vertex -9.4736 1.29967 0.799999
    endloop
  endfacet
  facet normal 0.996722 0.0808985 0
    outer loop
      vertex -9.2 -2.07126 23
      vertex -9.4736 1.29967 0.799999
      vertex -9.4736 1.29967 23
    endloop
  endfacet
  facet normal 0.996722 0.0808985 0
    outer loop
      vertex -9.4736 1.29967 0.799999
      vertex -9.2 -2.07126 23
      vertex -9.2 -2.07126 0.799999
    endloop
  endfacet
  facet normal 0.996723 0.0808944 0
    outer loop
      vertex -8.56717 -9.86806 23
      vertex -8.62139 -9.2 0.799999
      vertex -8.62139 -9.2 23
    endloop
  endfacet
  facet normal 0.996723 0.0808944 0
    outer loop
      vertex -8.62139 -9.2 0.799999
      vertex -8.56717 -9.86806 23
      vertex -8.56717 -9.86806 0.799999
    endloop
  endfacet
  facet normal 0.504542 -0.863387 0
    outer loop
      vertex -10 -10.7054 0.799999
      vertex -9.2 -10.2379 23
      vertex -10 -10.7054 23
    endloop
  endfacet
  facet normal 0.504542 -0.863387 0
    outer loop
      vertex -9.2 -10.2379 23
      vertex -10 -10.7054 0.799999
      vertex -9.2 -10.2379 0.799999
    endloop
  endfacet
  facet normal 0.504558 -0.863378 0
    outer loop
      vertex -8.79294 -10 0.799999
      vertex -8.56717 -9.86806 23
      vertex -8.79294 -10 23
    endloop
  endfacet
  facet normal 0.504558 -0.863378 0
    outer loop
      vertex -8.56717 -9.86806 23
      vertex -8.79294 -10 0.799999
      vertex -8.56717 -9.86806 0.799999
    endloop
  endfacet
  facet normal 0.93664 0.350293 0
    outer loop
      vertex -9.2 -15.7442 23
      vertex -10 -13.6051 0.799999
      vertex -10 -13.6051 23
    endloop
  endfacet
  facet normal 0.93664 0.350293 0
    outer loop
      vertex -10 -13.6051 0.799999
      vertex -9.2 -15.7442 23
      vertex -9.2 -15.7442 0.799999
    endloop
  endfacet
  facet normal 0.936637 0.350302 0
    outer loop
      vertex -7.60836 -20 23
      vertex -7.90756 -19.2 0.799999
      vertex -7.90756 -19.2 23
    endloop
  endfacet
  facet normal 0.936637 0.350302 0
    outer loop
      vertex -7.90756 -19.2 0.799999
      vertex -7.60836 -20 23
      vertex -7.60836 -20 0.799999
    endloop
  endfacet
  facet normal -0 0 1
    outer loop
      vertex -11.71 -8.23 25
      vertex -10.8719 -8.66681 25
      vertex -11.6856 1.35855 25
    endloop
  endfacet
  facet normal 0 0 1
    outer loop
      vertex -11.71 -8.23 25
      vertex -17.753 -12.6881 25
      vertex -10.8719 -8.66681 25
    endloop
  endfacet
  facet normal 0 0 1
    outer loop
      vertex -17.753 -12.6881 25
      vertex -18.76 -12.35 25
      vertex -17.97 -14.25 25
    endloop
  endfacet
  facet normal -0 0 1
    outer loop
      vertex -18.76 -12.35 25
      vertex -17.753 -12.6881 25
      vertex -11.71 -8.23 25
    endloop
  endfacet
  facet normal -0 0 1
    outer loop
      vertex -12.49 1.37999 25
      vertex -11.6856 1.35855 25
      vertex -11.82 6.34 25
    endloop
  endfacet
  facet normal 0 0 1
    outer loop
      vertex -11.0134 6.33484 25
      vertex -11.82 6.34 25
      vertex -11.6856 1.35855 25
    endloop
  endfacet
  facet normal -0 0 1
    outer loop
      vertex -12.71 13.63 25
      vertex -11.0134 6.33484 25
      vertex -12.0059 14.4643 25
    endloop
  endfacet
  facet normal 0 0 1
    outer loop
      vertex -11.0134 6.33484 25
      vertex -12.71 13.63 25
      vertex -11.82 6.34 25
    endloop
  endfacet
  facet normal -0 0 1
    outer loop
      vertex -20.8012 14.0465 25
      vertex -12.71 13.63 25
      vertex -12.0059 14.4643 25
    endloop
  endfacet
  facet normal 0 0 1
    outer loop
      vertex -20.8012 14.0465 25
      vertex -21.55 13.21 25
      vertex -12.71 13.63 25
    endloop
  endfacet
  facet normal 0 0 1
    outer loop
      vertex -21.67 15.11 25
      vertex -20.8012 14.0465 25
      vertex -20.8233 14.3953 25
    endloop
  endfacet
  facet normal 0 0 1
    outer loop
      vertex -11.6856 1.35855 25
      vertex -12.49 1.37999 25
      vertex -11.71 -8.23 25
    endloop
  endfacet
  facet normal 0 0 1
    outer loop
      vertex 30.81 7.07999 25
      vertex 30.0319 6.87294 25
      vertex 30.4817 3.8203 25
    endloop
  endfacet
  facet normal -0 0 1
    outer loop
      vertex 27.6539 12.9335 25
      vertex 30.81 7.07999 25
      vertex 28.24 13.63 25
    endloop
  endfacet
  facet normal 0 0 1
    outer loop
      vertex 30.81 7.07999 25
      vertex 27.6539 12.9335 25
      vertex 30.0319 6.87294 25
    endloop
  endfacet
  facet normal 0 0 1
    outer loop
      vertex 13.8 16.59 25
      vertex 27.6539 12.9335 25
      vertex 28.24 13.63 25
    endloop
  endfacet
  facet normal 0 0 1
    outer loop
      vertex 13.8 16.59 25
      vertex 13.6159 15.8111 25
      vertex 27.6539 12.9335 25
    endloop
  endfacet
  facet normal -0 0 1
    outer loop
      vertex 4.64902 18.2161 25
      vertex 13.8 16.59 25
      vertex 4.73999 19.02 25
    endloop
  endfacet
  facet normal 0 0 1
    outer loop
      vertex 13.8 16.59 25
      vertex 4.64902 18.2161 25
      vertex 13.6159 15.8111 25
    endloop
  endfacet
  facet normal -0 0 1
    outer loop
      vertex -3.98999 18.7 25
      vertex 4.64902 18.2161 25
      vertex 4.73999 19.02 25
    endloop
  endfacet
  facet normal 0 0 1
    outer loop
      vertex 4.64902 18.2161 25
      vertex -3.98999 18.7 25
      vertex -3.85724 17.9043 25
    endloop
  endfacet
  facet normal 0 0 1
    outer loop
      vertex -12.71 16.06 25
      vertex -3.85724 17.9043 25
      vertex -3.98999 18.7 25
    endloop
  endfacet
  facet normal 0 0 1
    outer loop
      vertex -3.85724 17.9043 25
      vertex -12.71 16.06 25
      vertex -12.5505 15.2724 25
    endloop
  endfacet
  facet normal 0 0 1
    outer loop
      vertex -12.71 16.06 25
      vertex -20.8233 14.3953 25
      vertex -12.5505 15.2724 25
    endloop
  endfacet
  facet normal 0 0 1
    outer loop
      vertex -20.8012 14.0465 25
      vertex -21.67 15.11 25
      vertex -21.55 13.21 25
    endloop
  endfacet
  facet normal -0 0 1
    outer loop
      vertex -21.67 15.11 25
      vertex -20.8233 14.3953 25
      vertex -12.71 16.06 25
    endloop
  endfacet
  facet normal -0 0 1
    outer loop
      vertex 30.4817 3.8203 25
      vertex 31.37 3.28 25
      vertex 30.81 7.07999 25
    endloop
  endfacet
  facet normal 0 0 1
    outer loop
      vertex 30.4817 3.8203 25
      vertex 26.78 1.7 25
      vertex 31.37 3.28 25
    endloop
  endfacet
  facet normal -0 0 1
    outer loop
      vertex 26.3726 2.40584 25
      vertex 26.78 1.7 25
      vertex 30.4817 3.8203 25
    endloop
  endfacet
  facet normal 0 0 1
    outer loop
      vertex 17.8152 -5.0296 25
      vertex 26.78 1.7 25
      vertex 26.3726 2.40584 25
    endloop
  endfacet
  facet normal 0 0 1
    outer loop
      vertex 26.78 1.7 25
      vertex 17.8152 -5.0296 25
      vertex 18.39 -5.59 25
    endloop
  endfacet
  facet normal 0 0 1
    outer loop
      vertex 17.8152 -5.0296 25
      vertex 15.6 -8.96999 25
      vertex 18.39 -5.59 25
    endloop
  endfacet
  facet normal -0 0 1
    outer loop
      vertex 14.9315 -8.52318 25
      vertex 15.6 -8.96999 25
      vertex 17.8152 -5.0296 25
    endloop
  endfacet
  facet normal 0 0 1
    outer loop
      vertex 10.6793 -16.5284 25
      vertex 15.6 -8.96999 25
      vertex 14.9315 -8.52318 25
    endloop
  endfacet
  facet normal 0 0 1
    outer loop
      vertex 15.6 -8.96999 25
      vertex 10.6793 -16.5284 25
      vertex 11.34 -16.99 25
    endloop
  endfacet
  facet normal 0 0 1
    outer loop
      vertex 10.6793 -16.5284 25
      vertex 6.98 -21.85 25
      vertex 11.34 -16.99 25
    endloop
  endfacet
  facet normal -0 0 1
    outer loop
      vertex 6.45061 -21.2421 25
      vertex 6.98 -21.85 25
      vertex 10.6793 -16.5284 25
    endloop
  endfacet
  facet normal 0 0 1
    outer loop
      vertex 6.45061 -21.2421 25
      vertex -0.849991 -27.13 25
      vertex 6.98 -21.85 25
    endloop
  endfacet
  facet normal -0 0 1
    outer loop
      vertex -1.23695 -26.426 25
      vertex -0.849991 -27.13 25
      vertex 6.45061 -21.2421 25
    endloop
  endfacet
  facet normal 0 0 1
    outer loop
      vertex -6.6665 -28.7988 25
      vertex -0.849991 -27.13 25
      vertex -1.23695 -26.426 25
    endloop
  endfacet
  facet normal -0 0 1
    outer loop
      vertex -6.6665 -28.7988 25
      vertex -7.12 -29.87 25
      vertex -0.849991 -27.13 25
    endloop
  endfacet
  facet normal -0 0 1
    outer loop
      vertex -13.16 -13.72 25
      vertex -6.6665 -28.7988 25
      vertex -12.6288 -12.8566 25
    endloop
  endfacet
  facet normal 0 0 1
    outer loop
      vertex -6.6665 -28.7988 25
      vertex -13.16 -13.72 25
      vertex -7.12 -29.87 25
    endloop
  endfacet
  facet normal -0 0 1
    outer loop
      vertex -17.4615 -13.3891 25
      vertex -13.16 -13.72 25
      vertex -12.6288 -12.8566 25
    endloop
  endfacet
  facet normal 0 0 1
    outer loop
      vertex -17.4615 -13.3891 25
      vertex -17.97 -14.25 25
      vertex -13.16 -13.72 25
    endloop
  endfacet
  facet normal 0 0 1
    outer loop
      vertex -17.97 -14.25 25
      vertex -17.4615 -13.3891 25
      vertex -17.753 -12.6881 25
    endloop
  endfacet
  facet normal 0.771204 -0.636588 0
    outer loop
      vertex 15.6 -8.96999 25
      vertex 18.39 -5.59 0
      vertex 18.39 -5.59 25
    endloop
  endfacet
  facet normal 0.771204 -0.636588 0
    outer loop
      vertex 18.39 -5.59 0
      vertex 15.6 -8.96999 25
      vertex 15.6 -8.96999 0
    endloop
  endfacet
  facet normal 0.989315 0.145794 0
    outer loop
      vertex 31.37 3.28 25
      vertex 30.81 7.07999 0
      vertex 30.81 7.07999 25
    endloop
  endfacet
  facet normal 0.989315 0.145794 0
    outer loop
      vertex 30.81 7.07999 0
      vertex 31.37 3.28 25
      vertex 31.37 3.28 0
    endloop
  endfacet
  facet normal -0.998011 -0.0630323 0
    outer loop
      vertex -21.55 13.21 0
      vertex -21.67 15.11 25
      vertex -21.67 15.11 0
    endloop
  endfacet
  facet normal -0.998011 -0.0630323 0
    outer loop
      vertex -21.67 15.11 25
      vertex -21.55 13.21 0
      vertex -21.55 13.21 25
    endloop
  endfacet
  facet normal -0.991 0.133865 0
    outer loop
      vertex -12.49 1.37999 0
      vertex -11.82 6.34 25
      vertex -11.82 6.34 0
    endloop
  endfacet
  facet normal -0.991 0.133865 0
    outer loop
      vertex -11.82 6.34 25
      vertex -12.49 1.37999 0
      vertex -12.49 1.37999 25
    endloop
  endfacet
  facet normal -0.923364 -0.383925 0
    outer loop
      vertex -17.97 -14.25 0
      vertex -18.76 -12.35 25
      vertex -18.76 -12.35 0
    endloop
  endfacet
  facet normal -0.923364 -0.383925 0
    outer loop
      vertex -18.76 -12.35 25
      vertex -17.97 -14.25 0
      vertex -17.97 -14.25 25
    endloop
  endfacet
  facet normal 0.109524 -0.993984 0
    outer loop
      vertex -17.97 -14.25 0
      vertex -13.16 -13.72 25
      vertex -17.97 -14.25 25
    endloop
  endfacet
  facet normal 0.109524 -0.993984 0
    outer loop
      vertex -13.16 -13.72 25
      vertex -17.97 -14.25 0
      vertex -13.16 -13.72 0
    endloop
  endfacet
  facet normal 0 0 1
    outer loop
      vertex 4.64902 18.2161 0.799999
      vertex 10 14.5032 0.799999
      vertex 10 16.7809 0.799999
    endloop
  endfacet
  facet normal 0 0 1
    outer loop
      vertex 10 14.5032 0.799999
      vertex 0.799999 15.8736 0.799999
      vertex 10 -13.1175 0.799999
    endloop
  endfacet
  facet normal -0 0 1
    outer loop
      vertex 0 15.8442 0.799999
      vertex 10 -13.1175 0.799999
      vertex 0.799999 15.8736 0.799999
    endloop
  endfacet
  facet normal 0 0 1
    outer loop
      vertex 10 -13.1175 0.799999
      vertex 5.32705 -19.2 0.799999
      vertex 10 -17.2857 0.799999
    endloop
  endfacet
  facet normal 0 0 1
    outer loop
      vertex 10 -17.2857 0.799999
      vertex 5.32705 -19.2 0.799999
      vertex 8.2826 -19.2 0.799999
    endloop
  endfacet
  facet normal 0 0 1
    outer loop
      vertex 10 14.5032 0.799999
      vertex 4.64902 18.2161 0.799999
      vertex 0.799999 15.8736 0.799999
    endloop
  endfacet
  facet normal 0 -0 1
    outer loop
      vertex 4.3576 -20 0.799999
      vertex 10 -13.1175 0.799999
      vertex 0 15.8442 0.799999
    endloop
  endfacet
  facet normal 0 0 1
    outer loop
      vertex 0.799999 15.8736 0.799999
      vertex 4.64902 18.2161 0.799999
      vertex 0.799999 18.075 0.799999
    endloop
  endfacet
  facet normal 0 0 1
    outer loop
      vertex 11.6559 -10 0.799999
      vertex 10 14.5032 0.799999
      vertex 10.8 -11.6114 0.799999
    endloop
  endfacet
  facet normal 0 0 1
    outer loop
      vertex 10.8 -11.6114 0.799999
      vertex 10 14.5032 0.799999
      vertex 10 -13.1175 0.799999
    endloop
  endfacet
  facet normal 0 0 1
    outer loop
      vertex 13.6159 15.8111 0.799999
      vertex 20 12.2567 0.799999
      vertex 20 14.5024 0.799999
    endloop
  endfacet
  facet normal 0 0 1
    outer loop
      vertex 20 12.2567 0.799999
      vertex 10.8 14.2886 0.799999
      vertex 20 -0.216827 0.799999
    endloop
  endfacet
  facet normal 0 -0 1
    outer loop
      vertex 17.8152 -5.0296 0.799999
      vertex 20 -0.216827 0.799999
      vertex 10.8 14.2886 0.799999
    endloop
  endfacet
  facet normal 0 0 1
    outer loop
      vertex 20 -0.216827 0.799999
      vertex 17.8152 -5.0296 0.799999
      vertex 20 -3.13129 0.799999
    endloop
  endfacet
  facet normal 0 -0 1
    outer loop
      vertex 12.0809 -9.2 0.799999
      vertex 17.8152 -5.0296 0.799999
      vertex 10.8 14.2886 0.799999
    endloop
  endfacet
  facet normal 0 0 1
    outer loop
      vertex 20 12.2567 0.799999
      vertex 13.6159 15.8111 0.799999
      vertex 10.8 14.2886 0.799999
    endloop
  endfacet
  facet normal 0 0 1
    outer loop
      vertex 17.8152 -5.0296 0.799999
      vertex 12.0809 -9.2 0.799999
      vertex 14.9315 -8.52318 0.799999
    endloop
  endfacet
  facet normal 0 0 1
    outer loop
      vertex 14.9315 -8.52318 0.799999
      vertex 12.0809 -9.2 0.799999
      vertex 14.572 -9.2 0.799999
    endloop
  endfacet
  facet normal 0 0 1
    outer loop
      vertex 10.8 14.2886 0.799999
      vertex 13.6159 15.8111 0.799999
      vertex 10.8 16.5663 0.799999
    endloop
  endfacet
  facet normal 0 0 1
    outer loop
      vertex 27.6539 12.9335 0.799999
      vertex 26.1277 10.8 0.799999
      vertex 28.491 10.8 0.799999
    endloop
  endfacet
  facet normal 0 0 1
    outer loop
      vertex 26.3726 2.40584 0.799999
      vertex 21.1703 0.799999 0.799999
      vertex 24.5245 0.799999 0.799999
    endloop
  endfacet
  facet normal 0 0 1
    outer loop
      vertex 20.8 14.3384 0.799999
      vertex 26.1277 10.8 0.799999
      vertex 27.6539 12.9335 0.799999
    endloop
  endfacet
  facet normal -0 0 1
    outer loop
      vertex 20.8 12.0927 0.799999
      vertex 26.1277 10.8 0.799999
      vertex 20.8 14.3384 0.799999
    endloop
  endfacet
  facet normal 0 0 1
    outer loop
      vertex 26.4416 10 0.799999
      vertex 20.8 12.0927 0.799999
      vertex 21.1703 0.799999 0.799999
    endloop
  endfacet
  facet normal 0 0 1
    outer loop
      vertex 20 12.2567 0.799999
      vertex 21.1703 0.799999 0.799999
      vertex 20.8 12.0927 0.799999
    endloop
  endfacet
  facet normal 0 0 1
    outer loop
      vertex 21.1703 0.799999 0.799999
      vertex 20 12.2567 0.799999
      vertex 20 -0.216827 0.799999
    endloop
  endfacet
  facet normal -0 0 1
    outer loop
      vertex 26.4416 10 0.799999
      vertex 30 6.95414 0.799999
      vertex 28.8049 10 0.799999
    endloop
  endfacet
  facet normal 0 0 1
    outer loop
      vertex 26.3726 2.40584 0.799999
      vertex 30 6.95414 0.799999
      vertex 26.4416 10 0.799999
    endloop
  endfacet
  facet normal 0 0 1
    outer loop
      vertex 30 6.95414 0.799999
      vertex 26.3726 2.40584 0.799999
      vertex 30 3.65448 0.799999
    endloop
  endfacet
  facet normal 0 0 1
    outer loop
      vertex 20.8 12.0927 0.799999
      vertex 26.4416 10 0.799999
      vertex 26.1277 10.8 0.799999
    endloop
  endfacet
  facet normal 0 0 1
    outer loop
      vertex 21.1703 0.799999 0.799999
      vertex 26.3726 2.40584 0.799999
      vertex 26.4416 10 0.799999
    endloop
  endfacet
  facet normal 0 0 1
    outer loop
      vertex 10 14.5032 0.799999
      vertex 12.0809 -9.2 0.799999
      vertex 10.8 14.2886 0.799999
    endloop
  endfacet
  facet normal 0 0 1
    outer loop
      vertex 12.0809 -9.2 0.799999
      vertex 10 14.5032 0.799999
      vertex 11.6559 -10 0.799999
    endloop
  endfacet
  facet normal 0 0 1
    outer loop
      vertex 10.8 -11.6114 0.799999
      vertex 14.147 -10 0.799999
      vertex 11.6559 -10 0.799999
    endloop
  endfacet
  facet normal 0 0 1
    outer loop
      vertex 14.147 -10 0.799999
      vertex 10.8 -11.6114 0.799999
      vertex 10.8 -16.3012 0.799999
    endloop
  endfacet
  facet normal -0 0 1
    outer loop
      vertex 4.3576 -20 0.799999
      vertex 6.45061 -21.2421 0.799999
      vertex 7.5649 -20 0.799999
    endloop
  endfacet
  facet normal 0 0 1
    outer loop
      vertex 10 -13.1175 0.799999
      vertex 4.3576 -20 0.799999
      vertex 5.32705 -19.2 0.799999
    endloop
  endfacet
  facet normal 0 0 1
    outer loop
      vertex 5.32705 -19.2 0.799999
      vertex 4.3576 -20 0.799999
      vertex 4.99487 -19.5703 0.799999
    endloop
  endfacet
  facet normal 0 0 1
    outer loop
      vertex 0.799999 -22.399 0.799999
      vertex 6.45061 -21.2421 0.799999
      vertex 4.3576 -20 0.799999
    endloop
  endfacet
  facet normal 0 0 1
    outer loop
      vertex 6.45061 -21.2421 0.799999
      vertex 0.799999 -22.399 0.799999
      vertex 0.799999 -25.0525 0.799999
    endloop
  endfacet
  facet normal 0 0 1
    outer loop
      vertex -10 -13.6051 0.799999
      vertex -9.2 -10.2379 0.799999
      vertex -10 -10.7054 0.799999
    endloop
  endfacet
  facet normal 0 0 1
    outer loop
      vertex -9.2 -10.2379 0.799999
      vertex -10 -13.6051 0.799999
      vertex -9.2 -15.7442 0.799999
    endloop
  endfacet
  facet normal 0 0 1
    outer loop
      vertex -9.2 3.32515 0.799999
      vertex -9.4736 1.29967 0.799999
      vertex -9.2 -2.07126 0.799999
    endloop
  endfacet
  facet normal 0 0 1
    outer loop
      vertex -9.2 13.9882 0.799999
      vertex -9.71251 13.833 0.799999
      vertex -9.2 9.63504 0.799999
    endloop
  endfacet
  facet normal -0 0 1
    outer loop
      vertex -3.85724 17.9043 0.799999
      vertex 0 15.8442 0.799999
      vertex 0 18.0457 0.799999
    endloop
  endfacet
  facet normal 0 0 1
    outer loop
      vertex 0 15.8442 0.799999
      vertex -9.2 -2.07126 0.799999
      vertex 0 -22.9385 0.799999
    endloop
  endfacet
  facet normal -0 -0 1
    outer loop
      vertex -8.56717 -9.86806 0.799999
      vertex 0 -22.9385 0.799999
      vertex -8.62139 -9.2 0.799999
    endloop
  endfacet
  facet normal 0 0 1
    outer loop
      vertex -9.2 13.9882 0.799999
      vertex 0 15.8442 0.799999
      vertex -3.85724 17.9043 0.799999
    endloop
  endfacet
  facet normal -0 0 1
    outer loop
      vertex -9.2 -15.7442 0.799999
      vertex 0 -22.9385 0.799999
      vertex -8.56717 -9.86806 0.799999
    endloop
  endfacet
  facet normal -0 0 1
    outer loop
      vertex -9.2 -22.0246 0.799999
      vertex -1.23695 -26.426 0.799999
      vertex -7.60836 -20 0.799999
    endloop
  endfacet
  facet normal 0 -0 1
    outer loop
      vertex -1.23695 -26.426 0.799999
      vertex 0 -22.9385 0.799999
      vertex -7.60836 -20 0.799999
    endloop
  endfacet
  facet normal 0 0 1
    outer loop
      vertex 0 -22.9385 0.799999
      vertex -1.23695 -26.426 0.799999
      vertex 0 -25.5919 0.799999
    endloop
  endfacet
  facet normal -0 -0 1
    outer loop
      vertex -7.60836 -20 0.799999
      vertex 0 -22.9385 0.799999
      vertex -7.90756 -19.2 0.799999
    endloop
  endfacet
  facet normal 0 0 1
    outer loop
      vertex -9.2 13.9882 0.799999
      vertex -3.85724 17.9043 0.799999
      vertex -9.2 16.2868 0.799999
    endloop
  endfacet
  facet normal 0 0 1
    outer loop
      vertex 0 15.8442 0.799999
      vertex -9.2 13.9882 0.799999
      vertex -9.2 9.63504 0.799999
    endloop
  endfacet
  facet normal 0 0 1
    outer loop
      vertex 0 15.8442 0.799999
      vertex -9.2 9.63504 0.799999
      vertex -9.2 3.32515 0.799999
    endloop
  endfacet
  facet normal 0 0 1
    outer loop
      vertex 0 15.8442 0.799999
      vertex -9.2 3.32515 0.799999
      vertex -9.2 -2.07126 0.799999
    endloop
  endfacet
  facet normal 0 0 1
    outer loop
      vertex 0 -22.9385 0.799999
      vertex -9.2 -2.07126 0.799999
      vertex -8.62139 -9.2 0.799999
    endloop
  endfacet
  facet normal 0 0 1
    outer loop
      vertex -8.62139 -9.2 0.799999
      vertex -9.2 -2.07126 0.799999
      vertex -9.2 -9.2 0.799999
    endloop
  endfacet
  facet normal 0 0 1
    outer loop
      vertex 4.3576 -20 0.799999
      vertex 0 15.8442 0.799999
      vertex 0.799999 -22.399 0.799999
    endloop
  endfacet
  facet normal 0 0 1
    outer loop
      vertex 0.799999 -22.399 0.799999
      vertex 0 15.8442 0.799999
      vertex 0 -22.9385 0.799999
    endloop
  endfacet
  facet normal 0 0 1
    outer loop
      vertex -9.2 -22.0246 0.799999
      vertex -7.60836 -20 0.799999
      vertex -9.2 -20 0.799999
    endloop
  endfacet
  facet normal 0 0 1
    outer loop
      vertex -1.23695 -26.426 0.799999
      vertex -9.2 -22.0246 0.799999
      vertex -6.6665 -28.7988 0.799999
    endloop
  endfacet
  facet normal 0 0 1
    outer loop
      vertex -9.2 -15.7442 0.799999
      vertex -8.56717 -9.86806 0.799999
      vertex -8.79294 -10 0.799999
    endloop
  endfacet
  facet normal 0 0 1
    outer loop
      vertex -9.2 -10.2379 0.799999
      vertex -8.79294 -10 0.799999
      vertex -9.2 -10 0.799999
    endloop
  endfacet
  facet normal 0 0 1
    outer loop
      vertex -9.2 -15.7442 0.799999
      vertex -8.79294 -10 0.799999
      vertex -9.2 -10.2379 0.799999
    endloop
  endfacet
  facet normal 0 0 1
    outer loop
      vertex 0 -22.9385 0.799999
      vertex -9.2 -15.7442 0.799999
      vertex -7.90756 -19.2 0.799999
    endloop
  endfacet
  facet normal 0 0 1
    outer loop
      vertex -7.90756 -19.2 0.799999
      vertex -9.2 -15.7442 0.799999
      vertex -9.2 -19.2 0.799999
    endloop
  endfacet
  facet normal -0 0 1
    outer loop
      vertex -13.1532 -10 0.799999
      vertex -10 -10.7054 0.799999
      vertex -10 -10 0.799999
    endloop
  endfacet
  facet normal 0 0 1
    outer loop
      vertex -10 -10.7054 0.799999
      vertex -12.6288 -12.8566 0.799999
      vertex -10 -13.6051 0.799999
    endloop
  endfacet
  facet normal 0 -0 1
    outer loop
      vertex -10.2564 -19.2 0.799999
      vertex -10 -13.6051 0.799999
      vertex -12.6288 -12.8566 0.799999
    endloop
  endfacet
  facet normal 0 0 1
    outer loop
      vertex -10 -13.6051 0.799999
      vertex -10.2564 -19.2 0.799999
      vertex -10 -19.2 0.799999
    endloop
  endfacet
  facet normal 0 0 1
    outer loop
      vertex -10 -10.7054 0.799999
      vertex -13.1532 -10 0.799999
      vertex -12.6288 -12.8566 0.799999
    endloop
  endfacet
  facet normal -0 0 1
    outer loop
      vertex -17.753 -12.6881 0.799999
      vertex -12.6288 -12.8566 0.799999
      vertex -13.1532 -10 0.799999
    endloop
  endfacet
  facet normal 0 0 1
    outer loop
      vertex -12.6288 -12.8566 0.799999
      vertex -17.753 -12.6881 0.799999
      vertex -17.4615 -13.3891 0.799999
    endloop
  endfacet
  facet normal 0 0 1
    outer loop
      vertex -10 10 0.799999
      vertex -11.0134 6.33484 0.799999
      vertex -10 0.799999 0.799999
    endloop
  endfacet
  facet normal 0 -0 1
    outer loop
      vertex -11.0134 6.33484 0.799999
      vertex -10 10 0.799999
      vertex -11.4609 10 0.799999
    endloop
  endfacet
  facet normal -0 0 1
    outer loop
      vertex -11.6856 1.35855 0.799999
      vertex -10 0.799999 0.799999
      vertex -11.0134 6.33484 0.799999
    endloop
  endfacet
  facet normal 0 0 1
    outer loop
      vertex -10 0.799999 0.799999
      vertex -11.6856 1.35855 0.799999
      vertex -11.6403 0.799999 0.799999
    endloop
  endfacet
  facet normal -0 0 1
    outer loop
      vertex -12.0059 14.4643 0.799999
      vertex -10 10.8 0.799999
      vertex -10 16.0446 0.799999
    endloop
  endfacet
  facet normal 0 0 1
    outer loop
      vertex -10 10.8 0.799999
      vertex -12.0059 14.4643 0.799999
      vertex -11.5586 10.8 0.799999
    endloop
  endfacet
  facet normal -0 0 1
    outer loop
      vertex -12.5505 15.2724 0.799999
      vertex -12.0059 14.4643 0.799999
      vertex -10 16.0446 0.799999
    endloop
  endfacet
  facet normal 0 0 1
    outer loop
      vertex -19.2 14.1226 0.799999
      vertex -12.5505 15.2724 0.799999
      vertex -19.2 14.5674 0.799999
    endloop
  endfacet
  facet normal 0 0 1
    outer loop
      vertex -12.5505 15.2724 0.799999
      vertex -19.2 14.1226 0.799999
      vertex -12.0059 14.4643 0.799999
    endloop
  endfacet
  facet normal 0 0 1
    outer loop
      vertex -10 0 0.799999
      vertex -10.8719 -8.66681 0.799999
      vertex -10 -9.2 0.799999
    endloop
  endfacet
  facet normal 0 -0 1
    outer loop
      vertex -10.8719 -8.66681 0.799999
      vertex -10 0 0.799999
      vertex -11.5754 0 0.799999
    endloop
  endfacet
  facet normal 0 0 1
    outer loop
      vertex -10 -9.2 0.799999
      vertex -10.8719 -8.66681 0.799999
      vertex -11.7843 -9.2 0.799999
    endloop
  endfacet
  facet normal -0 0 1
    outer loop
      vertex -20.8233 14.3953 0.799999
      vertex -20 14.0845 0.799999
      vertex -20 14.4826 0.799999
    endloop
  endfacet
  facet normal 0 0 1
    outer loop
      vertex -20 14.0845 0.799999
      vertex -20.8233 14.3953 0.799999
      vertex -20.8012 14.0465 0.799999
    endloop
  endfacet
  facet normal -0 0 1
    outer loop
      vertex 20.8 0 0.799999
      vertex 20.8 -2.43618 0.799999
      vertex 23.6038 0 0.799999
    endloop
  endfacet
  facet normal -0.559087 0.829109 -2.56825e-05
    outer loop
      vertex 6.45061 -21.2421 25
      vertex 0.799999 -25.0525 23
      vertex -1.23695 -26.426 25
    endloop
  endfacet
  facet normal -0.559094 0.829105 0
    outer loop
      vertex 6.45061 -21.2421 0.799999
      vertex 0.799999 -25.0525 23
      vertex 6.45061 -21.2421 25
    endloop
  endfacet
  facet normal -0.559094 0.829105 0
    outer loop
      vertex 0.799999 -25.0525 23
      vertex 6.45061 -21.2421 0.799999
      vertex 0.799999 -25.0525 0.799999
    endloop
  endfacet
  facet normal -0.559046 0.829137 3.54124e-05
    outer loop
      vertex 0 -25.5919 23
      vertex -1.23695 -26.426 25
      vertex 0.799999 -25.0525 23
    endloop
  endfacet
  facet normal -0.559085 0.82911 0
    outer loop
      vertex -1.23695 -26.426 0.799999
      vertex 0 -25.5919 23
      vertex 0 -25.5919 0.799999
    endloop
  endfacet
  facet normal -0.559085 0.82911 0
    outer loop
      vertex 0 -25.5919 23
      vertex -1.23695 -26.426 0.799999
      vertex -1.23695 -26.426 25
    endloop
  endfacet
  facet normal -0.744366 0.667772 0
    outer loop
      vertex 7.5649 -20 0.799999
      vertex 6.45061 -21.2421 0.799999
      vertex 7.5649 -20 23
    endloop
  endfacet
  facet normal -0.744351 0.667789 0
    outer loop
      vertex 10 -17.2857 0.799999
      vertex 8.2826 -19.2 0.799999
      vertex 10 -17.2857 23
    endloop
  endfacet
  facet normal -0.744403 0.667731 0
    outer loop
      vertex 10 -17.2857 23
      vertex 10.6793 -16.5284 25
      vertex 10.6793 -16.5284 23
    endloop
  endfacet
  facet normal -0.744351 0.667789 0
    outer loop
      vertex 8.2826 -19.2 23
      vertex 10 -17.2857 23
      vertex 8.2826 -19.2 0.799999
    endloop
  endfacet
  facet normal -0.744351 0.667789 -3.94728e-05
    outer loop
      vertex 8.2826 -19.2 23
      vertex 10.6793 -16.5284 25
      vertex 10 -17.2857 23
    endloop
  endfacet
  facet normal -0.744357 0.667782 1.07792e-05
    outer loop
      vertex 6.45061 -21.2421 25
      vertex 8.2826 -19.2 23
      vertex 7.5649 -20 23
    endloop
  endfacet
  facet normal -0.744364 0.667774 -3.42786e-06
    outer loop
      vertex 8.2826 -19.2 23
      vertex 6.45061 -21.2421 25
      vertex 10.6793 -16.5284 25
    endloop
  endfacet
  facet normal -0.744366 0.667772 0
    outer loop
      vertex 6.45061 -21.2421 25
      vertex 7.5649 -20 23
      vertex 6.45061 -21.2421 0.799999
    endloop
  endfacet
  facet normal -0.883145 0.469099 0
    outer loop
      vertex 14.147 -10 0.799999
      vertex 10.8 -16.3012 0.799999
      vertex 14.147 -10 23
    endloop
  endfacet
  facet normal -0.883148 0.469094 0
    outer loop
      vertex 14.572 -9.2 23
      vertex 14.9315 -8.52318 0.799999
      vertex 14.572 -9.2 0.799999
    endloop
  endfacet
  facet normal -0.883148 0.469094 0
    outer loop
      vertex 14.9315 -8.52318 0.799999
      vertex 14.572 -9.2 23
      vertex 14.9315 -8.52318 25
    endloop
  endfacet
  facet normal -0.883116 0.469155 -2.67694e-05
    outer loop
      vertex 14.147 -10 23
      vertex 14.9315 -8.52318 25
      vertex 14.572 -9.2 23
    endloop
  endfacet
  facet normal -0.883145 0.469099 0
    outer loop
      vertex 10.8 -16.3012 23
      vertex 14.147 -10 23
      vertex 10.8 -16.3012 0.799999
    endloop
  endfacet
  facet normal -0.883145 0.469099 -8.15983e-06
    outer loop
      vertex 10.6793 -16.5284 25
      vertex 14.147 -10 23
      vertex 10.8 -16.3012 23
    endloop
  endfacet
  facet normal -0.883116 0.469155 0
    outer loop
      vertex 10.6793 -16.5284 25
      vertex 10.8 -16.3012 23
      vertex 10.6793 -16.5284 23
    endloop
  endfacet
  facet normal -0.883142 0.469106 1.99176e-05
    outer loop
      vertex 14.147 -10 23
      vertex 10.6793 -16.5284 25
      vertex 14.9315 -8.52318 25
    endloop
  endfacet
  facet normal -0.771211 0.63658 0
    outer loop
      vertex 14.9315 -8.52318 0.799999
      vertex 17.8152 -5.0296 25
      vertex 17.8152 -5.0296 0.799999
    endloop
  endfacet
  facet normal -0.771211 0.63658 0
    outer loop
      vertex 17.8152 -5.0296 25
      vertex 14.9315 -8.52318 0.799999
      vertex 14.9315 -8.52318 25
    endloop
  endfacet
  facet normal -0.655886 0.75486 0
    outer loop
      vertex 23.6038 0 0.799999
      vertex 20.8 -2.43618 23
      vertex 23.6038 0 23
    endloop
  endfacet
  facet normal -0.655886 0.75486 0
    outer loop
      vertex 20.8 -2.43618 23
      vertex 23.6038 0 0.799999
      vertex 20.8 -2.43618 0.799999
    endloop
  endfacet
  facet normal -0.655894 0.754853 -8.058e-06
    outer loop
      vertex 23.6038 0 23
      vertex 26.3726 2.40584 25
      vertex 24.5245 0.799999 23
    endloop
  endfacet
  facet normal -0.655899 0.754849 0
    outer loop
      vertex 26.3726 2.40584 0.799999
      vertex 24.5245 0.799999 23
      vertex 26.3726 2.40584 25
    endloop
  endfacet
  facet normal -0.655899 0.754849 0
    outer loop
      vertex 24.5245 0.799999 23
      vertex 26.3726 2.40584 0.799999
      vertex 24.5245 0.799999 0.799999
    endloop
  endfacet
  facet normal -0.655886 0.75486 -2.67892e-05
    outer loop
      vertex 20.8 -2.43618 23
      vertex 26.3726 2.40584 25
      vertex 23.6038 0 23
    endloop
  endfacet
  facet normal -0.655888 0.754858 -1.62751e-05
    outer loop
      vertex 26.3726 2.40584 25
      vertex 20.8 -2.43618 23
      vertex 17.8152 -5.0296 25
    endloop
  endfacet
  facet normal -0.655887 0.754859 -1.33648e-05
    outer loop
      vertex 20 -3.13129 23
      vertex 17.8152 -5.0296 25
      vertex 20.8 -2.43618 23
    endloop
  endfacet
  facet normal -0.65588 0.754865 0
    outer loop
      vertex 17.8152 -5.0296 0.799999
      vertex 20 -3.13129 23
      vertex 20 -3.13129 0.799999
    endloop
  endfacet
  facet normal -0.65588 0.754865 0
    outer loop
      vertex 20 -3.13129 23
      vertex 17.8152 -5.0296 0.799999
      vertex 17.8152 -5.0296 25
    endloop
  endfacet
  facet normal -0.325493 0.945544 0
    outer loop
      vertex 30 3.65448 23
      vertex 30.4817 3.8203 25
      vertex 30.4817 3.8203 23
    endloop
  endfacet
  facet normal -0.325482 0.945548 -2.94312e-06
    outer loop
      vertex 30.4817 3.8203 25
      vertex 30 3.65448 23
      vertex 26.3726 2.40584 25
    endloop
  endfacet
  facet normal -0.325481 0.945549 0
    outer loop
      vertex 26.3726 2.40584 0.799999
      vertex 30 3.65448 23
      vertex 30 3.65448 0.799999
    endloop
  endfacet
  facet normal -0.325481 0.945549 0
    outer loop
      vertex 30 3.65448 23
      vertex 26.3726 2.40584 0.799999
      vertex 26.3726 2.40584 25
    endloop
  endfacet
  facet normal -0.989318 -0.145774 0
    outer loop
      vertex 30.4817 3.8203 23
      vertex 30.0319 6.87294 25
      vertex 30.0319 6.87294 23
    endloop
  endfacet
  facet normal -0.989318 -0.145774 0
    outer loop
      vertex 30.0319 6.87294 25
      vertex 30.4817 3.8203 23
      vertex 30.4817 3.8203 25
    endloop
  endfacet
  facet normal -0.930906 -0.365258 0
    outer loop
      vertex 28.8049 10 0.799999
      vertex 30 6.95414 0.799999
      vertex 28.8049 10 23
    endloop
  endfacet
  facet normal -0.930909 -0.365251 -0
    outer loop
      vertex 28.491 10.8 23
      vertex 27.6539 12.9335 0.799999
      vertex 28.491 10.8 0.799999
    endloop
  endfacet
  facet normal -0.930909 -0.365251 0
    outer loop
      vertex 27.6539 12.9335 0.799999
      vertex 28.491 10.8 23
      vertex 27.6539 12.9335 25
    endloop
  endfacet
  facet normal -0.930904 -0.365264 1.49236e-05
    outer loop
      vertex 28.8049 10 23
      vertex 27.6539 12.9335 25
      vertex 28.491 10.8 23
    endloop
  endfacet
  facet normal -0.930906 -0.365258 -0
    outer loop
      vertex 30 6.95414 23
      vertex 28.8049 10 23
      vertex 30 6.95414 0.799999
    endloop
  endfacet
  facet normal -0.930906 -0.365258 1.84622e-05
    outer loop
      vertex 30.0319 6.87294 25
      vertex 28.8049 10 23
      vertex 30 6.95414 23
    endloop
  endfacet
  facet normal -0.930751 -0.365652 -0
    outer loop
      vertex 30.0319 6.87294 25
      vertex 30 6.95414 23
      vertex 30.0319 6.87294 23
    endloop
  endfacet
  facet normal -0.930905 -0.365262 1.21682e-05
    outer loop
      vertex 28.8049 10 23
      vertex 30.0319 6.87294 25
      vertex 27.6539 12.9335 25
    endloop
  endfacet
  facet normal -0.200824 -0.979627 -1.98375e-05
    outer loop
      vertex 20.8 14.3384 23
      vertex 13.6159 15.8111 25
      vertex 20 14.5024 23
    endloop
  endfacet
  facet normal -0.200818 -0.979629 0
    outer loop
      vertex 13.6159 15.8111 0.799999
      vertex 20 14.5024 23
      vertex 13.6159 15.8111 25
    endloop
  endfacet
  facet normal -0.200818 -0.979629 -0
    outer loop
      vertex 20 14.5024 23
      vertex 13.6159 15.8111 0.799999
      vertex 20 14.5024 0.799999
    endloop
  endfacet
  facet normal -0.200811 -0.97963 2.77894e-05
    outer loop
      vertex 13.6159 15.8111 25
      vertex 20.8 14.3384 23
      vertex 27.6539 12.9335 25
    endloop
  endfacet
  facet normal -0.200803 -0.979632 0
    outer loop
      vertex 27.6539 12.9335 0.799999
      vertex 20.8 14.3384 23
      vertex 20.8 14.3384 0.799999
    endloop
  endfacet
  facet normal -0.200803 -0.979632 0
    outer loop
      vertex 20.8 14.3384 23
      vertex 27.6539 12.9335 0.799999
      vertex 27.6539 12.9335 25
    endloop
  endfacet
  facet normal -0.259053 -0.965863 8.57817e-06
    outer loop
      vertex 4.64902 18.2161 25
      vertex 10 16.7809 23
      vertex 13.6159 15.8111 25
    endloop
  endfacet
  facet normal -0.259056 -0.965862 0
    outer loop
      vertex 4.64902 18.2161 0.799999
      vertex 10 16.7809 23
      vertex 4.64902 18.2161 25
    endloop
  endfacet
  facet normal -0.259056 -0.965862 -0
    outer loop
      vertex 10 16.7809 23
      vertex 4.64902 18.2161 0.799999
      vertex 10 16.7809 0.799999
    endloop
  endfacet
  facet normal -0.25909 -0.965853 7.97674e-05
    outer loop
      vertex 10.8 16.5663 23
      vertex 13.6159 15.8111 25
      vertex 10 16.7809 23
    endloop
  endfacet
  facet normal -0.259037 -0.965867 0
    outer loop
      vertex 13.6159 15.8111 0.799999
      vertex 10.8 16.5663 23
      vertex 10.8 16.5663 0.799999
    endloop
  endfacet
  facet normal -0.259037 -0.965867 0
    outer loop
      vertex 10.8 16.5663 23
      vertex 13.6159 15.8111 0.799999
      vertex 13.6159 15.8111 25
    endloop
  endfacet
  facet normal 0.0366308 -0.999329 -5.74085e-06
    outer loop
      vertex -3.85724 17.9043 25
      vertex 0 18.0457 23
      vertex 4.64902 18.2161 25
    endloop
  endfacet
  facet normal 0.0366337 -0.999329 0
    outer loop
      vertex -3.85724 17.9043 0.799999
      vertex 0 18.0457 23
      vertex -3.85724 17.9043 25
    endloop
  endfacet
  facet normal 0.0366337 -0.999329 0
    outer loop
      vertex 0 18.0457 23
      vertex -3.85724 17.9043 0.799999
      vertex 0 18.0457 0.799999
    endloop
  endfacet
  facet normal 0.0366005 -0.99933 6.46715e-05
    outer loop
      vertex 0.799999 18.075 23
      vertex 4.64902 18.2161 25
      vertex 0 18.0457 23
    endloop
  endfacet
  facet normal 0.0366341 -0.999329 0
    outer loop
      vertex 4.64902 18.2161 0.799999
      vertex 0.799999 18.075 23
      vertex 0.799999 18.075 0.799999
    endloop
  endfacet
  facet normal 0.0366341 -0.999329 0
    outer loop
      vertex 0.799999 18.075 23
      vertex 4.64902 18.2161 0.799999
      vertex 4.64902 18.2161 25
    endloop
  endfacet
  facet normal 0.289762 -0.957099 -1.72876e-05
    outer loop
      vertex -9.2 16.2868 23
      vertex -12.5505 15.2724 25
      vertex -10 16.0446 23
    endloop
  endfacet
  facet normal 0.289774 -0.957095 0
    outer loop
      vertex -12.5505 15.2724 0.799999
      vertex -10 16.0446 23
      vertex -12.5505 15.2724 25
    endloop
  endfacet
  facet normal 0.289774 -0.957095 0
    outer loop
      vertex -10 16.0446 23
      vertex -12.5505 15.2724 0.799999
      vertex -10 16.0446 0.799999
    endloop
  endfacet
  facet normal 0.289763 -0.957098 -1.44223e-05
    outer loop
      vertex -12.5505 15.2724 25
      vertex -9.2 16.2868 23
      vertex -3.85724 17.9043 25
    endloop
  endfacet
  facet normal 0.289758 -0.9571 0
    outer loop
      vertex -3.85724 17.9043 0.799999
      vertex -9.2 16.2868 23
      vertex -9.2 16.2868 0.799999
    endloop
  endfacet
  facet normal 0.289758 -0.9571 0
    outer loop
      vertex -9.2 16.2868 23
      vertex -3.85724 17.9043 0.799999
      vertex -3.85724 17.9043 25
    endloop
  endfacet
  facet normal 0.105409 -0.994429 -1.50159e-05
    outer loop
      vertex -19.2 14.5674 23
      vertex -20.8233 14.3953 25
      vertex -20 14.4826 23
    endloop
  endfacet
  facet normal 0.105446 -0.994425 0
    outer loop
      vertex -20.8233 14.3953 0.799999
      vertex -20 14.4826 23
      vertex -20.8233 14.3953 25
    endloop
  endfacet
  facet normal 0.105446 -0.994425 0
    outer loop
      vertex -20 14.4826 23
      vertex -20.8233 14.3953 0.799999
      vertex -20 14.4826 0.799999
    endloop
  endfacet
  facet normal 0.105431 -0.994427 2.85786e-06
    outer loop
      vertex -20.8233 14.3953 25
      vertex -19.2 14.5674 23
      vertex -12.5505 15.2724 25
    endloop
  endfacet
  facet normal 0.105432 -0.994427 0
    outer loop
      vertex -12.5505 15.2724 0.799999
      vertex -19.2 14.5674 23
      vertex -19.2 14.5674 0.799999
    endloop
  endfacet
  facet normal 0.105432 -0.994427 0
    outer loop
      vertex -19.2 14.5674 23
      vertex -12.5505 15.2724 0.799999
      vertex -12.5505 15.2724 25
    endloop
  endfacet
  facet normal 0.997999 0.0632333 0
    outer loop
      vertex -20.8012 14.0465 25
      vertex -20.8233 14.3953 0.799999
      vertex -20.8233 14.3953 25
    endloop
  endfacet
  facet normal 0.997999 0.0632333 0
    outer loop
      vertex -20.8233 14.3953 0.799999
      vertex -20.8012 14.0465 25
      vertex -20.8012 14.0465 0.799999
    endloop
  endfacet
  facet normal -0.0474491 0.998874 1.93618e-05
    outer loop
      vertex -12.0059 14.4643 25
      vertex -19.2 14.1226 23
      vertex -20.8012 14.0465 25
    endloop
  endfacet
  facet normal -0.0474438 0.998874 0
    outer loop
      vertex -12.0059 14.4643 0.799999
      vertex -19.2 14.1226 23
      vertex -12.0059 14.4643 25
    endloop
  endfacet
  facet normal -0.0474438 0.998874 0
    outer loop
      vertex -19.2 14.1226 23
      vertex -12.0059 14.4643 0.799999
      vertex -19.2 14.1226 0.799999
    endloop
  endfacet
  facet normal -0.0475711 0.998868 -7.8486e-05
    outer loop
      vertex -20 14.0845 23
      vertex -20.8012 14.0465 25
      vertex -19.2 14.1226 23
    endloop
  endfacet
  facet normal -0.0473756 0.998877 0
    outer loop
      vertex -20.8012 14.0465 0.799999
      vertex -20 14.0845 23
      vertex -20 14.0845 0.799999
    endloop
  endfacet
  facet normal -0.0473756 0.998877 0
    outer loop
      vertex -20 14.0845 23
      vertex -20.8012 14.0465 0.799999
      vertex -20.8012 14.0465 25
    endloop
  endfacet
  facet normal 0.992632 0.12117 0
    outer loop
      vertex -12.0059 14.4643 25
      vertex -11.5586 10.8 23
      vertex -12.0059 14.4643 0.799999
    endloop
  endfacet
  facet normal 0.992625 0.121224 -0.000100572
    outer loop
      vertex -12.0059 14.4643 25
      vertex -11.4609 10 23
      vertex -11.5586 10.8 23
    endloop
  endfacet
  facet normal 0.99263 0.121187 -1.59985e-05
    outer loop
      vertex -11.0134 6.33484 25
      vertex -11.4609 10 23
      vertex -12.0059 14.4643 25
    endloop
  endfacet
  facet normal 0.992629 0.121196 -0
    outer loop
      vertex -11.0134 6.33484 0.799999
      vertex -11.4609 10 23
      vertex -11.0134 6.33484 25
    endloop
  endfacet
  facet normal 0.992629 0.121196 0
    outer loop
      vertex -11.4609 10 23
      vertex -11.0134 6.33484 0.799999
      vertex -11.4609 10 0.799999
    endloop
  endfacet
  facet normal 0.992632 0.12117 0
    outer loop
      vertex -12.0059 14.4643 0.799999
      vertex -11.5586 10.8 23
      vertex -11.5586 10.8 0.799999
    endloop
  endfacet
  facet normal 0.991 -0.133865 0
    outer loop
      vertex -11.6856 1.35855 25
      vertex -11.0134 6.33484 0.799999
      vertex -11.0134 6.33484 25
    endloop
  endfacet
  facet normal 0.991 -0.133865 0
    outer loop
      vertex -11.0134 6.33484 0.799999
      vertex -11.6856 1.35855 25
      vertex -11.6856 1.35855 0.799999
    endloop
  endfacet
  facet normal 0.996727 0.0808373 0
    outer loop
      vertex -11.6856 1.35855 25
      vertex -11.6403 0.799999 23
      vertex -11.6856 1.35855 0.799999
    endloop
  endfacet
  facet normal 0.996726 0.0808595 -6.23278e-06
    outer loop
      vertex -11.6856 1.35855 25
      vertex -11.5754 0 23
      vertex -11.6403 0.799999 23
    endloop
  endfacet
  facet normal 0.996722 0.0808981 -3.26825e-05
    outer loop
      vertex -10.8719 -8.66681 25
      vertex -11.5754 0 23
      vertex -11.6856 1.35855 25
    endloop
  endfacet
  facet normal 0.996722 0.0809056 -0
    outer loop
      vertex -10.8719 -8.66681 0.799999
      vertex -11.5754 0 23
      vertex -10.8719 -8.66681 25
    endloop
  endfacet
  facet normal 0.996722 0.0809056 0
    outer loop
      vertex -11.5754 0 23
      vertex -10.8719 -8.66681 0.799999
      vertex -11.5754 0 0.799999
    endloop
  endfacet
  facet normal 0.996727 0.0808373 0
    outer loop
      vertex -11.6856 1.35855 0.799999
      vertex -11.6403 0.799999 23
      vertex -11.6403 0.799999 0.799999
    endloop
  endfacet
  facet normal 0.504556 -0.863379 2.81256e-06
    outer loop
      vertex -17.753 -12.6881 25
      vertex -13.1532 -10 23
      vertex -10.8719 -8.66681 25
    endloop
  endfacet
  facet normal 0.504555 -0.86338 0
    outer loop
      vertex -17.753 -12.6881 0.799999
      vertex -13.1532 -10 23
      vertex -17.753 -12.6881 25
    endloop
  endfacet
  facet normal 0.504555 -0.86338 0
    outer loop
      vertex -13.1532 -10 23
      vertex -17.753 -12.6881 0.799999
      vertex -13.1532 -10 0.799999
    endloop
  endfacet
  facet normal 0.504565 -0.863374 -1.14186e-05
    outer loop
      vertex -11.7843 -9.2 23
      vertex -10.8719 -8.66681 25
      vertex -13.1532 -10 23
    endloop
  endfacet
  facet normal 0.504546 -0.863385 0
    outer loop
      vertex -10.8719 -8.66681 0.799999
      vertex -11.7843 -9.2 23
      vertex -11.7843 -9.2 0.799999
    endloop
  endfacet
  facet normal 0.504546 -0.863385 0
    outer loop
      vertex -11.7843 -9.2 23
      vertex -10.8719 -8.66681 0.799999
      vertex -10.8719 -8.66681 25
    endloop
  endfacet
  facet normal 0.923349 0.383961 0
    outer loop
      vertex -17.4615 -13.3891 25
      vertex -17.753 -12.6881 0.799999
      vertex -17.753 -12.6881 25
    endloop
  endfacet
  facet normal 0.923349 0.383961 0
    outer loop
      vertex -17.753 -12.6881 0.799999
      vertex -17.4615 -13.3891 25
      vertex -17.4615 -13.3891 0.799999
    endloop
  endfacet
  facet normal -0.109524 0.993984 0
    outer loop
      vertex -12.6288 -12.8566 0.799999
      vertex -17.4615 -13.3891 25
      vertex -12.6288 -12.8566 25
    endloop
  endfacet
  facet normal -0.109524 0.993984 0
    outer loop
      vertex -17.4615 -13.3891 25
      vertex -12.6288 -12.8566 0.799999
      vertex -17.4615 -13.3891 0.799999
    endloop
  endfacet
  facet normal 0.936638 0.350298 0
    outer loop
      vertex -12.6288 -12.8566 25
      vertex -10.2564 -19.2 23
      vertex -12.6288 -12.8566 0.799999
    endloop
  endfacet
  facet normal 0.936637 0.350302 -1.43782e-05
    outer loop
      vertex -12.6288 -12.8566 25
      vertex -9.2 -22.0246 23
      vertex -10.2564 -19.2 23
    endloop
  endfacet
  facet normal 0.936638 0.350298 7.31347e-06
    outer loop
      vertex -6.6665 -28.7988 25
      vertex -9.2 -22.0246 23
      vertex -12.6288 -12.8566 25
    endloop
  endfacet
  facet normal 0.936639 0.350296 -0
    outer loop
      vertex -6.6665 -28.7988 0.799999
      vertex -9.2 -22.0246 23
      vertex -6.6665 -28.7988 25
    endloop
  endfacet
  facet normal 0.936639 0.350296 0
    outer loop
      vertex -9.2 -22.0246 23
      vertex -6.6665 -28.7988 0.799999
      vertex -9.2 -22.0246 0.799999
    endloop
  endfacet
  facet normal 0.936638 0.350298 0
    outer loop
      vertex -12.6288 -12.8566 0.799999
      vertex -10.2564 -19.2 23
      vertex -10.2564 -19.2 0.799999
    endloop
  endfacet
  facet normal -0.400447 0.91632 0
    outer loop
      vertex -1.23695 -26.426 0.799999
      vertex -6.6665 -28.7988 25
      vertex -1.23695 -26.426 25
    endloop
  endfacet
  facet normal -0.400447 0.91632 0
    outer loop
      vertex -6.6665 -28.7988 25
      vertex -1.23695 -26.426 0.799999
      vertex -6.6665 -28.7988 0.799999
    endloop
  endfacet
endsolid OpenSCAD_Model
