solid OpenSCAD_Model
  facet normal 0 0 1
    outer loop
      vertex -10 10.8 23
      vertex -10.5208 10 23
      vertex -10 10 23
    endloop
  endfacet
  facet normal 0 -0 1
    outer loop
      vertex -10.5208 10 23
      vertex -10 10.8 23
      vertex -10.6962 10.8 23
    endloop
  endfacet
  facet normal 0 0 1
    outer loop
      vertex -10 10.8 23
      vertex -9.2 10.8 23
      vertex -9.2 11.2128 23
    endloop
  endfacet
  facet normal 0 0 1
    outer loop
      vertex -9.2 10.8 23
      vertex -10 10.8 23
      vertex -9.2 10 23
    endloop
  endfacet
  facet normal 0 0 1
    outer loop
      vertex -10 10.8 23
      vertex -9.2 11.2128 23
      vertex -10 11.2866 23
    endloop
  endfacet
  facet normal 0 0 1
    outer loop
      vertex -9.2 10 23
      vertex -10 10.8 23
      vertex -10 10 23
    endloop
  endfacet
  facet normal 0 0 1
    outer loop
      vertex -9.2 10 23
      vertex -10 10 23
      vertex -10 7.62484 23
    endloop
  endfacet
  facet normal 0 0 1
    outer loop
      vertex -9.2 10 23
      vertex -10 7.62484 23
      vertex -9.2 3.97626 23
    endloop
  endfacet
  facet normal -0 0 1
    outer loop
      vertex -4.71741 10.8 23
      vertex -2.66318 10 23
      vertex -2.40915 10.8 23
    endloop
  endfacet
  facet normal -0 0 1
    outer loop
      vertex -4.71761 10.7994 23
      vertex -2.66318 10 23
      vertex -4.71741 10.8 23
    endloop
  endfacet
  facet normal 0 0 1
    outer loop
      vertex -4.72418 10.8 23
      vertex -2.66318 10 23
      vertex -4.71761 10.7994 23
    endloop
  endfacet
  facet normal 0 0 1
    outer loop
      vertex -9.2 10 23
      vertex -4.72418 10.8 23
      vertex -9.2 10.8 23
    endloop
  endfacet
  facet normal 0 0 1
    outer loop
      vertex -4.72418 10.8 23
      vertex -9.2 10 23
      vertex -2.66318 10 23
    endloop
  endfacet
  facet normal -0 0 1
    outer loop
      vertex -1.23248 -9.2 23
      vertex 0 -10 23
      vertex 0 -9.2 23
    endloop
  endfacet
  facet normal 0 0 1
    outer loop
      vertex 0 -10 23
      vertex -1.23248 -9.2 23
      vertex -1.60932 -10 23
    endloop
  endfacet
  facet normal -0 0 1
    outer loop
      vertex 0 -6.58356 23
      vertex 0.799999 -9.2 23
      vertex 0.799999 -5.11674 23
    endloop
  endfacet
  facet normal 0 0 1
    outer loop
      vertex 0 -9.2 23
      vertex 0.799999 -9.2 23
      vertex 0 -6.58356 23
    endloop
  endfacet
  facet normal 0 0 1
    outer loop
      vertex 0 -6.58356 23
      vertex 0.799999 -5.11674 23
      vertex 0.656891 -5.18904 23
    endloop
  endfacet
  facet normal 0 0 1
    outer loop
      vertex 0.799999 -9.2 23
      vertex 0 -9.2 23
      vertex 0.799999 -10 23
    endloop
  endfacet
  facet normal 0 0 1
    outer loop
      vertex 0 -10 23
      vertex 0.799999 -10 23
      vertex 0 -9.2 23
    endloop
  endfacet
  facet normal 0 0 1
    outer loop
      vertex 0.799999 -10 23
      vertex 0 -10 23
      vertex 0.799999 -10.0478 23
    endloop
  endfacet
  facet normal 0 0 1
    outer loop
      vertex 0.799999 -10.0478 23
      vertex 0 -10 23
      vertex 0 -11.7462 23
    endloop
  endfacet
  facet normal -0 0 1
    outer loop
      vertex 0.799999 -9.2 23
      vertex 0.822538 -10 23
      vertex 1.19938 -9.2 23
    endloop
  endfacet
  facet normal 0 0 1
    outer loop
      vertex 0.822538 -10 23
      vertex 0.799999 -9.2 23
      vertex 0.799999 -10 23
    endloop
  endfacet
  facet normal 0 0 1
    outer loop
      vertex -6.2202 0.799999 23
      vertex -8.27042 0 23
      vertex -5.93234 0 23
    endloop
  endfacet
  facet normal 0 0 1
    outer loop
      vertex -6.2202 0.799999 23
      vertex -8.41821 0.410751 23
      vertex -8.27042 0 23
    endloop
  endfacet
  facet normal 0 -0 1
    outer loop
      vertex -8.41821 0.410751 23
      vertex -6.2202 0.799999 23
      vertex -8.50356 0.799999 23
    endloop
  endfacet
  facet normal 0 0 1
    outer loop
      vertex -2.41072 -9.78711 23
      vertex -4.67219 -10 23
      vertex -2.307 -10 23
    endloop
  endfacet
  facet normal 0 0 1
    outer loop
      vertex -2.62198 -9.2 23
      vertex -4.67219 -10 23
      vertex -2.41072 -9.78711 23
    endloop
  endfacet
  facet normal 0 -0 1
    outer loop
      vertex -4.67219 -10 23
      vertex -2.62198 -9.2 23
      vertex -4.96005 -9.2 23
    endloop
  endfacet
  facet normal 0 0 1
    outer loop
      vertex 0 11.6797 23
      vertex 0.799999 13.745 23
      vertex 0 13.9524 23
    endloop
  endfacet
  facet normal 0 0 1
    outer loop
      vertex 0.799999 13.745 23
      vertex 0 11.6797 23
      vertex 0.799999 11.4723 23
    endloop
  endfacet
  facet normal 0 0 1
    outer loop
      vertex 7.03102 10.8 23
      vertex 4.36082 10 23
      vertex 8.15519 10 23
    endloop
  endfacet
  facet normal 0 -0 1
    outer loop
      vertex 4.36082 10 23
      vertex 7.03102 10.8 23
      vertex 3.23665 10.8 23
    endloop
  endfacet
  facet normal 0 0 1
    outer loop
      vertex 8.4473 0.799999 23
      vertex 6.15574 0.799999 23
      vertex 6.34473 0.151611 23
    endloop
  endfacet
  facet normal 0 0 1
    outer loop
      vertex 8.4473 0.799999 23
      vertex 8.62396 0 23
      vertex 8.65489 0.0877533 23
    endloop
  endfacet
  facet normal -0 0 1
    outer loop
      vertex 6.34473 0.151611 23
      vertex 8.62396 0 23
      vertex 8.4473 0.799999 23
    endloop
  endfacet
  facet normal 0 0 1
    outer loop
      vertex 8.62396 0 23
      vertex 6.34473 0.151611 23
      vertex 6.29128 0 23
    endloop
  endfacet
  facet normal 0 0 -1
    outer loop
      vertex 2.93098 -7.40128 0
      vertex 9.49495 0.0644989 0
      vertex 7.71523 -4.98428 0
    endloop
  endfacet
  facet normal 0 0 -1
    outer loop
      vertex 8.26723 4.27672 0
      vertex 4.43526 13.6291 0
      vertex 9.99254 9.67436 0
    endloop
  endfacet
  facet normal -0 0 -1
    outer loop
      vertex 9.49495 0.0644989 0
      vertex 2.93098 -7.40128 0
      vertex 8.26723 4.27672 0
    endloop
  endfacet
  facet normal 0 0 -1
    outer loop
      vertex 8.26723 4.27672 0
      vertex 2.93098 -7.40128 0
      vertex -9.18854 0.188736 0
    endloop
  endfacet
  facet normal 0 0 -1
    outer loop
      vertex -5.17865 -10.9553 0
      vertex 2.93098 -7.40128 0
      vertex -0.572998 -14.8399 0
    endloop
  endfacet
  facet normal 0 0 -1
    outer loop
      vertex -5.17865 -10.9553 0
      vertex -0.572998 -14.8399 0
      vertex -3.41379 -14.5779 0
    endloop
  endfacet
  facet normal 0 0 -1
    outer loop
      vertex -9.18854 0.188736 0
      vertex 2.93098 -7.40128 0
      vertex -5.17865 -10.9553 0
    endloop
  endfacet
  facet normal -0 0 -1
    outer loop
      vertex 8.26723 4.27672 0
      vertex -9.18854 0.188736 0
      vertex -5.28523 11.6551 0
    endloop
  endfacet
  facet normal -0 0 -1
    outer loop
      vertex 4.43526 13.6291 0
      vertex -5.28523 11.6551 0
      vertex -3.96683 15.8071 0
    endloop
  endfacet
  facet normal 0 0 -1
    outer loop
      vertex 8.26723 4.27672 0
      vertex -5.28523 11.6551 0
      vertex 4.43526 13.6291 0
    endloop
  endfacet
  facet normal -0 0 -1
    outer loop
      vertex -5.28523 11.6551 0
      vertex -9.18854 0.188736 0
      vertex -11.8352 12.2593 0
    endloop
  endfacet
  facet normal 0 1 -0
    outer loop
      vertex -10 10.8 0.799999
      vertex -10.6962 10.8 23
      vertex -10 10.8 23
    endloop
  endfacet
  facet normal 0 1 0
    outer loop
      vertex -10.6962 10.8 23
      vertex -10 10.8 0.799999
      vertex -10.6962 10.8 0.799999
    endloop
  endfacet
  facet normal 0 1 -0
    outer loop
      vertex -4.72418 10.8 0.799999
      vertex -9.2 10.8 23
      vertex -4.72418 10.8 23
    endloop
  endfacet
  facet normal 0 1 0
    outer loop
      vertex -9.2 10.8 23
      vertex -4.72418 10.8 0.799999
      vertex -9.2 10.8 0.799999
    endloop
  endfacet
  facet normal 0 1 -0
    outer loop
      vertex -2.40915 10.8 0.799999
      vertex -4.71741 10.8 23
      vertex -2.40915 10.8 23
    endloop
  endfacet
  facet normal 0 1 0
    outer loop
      vertex -4.71741 10.8 23
      vertex -2.40915 10.8 0.799999
      vertex -4.71741 10.8 0.799999
    endloop
  endfacet
  facet normal 0 1 -0
    outer loop
      vertex 7.03102 10.8 0.799999
      vertex 3.23665 10.8 23
      vertex 7.03102 10.8 23
    endloop
  endfacet
  facet normal 0 1 0
    outer loop
      vertex 3.23665 10.8 23
      vertex 7.03102 10.8 0.799999
      vertex 3.23665 10.8 0.799999
    endloop
  endfacet
  facet normal 0 -1 0
    outer loop
      vertex -10.5208 10 0.799999
      vertex -10 10 23
      vertex -10.5208 10 23
    endloop
  endfacet
  facet normal 0 -1 -0
    outer loop
      vertex -10 10 23
      vertex -10.5208 10 0.799999
      vertex -10 10 0.799999
    endloop
  endfacet
  facet normal 0 -1 0
    outer loop
      vertex -9.2 10 0.799999
      vertex -2.66318 10 23
      vertex -9.2 10 23
    endloop
  endfacet
  facet normal 0 -1 -0
    outer loop
      vertex -2.66318 10 23
      vertex -9.2 10 0.799999
      vertex -2.66318 10 0.799999
    endloop
  endfacet
  facet normal 0 -1 0
    outer loop
      vertex 4.36082 10 0.799999
      vertex 8.15519 10 23
      vertex 4.36082 10 23
    endloop
  endfacet
  facet normal 0 -1 -0
    outer loop
      vertex 8.15519 10 23
      vertex 4.36082 10 0.799999
      vertex 8.15519 10 0.799999
    endloop
  endfacet
  facet normal 0 1 -0
    outer loop
      vertex -6.2202 0.799999 0.799999
      vertex -8.50356 0.799999 23
      vertex -6.2202 0.799999 23
    endloop
  endfacet
  facet normal 0 1 0
    outer loop
      vertex -8.50356 0.799999 23
      vertex -6.2202 0.799999 0.799999
      vertex -8.50356 0.799999 0.799999
    endloop
  endfacet
  facet normal 0 1 -0
    outer loop
      vertex 8.4473 0.799999 0.799999
      vertex 6.15574 0.799999 23
      vertex 8.4473 0.799999 23
    endloop
  endfacet
  facet normal 0 1 0
    outer loop
      vertex 6.15574 0.799999 23
      vertex 8.4473 0.799999 0.799999
      vertex 6.15574 0.799999 0.799999
    endloop
  endfacet
  facet normal 0 -1 0
    outer loop
      vertex -8.27042 0 0.799999
      vertex -5.93234 0 23
      vertex -8.27042 0 23
    endloop
  endfacet
  facet normal 0 -1 -0
    outer loop
      vertex -5.93234 0 23
      vertex -8.27042 0 0.799999
      vertex -5.93234 0 0.799999
    endloop
  endfacet
  facet normal 0 -1 0
    outer loop
      vertex 6.29128 0 0.799999
      vertex 8.62396 0 23
      vertex 6.29128 0 23
    endloop
  endfacet
  facet normal 0 -1 -0
    outer loop
      vertex 8.62396 0 23
      vertex 6.29128 0 0.799999
      vertex 8.62396 0 0.799999
    endloop
  endfacet
  facet normal -1 0 0
    outer loop
      vertex 0 -11.7462 0.799999
      vertex 0 -10 23
      vertex 0 -10 0.799999
    endloop
  endfacet
  facet normal -1 -0 0
    outer loop
      vertex 0 -10 23
      vertex 0 -11.7462 0.799999
      vertex 0 -11.7462 23
    endloop
  endfacet
  facet normal -1 0 0
    outer loop
      vertex 0 -9.2 0.799999
      vertex 0 -6.58356 23
      vertex 0 -6.58356 0.799999
    endloop
  endfacet
  facet normal -1 -0 0
    outer loop
      vertex 0 -6.58356 23
      vertex 0 -9.2 0.799999
      vertex 0 -9.2 23
    endloop
  endfacet
  facet normal -1 0 0
    outer loop
      vertex 0 11.6797 0.799999
      vertex 0 13.9524 23
      vertex 0 13.9524 0.799999
    endloop
  endfacet
  facet normal -1 -0 0
    outer loop
      vertex 0 13.9524 23
      vertex 0 11.6797 0.799999
      vertex 0 11.6797 23
    endloop
  endfacet
  facet normal 1 -0 0
    outer loop
      vertex 0.799999 -10.0478 23
      vertex 0.799999 -10 0.799999
      vertex 0.799999 -10 23
    endloop
  endfacet
  facet normal 1 0 0
    outer loop
      vertex 0.799999 -10 0.799999
      vertex 0.799999 -10.0478 23
      vertex 0.799999 -10.0478 0.799999
    endloop
  endfacet
  facet normal 1 -0 0
    outer loop
      vertex 0.799999 -9.2 23
      vertex 0.799999 -5.11674 0.799999
      vertex 0.799999 -5.11674 23
    endloop
  endfacet
  facet normal 1 0 0
    outer loop
      vertex 0.799999 -5.11674 0.799999
      vertex 0.799999 -9.2 23
      vertex 0.799999 -9.2 0.799999
    endloop
  endfacet
  facet normal 1 -0 0
    outer loop
      vertex 0.799999 11.4723 23
      vertex 0.799999 13.745 0.799999
      vertex 0.799999 13.745 23
    endloop
  endfacet
  facet normal 1 0 0
    outer loop
      vertex 0.799999 13.745 0.799999
      vertex 0.799999 11.4723 23
      vertex 0.799999 11.4723 0.799999
    endloop
  endfacet
  facet normal 0 -1 0
    outer loop
      vertex -1.60932 -10 0.799999
      vertex 0 -10 23
      vertex -1.60932 -10 23
    endloop
  endfacet
  facet normal 0 -1 -0
    outer loop
      vertex 0 -10 23
      vertex -1.60932 -10 0.799999
      vertex 0 -10 0.799999
    endloop
  endfacet
  facet normal 0 -1 0
    outer loop
      vertex 0.799999 -10 0.799999
      vertex 0.822538 -10 23
      vertex 0.799999 -10 23
    endloop
  endfacet
  facet normal 0 -1 -0
    outer loop
      vertex 0.822538 -10 23
      vertex 0.799999 -10 0.799999
      vertex 0.822538 -10 0.799999
    endloop
  endfacet
  facet normal 0 -1 0
    outer loop
      vertex -4.67219 -10 0.799999
      vertex -2.307 -10 23
      vertex -4.67219 -10 23
    endloop
  endfacet
  facet normal 0 -1 -0
    outer loop
      vertex -2.307 -10 23
      vertex -4.67219 -10 0.799999
      vertex -2.307 -10 0.799999
    endloop
  endfacet
  facet normal 0 1 -0
    outer loop
      vertex 0 -9.2 0.799999
      vertex -1.23248 -9.2 23
      vertex 0 -9.2 23
    endloop
  endfacet
  facet normal 0 1 0
    outer loop
      vertex -1.23248 -9.2 23
      vertex 0 -9.2 0.799999
      vertex -1.23248 -9.2 0.799999
    endloop
  endfacet
  facet normal 0 1 -0
    outer loop
      vertex 1.19938 -9.2 0.799999
      vertex 0.799999 -9.2 23
      vertex 1.19938 -9.2 23
    endloop
  endfacet
  facet normal 0 1 0
    outer loop
      vertex 0.799999 -9.2 23
      vertex 1.19938 -9.2 0.799999
      vertex 0.799999 -9.2 0.799999
    endloop
  endfacet
  facet normal 0 1 -0
    outer loop
      vertex -2.62198 -9.2 0.799999
      vertex -4.96005 -9.2 23
      vertex -2.62198 -9.2 23
    endloop
  endfacet
  facet normal 0 1 0
    outer loop
      vertex -4.96005 -9.2 23
      vertex -2.62198 -9.2 0.799999
      vertex -4.96005 -9.2 0.799999
    endloop
  endfacet
  facet normal -1 0 0
    outer loop
      vertex -10 7.62484 0.799999
      vertex -10 10 23
      vertex -10 10 0.799999
    endloop
  endfacet
  facet normal -1 -0 0
    outer loop
      vertex -10 10 23
      vertex -10 7.62484 0.799999
      vertex -10 7.62484 23
    endloop
  endfacet
  facet normal -1 0 0
    outer loop
      vertex -10 10.8 0.799999
      vertex -10 11.2866 23
      vertex -10 11.2866 0.799999
    endloop
  endfacet
  facet normal -1 -0 0
    outer loop
      vertex -10 11.2866 23
      vertex -10 10.8 0.799999
      vertex -10 10.8 23
    endloop
  endfacet
  facet normal 1 -0 0
    outer loop
      vertex -9.2 3.97626 23
      vertex -9.2 10 0.799999
      vertex -9.2 10 23
    endloop
  endfacet
  facet normal 1 0 0
    outer loop
      vertex -9.2 10 0.799999
      vertex -9.2 3.97626 23
      vertex -9.2 3.97626 0.799999
    endloop
  endfacet
  facet normal 1 -0 0
    outer loop
      vertex -9.2 10.8 23
      vertex -9.2 11.2128 0.799999
      vertex -9.2 11.2128 23
    endloop
  endfacet
  facet normal 1 0 0
    outer loop
      vertex -9.2 11.2128 0.799999
      vertex -9.2 10.8 23
      vertex -9.2 10.8 0.799999
    endloop
  endfacet
  facet normal 0.943119 -0.332454 0
    outer loop
      vertex 7.71523 -4.98428 25
      vertex 9.49495 0.0644989 0
      vertex 9.49495 0.0644989 25
    endloop
  endfacet
  facet normal 0.943119 -0.332454 0
    outer loop
      vertex 9.49495 0.0644989 0
      vertex 7.71523 -4.98428 25
      vertex 7.71523 -4.98428 0
    endloop
  endfacet
  facet normal 0.960052 0.279823 0
    outer loop
      vertex 9.49495 0.0644989 25
      vertex 8.26723 4.27672 0
      vertex 8.26723 4.27672 25
    endloop
  endfacet
  facet normal 0.960052 0.279823 0
    outer loop
      vertex 8.26723 4.27672 0
      vertex 9.49495 0.0644989 25
      vertex 9.49495 0.0644989 0
    endloop
  endfacet
  facet normal 0.579806 0.814755 -0
    outer loop
      vertex 9.99254 9.67436 0
      vertex 4.43526 13.6291 25
      vertex 9.99254 9.67436 25
    endloop
  endfacet
  facet normal 0.579806 0.814755 0
    outer loop
      vertex 4.43526 13.6291 25
      vertex 9.99254 9.67436 0
      vertex 4.43526 13.6291 0
    endloop
  endfacet
  facet normal 0.250928 0.968006 -0
    outer loop
      vertex 4.43526 13.6291 0
      vertex -3.96683 15.8071 25
      vertex 4.43526 13.6291 25
    endloop
  endfacet
  facet normal 0.250928 0.968006 0
    outer loop
      vertex -3.96683 15.8071 25
      vertex 4.43526 13.6291 0
      vertex -3.96683 15.8071 0
    endloop
  endfacet
  facet normal 0.0918547 0.995772 -0
    outer loop
      vertex -5.28523 11.6551 0
      vertex -11.8352 12.2593 25
      vertex -5.28523 11.6551 25
    endloop
  endfacet
  facet normal 0.0918547 0.995772 0
    outer loop
      vertex -11.8352 12.2593 25
      vertex -5.28523 11.6551 0
      vertex -11.8352 12.2593 0
    endloop
  endfacet
  facet normal -0.976795 -0.214178 0
    outer loop
      vertex -9.18854 0.188736 0
      vertex -11.8352 12.2593 25
      vertex -11.8352 12.2593 0
    endloop
  endfacet
  facet normal -0.976795 -0.214178 0
    outer loop
      vertex -11.8352 12.2593 25
      vertex -9.18854 0.188736 0
      vertex -9.18854 0.188736 25
    endloop
  endfacet
  facet normal -0.94094 -0.338573 0
    outer loop
      vertex -5.17865 -10.9553 0
      vertex -9.18854 0.188736 25
      vertex -9.18854 0.188736 0
    endloop
  endfacet
  facet normal -0.94094 -0.338573 0
    outer loop
      vertex -9.18854 0.188736 25
      vertex -5.17865 -10.9553 0
      vertex -5.17865 -10.9553 25
    endloop
  endfacet
  facet normal 0.904657 -0.426141 0
    outer loop
      vertex -0.572998 -14.8399 25
      vertex 2.93098 -7.40128 0
      vertex 2.93098 -7.40128 25
    endloop
  endfacet
  facet normal 0.904657 -0.426141 0
    outer loop
      vertex 2.93098 -7.40128 0
      vertex -0.572998 -14.8399 25
      vertex -0.572998 -14.8399 0
    endloop
  endfacet
  facet normal -0.450932 0.892558 0
    outer loop
      vertex 0.799999 -5.11674 0.799999
      vertex 0.656891 -5.18904 23
      vertex 0.799999 -5.11674 23
    endloop
  endfacet
  facet normal -0.450932 0.892558 0
    outer loop
      vertex 0.656891 -5.18904 23
      vertex 0.799999 -5.11674 0.799999
      vertex 0.656891 -5.18904 0.799999
    endloop
  endfacet
  facet normal -0.943107 0.33249 0
    outer loop
      vertex 6.29128 0 0.799999
      vertex 6.34473 0.151611 23
      vertex 6.34473 0.151611 0.799999
    endloop
  endfacet
  facet normal -0.943107 0.33249 0
    outer loop
      vertex 6.34473 0.151611 23
      vertex 6.29128 0 0.799999
      vertex 6.29128 0 23
    endloop
  endfacet
  facet normal -0.960049 -0.279832 0
    outer loop
      vertex 6.34473 0.151611 0.799999
      vertex 6.15574 0.799999 23
      vertex 6.15574 0.799999 0.799999
    endloop
  endfacet
  facet normal -0.960049 -0.279832 0
    outer loop
      vertex 6.15574 0.799999 23
      vertex 6.34473 0.151611 0.799999
      vertex 6.34473 0.151611 23
    endloop
  endfacet
  facet normal -0.579808 -0.814753 0
    outer loop
      vertex 3.23665 10.8 0.799999
      vertex 4.36082 10 23
      vertex 3.23665 10.8 23
    endloop
  endfacet
  facet normal -0.579808 -0.814753 -0
    outer loop
      vertex 4.36082 10 23
      vertex 3.23665 10.8 0.799999
      vertex 4.36082 10 0.799999
    endloop
  endfacet
  facet normal -0.250954 -0.967999 0
    outer loop
      vertex 0 11.6797 0.799999
      vertex 0.799999 11.4723 23
      vertex 0 11.6797 23
    endloop
  endfacet
  facet normal -0.250954 -0.967999 -0
    outer loop
      vertex 0.799999 11.4723 23
      vertex 0 11.6797 0.799999
      vertex 0.799999 11.4723 0.799999
    endloop
  endfacet
  facet normal 0.953103 -0.302646 0
    outer loop
      vertex -2.66318 10 23
      vertex -2.40915 10.8 0.799999
      vertex -2.40915 10.8 23
    endloop
  endfacet
  facet normal 0.953103 -0.302646 0
    outer loop
      vertex -2.40915 10.8 0.799999
      vertex -2.66318 10 23
      vertex -2.66318 10 0.799999
    endloop
  endfacet
  facet normal 0.94094 0.338574 0
    outer loop
      vertex -5.93234 0 23
      vertex -6.2202 0.799999 0.799999
      vertex -6.2202 0.799999 23
    endloop
  endfacet
  facet normal 0.94094 0.338574 0
    outer loop
      vertex -6.2202 0.799999 0.799999
      vertex -5.93234 0 23
      vertex -5.93234 0 0.799999
    endloop
  endfacet
  facet normal 0.940938 0.338578 0
    outer loop
      vertex -2.41072 -9.78711 23
      vertex -2.62198 -9.2 0.799999
      vertex -2.62198 -9.2 23
    endloop
  endfacet
  facet normal 0.940938 0.338578 0
    outer loop
      vertex -2.62198 -9.2 0.799999
      vertex -2.41072 -9.78711 23
      vertex -2.41072 -9.78711 0.799999
    endloop
  endfacet
  facet normal 0.898983 0.437984 0
    outer loop
      vertex -2.307 -10 23
      vertex -2.41072 -9.78711 0.799999
      vertex -2.41072 -9.78711 23
    endloop
  endfacet
  facet normal 0.898983 0.437984 0
    outer loop
      vertex -2.41072 -9.78711 0.799999
      vertex -2.307 -10 23
      vertex -2.307 -10 0.799999
    endloop
  endfacet
  facet normal -0.904658 0.426139 0
    outer loop
      vertex -1.60932 -10 0.799999
      vertex -1.23248 -9.2 23
      vertex -1.23248 -9.2 0.799999
    endloop
  endfacet
  facet normal -0.904658 0.426139 0
    outer loop
      vertex -1.23248 -9.2 23
      vertex -1.60932 -10 0.799999
      vertex -1.60932 -10 23
    endloop
  endfacet
  facet normal -0.904657 0.42614 0
    outer loop
      vertex 0 -6.58356 0.799999
      vertex 0.656891 -5.18904 23
      vertex 0.656891 -5.18904 0.799999
    endloop
  endfacet
  facet normal -0.904657 0.42614 0
    outer loop
      vertex 0.656891 -5.18904 23
      vertex 0 -6.58356 0.799999
      vertex 0 -6.58356 23
    endloop
  endfacet
  facet normal 0 0 1
    outer loop
      vertex 4.43526 13.6291 25
      vertex 9.05261 9.36136 25
      vertex 9.99254 9.67436 25
    endloop
  endfacet
  facet normal 0 0 1
    outer loop
      vertex 4.43526 13.6291 25
      vertex 4.09164 12.8918 25
      vertex 9.05261 9.36136 25
    endloop
  endfacet
  facet normal 0 0 1
    outer loop
      vertex 4.43526 13.6291 25
      vertex -3.43376 14.8425 25
      vertex 4.09164 12.8918 25
    endloop
  endfacet
  facet normal 0 0 1
    outer loop
      vertex -3.96683 15.8071 25
      vertex -3.43376 14.8425 25
      vertex 4.43526 13.6291 25
    endloop
  endfacet
  facet normal 0 0 1
    outer loop
      vertex -5.28523 11.6551 25
      vertex -3.43376 14.8425 25
      vertex -3.96683 15.8071 25
    endloop
  endfacet
  facet normal 0 0 1
    outer loop
      vertex -3.43376 14.8425 25
      vertex -5.28523 11.6551 25
      vertex -4.71761 10.7994 25
    endloop
  endfacet
  facet normal 0 0 1
    outer loop
      vertex -5.28523 11.6551 25
      vertex -10.8195 11.3622 25
      vertex -4.71761 10.7994 25
    endloop
  endfacet
  facet normal 0 -0 1
    outer loop
      vertex -10.8195 11.3622 25
      vertex -5.28523 11.6551 25
      vertex -11.8352 12.2593 25
    endloop
  endfacet
  facet normal -0 0 1
    outer loop
      vertex 9.05261 9.36136 25
      vertex 8.26723 4.27672 25
      vertex 9.99254 9.67436 25
    endloop
  endfacet
  facet normal 0 -0 1
    outer loop
      vertex 8.26723 4.27672 25
      vertex 9.05261 9.36136 25
      vertex 7.4308 4.28751 25
    endloop
  endfacet
  facet normal 0 0 1
    outer loop
      vertex 8.26723 4.27672 25
      vertex 8.65489 0.0877533 25
      vertex 9.49495 0.0644989 25
    endloop
  endfacet
  facet normal 0 0 1
    outer loop
      vertex 8.65489 0.0877533 25
      vertex 8.26723 4.27672 25
      vertex 7.4308 4.28751 25
    endloop
  endfacet
  facet normal 0 0 1
    outer loop
      vertex 7.06758 -4.41519 25
      vertex 9.49495 0.0644989 25
      vertex 8.65489 0.0877533 25
    endloop
  endfacet
  facet normal 0 0 1
    outer loop
      vertex 9.49495 0.0644989 25
      vertex 7.06758 -4.41519 25
      vertex 7.71523 -4.98428 25
    endloop
  endfacet
  facet normal 0 0 1
    outer loop
      vertex 7.06758 -4.41519 25
      vertex 2.93098 -7.40128 25
      vertex 7.71523 -4.98428 25
    endloop
  endfacet
  facet normal -0 0 1
    outer loop
      vertex 2.32455 -6.81136 25
      vertex 2.93098 -7.40128 25
      vertex 7.06758 -4.41519 25
    endloop
  endfacet
  facet normal 0 0 1
    outer loop
      vertex -1.05782 -13.9918 25
      vertex 2.93098 -7.40128 25
      vertex 2.32455 -6.81136 25
    endloop
  endfacet
  facet normal 0 0 1
    outer loop
      vertex 2.93098 -7.40128 25
      vertex -1.05782 -13.9918 25
      vertex -0.572998 -14.8399 25
    endloop
  endfacet
  facet normal 0 0 1
    outer loop
      vertex -3.41379 -14.5779 25
      vertex -1.05782 -13.9918 25
      vertex -2.89185 -13.8227 25
    endloop
  endfacet
  facet normal 0 0 1
    outer loop
      vertex -1.05782 -13.9918 25
      vertex -3.41379 -14.5779 25
      vertex -0.572998 -14.8399 25
    endloop
  endfacet
  facet normal -0 0 1
    outer loop
      vertex -5.17865 -10.9553 25
      vertex -2.89185 -13.8227 25
      vertex -4.44057 -10.6437 25
    endloop
  endfacet
  facet normal 0 0 1
    outer loop
      vertex -2.89185 -13.8227 25
      vertex -5.17865 -10.9553 25
      vertex -3.41379 -14.5779 25
    endloop
  endfacet
  facet normal 0 0 1
    outer loop
      vertex -8.41821 0.410751 25
      vertex -5.17865 -10.9553 25
      vertex -4.44057 -10.6437 25
    endloop
  endfacet
  facet normal 0 0 1
    outer loop
      vertex -8.41821 0.410751 25
      vertex -9.18854 0.188736 25
      vertex -5.17865 -10.9553 25
    endloop
  endfacet
  facet normal 0 0 1
    outer loop
      vertex -10.8195 11.3622 25
      vertex -9.18854 0.188736 25
      vertex -8.41821 0.410751 25
    endloop
  endfacet
  facet normal 0 0 1
    outer loop
      vertex -9.18854 0.188736 25
      vertex -10.8195 11.3622 25
      vertex -11.8352 12.2593 25
    endloop
  endfacet
  facet normal 0.450922 -0.892563 0
    outer loop
      vertex 2.93098 -7.40128 0
      vertex 7.71523 -4.98428 25
      vertex 2.93098 -7.40128 25
    endloop
  endfacet
  facet normal 0.450922 -0.892563 0
    outer loop
      vertex 7.71523 -4.98428 25
      vertex 2.93098 -7.40128 0
      vertex 7.71523 -4.98428 0
    endloop
  endfacet
  facet normal 0.952523 -0.304466 0
    outer loop
      vertex 8.26723 4.27672 25
      vertex 9.99254 9.67436 0
      vertex 9.99254 9.67436 25
    endloop
  endfacet
  facet normal 0.952523 -0.304466 0
    outer loop
      vertex 9.99254 9.67436 0
      vertex 8.26723 4.27672 25
      vertex 8.26723 4.27672 0
    endloop
  endfacet
  facet normal -0.953104 0.302643 0
    outer loop
      vertex -5.28523 11.6551 0
      vertex -3.96683 15.8071 25
      vertex -3.96683 15.8071 0
    endloop
  endfacet
  facet normal -0.953104 0.302643 0
    outer loop
      vertex -3.96683 15.8071 25
      vertex -5.28523 11.6551 0
      vertex -5.28523 11.6551 25
    endloop
  endfacet
  facet normal -0.89899 -0.43797 0
    outer loop
      vertex -3.41379 -14.5779 0
      vertex -5.17865 -10.9553 25
      vertex -5.17865 -10.9553 0
    endloop
  endfacet
  facet normal -0.89899 -0.43797 0
    outer loop
      vertex -5.17865 -10.9553 25
      vertex -3.41379 -14.5779 0
      vertex -3.41379 -14.5779 25
    endloop
  endfacet
  facet normal -0.091838 -0.995774 0
    outer loop
      vertex -3.41379 -14.5779 0
      vertex -0.572998 -14.8399 25
      vertex -3.41379 -14.5779 25
    endloop
  endfacet
  facet normal -0.091838 -0.995774 -0
    outer loop
      vertex -0.572998 -14.8399 25
      vertex -3.41379 -14.5779 0
      vertex -0.572998 -14.8399 0
    endloop
  endfacet
  facet normal 0 0 1
    outer loop
      vertex 8.15519 10 0.799999
      vertex 7.4308 4.28751 0.799999
      vertex 9.05261 9.36136 0.799999
    endloop
  endfacet
  facet normal -0 0 1
    outer loop
      vertex 4.36082 10 0.799999
      vertex 7.4308 4.28751 0.799999
      vertex 8.15519 10 0.799999
    endloop
  endfacet
  facet normal 0 0 1
    outer loop
      vertex 7.4308 4.28751 0.799999
      vertex 4.36082 10 0.799999
      vertex 6.15574 0.799999 0.799999
    endloop
  endfacet
  facet normal 0 0 1
    outer loop
      vertex 8.4473 0.799999 0.799999
      vertex 7.4308 4.28751 0.799999
      vertex 6.15574 0.799999 0.799999
    endloop
  endfacet
  facet normal 0 0 1
    outer loop
      vertex 6.34473 0.151611 0.799999
      vertex 6.15574 0.799999 0.799999
      vertex 6.29128 0 0.799999
    endloop
  endfacet
  facet normal -0 0 1
    outer loop
      vertex 6.29128 0 0.799999
      vertex 7.06758 -4.41519 0.799999
      vertex 8.62396 0 0.799999
    endloop
  endfacet
  facet normal 0 0 1
    outer loop
      vertex 0.799999 11.4723 0.799999
      vertex 6.15574 0.799999 0.799999
      vertex 4.36082 10 0.799999
    endloop
  endfacet
  facet normal 0 0 1
    outer loop
      vertex 0 11.6797 0.799999
      vertex 6.15574 0.799999 0.799999
      vertex 0.799999 11.4723 0.799999
    endloop
  endfacet
  facet normal 0 0 1
    outer loop
      vertex 0.799999 11.4723 0.799999
      vertex 4.36082 10 0.799999
      vertex 3.23665 10.8 0.799999
    endloop
  endfacet
  facet normal 0 0 1
    outer loop
      vertex 6.29128 0 0.799999
      vertex 0.799999 -5.11674 0.799999
      vertex 7.06758 -4.41519 0.799999
    endloop
  endfacet
  facet normal 0 0 1
    outer loop
      vertex -2.40915 10.8 0.799999
      vertex 0 11.6797 0.799999
      vertex 0 13.9524 0.799999
    endloop
  endfacet
  facet normal 0 0 1
    outer loop
      vertex 0 11.6797 0.799999
      vertex -2.66318 10 0.799999
      vertex 0 -6.58356 0.799999
    endloop
  endfacet
  facet normal -0 0 1
    outer loop
      vertex -5.93234 0 0.799999
      vertex 0 -6.58356 0.799999
      vertex -2.66318 10 0.799999
    endloop
  endfacet
  facet normal 0 -0 1
    outer loop
      vertex -4.96005 -9.2 0.799999
      vertex 0 -6.58356 0.799999
      vertex -5.93234 0 0.799999
    endloop
  endfacet
  facet normal 0 0 1
    outer loop
      vertex 0 -6.58356 0.799999
      vertex -1.23248 -9.2 0.799999
      vertex 0 -9.2 0.799999
    endloop
  endfacet
  facet normal 0 0 1
    outer loop
      vertex 0 11.6797 0.799999
      vertex -2.40915 10.8 0.799999
      vertex -2.66318 10 0.799999
    endloop
  endfacet
  facet normal 0 0 1
    outer loop
      vertex -3.43376 14.8425 0.799999
      vertex -2.40915 10.8 0.799999
      vertex 0 13.9524 0.799999
    endloop
  endfacet
  facet normal 0 0 1
    outer loop
      vertex -2.40915 10.8 0.799999
      vertex -3.43376 14.8425 0.799999
      vertex -4.71741 10.8 0.799999
    endloop
  endfacet
  facet normal 0 0 1
    outer loop
      vertex 6.15574 0.799999 0.799999
      vertex 0 11.6797 0.799999
      vertex 0.799999 -5.11674 0.799999
    endloop
  endfacet
  facet normal 0 0 1
    outer loop
      vertex 0.799999 -5.11674 0.799999
      vertex 0 11.6797 0.799999
      vertex 0.656891 -5.18904 0.799999
    endloop
  endfacet
  facet normal 0 0 1
    outer loop
      vertex 0.656891 -5.18904 0.799999
      vertex 0 11.6797 0.799999
      vertex 0 -6.58356 0.799999
    endloop
  endfacet
  facet normal 0 0 1
    outer loop
      vertex 4.09164 12.8918 0.799999
      vertex 3.23665 10.8 0.799999
      vertex 7.03102 10.8 0.799999
    endloop
  endfacet
  facet normal 0 0 1
    outer loop
      vertex 7.06758 -4.41519 0.799999
      vertex 0.799999 -5.11674 0.799999
      vertex 2.32455 -6.81136 0.799999
    endloop
  endfacet
  facet normal 0 0 1
    outer loop
      vertex 0.799999 11.4723 0.799999
      vertex 4.09164 12.8918 0.799999
      vertex 0.799999 13.745 0.799999
    endloop
  endfacet
  facet normal 0 0 1
    outer loop
      vertex 4.09164 12.8918 0.799999
      vertex 0.799999 11.4723 0.799999
      vertex 3.23665 10.8 0.799999
    endloop
  endfacet
  facet normal 0 0 1
    outer loop
      vertex 6.15574 0.799999 0.799999
      vertex 0.799999 -5.11674 0.799999
      vertex 6.29128 0 0.799999
    endloop
  endfacet
  facet normal 0 0 1
    outer loop
      vertex 0.799999 -9.2 0.799999
      vertex 2.32455 -6.81136 0.799999
      vertex 0.799999 -5.11674 0.799999
    endloop
  endfacet
  facet normal 0 0 1
    outer loop
      vertex 2.32455 -6.81136 0.799999
      vertex 0.799999 -9.2 0.799999
      vertex 1.19938 -9.2 0.799999
    endloop
  endfacet
  facet normal -0 0 1
    outer loop
      vertex -1.60932 -10 0.799999
      vertex 0 -11.7462 0.799999
      vertex 0 -10 0.799999
    endloop
  endfacet
  facet normal -0 0 1
    outer loop
      vertex -2.307 -10 0.799999
      vertex 0 -11.7462 0.799999
      vertex -1.60932 -10 0.799999
    endloop
  endfacet
  facet normal 0 0 1
    outer loop
      vertex 0 -11.7462 0.799999
      vertex -2.307 -10 0.799999
      vertex -2.89185 -13.8227 0.799999
    endloop
  endfacet
  facet normal 0 0 1
    outer loop
      vertex 0 -11.7462 0.799999
      vertex -2.89185 -13.8227 0.799999
      vertex -1.05782 -13.9918 0.799999
    endloop
  endfacet
  facet normal 0 0 1
    outer loop
      vertex -2.307 -10 0.799999
      vertex -4.44057 -10.6437 0.799999
      vertex -2.89185 -13.8227 0.799999
    endloop
  endfacet
  facet normal 0 -0 1
    outer loop
      vertex -4.44057 -10.6437 0.799999
      vertex -2.307 -10 0.799999
      vertex -4.67219 -10 0.799999
    endloop
  endfacet
  facet normal 0 0 1
    outer loop
      vertex 0 -6.58356 0.799999
      vertex -2.62198 -9.2 0.799999
      vertex -1.23248 -9.2 0.799999
    endloop
  endfacet
  facet normal 0 0 1
    outer loop
      vertex -1.23248 -9.2 0.799999
      vertex -2.41072 -9.78711 0.799999
      vertex -1.60932 -10 0.799999
    endloop
  endfacet
  facet normal 0 0 1
    outer loop
      vertex -1.60932 -10 0.799999
      vertex -2.41072 -9.78711 0.799999
      vertex -2.307 -10 0.799999
    endloop
  endfacet
  facet normal 0 -0 1
    outer loop
      vertex -2.41072 -9.78711 0.799999
      vertex -1.23248 -9.2 0.799999
      vertex -2.62198 -9.2 0.799999
    endloop
  endfacet
  facet normal 0 0 1
    outer loop
      vertex 0 -6.58356 0.799999
      vertex -4.96005 -9.2 0.799999
      vertex -2.62198 -9.2 0.799999
    endloop
  endfacet
  facet normal 0 0 1
    outer loop
      vertex -2.66318 10 0.799999
      vertex -6.2202 0.799999 0.799999
      vertex -5.93234 0 0.799999
    endloop
  endfacet
  facet normal -0 0 1
    outer loop
      vertex -9.2 3.97626 0.799999
      vertex -6.2202 0.799999 0.799999
      vertex -2.66318 10 0.799999
    endloop
  endfacet
  facet normal 0 0 1
    outer loop
      vertex -9.2 3.97626 0.799999
      vertex -2.66318 10 0.799999
      vertex -9.2 10 0.799999
    endloop
  endfacet
  facet normal 0 0 1
    outer loop
      vertex -6.2202 0.799999 0.799999
      vertex -9.2 3.97626 0.799999
      vertex -8.50356 0.799999 0.799999
    endloop
  endfacet
  facet normal 0 0 1
    outer loop
      vertex -4.96005 -9.2 0.799999
      vertex -5.93234 0 0.799999
      vertex -8.27042 0 0.799999
    endloop
  endfacet
  facet normal 0 0 1
    outer loop
      vertex -10 11.2866 0.799999
      vertex -10.6962 10.8 0.799999
      vertex -10 10.8 0.799999
    endloop
  endfacet
  facet normal 0 -0 1
    outer loop
      vertex -10.6962 10.8 0.799999
      vertex -10 11.2866 0.799999
      vertex -10.8195 11.3622 0.799999
    endloop
  endfacet
  facet normal 0 0 1
    outer loop
      vertex -10 10 0.799999
      vertex -10.5208 10 0.799999
      vertex -10 7.62484 0.799999
    endloop
  endfacet
  facet normal 0 0 1
    outer loop
      vertex -9.2 11.2128 0.799999
      vertex -9.2 10.8 0.799999
      vertex -4.72418 10.8 0.799999
    endloop
  endfacet
  facet normal -0 0 1
    outer loop
      vertex 0.799999 -10 0.799999
      vertex 0.799999 -10.0478 0.799999
      vertex 0.822538 -10 0.799999
    endloop
  endfacet
  facet normal -0.450921 0.892564 0
    outer loop
      vertex 7.06758 -4.41519 0.799999
      vertex 2.32455 -6.81136 25
      vertex 7.06758 -4.41519 25
    endloop
  endfacet
  facet normal -0.450921 0.892564 0
    outer loop
      vertex 2.32455 -6.81136 25
      vertex 7.06758 -4.41519 0.799999
      vertex 2.32455 -6.81136 0.799999
    endloop
  endfacet
  facet normal -0.943119 0.332455 0
    outer loop
      vertex 8.62396 0 0.799999
      vertex 7.06758 -4.41519 0.799999
      vertex 8.62396 0 23
    endloop
  endfacet
  facet normal -0.943131 0.332421 0
    outer loop
      vertex 8.62396 0 23
      vertex 8.65489 0.0877533 25
      vertex 8.65489 0.0877533 23
    endloop
  endfacet
  facet normal -0.943119 0.332455 0
    outer loop
      vertex 7.06758 -4.41519 25
      vertex 8.62396 0 23
      vertex 7.06758 -4.41519 0.799999
    endloop
  endfacet
  facet normal -0.943119 0.332454 -1.63936e-06
    outer loop
      vertex 8.62396 0 23
      vertex 7.06758 -4.41519 25
      vertex 8.65489 0.0877533 25
    endloop
  endfacet
  facet normal -0.960051 -0.279825 -0
    outer loop
      vertex 8.4473 0.799999 23
      vertex 7.4308 4.28751 0.799999
      vertex 8.4473 0.799999 0.799999
    endloop
  endfacet
  facet normal -0.960051 -0.279825 0
    outer loop
      vertex 7.4308 4.28751 0.799999
      vertex 8.4473 0.799999 23
      vertex 7.4308 4.28751 25
    endloop
  endfacet
  facet normal -0.960054 -0.279816 -0
    outer loop
      vertex 8.65489 0.0877533 25
      vertex 8.4473 0.799999 23
      vertex 8.65489 0.0877533 23
    endloop
  endfacet
  facet normal -0.960052 -0.279823 -2.89696e-06
    outer loop
      vertex 8.4473 0.799999 23
      vertex 8.65489 0.0877533 25
      vertex 7.4308 4.28751 25
    endloop
  endfacet
  facet normal -0.952523 0.304465 0
    outer loop
      vertex 7.4308 4.28751 0.799999
      vertex 9.05261 9.36136 25
      vertex 9.05261 9.36136 0.799999
    endloop
  endfacet
  facet normal -0.952523 0.304465 0
    outer loop
      vertex 9.05261 9.36136 25
      vertex 7.4308 4.28751 0.799999
      vertex 7.4308 4.28751 25
    endloop
  endfacet
  facet normal -0.579812 -0.814751 4.29621e-06
    outer loop
      vertex 4.09164 12.8918 25
      vertex 7.03102 10.8 23
      vertex 9.05261 9.36136 25
    endloop
  endfacet
  facet normal -0.579814 -0.814749 0
    outer loop
      vertex 4.09164 12.8918 0.799999
      vertex 7.03102 10.8 23
      vertex 4.09164 12.8918 25
    endloop
  endfacet
  facet normal -0.579814 -0.814749 -0
    outer loop
      vertex 7.03102 10.8 23
      vertex 4.09164 12.8918 0.799999
      vertex 7.03102 10.8 0.799999
    endloop
  endfacet
  facet normal -0.579808 -0.814753 -1.42372e-06
    outer loop
      vertex 8.15519 10 23
      vertex 9.05261 9.36136 25
      vertex 7.03102 10.8 23
    endloop
  endfacet
  facet normal -0.57981 -0.814752 0
    outer loop
      vertex 9.05261 9.36136 0.799999
      vertex 8.15519 10 23
      vertex 8.15519 10 0.799999
    endloop
  endfacet
  facet normal -0.57981 -0.814752 0
    outer loop
      vertex 8.15519 10 23
      vertex 9.05261 9.36136 0.799999
      vertex 9.05261 9.36136 25
    endloop
  endfacet
  facet normal -0.250922 -0.968007 7.90495e-06
    outer loop
      vertex -3.43376 14.8425 25
      vertex 0 13.9524 23
      vertex 4.09164 12.8918 25
    endloop
  endfacet
  facet normal -0.250927 -0.968006 0
    outer loop
      vertex -3.43376 14.8425 0.799999
      vertex 0 13.9524 23
      vertex -3.43376 14.8425 25
    endloop
  endfacet
  facet normal -0.250927 -0.968006 -0
    outer loop
      vertex 0 13.9524 23
      vertex -3.43376 14.8425 0.799999
      vertex 0 13.9524 0.799999
    endloop
  endfacet
  facet normal -0.250954 -0.967999 7.6954e-05
    outer loop
      vertex 0.799999 13.745 23
      vertex 4.09164 12.8918 25
      vertex 0 13.9524 23
    endloop
  endfacet
  facet normal -0.25091 -0.96801 0
    outer loop
      vertex 4.09164 12.8918 0.799999
      vertex 0.799999 13.745 23
      vertex 0.799999 13.745 0.799999
    endloop
  endfacet
  facet normal -0.25091 -0.96801 0
    outer loop
      vertex 0.799999 13.745 23
      vertex 4.09164 12.8918 0.799999
      vertex 4.09164 12.8918 25
    endloop
  endfacet
  facet normal 0.953103 -0.302647 0
    outer loop
      vertex -3.43376 14.8425 25
      vertex -4.71741 10.8 23
      vertex -3.43376 14.8425 0.799999
    endloop
  endfacet
  facet normal 0.953102 -0.302649 4.51551e-06
    outer loop
      vertex -4.71761 10.7994 25
      vertex -4.71741 10.8 23
      vertex -3.43376 14.8425 25
    endloop
  endfacet
  facet normal 0.948683 -0.316228 0
    outer loop
      vertex -4.71741 10.8 23
      vertex -4.71761 10.7994 25
      vertex -4.71761 10.7994 23
    endloop
  endfacet
  facet normal 0.953103 -0.302647 0
    outer loop
      vertex -3.43376 14.8425 0.799999
      vertex -4.71741 10.8 23
      vertex -4.71741 10.8 0.799999
    endloop
  endfacet
  facet normal -0.0918391 -0.995774 0
    outer loop
      vertex -9.2 11.2128 0.799999
      vertex -4.72418 10.8 23
      vertex -9.2 11.2128 23
    endloop
  endfacet
  facet normal -0.0918391 -0.995774 -0
    outer loop
      vertex -4.72418 10.8 23
      vertex -9.2 11.2128 0.799999
      vertex -4.72418 10.8 0.799999
    endloop
  endfacet
  facet normal -0.09186 -0.995772 5.60122e-07
    outer loop
      vertex -9.2 11.2128 23
      vertex -10.8195 11.3622 25
      vertex -10 11.2866 23
    endloop
  endfacet
  facet normal -0.0918613 -0.995772 0
    outer loop
      vertex -10.8195 11.3622 0.799999
      vertex -10 11.2866 23
      vertex -10.8195 11.3622 25
    endloop
  endfacet
  facet normal -0.0918613 -0.995772 -0
    outer loop
      vertex -10 11.2866 23
      vertex -10.8195 11.3622 0.799999
      vertex -10 11.2866 0.799999
    endloop
  endfacet
  facet normal -0.0918439 -0.995773 1.36889e-05
    outer loop
      vertex -10.8195 11.3622 25
      vertex -9.2 11.2128 23
      vertex -4.71761 10.7994 25
    endloop
  endfacet
  facet normal -0.0918391 -0.995774 2.95941e-06
    outer loop
      vertex -4.72418 10.8 23
      vertex -4.71761 10.7994 25
      vertex -9.2 11.2128 23
    endloop
  endfacet
  facet normal -0.0909457 -0.995856 -0
    outer loop
      vertex -4.71761 10.7994 25
      vertex -4.72418 10.8 23
      vertex -4.71761 10.7994 23
    endloop
  endfacet
  facet normal 0.976784 0.214225 0
    outer loop
      vertex -10.8195 11.3622 25
      vertex -10.6962 10.8 23
      vertex -10.8195 11.3622 0.799999
    endloop
  endfacet
  facet normal 0.976798 0.214163 1.83882e-05
    outer loop
      vertex -10.8195 11.3622 25
      vertex -10.5208 10 23
      vertex -10.6962 10.8 23
    endloop
  endfacet
  facet normal 0.976794 0.214181 0
    outer loop
      vertex -10.5208 10 23
      vertex -10 7.62484 23
      vertex -10.5208 10 0.799999
    endloop
  endfacet
  facet normal 0.976794 0.214181 5.4557e-06
    outer loop
      vertex -10.8195 11.3622 25
      vertex -10 7.62484 23
      vertex -10.5208 10 23
    endloop
  endfacet
  facet normal 0.976794 0.214179 1.01351e-05
    outer loop
      vertex -8.41821 0.410751 25
      vertex -10 7.62484 23
      vertex -10.8195 11.3622 25
    endloop
  endfacet
  facet normal 0.976795 0.214176 0
    outer loop
      vertex -9.2 3.97626 23
      vertex -8.50356 0.799999 23
      vertex -9.2 3.97626 0.799999
    endloop
  endfacet
  facet normal 0.976795 0.214175 -2.16293e-06
    outer loop
      vertex -10 7.62484 23
      vertex -8.41821 0.410751 25
      vertex -9.2 3.97626 23
    endloop
  endfacet
  facet normal 0.976795 0.214176 -9.22471e-07
    outer loop
      vertex -9.2 3.97626 23
      vertex -8.41821 0.410751 25
      vertex -8.50356 0.799999 23
    endloop
  endfacet
  facet normal 0.976794 0.214181 0
    outer loop
      vertex -8.50356 0.799999 23
      vertex -8.41821 0.410751 25
      vertex -8.41821 0.410751 23
    endloop
  endfacet
  facet normal 0.976784 0.214225 0
    outer loop
      vertex -10.8195 11.3622 0.799999
      vertex -10.6962 10.8 23
      vertex -10.6962 10.8 0.799999
    endloop
  endfacet
  facet normal 0.976794 0.214181 0
    outer loop
      vertex -10.5208 10 0.799999
      vertex -10 7.62484 23
      vertex -10 7.62484 0.799999
    endloop
  endfacet
  facet normal 0.976795 0.214176 0
    outer loop
      vertex -9.2 3.97626 0.799999
      vertex -8.50356 0.799999 23
      vertex -8.50356 0.799999 0.799999
    endloop
  endfacet
  facet normal 0.940946 0.338556 0
    outer loop
      vertex -8.41821 0.410751 25
      vertex -8.27042 0 23
      vertex -8.41821 0.410751 23
    endloop
  endfacet
  facet normal 0.940941 0.338572 0
    outer loop
      vertex -8.27042 0 23
      vertex -4.96005 -9.2 23
      vertex -8.27042 0 0.799999
    endloop
  endfacet
  facet normal 0.940941 0.338572 -3.56882e-06
    outer loop
      vertex -8.41821 0.410751 25
      vertex -4.96005 -9.2 23
      vertex -8.27042 0 23
    endloop
  endfacet
  facet normal 0.940941 0.338572 -2.01465e-06
    outer loop
      vertex -4.44057 -10.6437 25
      vertex -4.96005 -9.2 23
      vertex -8.41821 0.410751 25
    endloop
  endfacet
  facet normal 0.94094 0.338574 -3.04629e-07
    outer loop
      vertex -4.96005 -9.2 23
      vertex -4.44057 -10.6437 25
      vertex -4.67219 -10 23
    endloop
  endfacet
  facet normal 0.94094 0.338575 -0
    outer loop
      vertex -4.44057 -10.6437 0.799999
      vertex -4.67219 -10 23
      vertex -4.44057 -10.6437 25
    endloop
  endfacet
  facet normal 0.94094 0.338575 0
    outer loop
      vertex -4.67219 -10 23
      vertex -4.44057 -10.6437 0.799999
      vertex -4.67219 -10 0.799999
    endloop
  endfacet
  facet normal 0.940941 0.338572 0
    outer loop
      vertex -8.27042 0 0.799999
      vertex -4.96005 -9.2 23
      vertex -4.96005 -9.2 0.799999
    endloop
  endfacet
  facet normal 0.898992 0.437964 0
    outer loop
      vertex -2.89185 -13.8227 25
      vertex -4.44057 -10.6437 0.799999
      vertex -4.44057 -10.6437 25
    endloop
  endfacet
  facet normal 0.898992 0.437964 0
    outer loop
      vertex -4.44057 -10.6437 0.799999
      vertex -2.89185 -13.8227 25
      vertex -2.89185 -13.8227 0.799999
    endloop
  endfacet
  facet normal 0.0918119 0.995776 -0
    outer loop
      vertex -1.05782 -13.9918 0.799999
      vertex -2.89185 -13.8227 25
      vertex -1.05782 -13.9918 25
    endloop
  endfacet
  facet normal 0.0918119 0.995776 0
    outer loop
      vertex -2.89185 -13.8227 25
      vertex -1.05782 -13.9918 0.799999
      vertex -2.89185 -13.8227 0.799999
    endloop
  endfacet
  facet normal -0.904653 0.426149 0
    outer loop
      vertex 0 -11.7462 0.799999
      vertex -1.05782 -13.9918 0.799999
      vertex 0 -11.7462 23
    endloop
  endfacet
  facet normal -0.904491 0.426492 0
    outer loop
      vertex 0.822538 -10 0.799999
      vertex 0.799999 -10.0478 0.799999
      vertex 0.822538 -10 23
    endloop
  endfacet
  facet normal -0.904658 0.426139 0
    outer loop
      vertex 1.19938 -9.2 23
      vertex 2.32455 -6.81136 0.799999
      vertex 1.19938 -9.2 0.799999
    endloop
  endfacet
  facet normal -0.904658 0.426139 0
    outer loop
      vertex 2.32455 -6.81136 0.799999
      vertex 1.19938 -9.2 23
      vertex 2.32455 -6.81136 25
    endloop
  endfacet
  facet normal -0.904657 0.426141 -2.1909e-06
    outer loop
      vertex 0.822538 -10 23
      vertex 2.32455 -6.81136 25
      vertex 1.19938 -9.2 23
    endloop
  endfacet
  facet normal -0.904491 0.426492 0
    outer loop
      vertex 0.799999 -10.0478 23
      vertex 0.822538 -10 23
      vertex 0.799999 -10.0478 0.799999
    endloop
  endfacet
  facet normal -0.904491 0.426492 -0.000686726
    outer loop
      vertex 0.799999 -10.0478 23
      vertex 2.32455 -6.81136 25
      vertex 0.822538 -10 23
    endloop
  endfacet
  facet normal -0.904664 0.426125 -3.29538e-05
    outer loop
      vertex -1.05782 -13.9918 25
      vertex 0.799999 -10.0478 23
      vertex 0 -11.7462 23
    endloop
  endfacet
  facet normal -0.904657 0.426141 6.89284e-06
    outer loop
      vertex 0.799999 -10.0478 23
      vertex -1.05782 -13.9918 25
      vertex 2.32455 -6.81136 25
    endloop
  endfacet
  facet normal -0.904653 0.426149 0
    outer loop
      vertex -1.05782 -13.9918 25
      vertex 0 -11.7462 23
      vertex -1.05782 -13.9918 0.799999
    endloop
  endfacet
endsolid OpenSCAD_Model
