<svg xmlns="http://www.w3.org/2000/svg">
      <path d="M -32.72,-4.68 -34.29,-7.53 -32.5,-10.59 -38.09,-33.08 -33.17,-36.25 -32.61,-38.25 -24.33,-41.63 -22.99,-45.22 -18.51,-44.27 -9.79,-49.55 -2.18,-42.06 5.43,-43.64 7.33,-47.65 12.71,-46.17 18.52,-47.44 26.8,-54.73 25.01,-55.68 20.43,-52.51 16.62,-60.96 26.92,-64.86 26.8,-71.09 25.13,-74.9 27.92,-76.48 27.03,-81.44 45.15,-89.57 50.19,-77.54 46.61,-65.71 44.04,-55.26 45.49,-53.25 53.32,-47.65 40.46,-40.37 39.34,-40.79 32.51,-34.98 19.2,-25.16 12.26,-21.04 9.46,-24.95 6.66,-22.94 6.1,-18.83 9.46,-6.79 18.86,6.31 16.17,8.21 4.65,10.95 9.8,31.97 10.58,39.78 7.67,44.85 -0.16,50.66 -7.44,51.61 -22.43,51.5 -25.56,52.98 -25,57.2 -22.09,59 -23.21,62.38 -17.73,76.32 -13.37,75.79 -11.46,74.2 -8,60.16 -3.63,56.78 -3.63,60.26 -0.72,60.26 -0.5,68.61 -7.1,69.98 -8.67,75.47 -9.45,78.96 -17.39,80.96 -21.65,70.93 -24.89,65.12 -27.13,58.05 -26.57,48.76 -23.44,40.52 -25,39.36 -22.54,34.92 -23.55,26.9 -27.13,12.11 -31.27,-1.61 -32.72,-4.68 Z" />
    </svg>
